<svg width="300" height="301" viewBox="0 0 300 301" fill="none" xmlns="http://www.w3.org/2000/svg">
<mask id="mask0_1839_6552" style="mask-type:alpha" maskUnits="userSpaceOnUse" x="0" y="0" width="300" height="301">
<rect y="0.351471" width="299.906" height="299.906" rx="10" fill="#FF5E00"/>
</mask>
<g mask="url(#mask0_1839_6552)">
<path d="M-14.2109 -20.1199C-11.5207 -2.54121 -1.83128 13.4315 10.6705 26.0756C23.1722 38.7198 38.402 48.3264 54.0009 56.8644C97.1818 80.4932 145.531 96.9576 194.731 95.4339C209.426 94.9777 224.326 92.8473 237.626 86.5766C249.924 80.7807 261.588 68.8043 259.201 55.422C257.327 44.9669 247.6 37.8474 238.008 33.2873C221.433 25.4106 203.125 21.8272 184.859 20.0052C159.508 17.4775 133.513 18.2739 109.158 25.7604C84.8024 33.2468 62.1415 47.8462 47.9069 68.9737C42.0643 77.6437 37.6285 87.5889 37.2311 98.0358C36.3131 121.973 56.2769 141.658 77.2809 153.148C111.041 171.635 151.556 177.433 189.145 169.158C197.943 167.224 206.861 164.391 213.667 158.479C220.473 152.567 224.668 142.923 221.941 134.331C218.852 124.641 208.49 119.412 198.839 116.158C169.224 106.186 137.041 105.02 106.229 110.211C89.8027 112.985 73.3105 117.705 59.7701 127.41C46.2297 137.116 35.9814 152.501 35.7208 169.162C35.501 183.248 42.412 196.808 52.268 206.884C62.1241 216.959 74.7271 223.928 87.6467 229.559C108.352 238.584 130.84 244.597 153.376 243.109C160.141 242.662 167.105 241.448 172.715 237.641C178.325 233.834 182.246 226.887 180.768 220.27C179.489 214.532 174.631 210.321 169.681 207.145C151.808 195.677 128.885 192.424 108.524 198.465C99.5747 201.122 90.3541 206.369 87.5521 215.274C84.5781 224.728 89.9305 234.867 96.7268 242.075C106.798 252.732 120.111 259.771 133.654 265.413C188.46 288.252 251.453 290.824 307.939 272.525" stroke="#FF5E00" stroke-width="3" stroke-miterlimit="10"/>
</g>
<path d="M92.989 141.463L95.0751 129.056C95.1925 128.352 95.3098 127.612 95.0751 126.941C94.8144 126.219 94.2016 125.698 93.6435 125.173C91.7598 123.394 90.3185 121.198 89.4348 118.761C88.8768 117.215 88.9133 114.949 90.4909 114.527C91.2732 114.318 92.092 114.712 92.7569 115.178C94.2169 116.216 95.3555 117.644 96.0426 119.298C95.0503 116.781 94.6436 114.071 94.8535 111.374C94.9343 110.331 95.1351 109.246 95.8366 108.479C96.538 107.713 97.8783 107.457 98.6006 108.203C98.9112 108.582 99.1171 109.036 99.1978 109.52C99.7245 111.658 99.9621 113.856 99.9045 116.057C100.33 114.115 99.9697 112.039 100.562 110.138C101.154 108.237 103.414 106.576 105.075 107.674C106.064 108.328 106.351 109.642 106.437 110.826C106.623 113.41 106.26 116.004 105.373 118.438C105.707 116.543 106.745 114.844 108.278 113.682C108.854 113.249 109.626 112.899 110.275 113.204C111.164 113.635 111.125 114.907 110.877 115.864C110.328 117.992 109.439 120.017 108.244 121.862C109.446 120.863 111.211 119.846 112.416 120.834C112.876 121.265 113.164 121.849 113.224 122.477C113.579 124.754 112.442 126.965 111.321 128.983C109.189 132.863 107.057 136.744 104.924 140.624C102.577 144.9 99.735 149.573 95.0152 150.82C94.2329 151.031 93.3124 151.114 92.6266 150.658C91.6643 150.016 91.5835 148.647 91.6748 147.495C91.8808 145.038 92.7778 142.715 92.989 141.463Z" fill="#FF755E"/>
<path d="M106.96 161.198L101.721 180.39L83.4493 185.478L67.707 165.117L74.5729 148.874L92.9541 142.986L106.96 161.198Z" fill="#FFA6FB"/>
<path d="M67.1386 136.611L62.7734 147.104L74.1401 160.768L85.1834 156.658L87.7572 147.86L76.7477 134.498L67.1386 136.611Z" fill="#FF755E"/>
<path d="M79.0889 230.571C85.9843 230.571 91.5742 224.982 91.5742 218.086C91.5742 211.191 85.9843 205.601 79.0889 205.601C72.1934 205.601 66.6035 211.191 66.6035 218.086C66.6035 224.982 72.1934 230.571 79.0889 230.571Z" fill="black"/>
<path d="M149.575 152.921C149.575 159.125 144.534 164.265 138.318 164.153C132.101 164.04 127.053 159.125 127.053 152.921C127.098 149.966 128.303 147.147 130.409 145.072C132.515 142.998 135.353 141.836 138.309 141.836C141.264 141.836 144.102 142.998 146.208 145.072C148.314 147.147 149.519 149.966 149.564 152.921H149.575Z" fill="black"/>
<path d="M75.186 164.259C76.9969 164.897 78.5462 166.116 79.5929 167.725C80.3883 168.956 80.8524 170.572 80.1875 171.879C79.1444 173.929 76.2526 173.91 73.9891 173.524C68.2398 172.54 62.5844 171.069 57.0839 169.128C56.2651 168.838 55.4254 168.533 54.5571 168.552C53.8928 168.603 53.2376 168.737 52.6066 168.951C50.3262 169.6 47.9838 170.008 45.6181 170.168C44.4447 170.247 43.0731 170.168 42.3768 169.227C41.5711 168.129 42.2569 166.458 43.4199 165.746C44.5829 165.034 46.0275 165.021 47.3887 165.026C45.0198 164.799 42.7227 164.089 40.6397 162.938C38.5567 161.788 36.732 160.222 35.2788 158.337C34.653 157.519 34.0819 156.447 34.4966 155.5C35.0702 154.197 36.9347 154.243 38.3167 154.609C40.7175 155.238 43.0366 156.146 45.227 157.313C43.3393 156.303 41.7277 154.847 40.5332 153.07C40.1316 152.47 39.7718 151.811 39.7327 151.091C39.6936 150.371 40.056 149.586 40.734 149.339C41.2216 149.159 41.7771 149.281 42.2647 149.438C44.7603 150.215 46.9751 151.703 48.6377 153.719C47.6207 152.368 46.8856 150.826 46.476 149.185C46.3537 148.818 46.3384 148.425 46.4317 148.05C46.6924 147.252 47.759 147.044 48.5856 147.213C50.8438 147.68 52.3432 149.79 53.4619 151.805C52.969 150.603 52.6092 148.937 53.707 148.243C54.6196 147.664 55.8296 148.303 56.5571 149.104C57.9965 150.689 58.6198 152.861 59.947 154.538C61.2743 156.215 63.131 157.232 64.9615 158.246C68.62 160.262 71.8535 163.107 75.186 164.259Z" fill="#FF755E"/>
<path d="M100.065 154.695C98.876 156.674 97.9321 157.79 98.0442 159.91C98.1563 162.03 99.6349 164.082 101.679 164.692C103.588 165.263 105.645 164.604 107.44 163.735C108.737 163.107 109.979 162.368 111.15 161.527C111.672 161.151 112.193 160.744 112.829 160.611C113.33 160.537 113.841 160.551 114.337 160.653L137.805 164.129C136.011 164.056 134.58 162.664 133.372 161.339C131.698 159.514 130.04 157.574 129.2 155.24C128.714 153.893 128.517 152.459 128.622 151.031C128.727 149.603 129.133 148.213 129.811 146.952C130.49 145.692 131.427 144.588 132.561 143.714C133.695 142.839 135 142.214 136.392 141.878L110.777 145.79C109.335 146.009 107.859 146.241 106.574 146.927C105.233 147.644 104.19 148.809 103.244 149.998C102.081 151.491 101.019 153.06 100.065 154.695Z" fill="#FF0000"/>
<path d="M90.3172 177.524C89.7539 175.052 86.7213 173.754 84.2649 174.38C81.8085 175.005 79.9466 177.045 78.6924 179.248C77.4381 181.451 76.6375 183.89 75.4041 186.103C74.5123 187.705 73.3937 189.188 72.687 190.878C71.9047 192.758 71.6439 194.81 71.3493 196.826C70.5423 202.378 69.2482 207.848 67.4822 213.173C67.3494 213.515 67.2533 213.87 67.1953 214.232C68.6764 210.581 72.0455 208.367 75.8631 207.358C80.682 206.083 86.4996 207.275 89.2689 211.418C91.2611 214.396 91.0473 218.094 91.0551 221.679C91.3983 220.587 91.6076 219.458 91.6784 218.316C92.1138 209.189 91.8505 200.041 90.2416 191.021C89.9808 189.595 89.7044 188.137 89.9573 186.711C90.1685 185.527 90.7396 184.442 91.1933 183.321C92.1764 180.938 92.6328 178.064 91.2664 175.879C89.9417 173.759 87.0941 172.87 84.6795 173.493C82.2648 174.116 80.3091 176.041 79.253 178.304" fill="#FF0000"/>
<mask id="mask1_1839_6552" style="mask-type:alpha" maskUnits="userSpaceOnUse" x="98" y="141" width="40" height="24">
<path d="M100.055 154.694C98.8663 156.674 97.9223 157.79 98.0344 159.91C98.1466 162.03 99.6251 164.082 101.669 164.692C103.578 165.263 105.636 164.603 107.43 163.735C108.728 163.107 109.969 162.368 111.14 161.526C111.662 161.151 112.183 160.744 112.82 160.611C113.321 160.536 113.831 160.551 114.327 160.653L137.796 164.129C136.002 164.056 134.57 162.663 133.363 161.339C131.689 159.513 130.03 157.573 129.19 155.239C128.704 153.893 128.507 152.459 128.612 151.031C128.718 149.603 129.123 148.213 129.801 146.952C130.48 145.691 131.417 144.588 132.551 143.713C133.685 142.839 134.99 142.214 136.382 141.878L110.768 145.789C109.325 146.008 107.85 146.241 106.564 146.926C105.224 147.643 104.181 148.809 103.234 149.998C102.071 151.491 101.009 153.06 100.055 154.694Z" fill="#FF0000"/>
</mask>
<g mask="url(#mask1_1839_6552)">
<path d="M104.616 170.492C108.228 170.492 111.156 167.563 111.156 163.952C111.156 160.34 108.228 157.412 104.616 157.412C101.004 157.412 98.0762 160.34 98.0762 163.952C98.0762 167.563 101.004 170.492 104.616 170.492Z" fill="white"/>
<path d="M109.475 153.091C113.087 153.091 116.015 150.163 116.015 146.551C116.015 142.939 113.087 140.011 109.475 140.011C105.864 140.011 102.936 142.939 102.936 146.551C102.936 150.163 105.864 153.091 109.475 153.091Z" fill="white"/>
<path d="M129.533 171.386C134.515 171.386 138.553 167.347 138.553 162.366C138.553 157.384 134.515 153.346 129.533 153.346C124.552 153.346 120.514 157.384 120.514 162.366C120.514 167.347 124.552 171.386 129.533 171.386Z" fill="white"/>
</g>
<mask id="mask2_1839_6552" style="mask-type:alpha" maskUnits="userSpaceOnUse" x="67" y="173" width="26" height="49">
<path d="M90.3055 177.524C89.7422 175.052 86.7095 173.754 84.2532 174.38C81.7968 175.005 79.9349 177.045 78.6806 179.248C77.4264 181.451 76.6258 183.89 75.3924 186.103C74.5006 187.705 73.3819 189.188 72.6753 190.878C71.893 192.758 71.6322 194.81 71.3376 196.826C70.5305 202.378 69.2365 207.848 67.4704 213.173C67.3377 213.515 67.2415 213.87 67.1836 214.232C68.6647 210.581 72.0338 208.367 75.8514 207.358C80.6703 206.083 86.4879 207.275 89.2572 211.418C91.2494 214.396 91.0356 218.094 91.0434 221.679C91.3866 220.587 91.5959 219.458 91.6666 218.316C92.1021 209.189 91.8387 200.041 90.2298 191.021C89.9691 189.595 89.6927 188.137 89.9456 186.711C90.1568 185.527 90.7279 184.442 91.1816 183.321C92.1647 180.938 92.621 178.064 91.2546 175.879C89.93 173.759 87.0824 172.87 84.6678 173.493C82.2531 174.116 80.2974 176.041 79.2413 178.304" fill="#FF0000"/>
</mask>
<g mask="url(#mask2_1839_6552)">
<path d="M92.6757 207.223C95.8771 207.223 98.4724 204.627 98.4724 201.426C98.4724 198.225 95.8771 195.629 92.6757 195.629C89.4742 195.629 86.8789 198.225 86.8789 201.426C86.8789 204.627 89.4742 207.223 92.6757 207.223Z" fill="white"/>
<path d="M79.5546 182.403C82.756 182.403 85.3513 179.808 85.3513 176.607C85.3513 173.405 82.756 170.81 79.5546 170.81C76.3531 170.81 73.7578 173.405 73.7578 176.607C73.7578 179.808 76.3531 182.403 79.5546 182.403Z" fill="white"/>
<path d="M90.8593 192.568C94.0607 192.568 96.656 189.973 96.656 186.771C96.656 183.57 94.0607 180.974 90.8593 180.974C87.6578 180.974 85.0625 183.57 85.0625 186.771C85.0625 189.973 87.6578 192.568 90.8593 192.568Z" fill="white"/>
<path d="M72.6249 200.837C75.8264 200.837 78.4217 198.241 78.4217 195.04C78.4217 191.838 75.8264 189.243 72.6249 189.243C69.4234 189.243 66.8281 191.838 66.8281 195.04C66.8281 198.241 69.4234 200.837 72.6249 200.837Z" fill="white"/>
</g>
<path d="M153.599 154.913C158.641 146.985 158.845 138.089 154.055 135.043C149.266 131.998 141.296 135.957 136.255 143.885C131.214 151.814 131.01 160.71 135.799 163.755C140.588 166.801 148.558 162.842 153.599 154.913Z" fill="#FFA6FB"/>
<path d="M80.5511 228.5C86.0674 227.164 88.7469 218.679 86.536 209.547C84.3251 200.415 78.061 194.095 72.5447 195.431C67.0285 196.766 64.3489 205.252 66.5598 214.383C68.7707 223.515 75.0348 229.835 80.5511 228.5Z" fill="#FFA6FB"/>
<path d="M70.0037 109.241C71.6257 111.465 70.2228 115.531 71.4614 117.789C72.8043 120.235 76.9713 121.286 77.8449 123.666C78.828 126.345 76.2647 129.776 76.6323 132.219C77.073 135.145 80.3769 137.935 79.8919 140.269C79.2973 143.153 75.3416 143.779 73.2685 145.292C71.1954 146.804 69.3883 150.382 66.4626 150.069C64.0923 149.808 62.4442 145.821 59.7923 144.509C57.5784 143.414 53.534 144.809 51.2757 143.054C49.2757 141.49 49.5469 137.205 47.6251 135.182C45.8519 133.315 41.5545 133.409 39.9326 131.184C38.3106 128.96 39.7109 124.897 38.4749 122.639C37.132 120.193 32.965 119.142 32.0914 116.761C31.1057 114.081 33.656 110.649 33.304 108.206C32.8633 105.28 29.5594 102.492 30.047 100.156C30.6416 97.2877 34.5973 96.6488 36.6704 95.1364C38.7435 93.6239 40.5506 90.0463 43.4763 90.3592C45.8467 90.6199 47.4947 94.607 50.1466 95.9187C52.3605 97.0139 56.405 95.6188 58.6632 97.3737C60.6632 98.9383 60.392 103.223 62.3139 105.246C64.0844 107.113 68.3792 107.019 70.0037 109.241Z" fill="#FDB300"/>
</svg>
