<svg width="48" height="48" viewBox="0 0 48 48" fill="none" xmlns="http://www.w3.org/2000/svg">
    <path
        d="M24.4379 47.6257C37.4513 47.6257 48.0007 37.0763 48.0007 24.0629C48.0007 11.0495 37.4513 0.5 24.4379 0.5C11.4245 0.5 0.875 11.0495 0.875 24.0629C0.875 37.0763 11.4245 47.6257 24.4379 47.6257Z"
        fill="#F8F0D2" />
    <path
        d="M25.3924 21.5752H33.7466C33.947 21.5752 34.1094 21.4128 34.1094 21.2124V20.5687C34.1094 20.3684 33.947 20.206 33.7466 20.206H25.3924C25.192 20.206 25.0296 20.3684 25.0296 20.5687V21.2124C25.0296 21.4128 25.192 21.5752 25.3924 21.5752Z"
        fill="#2D573D" />
    <path
        d="M31.8965 31.2647V34.9236C31.8966 34.9835 31.8845 35.0428 31.8612 35.098C31.8378 35.1531 31.8036 35.2031 31.7606 35.2447C31.7176 35.2864 31.6666 35.319 31.6107 35.3406C31.5548 35.3622 31.4952 35.3723 31.4353 35.3703L30.4941 35.3413V30.8035H31.427C31.4881 30.8028 31.5488 30.8142 31.6056 30.8371C31.6623 30.8599 31.714 30.8937 31.7576 30.9366C31.8012 30.9794 31.836 31.0305 31.8598 31.0868C31.8836 31.1431 31.8961 31.2036 31.8965 31.2647Z"
        fill="#2D573D" />
    <path d="M26.2979 14.0482L26.2865 12.3079L20.6914 12.3991L20.7018 14.1394L26.2979 14.0482Z"
        fill="#2D573D" />
    <path
        d="M27.7772 18.2989C28.3431 18.2913 28.9087 18.2819 29.4739 18.2709L30.0544 18.2585C31.3521 18.2315 32.542 18.2056 33.963 18.1455C34.0329 18.1425 34.0989 18.1128 34.1474 18.0624C34.1958 18.012 34.223 17.9449 34.2232 17.8749V17.2313C34.2233 17.1958 34.2165 17.1606 34.203 17.1278C34.1895 17.095 34.1697 17.0652 34.1446 17.04C34.1196 17.0149 34.0898 16.995 34.0571 16.9814C34.0243 16.9678 33.9892 16.9607 33.9537 16.9607L15.336 16.8882C15.2469 16.8878 15.1585 16.9051 15.0762 16.9391C14.9938 16.9731 14.919 17.0231 14.8561 17.0863C14.7932 17.1495 14.7435 17.2245 14.7099 17.307C14.6763 17.3896 14.6594 17.478 14.6602 17.5671V17.8014C14.6609 17.8707 14.6882 17.9372 14.7364 17.9871C14.7845 18.037 14.85 18.0666 14.9193 18.0698C17.3727 18.188 19.7784 18.2626 22.2547 18.2947L27.7772 18.2989Z"
        fill="#2D573D" />
    <path
        d="M29.3509 33.9614L23.1578 34.0526C22.0612 34.0723 20.9656 34.1262 19.9042 34.1801C19.0346 34.2247 18.1422 34.2692 17.2518 34.2941L16.9408 34.3024L16.9336 35.5389C16.9336 35.576 16.941 35.6128 16.9554 35.647C16.9698 35.6811 16.9909 35.7121 17.0175 35.738C17.0441 35.7639 17.0756 35.7842 17.1101 35.7977C17.1446 35.8112 17.1815 35.8177 17.2186 35.8167L31.454 35.4477C31.5152 35.4463 31.5756 35.4327 31.6316 35.4079C31.6877 35.3831 31.7382 35.3475 31.7805 35.3031C31.8228 35.2587 31.8559 35.2065 31.8779 35.1493C31.9 35.0921 31.9105 35.0312 31.909 34.9699L31.881 33.9241L29.3509 33.9614Z"
        fill="#2D573D" />
    <path
        d="M16.9375 31.2367V35.2345C16.9375 35.31 16.9526 35.3847 16.9819 35.4542C17.0113 35.5237 17.0543 35.5866 17.1085 35.6392C17.1626 35.6918 17.2267 35.7329 17.2971 35.7603C17.3674 35.7876 17.4425 35.8006 17.5179 35.7984L18.3399 35.7735V31.2346L16.9375 31.2367Z"
        fill="#2D573D" />
    <path d="M16.9412 32.3733H23.7324V31.1751H16.9412V32.3733Z" fill="#2D573D" />
    <path
        d="M23.7363 21.5543H14.7529C14.7274 21.5543 14.7029 21.5442 14.6848 21.5261C14.6667 21.508 14.6565 21.4835 14.6565 21.4579V20.1872H23.7363V21.5564V21.5543Z"
        fill="#2D573D" />
    <path d="M22.5059 20.2173V32.3662H23.7538V20.2173H22.5059Z" fill="#2D573D" />
    <path d="M25.0195 20.2046V31.7161H26.2426V20.2046H25.0195Z" fill="#2D573D" />
    <path
        d="M14.666 17.2447V21.4716L16.0684 21.4281V16.8882H15.0215C14.9747 16.888 14.9284 16.8972 14.8851 16.9151C14.8418 16.9329 14.8025 16.9592 14.7695 16.9924C14.7364 17.0255 14.7103 17.0649 14.6925 17.1082C14.6747 17.1515 14.6657 17.1979 14.666 17.2447Z"
        fill="#2D573D" />
    <path
        d="M34.2247 17.3689V21.2475C34.2223 21.3362 34.1852 21.4205 34.1215 21.4823C34.0578 21.5441 33.9724 21.5785 33.8837 21.5782L32.8047 21.573L32.8254 16.9927H33.8516C33.9507 16.9938 34.0455 17.0339 34.1153 17.1043C34.1851 17.1747 34.2244 17.2698 34.2247 17.3689Z"
        fill="#2D573D" />
    <path
        d="M25.0176 30.801H31.4988C31.6036 30.801 31.704 30.8426 31.7781 30.9167C31.8522 30.9907 31.8938 31.0912 31.8938 31.1959V32.0003H25.0186V30.801H25.0176Z"
        fill="#2D573D" />
</svg>
