<svg width="105" height="53" viewBox="0 0 105 53" fill="none" xmlns="http://www.w3.org/2000/svg">
<path d="M26.0918 10.7305C26.0918 5.20762 30.5689 0.730469 36.0918 0.730469H42.0918C47.6146 0.730469 52.0918 5.20762 52.0918 10.7305V42.3047C52.0918 47.8275 47.6146 52.3047 42.0918 52.3047H36.0918C30.5689 52.3047 26.0918 47.8275 26.0918 42.3047V10.7305Z" fill="#165538"/>
<path d="M0.0917969 10.7305C0.0917969 5.20762 4.56895 0.730469 10.0918 0.730469H16.0918C21.6146 0.730469 26.0918 5.20762 26.0918 10.7305V42.3047C26.0918 47.8275 21.6146 52.3047 16.0918 52.3047H10.0918C4.56895 52.3047 0.0917969 47.8275 0.0917969 42.3047V10.7305Z" fill="#165538"/>
<path d="M52.0918 10.7305C52.0918 5.20762 56.5689 0.730469 62.0918 0.730469H68.0918C73.6146 0.730469 78.0918 5.20762 78.0918 10.7305V42.3047C78.0918 47.8275 73.6146 52.3047 68.0918 52.3047H62.0918C56.5689 52.3047 52.0918 47.8275 52.0918 42.3047V10.7305Z" fill="#165538"/>
<path d="M78.0918 10.7305C78.0918 5.20762 82.5689 0.730469 88.0918 0.730469H94.0918C99.6146 0.730469 104.092 5.20762 104.092 10.7305V42.3047C104.092 47.8275 99.6146 52.3047 94.0918 52.3047H88.0918C82.5689 52.3047 78.0918 47.8275 78.0918 42.3047V10.7305Z" fill="#165538"/>
<path d="M75.9151 26.5235C74.021 26.5235 72.0761 26.4242 70.2858 25.729C68.4955 25.0337 66.8897 23.934 65.5936 22.5154C64.2975 21.0968 63.3461 19.3977 62.8135 17.5505C62.2809 15.7033 62.0241 13.9518 62.0242 11.8701" stroke="#F8F1D6" stroke-width="3" stroke-miterlimit="10"/>
<path d="M75.9151 26.5146C74.021 26.5146 72.0761 26.6139 70.2858 27.3091C68.4955 28.0043 66.8897 29.1041 65.5936 30.5227C64.2975 31.9413 63.3461 33.6404 62.8135 35.4876C62.2809 37.3348 62.0241 39.0863 62.0242 41.168" stroke="#F8F1D6" stroke-width="3" stroke-miterlimit="10"/>
<path d="M74.9931 26.516L28.269 26.516" stroke="#F8F1D6" stroke-width="3" stroke-miterlimit="10"/>
</svg>
