<svg width="49" height="24" viewBox="0 0 49 24" fill="none" xmlns="http://www.w3.org/2000/svg">
<mask id="path-1-inside-1_1232_10418" fill="white">
<path d="M48.0283 11.1923L5.61576 11.1923C7.51747 10.1732 9.10757 8.65659 10.2167 6.80394C11.3258 4.95129 11.9123 2.83203 11.9139 0.671877L10.5297 0.671877C10.5265 3.34286 9.5127 5.91337 7.69259 7.86555C5.87247 9.81772 3.38128 11.0065 0.720921 11.1923L0.000242301 11.1923L0.000242297 11.2177L0.000242054 12.6066L0.000242049 12.6346L0.762876 12.6346C3.41376 12.8335 5.89195 14.0274 7.70183 15.9774C9.51171 17.9275 10.5199 20.49 10.5246 23.1525L11.9088 23.1525C11.9072 20.9934 11.3214 18.8752 10.2135 17.0231C9.10557 15.171 7.51709 13.6544 5.61703 12.6346L48.0283 12.6346L48.0283 11.1923Z"/>
</mask>
<path d="M48.0283 11.1923L5.61576 11.1923C7.51747 10.1732 9.10757 8.65659 10.2167 6.80394C11.3258 4.95129 11.9123 2.83203 11.9139 0.671877L10.5297 0.671877C10.5265 3.34286 9.5127 5.91337 7.69259 7.86555C5.87247 9.81772 3.38128 11.0065 0.720921 11.1923L0.000242301 11.1923L0.000242297 11.2177L0.000242054 12.6066L0.000242049 12.6346L0.762876 12.6346C3.41376 12.8335 5.89195 14.0274 7.70183 15.9774C9.51171 17.9275 10.5199 20.49 10.5246 23.1525L11.9088 23.1525C11.9072 20.9934 11.3214 18.8752 10.2135 17.0231C9.10557 15.171 7.51709 13.6544 5.61703 12.6346L48.0283 12.6346L48.0283 11.1923Z" fill="#F8F1D6" stroke="#F8F1D6" stroke-width="3" mask="url(#path-1-inside-1_1232_10418)"/>
</svg>
