<svg width="100" height="28" viewBox="0 0 100 28" fill="none" xmlns="http://www.w3.org/2000/svg">
<path d="M99.6638 4.75238V0.527496H84.6387V4.75238H90.0239V21.7412H84.6387V25.9661H90.0239H94.2488H99.6638V21.7412H94.2488V4.75238H99.6638Z" fill="#165739"/>
<path d="M61.4888 13.7072C61.4888 19.0627 58.454 23.1983 53.7829 23.1983C49.1117 23.1983 46.0472 19.0925 46.0472 13.7072C46.0472 8.32198 49.0819 4.2161 53.7829 4.2161C58.4838 4.2161 61.4888 8.35173 61.4888 13.7072ZM53.7531 0.0209656C47.148 0.0209656 41.8223 6.15003 41.8223 13.7072C41.8223 21.2644 47.1778 27.3935 53.7531 27.3935C60.3285 27.3935 65.684 21.2644 65.684 13.7072C65.684 6.15003 60.3582 0.0209656 53.7531 0.0209656Z" fill="#165739"/>
<path d="M35.3073 0.586517C30.8147 0.586517 30.5469 4.48412 30.5469 4.48412V6.71558V7.22138V19.8068C30.5469 19.8068 30.5469 22.3358 30.0113 22.3358C29.446 22.3358 29.446 19.8068 29.446 19.8068V7.19162V6.68583V4.48412C29.446 4.48412 29.1485 0.586517 24.6856 0.586517C19.6276 0.586517 19.9252 4.48412 19.9252 4.48412V6.71558V7.22138V25.9656H24.1501V7.22138C24.1501 7.22138 24.1501 4.69239 24.7154 4.69239C25.2509 4.69239 25.2509 7.19162 25.2509 7.22138V20.7589V22.544C25.2509 22.544 24.9534 26.4416 30.0113 26.4416C34.4743 26.4416 34.7718 22.544 34.7718 22.544V20.7589V19.8068V7.19162C34.7718 7.19162 34.7718 4.66264 35.3073 4.66264C35.8726 4.66264 35.8726 7.19162 35.8726 7.19162V25.9358H40.0975V7.19162V6.68583V4.48412C40.0975 4.48412 40.3653 0.586517 35.3073 0.586517Z" fill="#165739"/>
<path d="M4.63309 15.8174H12.5176C17.9623 15.7877 17.5458 11.7711 17.5458 11.7711V9.21233H13.3209C13.3209 9.21233 13.5589 11.7711 12.4878 11.7711H4.63309V5.0767H17.5458V0.881561H4.63309H3.35372H0.408203V25.9631H3.35372H4.63309H17.5458V21.7382H4.63309V15.8174Z" fill="#165739"/>
<path d="M78.2111 19.6585C78.2111 19.6585 78.2111 22.1875 77.6458 22.1875C77.1103 22.1875 77.1103 19.6585 77.1103 19.6585V10.6434H78.5979C78.5979 10.6434 82.4955 10.6434 82.4955 5.58546C82.4955 0.527496 78.5979 0.527496 78.5979 0.527496H77.7053H75.8904H71.8143H71.5763H67.6191V25.9363H71.8143V10.7029H72.9151V19.6287V21.7114V22.3362C72.9151 22.3362 72.9151 26.2339 77.6756 26.2339C82.436 26.2339 82.436 22.3362 82.436 22.3362V21.3247V19.6585V12.1311H78.2111V19.6585ZM71.8143 6.44829V4.78214H76.3069C77.021 4.81189 78.4491 4.9309 78.4491 5.61521C78.4491 6.24002 77.378 6.41854 76.6342 6.44829H75.8011H72.9151H71.8143Z" fill="#165739"/>
<path d="M57.2048 13.7056C57.2048 16.1156 55.8362 17.9603 53.7535 17.9603C51.6708 17.9603 50.3022 16.1156 50.3022 13.7056H48.4277C48.4277 17.0974 50.808 19.8347 53.7832 19.8347C56.7585 19.8347 59.1387 17.0974 59.1387 13.7056H57.2048Z" fill="#19563A" stroke="#19563A" stroke-width="1.45734" stroke-miterlimit="10"/>
</svg>
