<svg width="103" height="56" viewBox="0 0 103 56" fill="none" xmlns="http://www.w3.org/2000/svg">
<path d="M89.257 54.6443C82.3363 54.6443 76.6824 50.0132 76.6824 44.3443C76.6824 50.0132 71.0285 54.6443 64.1078 54.6443C57.1871 54.6443 51.5332 50.0132 51.5332 44.3443C51.5332 50.0132 45.8794 54.6443 38.9586 54.6443C32.0379 54.6443 26.3841 50.0132 26.3841 44.3443C26.3841 50.0132 20.7302 54.6443 13.8095 54.6443C6.8653 54.6443 1.21143 50.0132 1.21143 44.3443V11.7146C1.21143 6.04569 6.8653 1.4145 13.786 1.4145C20.7067 1.4145 26.3606 6.04569 26.3606 11.7146C26.3606 6.04569 32.0145 1.4145 38.9352 1.4145C45.8559 1.4145 51.5098 6.04569 51.5098 11.7146C51.5098 6.04569 57.1636 1.4145 64.0844 1.4145C71.0051 1.4145 76.6589 6.04569 76.6589 11.7146C76.6589 6.04569 82.3128 1.4145 89.2335 1.4145C96.1542 1.4145 101.808 6.04569 101.808 11.7146V44.3443C101.832 50.0132 96.1777 54.6443 89.257 54.6443Z" stroke="#2D573D" stroke-width="1.5" stroke-miterlimit="10"/>
<mask id="path-2-inside-1_1162_10820" fill="white">
<path d="M7.74299 27.8647L82.4191 27.8647C80.5174 28.8837 78.9273 30.4004 77.8182 32.253C76.7091 34.1057 76.1226 36.2249 76.1211 38.3851L77.5052 38.3851C77.5084 35.7141 78.5222 33.1436 80.3423 31.1914C82.1624 29.2392 84.6536 28.0505 87.314 27.8647L88.0347 27.8647L88.0347 27.8392L88.0347 26.4503L88.0347 26.4223L87.272 26.4223C84.6212 26.2234 82.143 25.0296 80.3331 23.0795C78.5232 21.1294 77.5151 18.5669 77.5103 15.9045L76.1261 15.9045C76.1277 18.0635 76.7135 20.1818 77.8214 22.0338C78.9293 23.8859 80.5178 25.4025 82.4179 26.4223L7.74299 26.4223L7.74299 27.8647Z"/>
</mask>
<path d="M7.74299 27.8647L82.4191 27.8647C80.5174 28.8837 78.9273 30.4004 77.8182 32.253C76.7091 34.1057 76.1226 36.2249 76.1211 38.3851L77.5052 38.3851C77.5084 35.7141 78.5222 33.1436 80.3423 31.1914C82.1624 29.2392 84.6536 28.0505 87.314 27.8647L88.0347 27.8647L88.0347 27.8392L88.0347 26.4503L88.0347 26.4223L87.272 26.4223C84.6212 26.2234 82.143 25.0296 80.3331 23.0795C78.5232 21.1294 77.5151 18.5669 77.5103 15.9045L76.1261 15.9045C76.1277 18.0635 76.7135 20.1818 77.8214 22.0338C78.9293 23.8859 80.5178 25.4025 82.4179 26.4223L7.74299 26.4223L7.74299 27.8647Z" fill="#2D573D" stroke="#2D573D" stroke-width="3" mask="url(#path-2-inside-1_1162_10820)"/>
<rect x="0.437012" y="0.401306" width="26.7152" height="55" rx="13.3576" fill="#2D573D"/>
<rect x="75.9409" y="0.401306" width="26.7152" height="55" rx="13.3576" fill="#2D573D"/>
<rect x="25.6733" y="0.26239" width="26.7152" height="55" rx="13.3576" fill="#2D573D"/>
<rect x="50.8188" y="0.26239" width="26.7152" height="55" rx="13.3576" fill="#2D573D"/>
<mask id="path-7-inside-2_1162_10820" fill="white">
<path d="M0.437989 28.8513L89.591 28.8513C87.6893 29.8703 86.0992 31.387 84.9901 33.2396C83.881 35.0923 83.2945 37.2115 83.2929 39.3717L84.6771 39.3717C84.6803 36.7007 85.6941 34.1302 87.5142 32.178C89.3343 30.2258 91.8255 29.0371 94.4859 28.8513L95.2065 28.8513L95.2065 28.8258L95.2065 27.4369L95.2065 27.4089L94.4439 27.4089C91.793 27.21 89.3148 26.0162 87.505 24.0661C85.6951 22.116 84.6869 19.5535 84.6822 16.8911L83.298 16.8911C83.2995 19.0501 83.8854 21.1684 84.9933 23.0204C86.1012 24.8725 87.6897 26.3891 89.5898 27.4089L0.437989 27.4089L0.437989 28.8513Z"/>
</mask>
<path d="M0.437989 28.8513L89.591 28.8513C87.6893 29.8703 86.0992 31.387 84.9901 33.2396C83.881 35.0923 83.2945 37.2115 83.2929 39.3717L84.6771 39.3717C84.6803 36.7007 85.6941 34.1302 87.5142 32.178C89.3343 30.2258 91.8255 29.0371 94.4859 28.8513L95.2065 28.8513L95.2065 28.8258L95.2065 27.4369L95.2065 27.4089L94.4439 27.4089C91.793 27.21 89.3148 26.0162 87.505 24.0661C85.6951 22.116 84.6869 19.5535 84.6822 16.8911L83.298 16.8911C83.2995 19.0501 83.8854 21.1684 84.9933 23.0204C86.1012 24.8725 87.6897 26.3891 89.5898 27.4089L0.437989 27.4089L0.437989 28.8513Z" fill="#F8F1D6" stroke="#F8F1D6" stroke-width="3" mask="url(#path-7-inside-2_1162_10820)"/>
<rect x="89.5386" y="27.379" width="1.77546" height="1.41875" fill="#F8F1D6"/>
</svg>
