<svg width="104" height="52" viewBox="0 0 104 52" fill="none" xmlns="http://www.w3.org/2000/svg">
<path d="M26 10.0977C26 4.57481 30.4772 0.0976562 36 0.0976562H42C47.5228 0.0976562 52 4.57481 52 10.0977V41.6719C52 47.1947 47.5228 51.6719 42 51.6719H36C30.4772 51.6719 26 47.1947 26 41.6719V10.0977Z" fill="#2D573D" fill-opacity="0.5"/>
<path d="M0 10.0977C0 4.57481 4.47715 0.0976562 10 0.0976562H16C21.5228 0.0976562 26 4.57481 26 10.0977V41.6719C26 47.1947 21.5228 51.6719 16 51.6719H10C4.47715 51.6719 0 47.1947 0 41.6719V10.0977Z" fill="#2D573D" fill-opacity="0.5"/>
<path d="M52 10.0977C52 4.57481 56.4772 0.0976562 62 0.0976562H68C73.5229 0.0976562 78 4.57481 78 10.0977V41.6719C78 47.1947 73.5229 51.6719 68 51.6719H62C56.4772 51.6719 52 47.1947 52 41.6719V10.0977Z" fill="#2D573D" fill-opacity="0.5"/>
<path d="M78 10.0977C78 4.57481 82.4772 0.0976562 88 0.0976562H94C99.5228 0.0976562 104 4.57481 104 10.0977V41.6719C104 47.1947 99.5228 51.6719 94 51.6719H88C82.4772 51.6719 78 47.1947 78 41.6719V10.0977Z" fill="#2D573D" fill-opacity="0.5"/>
<path d="M75.8233 25.8907C73.9292 25.8907 71.9843 25.7914 70.194 25.0962C68.4037 24.4009 66.7979 23.3012 65.5018 21.8826C64.2057 20.464 63.2543 18.7649 62.7217 16.9177C62.1891 15.0705 61.9323 13.319 61.9324 11.2373" stroke="#F8F1D6" stroke-width="3" stroke-miterlimit="10"/>
<path d="M75.8233 25.8818C73.9292 25.8818 71.9843 25.9811 70.194 26.6763C68.4037 27.3715 66.7979 28.4713 65.5018 29.8899C64.2057 31.3085 63.2543 33.0076 62.7217 34.8548C62.1891 36.702 61.9323 38.4535 61.9324 40.5352" stroke="#F8F1D6" stroke-width="3" stroke-miterlimit="10"/>
<path d="M74.9013 25.8832L28.1772 25.8832" stroke="#F8F1D6" stroke-width="3" stroke-miterlimit="10"/>
</svg>
