<svg width="103" height="56" viewBox="0 0 103 56" fill="none" xmlns="http://www.w3.org/2000/svg">
<rect x="0.781006" y="0.673706" width="26.7152" height="55" rx="13.3576" fill="#F8F1D6"/>
<rect x="76.2849" y="0.673706" width="26.7152" height="55" rx="13.3576" fill="#F8F1D6"/>
<rect x="26.0173" y="0.53479" width="26.7152" height="55" rx="13.3576" fill="#F8F1D6"/>
<rect x="51.1628" y="0.53479" width="26.7152" height="55" rx="13.3576" fill="#F8F1D6"/>
<mask id="path-5-inside-1_1243_11518" fill="white">
<path d="M0.781983 29.1237L89.935 29.1237C88.0333 30.1427 86.4432 31.6594 85.3341 33.512C84.225 35.3647 83.6385 37.4839 83.6369 39.6441L85.0211 39.6441C85.0243 36.9731 86.0381 34.4026 87.8582 32.4504C89.6783 30.4982 92.1695 29.3095 94.8299 29.1237L95.5505 29.1237L95.5505 29.0982L95.5505 27.7093L95.5505 27.6813L94.7879 27.6813C92.137 27.4824 89.6588 26.2886 87.8489 24.3385C86.0391 22.3884 85.0309 19.8259 85.0262 17.1635L83.642 17.1635C83.6435 19.3225 84.2294 21.4408 85.3373 23.2928C86.4452 25.1449 88.0337 26.6615 89.9337 27.6813L0.781983 27.6813L0.781983 29.1237Z"/>
</mask>
<path d="M0.781983 29.1237L89.935 29.1237C88.0333 30.1427 86.4432 31.6594 85.3341 33.512C84.225 35.3647 83.6385 37.4839 83.6369 39.6441L85.0211 39.6441C85.0243 36.9731 86.0381 34.4026 87.8582 32.4504C89.6783 30.4982 92.1695 29.3095 94.8299 29.1237L95.5505 29.1237L95.5505 29.0982L95.5505 27.7093L95.5505 27.6813L94.7879 27.6813C92.137 27.4824 89.6588 26.2886 87.8489 24.3385C86.0391 22.3884 85.0309 19.8259 85.0262 17.1635L83.642 17.1635C83.6435 19.3225 84.2294 21.4408 85.3373 23.2928C86.4452 25.1449 88.0337 26.6615 89.9337 27.6813L0.781983 27.6813L0.781983 29.1237Z" fill="#2D573D" stroke="#2D573D" stroke-width="3" mask="url(#path-5-inside-1_1243_11518)"/>
<rect x="89.8826" y="27.6514" width="1.77546" height="1.41875" fill="#2D573D"/>
</svg>
