<svg width="331" height="348" viewBox="0 0 331 348" fill="none" xmlns="http://www.w3.org/2000/svg">
<path d="M127.92 169.585C125.806 221.279 126.382 272.973 129.842 324.571C129.842 324.955 129.938 325.339 130.226 325.628C130.514 325.916 130.995 325.916 131.379 325.82C144.062 325.051 156.841 324.282 169.525 323.514C167.891 287.77 169.14 251.93 170.389 216.091C179.229 224.066 188.069 231.945 196.909 239.92C188.261 245.781 179.614 251.738 170.966 257.599C170.293 258.08 169.525 258.56 169.333 259.425C169.044 260.386 169.525 261.347 170.101 262.115C171.927 264.902 174.425 267.304 177.308 268.937C178.557 269.706 179.998 270.379 180.671 271.628C182.4 274.895 177.98 278.354 178.076 282.005C178.172 284.984 181.343 287.097 184.226 287.097C187.204 287.194 189.895 285.752 192.585 284.407C205.46 277.681 218.24 270.955 231.115 264.229C234.19 262.596 237.361 260.962 239.859 258.56C244.951 253.756 247.065 246.357 246.489 239.343C246.008 232.329 243.126 225.699 239.475 219.742C228.713 202.062 211.514 188.995 200.848 171.219C199.984 169.681 199.023 168.048 197.389 167.375C195.179 166.415 192.585 167.568 190.471 168.625C180.478 173.621 169.236 177.368 158.379 175.062C152.998 173.909 148.002 171.411 143.486 168.24C140.699 166.319 137.817 164.109 134.55 164.012C130.995 164.012 128.016 167.087 127.92 169.585Z" fill="#FF5C01"/>
<path d="M167.89 318.231C161.068 312.37 151.172 310.16 142.524 312.658C139.738 313.426 137.047 314.676 135.222 316.886C134.165 318.135 133.492 319.672 132.435 320.921C131.378 322.17 129.841 323.227 128.207 323.035C125.901 322.747 124.652 320.441 123.211 318.711C120.521 315.348 115.62 313.33 111.681 315.156C108.222 316.693 106.492 320.633 105.723 324.284C104.57 329.761 105.243 336.103 109.182 340.138C111.681 342.829 115.332 344.174 118.791 345.231C129.745 348.305 141.467 348.113 152.805 346.96C156.745 346.576 160.78 346.095 164.239 344.174C168.755 341.772 172.022 337.063 172.695 331.971C173.367 326.782 171.542 321.305 167.89 318.231Z" fill="#FFABF6"/>
<mask id="mask0_1_694" style="mask-type:alpha" maskUnits="userSpaceOnUse" x="126" y="164" width="121" height="162">
<path d="M127.919 169.586C125.805 221.28 126.381 272.973 129.841 324.571C129.841 324.955 129.937 325.34 130.225 325.628C130.513 325.916 130.994 325.916 131.378 325.82C144.061 325.051 156.84 324.283 169.524 323.514C167.89 287.77 169.139 251.931 170.388 216.091C179.228 224.066 188.068 231.945 196.908 239.92C188.26 245.781 179.613 251.738 170.965 257.6C170.292 258.08 169.524 258.561 169.332 259.425C169.043 260.386 169.524 261.347 170.1 262.116C171.926 264.902 174.424 267.304 177.307 268.938C178.556 269.706 179.997 270.379 180.67 271.628C182.399 274.895 177.979 278.354 178.075 282.005C178.171 284.984 181.342 287.098 184.225 287.098C187.203 287.194 189.894 285.753 192.584 284.407C205.46 277.681 218.239 270.956 231.114 264.23C234.189 262.596 237.36 260.963 239.858 258.561C244.95 253.756 247.064 246.358 246.488 239.344C246.007 232.329 243.125 225.699 239.474 219.742C228.712 202.063 211.513 188.995 200.847 171.219C199.983 169.682 199.022 168.048 197.388 167.376C195.178 166.415 192.584 167.568 190.47 168.625C180.477 173.621 169.235 177.369 158.378 175.063C152.997 173.91 148.001 171.411 143.485 168.241C140.698 166.319 137.816 164.109 134.549 164.013C130.994 164.013 128.015 167.088 127.919 169.586Z" fill="#FF5C01"/>
</mask>
<g mask="url(#mask0_1_694)">
<path d="M150.533 199.382C149.668 197.364 147.554 196.115 145.441 195.443C143.135 194.77 140.636 194.482 138.426 195.347C137.177 195.827 136.024 196.692 135.063 197.653C131.893 200.92 130.643 205.82 131.796 210.144C132.181 211.393 132.661 212.546 133.43 213.603C135.256 216.197 138.234 217.831 141.405 218.023C144.576 218.215 147.747 216.966 149.86 214.564C150.725 213.699 151.302 212.642 151.878 211.489C152.839 209.663 153.512 207.742 153.608 205.628C153.704 202.265 151.302 198.806 150.533 199.382Z" fill="white"/>
<path d="M187.43 168.54C190.504 169.597 192.811 172.48 193.771 175.554C194.732 178.725 194.636 182.088 194.252 185.355C194.156 186.22 194.06 187.085 193.579 187.853C193.003 188.814 192.042 189.391 191.081 189.871C187.334 191.793 182.626 192.754 179.07 190.64C177.629 189.775 176.476 188.526 175.419 187.277C174.17 185.836 173.017 184.394 172.344 182.665C171.48 180.263 171.672 177.476 172.729 175.17C173.786 172.864 175.611 170.942 177.821 169.501C179.359 168.444 181.184 167.676 183.106 167.483C185.028 167.387 187.045 167.868 187.43 168.54Z" fill="white"/>
<path d="M216.639 182.471C214.237 182.375 211.835 180.741 209.529 181.702C208.664 182.086 207.992 182.759 207.319 183.431C205.686 185.257 204.244 187.179 203.572 189.485C202.803 192.271 203.476 195.154 204.244 197.94C205.013 200.535 205.878 203.225 207.704 205.147C210.106 207.741 213.949 208.894 217.408 208.414C220.963 207.933 224.134 205.819 226.344 203.033C227.497 201.592 228.362 199.862 228.65 198.036C228.938 195.442 227.977 192.944 226.632 190.638C224.326 186.698 220.675 183.143 216.255 182.375C215.486 182.278 214.718 182.182 216.639 182.471Z" fill="white"/>
<path d="M172.825 210.627C170.135 210.531 167.541 211.588 165.427 213.125C162.832 215.047 160.911 217.93 160.815 221.1C160.718 223.983 162.16 226.962 164.562 228.691C166.868 230.421 169.943 231.093 172.921 230.613C174.266 230.421 175.516 229.94 176.861 229.556C178.782 228.883 180.8 228.019 181.857 226.289C182.53 225.136 182.722 223.695 182.818 222.35C183.01 220.236 183.202 218.026 182.434 216.008C181.569 214.086 175.516 210.723 172.825 210.627Z" fill="white"/>
<path d="M144.961 233.4C143.904 233.496 142.847 233.784 141.886 234.264C139.58 235.514 137.659 237.531 136.794 240.03C135.833 242.72 135.929 245.699 136.313 248.581C136.506 249.83 136.698 250.983 137.274 252.04C137.947 253.193 139.1 253.962 140.349 254.538C144.769 256.652 150.15 256.556 154.377 254.154C155.434 253.578 156.395 252.905 156.972 251.848C157.548 250.983 157.74 249.926 157.836 248.869C158.317 245.122 157.74 240.99 155.53 237.916C153.32 234.937 147.459 233.207 144.961 233.4Z" fill="white"/>
<path d="M122.669 270.389C126.032 269.716 129.587 270.389 132.47 272.119C135.352 273.848 137.658 276.731 138.715 279.997C139.676 283.072 139.388 286.82 136.985 288.933C135.256 290.471 132.758 290.855 130.452 290.471C128.146 290.086 126.128 289.029 124.11 287.78C122.381 286.723 120.555 285.57 119.69 283.649C119.21 282.496 119.114 281.247 119.21 279.997C119.594 275.962 121.516 272.119 122.669 270.389Z" fill="white"/>
<path d="M174.171 306.041C172.441 302.967 168.79 301.141 165.235 301.621C163.505 301.814 161.968 302.582 160.431 303.351C158.701 304.216 156.972 305.177 155.819 306.81C154.377 308.828 154.089 311.422 154.377 313.824C154.569 315.458 155.05 317.187 156.011 318.532C157.164 320.166 158.989 321.319 160.911 321.895C164.37 322.952 168.214 322.664 171.288 320.935C174.363 319.109 176.669 315.842 176.861 312.191C177.246 309.212 175.612 305.657 174.171 306.041Z" fill="white"/>
<path d="M220.484 274.519C217.121 267.409 208.185 263.469 200.69 265.775C198.672 266.448 196.654 267.505 195.309 269.235C193.484 271.444 192.907 274.327 193.195 277.21C193.676 282.11 197.135 286.53 201.651 288.259C206.167 289.989 211.74 289.028 215.391 285.857C219.042 282.59 221.637 277.017 220.484 274.519Z" fill="white"/>
<path d="M249.212 239.551C248.251 237.629 246.041 236.476 243.831 236.38C241.622 236.284 239.508 237.245 237.874 238.686C234.415 241.569 232.782 246.565 233.935 250.889C235.088 255.309 238.835 258.864 243.255 259.729C244.312 259.921 245.369 260.017 246.426 259.825C247.579 259.537 248.732 258.96 249.693 258.192C253.152 255.597 255.266 251.177 254.881 246.853C254.593 242.53 251.807 238.398 247.771 236.668C247.002 236.284 246.137 236.092 245.273 236.188C244.408 236.284 243.639 236.957 243.447 237.725C243.255 237.918 242.967 237.629 249.212 239.551Z" fill="white"/>
<path d="M207.032 227.725C203.093 228.782 199.73 232.241 199.249 236.276C199.057 238.006 199.345 239.831 199.826 241.561C200.21 242.906 200.787 244.251 201.651 245.404C203.765 248.095 207.512 249.248 210.875 248.479C214.238 247.71 217.025 245.308 218.658 242.33C220.196 239.447 220.676 235.892 219.331 232.913C217.89 229.935 209.722 227.052 207.032 227.725Z" fill="white"/>
</g>
<path d="M190.569 258.468C187.014 255.586 182.402 254.529 177.982 253.952C175.868 253.76 173.658 253.664 171.832 254.625C170.007 255.586 168.854 257.507 168.181 259.525C167.028 262.984 167.22 266.828 167.509 270.479C168.181 280.76 168.854 291.041 169.43 301.322C169.622 304.205 169.911 307.279 171.832 309.393C174.042 311.699 177.886 311.987 180.576 310.258C183.267 308.528 184.708 305.262 184.516 302.091C184.323 299.4 183.459 296.037 185.669 294.5C186.533 293.923 187.686 293.827 188.743 293.635C194.028 292.578 197.199 287.198 198.736 282.009C200.466 275.956 200.658 269.037 197.295 263.753C195.085 260.486 191.722 258.18 190.569 258.468Z" fill="#FFABF6"/>
<path d="M173.341 120.51C173.341 120.51 79.9101 117.496 80.321 117.77C74.9782 108.592 68.1285 98.8649 57.7168 96.536C56.6208 96.262 55.5249 96.125 54.5659 96.536C51.826 97.3579 51.141 100.92 51.278 103.797C51.552 109.14 53.1959 114.482 56.0728 119.003C49.7711 120.099 43.3323 118.318 37.0305 117.085C30.7288 115.852 23.742 115.441 18.2622 118.729C12.9193 121.88 9.90543 128.319 9.76844 134.621C9.63144 140.922 11.9604 146.95 15.2482 152.293C17.1662 155.444 19.6321 158.458 22.92 160.239C25.3859 161.609 28.1258 162.157 30.8658 162.568C64.1556 168.596 98.2674 167.774 131.968 166.815C146.901 166.404 161.833 165.993 176.766 165.582L173.341 120.51Z" fill="#FF8567"/>
<path d="M162.841 121.193C162.841 121.193 258.888 118.094 258.466 118.376C263.958 108.94 271 98.9413 281.703 96.5471C282.83 96.2655 283.957 96.1246 284.942 96.5471C287.759 97.3921 288.463 101.054 288.322 104.011C288.041 109.504 286.351 114.996 283.393 119.644C289.871 120.77 296.491 118.939 302.969 117.672C309.447 116.404 316.629 115.982 322.263 119.362C327.755 122.601 330.854 129.22 330.994 135.698C331.135 142.177 328.741 148.373 325.361 153.866C323.389 157.105 320.854 160.203 317.474 162.034C314.939 163.442 312.123 164.006 309.306 164.428C275.084 170.625 240.017 169.78 205.372 168.794C190.022 168.371 174.671 167.949 159.32 167.526L162.841 121.193Z" fill="#FF8567"/>
<path d="M119.945 106.074V166.512L164.624 190.437L204.5 165.455L205.653 109.918L164.432 87.1454L119.945 106.074Z" fill="#FDB300"/>
<path d="M163.567 130.867L138.874 116.838L139.162 75.7139L163.183 61.6855L187.589 75.3296L187.396 117.223L163.567 130.867Z" fill="#FF8567"/>
<path d="M33.4096 53.4985L0.740723 84.2457L33.9861 116.626L65.2138 85.3988L33.4096 53.4985Z" fill="#FF0000"/>
<path d="M125.97 60.5953L103.582 51.1789L76.4863 106.14L97.1446 118.15L125.97 60.5953Z" fill="#0054DC"/>
<path d="M133.588 31.1308C133.588 14.3159 146.656 0.575714 162.798 0.575714C178.941 0.575714 192.008 14.2198 192.008 31.1308C192.008 47.9457 178.941 61.6858 162.798 61.6858C146.656 61.6858 133.588 47.9457 133.588 31.1308Z" fill="#FFABF6"/>
<path d="M217.652 101.191V50.4581C217.652 40.6575 225.627 32.6824 235.428 32.6824C245.229 32.6824 253.204 40.6575 253.204 50.4581V101.191C253.204 110.992 245.229 118.967 235.428 118.967C225.627 118.967 217.652 110.992 217.652 101.191Z" fill="#0054DC"/>
<path d="M281.306 57.6409L276.117 79.164L293.989 110.199L308.594 116.829L315.992 98.8614L300.711 66.8613L281.306 57.6409Z" fill="#FF0000"/>
<path d="M174.617 106.272C172.888 105.119 170.774 104.447 168.66 104.063C166.546 103.678 164.336 103.582 162.126 103.486C161.165 103.486 160.205 103.39 159.244 103.486C156.938 103.678 154.824 104.735 153.19 106.08C153.287 106.657 153.959 107.137 154.632 107.426C156.842 108.482 159.436 108.963 161.934 109.347C163.087 109.539 164.24 109.635 165.393 109.635C167.123 109.539 168.756 109.155 170.294 108.675C171.447 108.29 172.696 108.002 173.56 107.233C174.041 106.945 174.329 106.657 174.617 106.272Z" fill="white"/>
</svg>
