<svg width="331" height="348" viewBox="0 0 331 348" fill="none" xmlns="http://www.w3.org/2000/svg">
<path d="M127.92 169.436C125.806 221.13 126.382 272.824 129.842 324.421C129.842 324.806 129.938 325.19 130.226 325.478C130.514 325.767 130.995 325.767 131.379 325.671C144.062 324.902 156.841 324.133 169.525 323.365C167.891 287.621 169.14 251.781 170.389 215.941C179.229 223.916 188.069 231.795 196.909 239.77C188.261 245.632 179.614 251.589 170.966 257.45C170.293 257.931 169.525 258.411 169.333 259.276C169.044 260.237 169.525 261.197 170.101 261.966C171.927 264.753 174.425 267.155 177.308 268.788C178.557 269.557 179.998 270.229 180.671 271.479C182.4 274.745 177.98 278.205 178.076 281.856C178.172 284.834 181.343 286.948 184.226 286.948C187.204 287.044 189.895 285.603 192.585 284.258C205.46 277.532 218.24 270.806 231.115 264.08C234.19 262.447 237.361 260.813 239.859 258.411C244.951 253.607 247.065 246.208 246.489 239.194C246.008 232.18 243.126 225.55 239.475 219.593C228.713 201.913 211.514 188.845 200.848 171.07C199.984 169.532 199.023 167.899 197.389 167.226C195.179 166.265 192.585 167.418 190.471 168.475C180.478 173.472 169.236 177.219 158.379 174.913C152.998 173.76 148.002 171.262 143.486 168.091C140.699 166.169 137.817 163.959 134.55 163.863C130.995 163.863 128.016 166.938 127.92 169.436Z" fill="#FF5C01"/>
<path d="M167.89 318.08C161.068 312.219 151.172 310.009 142.524 312.507C139.738 313.276 137.047 314.525 135.222 316.735C134.165 317.984 133.492 319.521 132.435 320.77C131.378 322.019 129.841 323.076 128.207 322.884C125.901 322.596 124.652 320.29 123.211 318.56C120.521 315.197 115.62 313.18 111.681 315.005C108.222 316.543 106.492 320.482 105.723 324.133C104.57 329.61 105.243 335.952 109.182 339.987C111.681 342.678 115.332 344.023 118.791 345.08C129.745 348.155 141.467 347.962 152.805 346.809C156.745 346.425 160.78 345.945 164.239 344.023C168.755 341.621 172.022 336.913 172.695 331.82C173.367 326.632 171.542 321.155 167.89 318.08Z" fill="#FFABF6"/>
<mask id="mask0_800_5218" style="mask-type:alpha" maskUnits="userSpaceOnUse" x="126" y="163" width="121" height="163">
<path d="M127.919 169.436C125.805 221.13 126.381 272.824 129.841 324.421C129.841 324.806 129.937 325.19 130.225 325.478C130.513 325.767 130.994 325.767 131.378 325.671C144.061 324.902 156.84 324.133 169.524 323.365C167.89 287.621 169.139 251.781 170.388 215.941C179.228 223.916 188.068 231.795 196.908 239.77C188.26 245.632 179.613 251.589 170.965 257.45C170.292 257.931 169.524 258.411 169.332 259.276C169.043 260.237 169.524 261.197 170.1 261.966C171.926 264.753 174.424 267.155 177.307 268.788C178.556 269.557 179.997 270.229 180.67 271.479C182.399 274.745 177.979 278.205 178.075 281.856C178.171 284.834 181.342 286.948 184.225 286.948C187.203 287.044 189.894 285.603 192.584 284.258C205.46 277.532 218.239 270.806 231.114 264.08C234.189 262.447 237.36 260.813 239.858 258.411C244.95 253.607 247.064 246.208 246.488 239.194C246.007 232.18 243.125 225.55 239.474 219.593C228.712 201.913 211.513 188.845 200.847 171.07C199.983 169.532 199.022 167.899 197.388 167.226C195.178 166.265 192.584 167.418 190.47 168.475C180.477 173.472 169.235 177.219 158.378 174.913C152.997 173.76 148.001 171.262 143.485 168.091C140.698 166.169 137.816 163.959 134.549 163.863C130.994 163.863 128.015 166.938 127.919 169.436Z" fill="#FFFFFF"/>
</mask>
<g mask="url(#mask0_800_5218)">
<path d="M150.533 199.233C149.668 197.215 147.554 195.966 145.441 195.294C143.135 194.621 140.636 194.333 138.426 195.197C137.177 195.678 136.024 196.543 135.063 197.503C131.893 200.77 130.643 205.671 131.796 209.995C132.181 211.244 132.661 212.397 133.43 213.454C135.256 216.048 138.234 217.681 141.405 217.874C144.576 218.066 147.747 216.817 149.86 214.414C150.725 213.55 151.302 212.493 151.878 211.34C152.839 209.514 153.512 207.592 153.608 205.479C153.704 202.116 151.302 198.657 150.533 199.233Z" fill="white"/>
<path d="M187.43 168.389C190.504 169.446 192.811 172.329 193.771 175.404C194.732 178.575 194.636 181.937 194.252 185.204C194.156 186.069 194.06 186.934 193.579 187.703C193.003 188.663 192.042 189.24 191.081 189.72C187.334 191.642 182.626 192.603 179.07 190.489C177.629 189.624 176.476 188.375 175.419 187.126C174.17 185.685 173.017 184.244 172.344 182.514C171.48 180.112 171.672 177.325 172.729 175.019C173.786 172.713 175.611 170.792 177.821 169.35C179.359 168.293 181.184 167.525 183.106 167.333C185.028 167.236 187.045 167.717 187.43 168.389Z" fill="white"/>
<path d="M216.639 182.32C214.237 182.224 211.835 180.591 209.529 181.552C208.664 181.936 207.992 182.609 207.319 183.281C205.686 185.107 204.244 187.028 203.572 189.335C202.803 192.121 203.476 195.004 204.244 197.79C205.013 200.384 205.878 203.075 207.704 204.996C210.106 207.591 213.949 208.744 217.408 208.263C220.963 207.783 224.134 205.669 226.344 202.883C227.497 201.441 228.362 199.712 228.65 197.886C228.938 195.292 227.977 192.794 226.632 190.488C224.326 186.548 220.675 182.993 216.255 182.224C215.486 182.128 214.718 182.032 216.639 182.32Z" fill="white"/>
<path d="M172.825 210.475C170.135 210.379 167.541 211.436 165.427 212.973C162.832 214.895 160.911 217.777 160.815 220.948C160.718 223.831 162.16 226.809 164.562 228.539C166.868 230.268 169.943 230.941 172.921 230.46C174.266 230.268 175.516 229.788 176.861 229.404C178.782 228.731 180.8 227.866 181.857 226.137C182.53 224.984 182.722 223.542 182.818 222.197C183.01 220.083 183.202 217.873 182.434 215.856C181.569 213.934 175.516 210.571 172.825 210.475Z" fill="white"/>
<path d="M144.961 233.249C143.904 233.345 142.847 233.633 141.886 234.114C139.58 235.363 137.659 237.381 136.794 239.879C135.833 242.569 135.929 245.548 136.313 248.43C136.506 249.679 136.698 250.832 137.274 251.889C137.947 253.042 139.1 253.811 140.349 254.388C144.769 256.501 150.15 256.405 154.377 254.003C155.434 253.427 156.395 252.754 156.972 251.697C157.548 250.832 157.74 249.776 157.836 248.719C158.317 244.971 157.74 240.84 155.53 237.765C153.32 234.786 147.459 233.057 144.961 233.249Z" fill="white"/>
<path d="M122.669 270.237C126.032 269.565 129.587 270.237 132.47 271.967C135.352 273.696 137.658 276.579 138.715 279.846C139.676 282.921 139.388 286.668 136.985 288.782C135.256 290.319 132.758 290.704 130.452 290.319C128.146 289.935 126.128 288.878 124.11 287.629C122.381 286.572 120.555 285.419 119.69 283.497C119.21 282.344 119.114 281.095 119.21 279.846C119.594 275.81 121.516 271.967 122.669 270.237Z" fill="white"/>
<path d="M174.171 305.891C172.441 302.816 168.79 300.99 165.235 301.471C163.505 301.663 161.968 302.432 160.431 303.2C158.701 304.065 156.972 305.026 155.819 306.659C154.377 308.677 154.089 311.272 154.377 313.674C154.569 315.307 155.05 317.037 156.011 318.382C157.164 320.015 158.989 321.168 160.911 321.745C164.37 322.802 168.214 322.514 171.288 320.784C174.363 318.958 176.669 315.691 176.861 312.04C177.246 309.062 175.612 305.506 174.171 305.891Z" fill="white"/>
<path fill="white" d="M220.484 274.368C217.121 267.258 208.185 263.318 200.69 265.624C198.672 266.297 196.654 267.354 195.309 269.083C193.484 271.293 192.907 274.176 193.195 277.058C193.676 281.959 197.135 286.379 201.651 288.108C206.167 289.838 211.74 288.877 215.391 285.706C219.042 282.439 221.637 276.866 220.484 274.368Z"/>
<path d="M249.212 239.399C248.251 237.477 246.041 236.324 243.831 236.228C241.622 236.132 239.508 237.093 237.874 238.534C234.415 241.417 232.782 246.413 233.935 250.737C235.088 255.157 238.835 258.712 243.255 259.577C244.312 259.769 245.369 259.865 246.426 259.673C247.579 259.385 248.732 258.808 249.693 258.04C253.152 255.445 255.266 251.025 254.881 246.702C254.593 242.378 251.807 238.246 247.771 236.517C247.002 236.132 246.137 235.94 245.273 236.036C244.408 236.132 243.639 236.805 243.447 237.574C243.255 237.766 242.967 237.477 249.212 239.399Z" fill="white"/>
<path d="M207.032 227.575C203.093 228.632 199.73 232.091 199.249 236.127C199.057 237.856 199.345 239.682 199.826 241.411C200.21 242.757 200.787 244.102 201.651 245.255C203.765 247.945 207.512 249.098 210.875 248.33C214.238 247.561 217.025 245.159 218.658 242.18C220.196 239.298 220.676 235.742 219.331 232.764C217.89 229.785 209.722 226.903 207.032 227.575Z" fill="white"/>
</g>
<path d="M190.569 258.317C187.014 255.435 182.402 254.378 177.982 253.801C175.868 253.609 173.658 253.513 171.832 254.474C170.007 255.435 168.854 257.356 168.181 259.374C167.028 262.833 167.22 266.677 167.509 270.328C168.181 280.609 168.854 290.89 169.43 301.171C169.622 304.054 169.911 307.128 171.832 309.242C174.042 311.548 177.886 311.836 180.576 310.107C183.267 308.377 184.708 305.111 184.516 301.94C184.323 299.249 183.459 295.886 185.669 294.349C186.533 293.773 187.686 293.676 188.743 293.484C194.028 292.427 197.199 287.047 198.736 281.858C200.466 275.805 200.658 268.887 197.295 263.602C195.085 260.335 191.722 258.029 190.569 258.317Z" fill="#FFABF6"/>
<path d="M173.341 120.359C173.341 120.359 79.91 117.345 80.321 117.619C74.9782 108.44 68.1285 98.7133 57.7168 96.3844C56.6208 96.1104 55.5249 95.9734 54.5659 96.3844C51.826 97.2064 51.141 100.768 51.278 103.645C51.552 108.988 53.1959 114.331 56.0728 118.852C49.7711 119.948 43.3323 118.167 37.0305 116.934C30.7288 115.701 23.742 115.29 18.2622 118.578C12.9193 121.729 9.90543 128.167 9.76844 134.469C9.63144 140.771 11.9604 146.799 15.2482 152.142C17.1662 155.292 19.6321 158.306 22.92 160.087C25.3859 161.457 28.1258 162.005 30.8658 162.416C64.1556 168.444 98.2674 167.622 131.968 166.663C146.901 166.252 161.833 165.841 176.766 165.43L173.341 120.359Z" fill="#FF8567"/>
<path d="M162.841 121.041C162.841 121.041 258.888 117.943 258.466 118.224C263.958 108.789 271 98.7897 281.703 96.3956C282.83 96.1139 283.956 95.9731 284.942 96.3956C287.759 97.2405 288.463 100.902 288.322 103.86C288.041 109.352 286.351 114.845 283.393 119.492C289.871 120.619 296.491 118.788 302.969 117.52C309.447 116.253 316.629 115.83 322.263 119.21C327.755 122.449 330.854 129.069 330.994 135.547C331.135 142.025 328.741 148.222 325.361 153.714C323.389 156.953 320.854 160.052 317.474 161.882C314.939 163.291 312.123 163.854 309.306 164.277C275.084 170.473 240.017 169.628 205.372 168.642C190.022 168.22 174.671 167.797 159.32 167.375L162.841 121.041Z" fill="#FF8567"/>
<path d="M119.945 105.925V166.362L164.624 190.288L204.5 165.305L205.653 109.768L164.432 86.9961L119.945 105.925Z" fill="#FDB300"/>
<path d="M163.567 130.716L138.874 116.688L139.162 75.5636L163.183 61.5352L187.589 75.1792L187.396 117.072L163.567 130.716Z" fill="#FF8567"/>
<path d="M33.4096 53.3477L0.740723 84.0949L33.9861 116.476L65.2138 85.2479L33.4096 53.3477Z" fill="#FF0000"/>
<path d="M125.97 60.4437L103.582 51.0273L76.4863 105.988L97.1446 117.999L125.97 60.4437Z" fill="#0054DC"/>
<path d="M133.588 30.9808C133.588 14.1659 146.656 0.425781 162.798 0.425781C178.941 0.425781 192.008 14.0699 192.008 30.9808C192.008 47.7957 178.941 61.5359 162.798 61.5359C146.656 61.5359 133.588 47.7957 133.588 30.9808Z" fill="#FFABF6"/>
<path d="M217.652 101.04V50.307C217.652 40.5063 225.627 32.5312 235.428 32.5312C245.229 32.5312 253.204 40.5063 253.204 50.307V101.04C253.204 110.841 245.229 118.816 235.428 118.816C225.627 118.816 217.652 110.841 217.652 101.04Z" fill="#0054DC"/>
<path d="M281.306 57.4922L276.117 79.0152L293.989 110.051L308.594 116.681L315.992 98.7127L300.711 66.7125L281.306 57.4922Z" fill="#FF0000"/>
<path fill="white" d="M174.617 106.122C172.888 104.969 170.774 104.297 168.66 103.912C166.546 103.528 164.336 103.432 162.126 103.336C161.165 103.336 160.205 103.24 159.244 103.336C156.938 103.528 154.824 104.585 153.19 105.93C153.287 106.506 153.959 106.987 154.632 107.275C156.842 108.332 159.436 108.813 161.934 109.197C163.087 109.389 164.24 109.485 165.393 109.485C167.123 109.389 168.756 109.005 170.294 108.524C171.447 108.14 172.696 107.852 173.56 107.083C174.041 106.795 174.329 106.506 174.617 106.122Z"/>
</svg>
