<svg width="315" height="453" viewBox="0 0 315 453" fill="none" xmlns="http://www.w3.org/2000/svg">
<path d="M167.866 177.445C185.199 156.666 202.836 136.191 220.878 115.918C222.196 114.398 223.615 112.776 224.527 110.952C225.135 109.634 225.439 108.215 225.743 106.796C228.075 95.5446 229.595 83.3812 237.096 74.7655C238.109 73.5492 239.326 72.4342 240.846 71.9274C244.698 70.5083 249.158 73.7519 250.475 77.705C251.793 81.6581 250.881 85.9152 250.07 90.0711C253.415 79.7322 260.916 70.8124 270.545 65.7443C273.18 64.3253 277.032 63.5144 278.755 65.9471C279.87 67.5688 279.465 69.7988 278.857 71.6233C276.221 80.1376 271.761 88.2466 266.085 95.0378C268.518 91.9969 272.674 90.3752 276.525 90.882C277.133 90.9833 277.843 91.186 278.248 91.5915C278.857 92.301 278.755 93.3146 278.654 94.2269C277.843 98.4841 275.41 102.437 271.964 104.971C273.89 104.363 275.613 103.248 277.539 102.64C279.465 102.032 281.796 102.133 283.215 103.552C284.533 104.971 284.431 107.303 283.418 109.026C282.506 110.749 280.884 111.965 279.262 113.181C281.492 110.343 286.459 112.979 286.966 116.425C287.472 119.973 285.242 123.216 283.012 125.953C277.64 132.846 271.964 139.434 266.288 145.921C243.177 172.579 219.864 199.136 196.45 225.591C195.132 227.112 193.51 228.733 191.584 228.835C189.963 228.936 188.544 228.024 187.226 227.01C178.914 220.726 173.745 211.299 168.879 202.075C167.46 199.44 166.041 196.703 165.636 193.764C164.724 187.885 168.271 182.107 167.866 177.445Z" fill="#FF8567"/>
<path d="M100.765 171.472C100.765 171.472 0.619514 254.183 0.31543 254.082C4.47125 266.651 10.2488 278.915 19.27 288.646C28.2912 298.377 40.7586 305.269 54.037 305.472C69.4439 305.776 83.5332 297.262 96.0006 288.95C94.3788 295.741 95.8992 302.938 98.5346 309.324C105.934 326.859 122.355 339.732 140.6 345.003C158.845 350.274 178.712 348.449 196.652 342.368L197.869 204.618L100.765 171.472Z" fill="#FF0000"/>
<path d="M104.008 349.357C108.772 350.472 113.03 353.919 114.854 358.379C116.679 362.94 115.969 368.413 112.827 372.164C109.685 375.914 104.211 377.536 99.7512 375.711C100.866 377.941 99.6498 380.577 98.2308 382.705C95.1899 387.267 91.2368 391.22 86.6756 394.261C83.432 396.389 79.2762 398.112 75.7285 396.592C73.5999 395.68 72.0795 393.652 71.2686 391.524C69.5455 387.165 70.1537 382.3 71.2686 377.739C72.5863 372.569 74.6136 367.602 77.249 362.94C78.5667 360.609 80.0871 358.379 82.1143 356.757C84.2429 355.135 86.9797 354.223 89.5137 354.932C89.1082 352.196 91.5409 349.662 94.075 348.648C97.5212 347.33 100.765 348.547 104.008 349.357Z" fill="white"/>
<path d="M64.5784 344.285C61.8417 342.359 57.9899 342.46 55.3545 344.386C52.6178 346.312 51.3001 349.758 51.8069 353.002C52.3137 356.246 54.7464 359.084 57.7872 360.3C56.0641 361.618 55.2532 363.848 54.645 365.976C53.8341 368.814 53.1246 371.652 52.5164 374.592C51.9083 377.633 51.5028 380.978 52.8205 383.816C54.3409 387.059 58.1927 388.985 61.639 388.276C64.7812 387.668 67.2138 385.235 69.2411 382.701C74.2078 376.518 77.7554 369.118 79.4786 361.415C79.9854 358.982 80.3908 356.448 79.5799 354.218C79.0731 352.799 78.1609 351.482 77.1473 350.265C73.701 346.211 68.3288 343.575 64.5784 344.285Z" fill="#FFABF6"/>
<path d="M79.9852 241.305L56.7734 349.762L81.2015 359.391L126.713 274.552L79.9852 241.305Z" fill="white"/>
<path d="M124.078 275.974L81.2021 358.584L110.394 366.287L177.09 269.791L124.078 275.974Z" fill="#FFABF6"/>
<path d="M122.254 277.798L77.8574 241.511L99.8528 161.436L161.683 152.718L204.559 198.635L144.351 210.596L122.254 277.798Z" fill="#FFABF6"/>
<path d="M122.354 277.391L144.147 210.391L204.153 198.532L182.36 271.411L122.354 277.391Z" fill="white"/>
<path d="M161.784 153.43L145.06 197.928L177.394 193.367L191.889 148.869L161.784 153.43Z" fill="#FFA28B"/>
<path d="M161.988 153.317L145.263 197.612L120.835 172.373L138.573 124.936L171.11 122.098L191.889 148.857L161.988 153.317Z" fill="#FF8567"/>
<path d="M179.015 173.887C177.9 175.812 175.873 177.029 173.744 177.536C171.615 178.042 169.386 177.738 167.257 177.029C165.736 176.522 164.317 175.914 163.202 174.799C162.087 173.785 161.277 172.265 161.277 170.744C159.351 173.887 159.249 178.144 161.277 181.286C163.304 184.428 167.358 186.05 170.906 185.138C173.237 184.53 175.264 182.806 176.582 180.779C177.9 178.651 178.609 176.319 179.015 173.887Z" fill="white"/>
<path d="M125.801 196.202L113.131 217.893C113.131 217.893 126.612 239.787 126.814 239.686C132.186 240.091 137.66 240.598 142.728 242.423C145.87 243.538 149.215 245.869 149.012 249.113C148.911 251.241 147.289 252.964 145.668 254.181C143.438 255.802 140.904 256.917 138.268 257.323C140.701 259.046 142.728 261.681 142.931 264.621C143.235 267.56 141.613 270.804 138.775 271.919C135.937 273.034 132.288 271.412 131.578 268.473C132.795 269.79 133.808 271.311 134.214 273.034C134.619 274.757 134.214 276.784 132.896 277.899C131.376 279.217 129.044 279.116 127.22 278.203C125.395 277.291 124.078 275.771 122.76 274.149C125.902 276.277 125.091 282.055 121.544 283.474C117.996 284.893 113.637 281.65 113.739 277.798C113.739 282.055 109.988 286.414 105.731 285.603C103.501 285.197 101.778 283.474 100.258 281.751C89.0065 269.588 80.2894 255.296 71.5723 241.105C68.9369 236.848 66.3015 232.489 63.6661 228.232C62.0444 225.597 60.4226 222.86 60.1185 219.819C59.713 214.954 62.8553 210.494 65.7947 206.541L85.2561 180.998C87.8915 177.551 90.6283 174.004 94.48 172.382C100.764 169.645 108.265 172.483 113.536 176.842C120.023 182.113 124.686 189.512 125.801 196.202Z" fill="#FFA28B"/>
<path d="M233.144 37.7701L237.299 65.3404" stroke="#FFABF6" stroke-width="6" stroke-miterlimit="10" stroke-linecap="round"/>
<path d="M289.094 31.7961L279.972 56.9337" stroke="#FFABF6" stroke-width="6" stroke-miterlimit="10" stroke-linecap="round"/>
<path d="M52.1115 410.682L41.874 433.996" stroke="#FDB300" stroke-width="6" stroke-miterlimit="10" stroke-linecap="round"/>
<path d="M71.9773 403.178L54.1377 449.196" stroke="#0054DC" stroke-width="6" stroke-miterlimit="10" stroke-linecap="round"/>
<path d="M304.197 104.059L289.804 109.533" stroke="#0054DC" stroke-width="6" stroke-miterlimit="10" stroke-linecap="round"/>
<path d="M283.925 135.693L295.176 144.613" stroke="#0054DC" stroke-width="6" stroke-miterlimit="10" stroke-linecap="round"/>
<path d="M93.6696 397.204L84.6484 416.463" stroke="#FFABF6" stroke-width="6" stroke-miterlimit="10" stroke-linecap="round"/>
<path d="M290.615 119.369L311.901 126.769" stroke="#FF0000" stroke-width="6" stroke-miterlimit="10" stroke-linecap="round"/>
<path d="M35.7927 412.407C33.7655 415.549 32.0423 418.894 30.5219 422.442C30.5219 422.543 30.4205 422.645 30.3192 422.645C30.2178 422.645 30.2178 422.442 30.3192 422.543" stroke="#FF0000" stroke-width="6" stroke-miterlimit="10" stroke-linecap="round"/>
<path d="M230.507 73.0514L223.311 62.1043" stroke="#FF0000" stroke-width="6" stroke-miterlimit="10" stroke-linecap="round"/>
<path d="M276.527 3.71892L269.229 52.7779" stroke="#FF5C01" stroke-width="6" stroke-miterlimit="10" stroke-linecap="round"/>
<path d="M278.046 144.912L289.297 174.408" stroke="#2D573D" stroke-width="6" stroke-miterlimit="10" stroke-linecap="round"/>
<path d="M45.4217 388.382C45.1176 388.078 44.7122 387.876 44.2054 387.774C41.4686 387.065 38.4278 387.571 36.0965 389.092C33.7652 390.612 32.042 393.146 31.6366 395.984C31.5352 396.795 31.4339 397.606 31.6366 398.417C31.8393 399.329 32.2447 400.242 32.7515 401.053C34.272 403.282 36.806 404.803 39.5428 405.107C42.2795 405.31 45.0163 404.296 46.8408 402.269C47.6517 401.357 48.2599 400.242 48.868 399.228C49.3748 398.316 49.7803 397.403 49.983 396.491C50.1857 395.782 50.1857 395.072 50.0844 394.464C49.983 393.754 49.7803 393.045 49.4762 392.335C48.5639 390.41 46.6381 389.599 45.4217 388.382Z" fill="#FF5C01"/>
</svg>
