<svg width="275" height="359" viewBox="0 0 275 359" fill="none" xmlns="http://www.w3.org/2000/svg">
<path d="M57.3336 352.831C56.9346 355.544 59.2488 358.018 61.8821 358.656C64.5155 359.295 67.3084 358.497 69.7822 357.539C77.0439 354.826 83.5874 350.597 90.2107 346.527C92.8441 344.931 95.5573 343.335 97.7916 341.1C100.026 338.946 101.782 336.073 102.021 333.041C102.26 329.929 100.744 326.577 97.9512 325.3C96.5946 324.662 95.1583 324.502 93.6421 324.662C89.4925 324.901 85.6622 326.816 82.151 328.891C74.8893 333.2 68.1064 338.467 62.1215 344.452C59.7275 346.926 57.8124 349.878 57.3336 352.831Z" fill="#FF5C01"/>
<path d="M5.70264 261.456C5.70264 261.456 44.5647 353.225 44.5647 353.305C46.1607 356.337 49.9112 358.013 53.2628 357.295C53.9012 357.135 54.5396 356.896 55.0184 356.417C55.4972 355.938 55.7365 355.379 55.8961 354.741C56.7739 352.108 56.9335 349.315 57.0133 346.601C57.9709 324.657 57.4921 302.712 55.7365 280.847L5.70264 261.456Z" fill="#FF0000"/>
<path d="M56.3756 280.284C56.3756 280.284 55.7372 350.986 55.7372 350.747C54.6998 353.939 57.4928 357.45 60.8444 357.929C64.1959 358.407 67.4677 356.492 69.5424 353.859C71.6172 351.226 72.6546 347.954 73.692 344.762C79.8365 325.77 85.582 306.618 91.0881 287.386C93.3225 279.726 95.4771 271.985 96.7539 264.005C96.9933 262.729 97.1529 261.292 96.5943 260.095C95.7963 258.18 93.4821 257.302 91.4073 257.222C85.981 256.823 80.9537 259.856 76.3253 262.808C72.1758 265.442 68.1061 267.995 64.0363 270.629C60.3656 272.943 56.216 276.135 56.3756 280.284Z" fill="#FFABF6"/>
<path d="M129.871 140.084C115.268 163.146 91.408 178.308 69.3835 194.427C64.835 197.779 59.9673 201.689 58.8501 207.275C57.3339 214.616 63.5582 221.958 70.8199 223.793C78.0816 225.628 85.8221 223.314 92.5252 219.883C98.0313 217.01 103.138 213.419 108.166 209.669C117.422 202.806 126.599 195.704 134.18 186.926C141.681 178.228 147.586 167.694 149.262 156.283C149.741 153.011 149.901 149.5 148.704 146.388C147.347 142.877 144.395 140.004 140.804 138.807C137.213 137.61 133.063 138.249 129.951 140.323C129.632 140.563 129.233 140.722 128.914 140.483C128.594 140.244 129.313 139.845 129.871 140.084Z" fill="#FF8567"/>
<path d="M50.8692 260.418L50.151 286.832L0.356445 259.7V230.174L50.8692 260.418Z" fill="#0054DC"/>
<path d="M50.1517 287.158L50.5507 261.303L0.277344 230.421L46.6405 204.327L100.744 231.059L99.9462 259.228L50.1517 287.158Z" fill="#FF5C01"/>
<path d="M200.173 356.179L145.671 170.806L115.028 354.423" stroke="#FDB300" stroke-width="10" stroke-miterlimit="10"/>
<path d="M161.87 91.0072L87.418 200.89L204.164 151.096L209.191 141.839L196.663 114.867L178.548 95.077L161.87 91.0072Z" fill="#0054DC"/>
<path d="M156.525 124.755C155.009 121.244 153.413 117.813 151.098 114.78C148.784 111.748 145.752 109.194 142.081 108.077C141.363 107.838 140.565 107.678 139.847 107.838C138.171 108.157 137.134 110.072 137.213 111.748C137.293 113.424 138.091 115.02 138.969 116.536C138.171 115.419 137.373 114.301 136.256 113.663C135.139 113.025 133.463 112.945 132.585 113.902C131.707 114.7 131.627 116.137 132.106 117.254C132.505 118.371 133.383 119.249 134.181 120.127C133.383 119.329 132.585 118.451 131.548 117.972C130.51 117.493 129.154 117.573 128.356 118.371C127.478 119.249 127.478 120.765 128.037 121.962C128.515 123.159 129.313 124.196 129.792 125.393C127.797 124.994 126.361 127.149 125.563 128.905C122.61 135.129 119.578 141.513 119.259 148.375C119.179 149.493 119.338 150.769 120.136 151.488C121.254 152.445 123.089 151.887 124.286 151.009C130.351 146.939 132.266 139.039 137.054 133.453C138.251 135.927 139.448 138.401 140.725 140.874C141.203 141.832 141.842 142.869 142.879 143.029C143.757 143.109 144.635 142.47 144.954 141.593C145.273 140.795 145.273 139.837 145.113 138.959C144.714 136.086 143.757 133.294 142.321 130.82C143.278 133.134 144.635 135.288 146.231 137.204C147.029 138.161 148.465 139.039 149.343 138.161C149.822 137.682 149.822 136.964 149.822 136.326C149.662 133.453 148.784 130.58 147.348 128.027C148.385 129.383 149.103 130.9 150.141 132.256C151.178 133.533 152.694 134.65 154.37 134.57C156.764 134.411 158.36 131.777 158.28 129.383C157.961 126.989 156.525 124.915 156.525 124.755Z" fill="#FF8567"/>
<path d="M146.869 110.394C144.874 109.676 143.517 107.681 143.517 105.526C143.517 105.207 143.597 104.808 143.756 104.489C143.996 104.17 144.315 104.09 144.714 103.93C147.028 103.292 149.502 104.329 151.497 105.686C157.163 109.676 160.035 116.698 160.993 123.561C161.232 125.157 161.073 127.152 159.557 127.631C158.28 128.03 157.083 126.992 156.205 125.955C151.976 121.007 148.305 115.501 146.869 110.394Z" fill="#FF8567"/>
<path d="M186.049 101.221C180.783 94.997 174.159 89.2515 166.02 88.2141C164.743 88.0545 163.387 88.0545 162.429 88.8525C161.551 89.6505 161.392 90.8475 161.392 92.0445C161.392 95.8748 163.147 99.4658 165.062 102.817C167.137 106.408 169.371 109.84 171.606 113.271C176.793 121.091 181.9 128.912 187.486 136.492C190.438 140.482 193.63 144.472 197.381 147.664C198.817 148.941 200.413 150.058 202.249 150.617C204.084 151.175 206.239 151.016 207.755 149.819C209.111 148.781 209.75 147.106 209.909 145.43C210.069 143.754 209.75 142.078 209.351 140.482C205.84 125.081 195.785 112.712 186.049 101.221Z" stroke="#FFABF6" stroke-width="10" stroke-miterlimit="10"/>
<path d="M52.2257 244.378L27.1689 229.536L26.4507 190.514L48.7146 175.99L73.6118 191.392L51.6671 204.798L52.2257 244.378Z" fill="#FF8567"/>
<path d="M51.5869 204.717L52.1455 244.298L73.4518 231.61L73.5316 191.311L51.5869 204.717Z" fill="#FFA28B"/>
<path d="M26.0521 190.429C24.2966 189.073 21.9026 182.689 21.743 177.422C21.6632 175.746 22.0622 173.751 23.6582 173.113C25.4137 172.395 27.2491 173.991 28.3663 175.507C30.6805 178.619 32.5956 182.05 34.032 185.721C31.6381 179.896 29.2441 173.193 31.9573 167.527C32.1966 166.968 32.5956 166.41 33.1542 166.09C34.5108 165.372 36.027 166.569 37.0644 167.686C39.7775 170.878 41.8523 174.709 43.1291 178.699C42.5705 174.868 42.7301 170.878 43.6877 167.048C44.0867 165.372 44.7251 163.696 46.0019 162.5C47.2786 161.303 49.3534 160.904 50.71 161.861C51.7474 162.659 52.2262 164.016 52.5454 165.292C53.4232 169.043 53.6626 172.873 53.3434 176.624C53.503 172.634 56.5353 168.883 60.4455 167.846C61.8818 167.447 63.5576 167.527 64.5152 168.564C65.3132 169.442 65.393 170.799 65.3132 171.996C65.0738 175.028 64.1162 177.98 62.5202 180.534C64.2758 178.539 66.6698 177.182 69.3031 176.624C70.4203 176.385 71.6971 176.385 72.4153 177.262C72.7345 177.741 72.8143 178.3 72.8143 178.938C72.8941 182.21 71.1385 185.482 68.3456 187.157C72.8143 186.439 77.3628 190.19 77.6022 194.658C77.682 195.616 77.5224 196.574 76.9638 197.372C75.8466 199.127 73.2133 199.367 71.3779 198.409C69.5425 197.531 68.186 195.776 66.989 194.1C68.5051 196.414 68.9041 199.446 68.1062 202.08C67.5476 203.995 65.792 205.91 63.9566 205.272C62.999 204.953 62.4404 203.995 61.8818 203.117C60.6051 200.963 59.2485 198.808 57.9717 196.653C59.0091 199.127 59.6475 201.84 59.7273 204.554C59.8071 206.07 59.0889 208.144 57.5727 207.905C57.0141 207.825 56.6151 207.426 56.2161 207.027C54.3807 205.112 52.7848 202.878 51.508 200.564C52.4656 202.479 53.3434 204.554 53.2636 206.628C53.1838 208.783 51.8272 211.017 49.7524 211.416C47.2786 211.975 44.8847 209.661 44.3261 207.187C43.7675 204.713 44.4857 202.08 45.2837 199.686C43.8473 203.915 41.5331 208.783 37.0644 209.182C36.5856 209.182 36.027 209.182 35.628 208.942C35.0694 208.623 34.7502 207.985 34.5906 207.346C33.3138 203.516 33.7926 199.207 35.8674 195.776C34.7502 198.329 32.6754 200.404 30.2017 201.601C29.0845 202.16 27.5683 202.479 26.6107 201.601C25.9723 201.042 25.8925 200.085 25.8127 199.207C25.3339 196.494 23.339 192.025 26.0521 190.429Z" fill="#FFABF6"/>
<path d="M118.858 172.013L117.82 168.422C115.985 167.385 113.591 168.661 112.633 170.577C111.676 172.412 111.756 174.646 111.756 176.721C111.915 193.639 106.728 210.556 97.0725 224.521C93.2422 230.027 88.6138 235.373 87.8158 241.997C87.5764 243.992 87.6563 246.066 88.7734 247.742C89.4916 248.859 90.6886 249.737 91.9654 250.296C97.2321 252.53 103.217 249.657 107.845 246.386C120.932 237.129 130.508 223.723 138.169 209.598C140.483 205.289 142.638 200.98 144.393 196.432C148.782 184.94 150.378 172.492 149.022 160.283C148.782 157.889 148.064 155.096 145.75 154.298C143.914 153.659 141.84 154.776 140.802 156.372C139.765 157.968 139.366 159.963 139.127 161.879C138.728 160.123 138.329 158.288 137.211 156.771C136.094 155.335 134.179 154.377 132.423 154.936C130.827 155.495 129.95 157.25 129.63 158.926C129.311 160.602 129.391 162.357 128.992 164.033C129.71 162.437 129.311 160.362 127.955 159.165C126.678 157.968 124.603 157.729 123.087 158.607C121.571 159.485 120.693 161.16 120.055 162.836C118.698 166.108 117.9 169.699 118.858 172.013Z" fill="#FFA28B"/>
<path d="M202.248 50.9442C199.295 57.2483 196.422 63.5525 193.47 69.8566C198.018 65.5474 202.567 61.2383 207.036 56.9292C207.435 56.5302 207.834 56.1312 208.392 55.9716C209.031 55.7322 209.749 55.9716 210.467 56.1312C218.606 58.1261 227.225 58.1261 235.444 56.2908C238.397 55.5726 241.668 54.3756 242.786 51.5028C243.025 50.9442 243.105 50.3856 242.945 49.8271C242.786 49.2685 242.387 48.7897 241.988 48.4705C239.514 46.2361 235.683 45.5179 232.491 46.7149C234.726 46.3957 237.04 46.0765 238.796 44.7997C240.631 43.5229 241.748 40.9694 240.791 38.9744C240.232 37.7774 239.035 37.0592 237.838 36.5006C231.294 33.4683 223.634 34.9845 216.611 36.5006C216.931 31.8723 213.42 27.4036 209.031 26.047C204.562 24.6904 199.535 26.047 196.023 29.1591C193.629 31.2339 191.874 34.1865 191.954 37.2986C192.033 40.4108 194.348 43.6027 197.46 43.9219C195.385 43.6825 193.31 43.6027 191.395 44.0815C189.4 44.6401 187.565 45.9169 186.846 47.9119C186.527 48.7099 186.527 49.7473 187.006 50.4654C187.485 51.2634 188.442 51.5826 189.4 51.822C193.789 53.019 198.737 52.62 202.248 50.9442Z" fill="white"/>
<path d="M232.492 82.7061C228.582 78.796 222.597 76.6414 217.251 78.2374C211.904 79.8334 207.994 85.8183 209.59 91.1648C210.548 94.277 213.101 96.7507 216.054 98.1871C219.006 99.6235 222.278 100.262 225.55 100.741C221.48 102.097 218.288 106.007 217.809 110.317C217.729 111.194 217.729 112.152 218.208 112.95C218.607 113.588 219.246 113.987 219.884 114.306C223.395 116.062 227.625 116.142 231.455 115.264C235.285 114.386 238.876 112.551 242.387 110.795C236.163 116.381 230.657 122.845 226.188 129.947C232.173 127.394 238.158 124.84 244.143 122.286C251.564 119.094 259.065 115.902 265.768 111.434C268.322 109.678 270.876 107.763 272.471 105.05C274.067 102.416 274.546 98.9053 272.95 96.1921C271.434 93.479 267.524 92.2022 264.97 94.0376C268.881 91.2446 271.275 86.5365 271.275 81.6687C271.354 76.8808 268.96 72.0929 265.21 69.2201C259.544 64.911 251.484 65.0706 244.861 67.7039C238.477 70.2575 232.333 76.2424 232.492 82.7061Z" fill="white"/>
<path d="M263.373 3.86325C258.266 -0.20649 250.845 -1.16408 244.86 1.54909C243.104 2.34707 241.348 3.70366 241.189 5.61883C241.029 7.6138 242.865 9.28958 244.78 9.76837C246.695 10.2472 248.77 9.68857 250.685 9.20978C248.131 10.327 246.057 12.3219 244.78 14.7957C244.461 15.4341 244.141 16.2321 244.381 16.8705C244.7 17.9079 245.817 18.3069 246.775 18.626C251.802 19.9826 257.228 19.6634 262.096 17.8281C257.787 22.616 254.116 27.8827 251.004 33.5484C256.67 28.8403 262.256 24.0524 267.682 19.025C268.4 20.7008 270.874 20.7008 272.231 19.5038C273.587 18.3069 273.986 16.4715 274.305 14.7159C274.784 12.0825 275.263 9.28958 274.704 6.65622C274.146 4.02285 272.39 1.46929 269.757 0.751097C267.044 0.112706 263.852 1.86828 263.373 3.86325Z" fill="white"/>
</svg>
