<svg width="312" height="315" viewBox="0 0 312 315" fill="none" xmlns="http://www.w3.org/2000/svg">
<path d="M148.164 168.39C147.685 162.231 145.419 156.423 143.058 150.838C135.622 133.35 126.782 116.659 117.208 100.575L117.113 100.862L107.092 81.6508C106.422 78.1723 107.283 74.5661 108.081 71.1195C108.911 67.6729 109.709 64.0667 108.975 60.5882C108.241 57.1097 105.4 53.9503 102.273 54.4929C99.9115 54.9077 98.0924 57.3331 97.4223 59.95C97.0712 61.3222 96.9436 62.7583 96.9436 64.2263C96.4649 57.6203 95.3479 51.0463 93.5608 44.7275C92.8268 42.1426 91.8056 39.3342 89.6036 38.2811C86.6357 36.8131 83.0934 39.6534 82.0721 43.1319C81.3701 45.4934 81.4658 48.0145 81.8487 50.5038C79.4553 40.1001 72.6897 29.5689 64.4243 33.7814C54.5632 38.7917 65.2221 51.876 71.1898 62.0881C66.8816 56.2162 61.8393 51.0463 56.2227 46.8018C53.8611 45.0147 50.9889 43.3233 48.2763 44.2807C44.5744 45.5892 43.3617 51.3335 44.9574 55.3545C46.1701 58.4501 48.4678 60.7478 50.9251 62.7583C49.1699 61.4818 47.3509 60.4287 45.3084 60.1415C42.3724 59.7266 38.9897 61.5456 38.4471 64.8327C37.8727 68.2793 40.4257 71.2791 42.7873 73.5768C51.0528 81.6508 59.3182 89.6928 67.5837 97.7668C66.2433 97.1924 95.6351 144.455 99.2094 150.168C99.2413 150.2 99.2413 150.232 99.2732 150.232C99.4647 150.551 99.5604 150.71 99.5604 150.71L99.5923 150.647C103.964 156.167 106.996 162.837 110.443 169.188C113.953 175.698 118.102 182.113 123.974 185.878C129.846 189.644 137.792 190.123 142.962 185.24C147.079 181.251 148.643 174.549 148.164 168.39Z" fill="#FF7A54"/>
<path d="M275.812 61.0033C275.237 57.7163 271.854 55.8972 268.95 56.3121C266.908 56.5993 265.057 57.6525 263.334 58.929C265.791 56.9185 268.089 54.6207 269.301 51.5252C270.865 47.5041 269.684 41.7598 265.982 40.4514C263.27 39.494 260.398 41.1854 258.036 42.9725C252.419 47.2169 247.377 52.3868 243.069 58.2588C249.005 48.0147 259.696 34.9624 249.834 29.952C241.569 25.7395 234.803 36.2708 232.41 46.6744C232.793 44.1852 232.889 41.6641 232.187 39.3025C231.165 35.824 227.623 32.9838 224.655 34.4517C222.453 35.5368 221.432 38.3132 220.698 40.8982C218.943 47.2169 217.794 53.7591 217.315 60.397C217.315 58.9609 217.219 57.5248 216.836 56.1206C216.166 53.5038 214.347 51.0784 211.986 50.6635C208.89 50.121 206.05 53.2804 205.284 56.7589C204.55 60.2374 205.348 63.8436 206.178 67.2902C207.007 70.7368 207.837 74.3429 207.167 77.8214L197.146 97.0649L197.05 96.7777C187.445 112.862 178.637 129.552 171.201 147.041C168.839 152.625 166.574 158.402 166.095 164.593C165.616 170.752 167.18 177.454 171.392 181.411C176.562 186.294 184.509 185.815 190.381 182.049C196.253 178.283 200.401 171.869 203.912 165.359C207.326 159.04 210.39 152.338 214.762 146.817L214.794 146.881C214.794 146.881 214.89 146.721 215.081 146.402C215.113 146.37 215.113 146.339 215.145 146.339C218.687 140.626 248.111 93.363 246.771 93.9375C255.036 85.8635 263.302 77.8214 271.567 69.7475C273.801 67.4497 276.386 64.4499 275.812 61.0033Z" fill="#FF7A54"/>
<path d="M23.8887 251.876C23.8887 231.963 39.2388 215.815 58.1951 215.815C77.1514 215.815 92.5015 231.963 92.5015 251.876C92.5015 271.79 77.1514 287.938 58.1951 287.938C39.2388 287.938 23.8887 271.79 23.8887 251.876Z" fill="black"/>
<path d="M222.199 253.344C222.199 233.941 238.124 218.24 257.782 218.24C277.441 218.24 293.365 233.941 293.365 253.344C293.365 272.747 277.441 288.448 257.782 288.448C238.124 288.448 222.199 272.715 222.199 253.344Z" fill="black"/>
<path d="M158.661 201.102C182.946 226.441 207.264 251.779 231.55 277.118C225.04 264.066 226.859 247.28 236.018 235.919C245.177 224.558 261.229 219.228 275.366 222.866C250.027 207.548 224.433 192.102 196.541 182.145C187.797 179.018 178.16 176.465 169.383 179.465C160.639 182.465 152.406 194.591 158.661 201.102Z" fill="#0054DC"/>
<path d="M157.671 198.869C133.353 224.207 109.068 249.546 84.75 274.885C91.2603 261.833 89.4412 245.047 80.2822 233.686C71.1232 222.325 55.071 216.995 40.9336 220.633C66.2725 205.315 91.8666 189.869 119.759 179.912C128.503 176.785 138.14 174.232 146.916 177.232C155.692 180.231 163.894 192.358 157.671 198.869Z" fill="#0054DC"/>
<path d="M70.1984 250.982C70.0708 241.248 69.273 231.419 66.0817 222.228C62.8904 213.037 57.146 204.484 48.8487 199.41C40.5513 194.336 29.5414 193.251 21.0525 198.006C12.7551 202.665 7.90438 212.303 7.84055 221.813C7.77673 231.323 12.0211 240.546 18.2761 247.695C24.5629 254.843 32.7326 260.077 41.3172 264.194C38.1898 275.874 45.3702 289.437 56.8588 293.171C68.3475 296.904 82.2934 289.852 85.8677 278.299C89.4739 266.747 81.6871 252.896 70.1984 250.982Z" fill="#FDB400"/>
<path d="M276.262 264.8C283.602 258.418 290.591 251.429 295.537 243.068C300.484 234.707 303.324 224.782 301.824 215.176C300.324 205.57 294.037 196.475 284.942 193.06C276.038 189.741 265.539 192.294 258.231 198.358C250.923 204.453 246.646 213.644 245.242 223.058C243.838 232.473 245.146 242.11 247.54 251.301C236.594 256.471 230.881 270.704 235.477 281.906C240.072 293.075 254.433 299.171 265.571 294.448C276.708 289.693 282.261 274.821 276.262 264.8Z" fill="#FDB400"/>
<path d="M155.532 204.708L114.205 181.188L114.242 134.339L155.532 156.168L156.362 157.668L155.532 204.708Z" fill="#FF0000"/>
<path d="M155.528 204.717L195.323 181.189L195.515 133.479L154.666 109.449L114.232 134.341L155.687 156.68L155.528 204.717Z" fill="#FDB400"/>
<path d="M178.444 134.945L155.977 148.54L156.679 121.223L132.553 108.171L157.924 94.3203L179.05 106.192L178.444 134.945Z" fill="#FF7A54"/>
<path d="M156.164 148.7L157.121 121.255L132.58 108.235L132.708 136.222L156.164 148.7Z" fill="#FFA087"/>
<path d="M60.9288 134.74C54.4827 126.737 43.1368 122.958 33.1567 125.408C23.1766 127.858 14.8545 136.52 12.6119 146.463C10.5233 156.544 14.206 167.629 22.0498 174.384" stroke="#0054DC" stroke-width="7" stroke-miterlimit="10" stroke-linecap="round"/>
<path d="M151.863 74.2514L122.758 31.8977L136.009 5.01527C136.311 4.26079 137.123 4.24938 137.634 4.99242L180.897 67.1531C180.897 67.1531 147.846 19.8534 136.868 3.87784" stroke="#FF0000" stroke-width="7" stroke-miterlimit="10" stroke-linecap="round"/>
<path d="M117.338 280.895C133.988 270.133 151.029 259.426 168.516 249.777C171.133 248.16 174.087 251.166 172.919 253.785L144.377 313.19" stroke="#FF5C01" stroke-width="7" stroke-miterlimit="10"/>
<path d="M307.846 173.665C290.306 154.99 273.712 135.793 257.777 115.796" stroke="#FDB300" stroke-width="7" stroke-miterlimit="10" stroke-linecap="round"/>
</svg>
