<svg width="240" height="247" viewBox="0 0 240 247" fill="none" xmlns="http://www.w3.org/2000/svg">
<g clip-path="url(#clip0_1_522)">
<path d="M-41.9055 165.781C-8.8859 118.722 24.1304 71.5477 57.0347 24.4921C61.9103 17.5507 67.1216 10.2539 74.979 6.80196C82.7211 3.35328 93.7409 5.69151 96.6202 13.6804C98.8643 19.6121 95.9374 26.1521 92.8691 31.7737C85.748 44.8897 77.5703 57.3441 68.4514 69.1334C76.2113 54.1544 86.1928 40.2652 98.0767 28.3971C103.459 23.0555 111.379 17.757 117.939 21.3752C121.569 23.3472 123.418 27.5606 123.652 31.7047C123.885 35.8488 122.614 39.8051 121.109 43.6528C115.202 58.9249 106.021 72.5608 96.8359 86.0815C103.891 70.6613 113.866 56.5417 125.984 44.7823C129.124 41.6952 132.502 38.8319 136.61 37.3314C140.718 35.8309 145.688 36.266 148.884 39.1728C154.334 44.3214 151.591 53.2774 148.44 60.0544C141.253 74.9018 133.013 89.2026 123.831 102.839C140.928 71.5674 160.704 41.2577 186.404 16.5443C191.229 11.9103 196.404 7.3817 202.797 5.1244C209.074 2.87039 216.812 3.34195 221.667 7.81572C225.692 11.506 227.245 17.4573 226.938 22.885C226.52 28.4313 224.475 33.5626 222.197 38.5852C210.255 64.6365 192.689 87.5043 175.35 110.25C175.35 110.25 187.456 110.252 186.067 110.061C194.208 100.374 203.031 90.323 214.897 85.9499C220.375 83.9492 227.517 83.7459 231.105 88.2558C234.811 92.8775 232.812 99.6217 230.665 105.217C224.391 121.404 218.12 137.697 211.847 153.893C211.317 155.259 210.215 156.324 208.831 156.807L130.29 184.201C129.188 184.585 128.255 185.343 127.653 186.342L76.7301 270.9L44.6294 313.782L-77.8847 218.228L-41.9055 165.781Z" fill="#FF8567"/>
<path d="M212.184 39.2161C212.184 39.2161 189.694 22.792 189.806 22.6735C192.028 19.7278 194.366 16.7788 197.065 14.3961C199.761 11.8981 203.05 9.95972 206.723 9.39398C210.393 8.71304 214.336 9.52321 217.062 12.0975C220.731 15.452 221.356 21.1991 219.878 25.9684C218.284 30.741 215.17 34.7498 212.184 39.2161Z" fill="#FFA28B"/>
<path d="M224.429 121.075C224.429 121.075 232.032 100.566 232.035 100.681C232.973 97.1958 233.56 93.4896 232.082 90.188C230.976 87.7982 228.732 85.902 226.174 85.1677C223.617 84.4334 220.743 84.7458 218.472 85.9634C215.292 87.6681 213.189 90.7257 211.898 93.9908C209.962 98.8884 209.767 104.198 210.03 109.379C210.112 112.259 210.428 115.247 211.54 117.868C212.652 120.488 214.795 122.848 217.698 123.573C220.492 124.531 223.912 123.165 224.429 121.075Z" fill="#FFA28B"/>
</g>
<defs>
<clipPath id="clip0_1_522">
<rect width="314.291" height="307.26" fill="white" transform="translate(-83.8125 9.9375) rotate(-1.63017)"/>
</clipPath>
</defs>
</svg>
