<svg width="135" height="336" viewBox="0 0 135 336" fill="none" xmlns="http://www.w3.org/2000/svg">
<path d="M-1.27468 79.2505L-1.54395 170.621V336.22L7.07257 336.31H134.256V17.8275C134.256 10.1158 125.896 5.30628 119.229 9.18263L-1.27468 79.2505Z" fill="#2D573D"/>
<mask id="mask0_800_5767" style="mask-type:alpha" maskUnits="userSpaceOnUse" x="-2" y="10" width="137" height="337">
<path d="M-1.27468 89.1841L-1.54395 180.555V346.154L7.07257 346.243H134.256V10.3789L-1.27468 89.1841Z" fill="#2D573D"/>
<path d="M-1.27468 89.1841L-1.54395 180.555V346.154L7.07257 346.243H134.256V10.3789L-1.27468 89.1841Z" fill="#2D573D"/>
</mask>
<g mask="url(#mask0_800_5767)">
</g>
<mask id="mask1_800_5767" style="mask-type:alpha" maskUnits="userSpaceOnUse" x="-2" y="10" width="137" height="337">
<path d="M-1.27468 89.1841L-1.54395 180.555V346.154L7.07257 346.243H134.256V10.3789L-1.27468 89.1841Z" fill="#2D573D"/>
<path d="M-1.27468 89.1841L-1.54395 180.555V346.154L7.07257 346.243H134.256V10.3789L-1.27468 89.1841Z" fill="#2D573D"/>
</mask>
<g mask="url(#mask1_800_5767)">
<path d="M134.705 213.863C125.55 207.131 116.395 200.31 107.329 193.578C106.252 192.771 105.085 191.963 103.739 191.514C102.393 191.065 100.957 191.155 99.5205 191.245C96.4688 191.424 93.3274 191.604 90.2757 191.783C85.3392 192.053 79.9538 192.322 75.8251 189.539C73.671 188.103 71.9656 185.231 73.4017 183.077C74.1197 181.91 75.4661 181.372 76.8124 181.013C82.467 179.218 88.4806 178.5 94.4045 178.948C85.6982 175.986 77.5305 171.319 70.6193 165.216C69.4525 164.139 68.1959 162.972 67.5676 161.446C66.9393 159.92 67.1188 158.035 68.3754 156.958C69.991 155.612 72.4144 156.42 74.389 157.317C81.749 160.728 88.8396 164.767 95.4815 169.344C90.3655 165.844 85.5187 162.074 80.8514 158.035C78.428 155.881 75.9149 153.548 74.8378 150.496C74.6583 150.047 74.4788 149.509 74.6583 148.97C75.1071 147.354 77.5305 147.893 78.9665 148.701C86.2367 152.829 93.4172 157.048 100.598 161.356C94.943 156.42 89.1987 151.483 84.3519 145.829C83.4543 144.841 82.6465 143.764 82.3772 142.508C82.1977 141.251 82.826 139.725 84.0826 139.366C84.9801 139.187 85.9675 139.635 86.7753 140.084C93.8659 144.033 100.777 148.162 107.599 152.56C103.38 149.06 99.6103 144.931 96.5586 140.264C95.5713 138.738 94.6737 136.584 95.9303 135.327C97.1869 133.981 99.4308 134.878 100.957 135.776C105.893 138.738 110.471 142.238 115.048 145.739C131.473 158.125 147.899 170.601 164.324 182.987C166.209 184.423 168.094 185.949 168.812 188.103C169.619 190.706 168.453 193.489 167.196 196.002C163.516 203.272 159.387 210.363 154.81 217.094C153.015 219.787 150.412 222.749 147.181 222.39C145.565 222.21 144.129 221.133 142.872 220.146C139.91 217.902 136.949 215.568 134.705 213.863Z" fill="#FFA28B"/>
<path d="M111.996 255.875L138.923 291.508L151.758 263.863L125.101 228.051L94.4042 231.641L82.1975 259.824L111.996 255.875Z" fill="#FF8567"/>
<path d="M138.923 291.508L111.996 255.875L82.1975 259.824L109.483 295.637L138.923 291.508Z" fill="#FFA28B"/>
<path d="M117.741 277.324C118.1 278.491 117.651 279.837 116.754 280.645C115.856 281.453 114.51 281.812 113.343 281.722C112.087 281.632 110.92 281.273 109.753 280.735C110.381 283.158 112.176 285.312 114.51 286.3C115.767 286.838 117.382 287.018 118.549 286.3C120.075 285.402 120.613 283.428 120.254 281.722C119.985 280.017 118.998 278.581 117.741 277.324Z" fill="white"/>
</g>
<path d="M86.4164 53.9414L61.5542 66.4174L61.0156 80.868L78.5179 91.6387L85.7881 76.829L86.4164 53.9414Z" fill="#FFABF6"/>
<path d="M30.409 136.785L25.293 145.043H37.9485L30.409 136.785Z" fill="#FFABF6"/>
<path d="M113.074 90.0195C112.894 88.5834 112.715 87.0575 111.907 85.8907C111.099 84.6341 109.573 83.8264 108.227 84.3649C106.701 84.9932 106.252 86.878 106.162 88.4936C105.803 93.5199 106.88 98.5462 109.214 103.034C109.753 104.111 110.65 105.278 111.907 105.188C113.253 105.009 113.792 103.303 113.881 101.957C114.24 97.6487 113.433 93.3404 113.074 90.0195Z" fill="#FDB300"/>
<path d="M47.2828 297.714C46.4751 294.842 45.6672 291.97 43.7824 289.726C41.8975 287.482 38.5766 286.136 35.8839 287.393C33.4605 288.559 32.3835 291.431 32.0244 294.124C31.0371 301.933 34.5376 309.831 40.1024 315.306C41.1795 316.383 42.3463 317.371 43.6926 317.82C45.039 318.358 46.7443 318.358 47.9111 317.461C49.3472 316.383 49.796 314.499 49.9755 312.704C50.514 306.78 48.1804 301.035 47.2828 297.714Z" fill="#FDB300"/>
<path d="M33.6404 231.027C33.6404 231.027 42.8852 214.422 43.334 214.422C46.3856 216.396 48.45 219.807 48.6295 223.397C48.809 226.988 46.9242 230.668 43.7827 232.463C40.5515 234.258 36.2433 233.899 33.6404 231.027Z" fill="#FFABF6"/>
<path d="M26.1008 84.9062C23.6774 86.7014 20.7154 87.6887 18.1125 89.1248C15.5096 90.6506 12.9965 92.9842 12.6375 95.9462C12.3682 98.9081 14.2531 101.78 16.6765 103.486C18.9203 105.101 22.2413 105.999 24.5749 104.383C26.4598 103.037 26.9983 100.524 27.2676 98.19C27.6266 93.8818 27.2676 89.394 26.1008 84.9062Z" fill="#FF5C01"/>
<path d="M60.3871 234.797C54.912 245.298 49.5267 255.8 44.0516 266.301C43.3336 267.737 42.6155 269.442 43.3336 270.789C44.4106 272.763 47.3725 272.315 49.5267 271.597C52.9374 270.43 56.3481 269.173 59.7588 267.917C62.3617 266.929 65.1441 265.762 66.4904 263.339C67.6573 261.185 67.388 258.492 66.9392 256.069C65.5929 248.529 63.4388 241.08 60.3871 234.797Z" fill="#FF5C01"/>
<path d="M122.319 34.8219C123.037 32.8473 123.755 30.7829 123.396 28.7185C123.037 26.6541 121.331 24.6795 119.177 24.859C117.562 25.0385 116.395 26.3849 115.677 27.7312C114.959 29.1673 114.689 30.6931 113.971 32.1292C112.266 35.8092 108.407 37.9633 105.355 40.5662C97.2768 47.3876 93.5071 58.9661 95.8408 69.2879C96.3793 71.5318 97.6359 74.045 99.8797 74.2245C101.585 74.3142 102.931 72.9679 104.098 71.7113C113.792 60.9407 118.01 46.8491 122.319 34.8219Z" fill="#0054DC"/>
<path d="M92.2507 297.982C91.1736 295.02 90.0068 292.058 88.1219 289.635C86.2371 287.212 83.3649 285.237 80.2235 285.147C77.082 285.057 73.8508 287.301 73.4918 290.443C73.1328 293.315 75.1074 295.918 76.9923 298.072C84.2625 306.778 91.7121 315.574 101.226 321.678C102.483 322.485 103.829 323.293 105.355 323.383C106.881 323.473 108.496 322.575 108.766 321.049C109.035 319.703 108.137 318.446 107.24 317.369C102.034 310.817 95.0331 305.163 92.2507 297.982Z" fill="#0054DC"/>
<path d="M-1.54395 163.171V208.229L17.8432 182.648L47.642 186.598L35.4353 158.414L4.73893 154.824L-1.54395 163.171Z" fill="#FFA28B"/>
<path d="M-1.54395 208.229V219.358L20.3564 222.41L47.642 186.598L17.8432 182.648L-1.54395 208.229Z" fill="#FF8567"/>
<path d="M17.7537 208.414C17.2152 207.337 16.2278 206.708 15.061 206.439C13.8942 206.17 12.7274 206.349 11.6503 206.798C10.8425 207.067 10.0347 207.516 9.4962 208.234C8.86791 209.042 8.77815 210.119 9.04742 211.106C9.31668 212.094 10.0347 212.901 10.8425 213.44C11.9196 214.248 13.3557 214.697 14.702 214.427C16.0483 214.158 17.3049 213.26 17.8434 212.004C18.382 210.658 18.1127 209.132 17.7537 208.414Z" fill="white"/>
<path d="M-4.50583 231.929C1.059 230.313 6.80334 229.595 12.5477 229.954C13.535 230.044 14.5223 230.133 15.4199 230.582C16.3174 231.121 16.9457 232.108 16.7662 233.185C16.5867 234.531 15.1506 235.249 13.894 235.698C8.59845 237.673 3.12337 239.199 -2.44146 240.276C0.879488 240.276 4.11068 239.109 7.43163 238.66C10.7526 238.211 14.5223 238.75 16.6764 241.443C17.0354 241.802 17.3047 242.25 17.3047 242.789C17.3945 244.045 16.0481 244.853 14.8813 245.302C9.40625 247.277 3.75166 248.623 -1.90293 249.969C2.22582 249.251 6.44432 248.803 10.5731 248.803C12.0989 248.803 13.6247 248.803 14.9711 249.521C16.3174 250.239 17.3945 251.675 17.3047 253.29C17.1252 255.714 14.5223 256.88 12.3682 257.419C7.43163 258.765 2.31557 259.753 -2.80048 260.381L9.22674 259.394C11.8296 259.214 15.0608 259.394 16.1379 261.907C16.9457 263.702 16.0481 265.946 14.6121 267.292C13.176 268.549 11.2911 269.087 9.496 269.536C4.82872 270.703 0.0716896 271.421 -4.7751 271.87C-7.46776 272.139 -10.3399 272.229 -12.8531 270.882C-13.4814 270.523 -14.1994 269.895 -14.1097 269.087C-14.0199 268.549 -13.7506 268.19 -13.3916 267.831C-11.1477 265.677 -8.45507 264.061 -5.49314 263.343C-7.378 263.253 -9.17311 263.522 -11.058 263.343C-12.9428 263.163 -14.8277 262.266 -15.6355 260.381C-16.8023 257.599 -14.7379 254.457 -12.4043 252.752C-10.0707 251.046 -7.28825 249.88 -4.41608 249.431C-7.46776 250.598 -10.7887 250.867 -13.9301 250.328C-14.5584 250.239 -15.2765 250.059 -15.7253 249.521C-16.8023 248.264 -15.7253 246.289 -14.5584 245.212C-12.4043 243.238 -9.71164 241.802 -6.92923 241.353C-8.9936 241.622 -11.058 242.43 -13.1223 241.981C-15.1867 241.532 -17.0716 239.109 -16.174 237.134C-15.815 236.416 -15.1867 235.878 -14.5584 235.429C-11.058 233.275 -7.19849 232.736 -4.50583 231.929Z" fill="#FF8567"/>
<path d="M-7.19855 108.061C-1.63372 106.446 4.11062 105.728 9.85497 106.087C10.8423 106.176 11.8296 106.266 12.7271 106.715C13.6247 107.254 14.253 108.241 14.0735 109.318C13.894 110.664 12.4579 111.382 11.2013 111.831C5.90573 113.806 0.430655 115.331 -5.13418 116.409C-1.81323 116.409 1.41796 115.242 4.73891 114.793C8.05986 114.344 11.8296 114.883 13.9837 117.575C14.3427 117.934 14.612 118.383 14.612 118.922C14.7018 120.178 13.3554 120.986 12.1886 121.435C6.71353 123.409 1.05894 124.756 -4.59564 126.102C-0.466898 125.384 3.7516 124.935 7.88035 124.935C9.40619 124.935 10.932 124.935 12.2784 125.653C13.6247 126.371 14.7018 127.807 14.612 129.423C14.4325 131.846 11.8296 133.013 9.67546 133.552C4.73891 134.898 -0.377142 135.885 -5.4932 136.514L6.53402 135.526C9.13692 135.347 12.3681 135.526 13.4452 138.04C14.253 139.835 13.3554 142.079 11.9193 143.425C10.4833 144.682 8.59839 145.22 6.80329 145.669C2.13601 146.836 -2.62103 147.554 -7.46781 148.002C-10.1605 148.272 -13.0326 148.361 -15.5458 147.015C-16.1741 146.656 -16.8921 146.028 -16.8024 145.22C-16.7126 144.682 -16.4434 144.322 -16.0843 143.963C-13.8404 141.809 -11.1478 140.194 -8.18586 139.476C-10.0707 139.386 -11.8658 139.655 -13.7507 139.476C-15.6356 139.296 -17.5204 138.399 -18.3282 136.514C-19.495 133.731 -17.4307 130.59 -15.097 128.885C-12.7634 127.179 -9.98096 126.012 -7.10879 125.564C-10.1605 126.73 -13.4814 127 -16.7126 126.461C-17.3409 126.371 -18.0589 126.192 -18.5077 125.653C-19.5848 124.397 -18.5077 122.422 -17.3409 121.345C-15.1868 119.37 -12.4941 117.934 -9.7117 117.486C-11.7761 117.755 -13.8404 118.563 -15.9048 118.114C-17.9692 117.665 -19.8541 115.242 -18.9565 113.267C-18.5975 112.549 -17.9692 112.011 -17.3409 111.562C-13.7507 109.408 -9.89121 108.869 -7.19855 108.061Z" fill="#FF8567"/>
<path d="M71.6063 109.234C70.1702 114.44 68.7341 119.646 67.2083 124.852C63.1693 120.364 55.8093 119.377 50.783 122.698C45.7567 125.929 43.6026 133.109 46.026 138.584C48.4494 144.059 60.4766 151.868 60.9254 145.855C61.3742 140.469 49.9752 147.65 48.1801 152.855C46.4748 157.972 47.8211 163.716 49.706 168.742C55.3606 183.821 65.3234 196.746 75.1965 209.401" stroke="#FF0000" stroke-width="6" stroke-miterlimit="10"/>
<path d="M77.979 212.184C80.4922 215.056 83.0951 218.018 85.6082 220.89" stroke="#FF0000" stroke-width="6" stroke-miterlimit="10"/>
<path d="M12.8167 289.012L12.6372 315.131" stroke="#FF0000" stroke-width="6" stroke-miterlimit="10"/>
</svg>
