<svg width="181" height="311" viewBox="0 0 181 311" fill="none" xmlns="http://www.w3.org/2000/svg">
<path d="M71.6395 9.97037C98.9334 6.04281 124.255 24.9537 128.237 52.2397L144.267 162.074L166.568 317.048L156.352 318.604L5.38486 340.328L-39.8447 26.0128L71.6395 9.97037Z" fill="#2D573D"/>
<path d="M-12.4998 219.192C-4.39694 211.225 3.69319 203.169 11.7073 195.215C12.6583 194.262 13.6981 193.296 14.9668 192.66C16.2355 192.024 17.6697 191.908 19.104 191.793C22.1501 191.536 25.2851 191.266 28.3312 191.009C33.2558 190.572 38.6246 190.072 42.3149 186.73C44.2425 185.001 45.5214 181.916 43.7932 179.988C42.9162 178.935 41.5069 178.594 40.1232 178.43C34.2706 177.459 28.216 177.605 22.4165 178.893C30.6121 174.721 38.0318 168.938 44.0032 161.912C45.0047 160.68 46.0823 159.346 46.4868 157.746C46.8914 156.147 46.4452 154.307 45.0481 153.42C43.2572 152.317 40.9735 153.462 39.1469 154.631C32.3478 159.056 25.9047 164.063 19.9825 169.54C24.5478 165.347 28.8083 160.925 32.8527 156.263C34.9445 153.785 37.0997 151.117 37.7311 147.943C37.8449 147.474 37.9458 146.915 37.6915 146.408C37.0172 144.872 34.6952 145.751 33.3888 146.755C26.7808 151.877 20.2744 157.075 13.7808 162.362C18.6746 156.671 23.6573 150.966 27.6493 144.679C28.3971 143.574 29.0432 142.393 29.1308 141.111C29.1295 139.841 28.2902 138.42 26.9954 138.244C26.0814 138.194 25.1681 138.779 24.4324 139.338C17.9765 144.257 11.7239 149.328 5.59844 154.653C9.27536 150.587 12.4186 145.964 14.7744 140.909C15.5343 139.258 16.1159 136.998 14.6932 135.934C13.2576 134.78 11.1645 135.988 9.78202 137.094C5.31768 140.729 1.28539 144.845 -2.74689 148.962C-17.2405 163.562 -31.7212 178.25 -46.2148 192.849C-47.8759 194.539 -49.5242 196.318 -49.9282 198.552C-50.357 201.244 -48.8057 203.832 -47.204 206.14C-42.5261 212.812 -37.4295 219.242 -31.9398 225.253C-29.7795 227.663 -26.7813 230.224 -23.6342 229.408C-22.0606 229.001 -20.7926 227.73 -19.6894 226.574C-17.0773 223.931 -14.478 221.199 -12.4998 219.192Z" fill="#FFA28B"/>
<path d="M22.7215 263.711L-21.3663 270.854L-11.536 242.004L32.4812 234.546L52.1847 258.356L41.5281 287.161L22.7215 263.711Z" fill="#FF8567"/>
<path d="M-21.3656 270.853L22.7222 263.711L41.5288 287.16L-2.94246 294.184L-21.3656 270.853Z" fill="#FFA28B"/>
<path d="M8.8039 274.516C7.73799 275.111 7.13182 276.394 7.2222 277.598C7.31257 278.802 8.03747 279.992 8.94279 280.734C9.91297 281.538 11.0044 282.085 12.2199 282.502C10.0909 283.819 7.30471 284.135 4.93578 283.236C3.65543 282.756 2.36374 281.77 2.01672 280.444C1.53431 278.741 2.50985 276.942 3.94796 275.957C5.32121 274.911 7.02728 274.555 8.8039 274.516Z" fill="white"/>
<path d="M12.5186 54.025L38.9043 62.8327L41.4956 77.0592L25.7058 90.213L16.4004 76.5898L12.5186 54.025Z" fill="#FFABF6"/>
<path d="M79.7542 128.045L85.9942 135.49L73.4678 137.292L79.7542 128.045Z" fill="#FFABF6"/>
<path d="M-8.72852 93.5317C-8.75539 92.0847 -8.79505 90.5488 -8.16168 89.2788C-7.54109 87.92 -6.14586 86.9031 -4.73655 87.2444C-3.13678 87.649 -2.42411 89.4507 -2.10516 91.037C-1.03389 95.9609 -1.38408 101.089 -3.05472 105.864C-3.43436 107.007 -4.15657 108.289 -5.41312 108.379C-6.77129 108.394 -7.54722 106.782 -7.82782 105.462C-8.79682 101.249 -8.61088 96.8699 -8.72852 93.5317Z" fill="#FDB300"/>
<path d="M85.9736 289.737C86.3641 286.779 86.7545 283.821 88.3006 281.331C89.8466 278.842 92.9419 277.036 95.7861 277.897C98.351 278.706 99.8262 281.396 100.565 284.01C102.655 291.598 100.315 299.915 95.5865 306.127C94.6738 307.346 93.6595 308.49 92.3908 309.126C91.1349 309.85 89.4469 310.093 88.1642 309.371C86.5893 308.51 85.8767 306.708 85.4433 304.957C84.0665 299.17 85.5582 293.152 85.9736 289.737Z" fill="#FDB300"/>
<path d="M89.9791 221.787C89.9791 221.787 78.4635 206.669 78.0193 206.732C75.2799 209.122 73.7224 212.792 74.0561 216.371C74.3898 219.95 76.7796 223.324 80.1447 224.653C83.5986 225.97 87.8118 225.001 89.9791 221.787Z" fill="#FFABF6"/>
<path d="M76.629 76.0802C79.2834 77.5118 82.3558 78.0672 85.1367 79.1179C87.9304 80.2575 90.7503 82.2094 91.5275 85.0899C92.2159 87.9833 90.7593 91.0947 88.6036 93.1278C86.6127 95.0465 83.4534 96.4079 80.9135 95.1412C78.856 94.0771 77.9651 91.6662 77.3661 89.3947C76.3972 85.1815 76.1133 80.6884 76.629 76.0802Z" fill="#FF5C01"/>
<path d="M64.0418 229.329C70.9568 238.943 77.7829 248.571 84.6979 258.185C85.6132 259.504 86.5668 261.09 86.0478 262.525C85.263 264.633 82.2673 264.61 80.0329 264.206C76.4908 263.537 72.9359 262.779 69.381 262.021C66.664 261.415 63.7437 260.656 62.066 258.449C60.6042 256.483 60.4872 253.78 60.5862 251.317C60.845 243.663 61.9161 235.982 64.0418 229.329Z" fill="#FF5C01"/>
<path d="M-25.7409 40.2127C-26.7329 38.3605 -27.7376 36.4195 -27.6763 34.325C-27.615 32.2305 -26.2083 30.0332 -24.0505 29.904C-22.4258 29.8516 -21.0791 31.018 -20.1767 32.2483C-19.2614 33.5675 -18.7775 35.0394 -17.8623 36.3586C-15.6502 39.7582 -11.5232 41.3406 -8.13192 43.4823C0.835282 49.0836 6.21571 60.0071 5.37603 70.5561C5.16259 72.8538 4.27678 75.5203 2.08134 76.0176C0.406156 76.3493 -1.11821 75.2085 -2.4521 74.1309C-13.5809 64.8508 -19.7635 51.5037 -25.7409 40.2127Z" fill="#0054DC"/>
<path d="M41.5026 296.408C42.1469 293.323 42.8799 290.225 44.4004 287.558C45.9209 284.891 48.4825 282.527 51.5791 281.991C54.6757 281.455 58.1936 283.215 58.9964 286.274C59.7608 289.065 58.1771 291.923 56.6183 294.324C50.6623 303.977 44.5413 313.744 35.9936 321.14C34.8649 322.119 33.6473 323.11 32.1498 323.416C30.6523 323.722 28.9254 323.064 28.4415 321.592C27.9832 320.298 28.6927 318.926 29.4277 317.732C33.6472 310.506 39.7713 303.912 41.5026 296.408Z" fill="#0054DC"/>
<path d="M141.914 145.759L148.332 190.357L125.499 167.799L96.5662 175.952L104.634 146.317L134.506 138.392L141.914 145.759Z" fill="#FFA28B"/>
<path d="M148.331 190.356L149.917 201.372L128.674 207.512L96.566 175.951L125.498 167.798L148.331 190.356Z" fill="#FF8567"/>
<path d="M129.257 193.287C129.637 192.144 130.524 191.382 131.641 190.949C132.757 190.517 133.938 190.528 135.068 190.819C135.906 190.97 136.769 191.299 137.405 191.933C138.142 192.643 138.384 193.697 138.258 194.712C138.132 195.728 137.536 196.63 136.814 197.278C135.862 198.231 134.505 198.88 133.134 198.805C131.763 198.73 130.391 198.021 129.679 196.854C128.955 195.598 129.004 194.049 129.257 193.287Z" fill="white"/>
<path d="M150.852 213.936C145.114 213.13 139.326 213.237 133.691 214.411C132.727 214.64 131.762 214.87 130.938 215.442C130.126 216.103 129.645 217.169 129.976 218.21C130.345 219.517 131.869 220.023 133.177 220.288C138.699 221.489 144.336 222.219 149.998 222.493C146.71 222.966 143.346 222.271 139.995 222.3C136.644 222.329 132.989 223.398 131.241 226.371C130.937 226.777 130.734 227.26 130.811 227.793C130.901 229.049 132.348 229.657 133.567 229.935C139.268 231.11 145.056 231.637 150.845 232.164C146.656 232.041 142.417 232.198 138.33 232.786C136.82 233.003 135.31 233.221 134.079 234.123C132.849 235.026 131.987 236.601 132.306 238.187C132.829 240.56 135.572 241.344 137.781 241.57C142.859 242.2 148.063 242.448 153.217 242.342L141.171 243.077C138.569 243.271 135.397 243.908 134.689 246.549C134.145 248.441 135.353 250.534 136.966 251.662C138.566 252.702 140.509 252.966 142.349 253.155C147.135 253.645 151.946 253.678 156.807 253.432C159.511 253.315 162.367 252.995 164.662 251.304C165.233 250.859 165.854 250.135 165.65 249.348C165.485 248.828 165.167 248.511 164.761 248.207C162.233 246.394 159.338 245.179 156.304 244.89C158.156 244.533 159.972 244.543 161.812 244.097C163.652 243.651 165.39 242.494 165.921 240.514C166.679 237.593 164.189 234.778 161.636 233.422C159.083 232.067 156.163 231.308 153.256 231.273C156.443 231.993 159.768 231.787 162.801 230.806C163.41 230.628 164.095 230.348 164.463 229.751C165.35 228.354 164.002 226.553 162.694 225.653C160.281 224.005 157.411 222.967 154.593 222.919C156.675 222.892 158.833 223.397 160.812 222.659C162.792 221.921 164.312 219.254 163.143 217.427C162.685 216.768 161.986 216.324 161.301 215.969C157.529 214.336 153.632 214.352 150.852 213.936Z" fill="#FF8567"/>
<path d="M135.875 90.9503C130.137 90.1438 124.349 90.2512 118.714 91.4248C117.75 91.6542 116.785 91.8837 115.961 92.4557C115.149 93.1166 114.668 94.1834 114.999 95.2239C115.368 96.5309 116.892 97.0371 118.2 97.3023C123.722 98.5025 129.359 99.233 135.021 99.5065C131.733 99.9795 128.369 99.2848 125.018 99.3136C121.667 99.3424 118.012 100.412 116.264 103.384C115.96 103.791 115.757 104.273 115.834 104.806C115.924 106.063 117.371 106.671 118.59 106.949C124.291 108.124 130.079 108.651 135.868 109.178C131.679 109.055 127.44 109.212 123.353 109.8C121.843 110.017 120.333 110.235 119.102 111.137C117.872 112.04 117.01 113.614 117.329 115.201C117.852 117.574 120.595 118.358 122.804 118.584C127.882 119.214 133.086 119.462 138.239 119.356L126.194 120.091C123.592 120.284 120.42 120.922 119.712 123.563C119.168 125.455 120.376 127.548 121.989 128.676C123.589 129.716 125.532 129.98 127.372 130.169C132.158 130.659 136.969 130.692 141.83 130.446C144.534 130.329 147.39 130.009 149.685 128.318C150.256 127.873 150.877 127.149 150.673 126.362C150.508 125.842 150.19 125.525 149.784 125.221C147.256 123.408 144.361 122.193 141.327 121.904C143.179 121.546 144.995 121.557 146.835 121.111C148.675 120.665 150.413 119.508 150.944 117.527C151.702 114.607 149.212 111.792 146.659 110.436C144.106 109.081 141.186 108.322 138.279 108.287C141.466 109.007 144.791 108.801 147.913 107.807C148.522 107.629 149.207 107.349 149.574 106.752C150.462 105.355 149.114 103.554 147.806 102.654C145.392 101.006 142.523 99.9685 139.705 99.9206C141.786 99.8931 143.945 100.399 145.924 99.6604C147.904 98.9221 149.424 96.255 148.254 94.4283C147.797 93.7687 147.098 93.3252 146.412 92.9705C142.552 91.3497 138.655 91.3663 135.875 90.9503Z" fill="#FF8567"/>
<path d="M35.0531 106.644C37.216 111.592 39.3789 116.54 41.6307 121.476C44.9893 116.458 52.1336 114.433 57.5816 117.004C63.0169 119.486 66.1718 126.287 64.553 132.051C62.9341 137.816 52.1417 147.258 50.841 141.369C49.6297 136.103 61.9352 141.587 64.4534 146.484C66.8701 151.305 66.3557 157.182 65.2059 162.426C61.7567 178.156 53.7363 192.368 45.7664 206.301" stroke="#FF0000" stroke-width="6" stroke-miterlimit="10"/>
<path d="M43.4084 209.452C41.33 212.653 39.1755 215.955 37.0971 219.156" stroke="#FF0000" stroke-width="6" stroke-miterlimit="10"/>
<path d="M118.849 276.216L122.747 302.043" stroke="#FF0000" stroke-width="6" stroke-miterlimit="10"/>
</svg>
