<svg width="197" height="213" viewBox="0 0 197 213" fill="none" xmlns="http://www.w3.org/2000/svg">
<path d="M64.7253 190.439C63.8827 190.439 63.1147 190.273 62.4213 189.943C61.7387 189.601 61.1733 189.111 60.7253 188.471L62.1973 186.839C62.6347 187.329 63.0347 187.66 63.3973 187.831C63.7707 188.001 64.1813 188.087 64.6293 188.087C64.9707 188.087 65.2747 188.017 65.5413 187.879C65.808 187.74 66.016 187.548 66.1653 187.303C66.3147 187.057 66.3893 186.785 66.3893 186.487C66.3893 186.167 66.3093 185.884 66.1493 185.639C66 185.383 65.792 185.185 65.5253 185.047C65.2693 184.897 64.976 184.823 64.6453 184.823C64.4107 184.823 64.1867 184.844 63.9733 184.887C63.7707 184.919 63.552 184.988 63.3173 185.095C63.0827 185.191 62.7947 185.335 62.4533 185.527L61.2853 183.959L61.9733 179.031H68.4053V181.351H63.2853L63.9733 180.455L63.4613 183.959L62.5173 183.623C62.7093 183.452 62.9493 183.303 63.2373 183.175C63.536 183.036 63.8507 182.924 64.1813 182.839C64.5227 182.753 64.8587 182.711 65.1893 182.711C65.904 182.711 66.5387 182.876 67.0933 183.207C67.648 183.527 68.0853 183.975 68.4053 184.551C68.736 185.116 68.9013 185.772 68.9013 186.519C68.9013 187.255 68.7147 187.921 68.3413 188.519C67.9787 189.105 67.4827 189.575 66.8533 189.927C66.224 190.268 65.5147 190.439 64.7253 190.439ZM70.561 186.903V184.551H76.065V186.903H70.561ZM82.4216 190.327V181.319L83.8456 181.367L79.8776 186.215L79.5096 185.735H86.8856V187.991H78.2776L77.1736 185.879L82.8376 179.031H85.0616V190.327H82.4216ZM88.2797 186.903V184.551H93.7837V186.903H88.2797ZM99.1643 190.487C98.2577 190.487 97.4683 190.3 96.7963 189.927C96.1243 189.543 95.5057 188.887 94.9403 187.959L96.9243 186.711C97.1483 187.073 97.383 187.367 97.6283 187.591C97.8843 187.815 98.1457 187.98 98.4123 188.087C98.6897 188.183 98.9723 188.231 99.2603 188.231C99.559 188.231 99.831 188.167 100.076 188.039C100.322 187.9 100.519 187.713 100.668 187.479C100.818 187.233 100.892 186.951 100.892 186.631C100.892 186.3 100.828 186.028 100.7 185.815C100.572 185.591 100.386 185.42 100.14 185.303C99.895 185.185 99.5963 185.127 99.2443 185.127C99.095 185.127 98.9243 185.148 98.7323 185.191C98.551 185.223 98.359 185.271 98.1563 185.335C97.9537 185.399 97.7457 185.473 97.5323 185.559L96.9403 183.975L99.6283 181.015L100.364 181.431L95.7243 181.351V179.031H102.604L103.116 180.023L99.4203 183.975L98.7963 183.223C98.8817 183.191 99.0203 183.159 99.2123 183.127C99.4043 183.084 99.5857 183.063 99.7563 183.063C100.247 183.063 100.711 183.153 101.148 183.335C101.586 183.516 101.975 183.767 102.316 184.087C102.658 184.407 102.924 184.78 103.116 185.207C103.308 185.633 103.404 186.097 103.404 186.599C103.404 187.345 103.212 188.012 102.828 188.599C102.455 189.185 101.948 189.649 101.308 189.991C100.668 190.321 99.9537 190.487 99.1643 190.487ZM104.842 186.903V184.551H110.346V186.903H104.842ZM112.127 190.327L111.583 188.983L114.799 185.431C114.991 185.228 115.193 184.999 115.407 184.743C115.62 184.487 115.823 184.225 116.015 183.959C116.218 183.681 116.378 183.415 116.495 183.159C116.623 182.903 116.687 182.673 116.687 182.471C116.687 182.257 116.639 182.071 116.543 181.911C116.458 181.751 116.324 181.628 116.143 181.543C115.972 181.447 115.748 181.399 115.471 181.399C115.236 181.399 115.007 181.463 114.783 181.591C114.559 181.719 114.345 181.911 114.143 182.167C113.951 182.412 113.77 182.727 113.599 183.111L111.583 181.991C111.807 181.372 112.121 180.828 112.527 180.359C112.943 179.889 113.428 179.521 113.983 179.255C114.537 178.988 115.13 178.86 115.759 178.871C116.42 178.871 117.012 179.009 117.535 179.287C118.068 179.564 118.49 179.948 118.799 180.439C119.119 180.919 119.279 181.484 119.279 182.135C119.279 182.423 119.236 182.721 119.151 183.031C119.076 183.34 118.948 183.671 118.767 184.023C118.596 184.364 118.367 184.732 118.079 185.127C117.791 185.521 117.439 185.948 117.023 186.407L114.543 189.111L114.207 187.911H119.775V190.327H112.127ZM120.748 186.903V184.551H126.252V186.903H120.748ZM130.449 189.527V180.487L131.057 181.831L128.673 182.951L128.193 180.535L131.393 178.967H133.137V189.527H130.449ZM128.417 190.327V187.911H135.233V190.327H128.417Z" fill="#2D573D"/>
<path d="M0.0429688 10.2515C0.0429688 4.72862 4.52012 0.251465 10.043 0.251465H186.075C191.598 0.251465 196.075 4.72862 196.075 10.2515V159.136H0.0429688V10.2515Z" fill="#2D573D"/>
<rect x="1.54297" y="1.75146" width="193.706" height="209.097" rx="8.5" stroke="#2D573D" stroke-width="3"/>
<path d="M110.923 66.5398C110.801 88.9602 110.678 111.396 110.31 133.816H110.111" stroke="#FFA6FA" stroke-width="15" stroke-miterlimit="10"/>
<path d="M23.8814 87.3074L23.4756 137.379C23.4467 141.277 23.5771 145.611 26.2437 148.437C29.1277 151.495 33.8667 151.668 38.0695 151.625C76.8948 151.234 115.72 150.842 154.545 150.451C158.603 150.408 162.85 150.321 166.4 148.35C170.154 146.263 172.632 142.074 172.647 137.785C172.676 133.495 170.255 129.278 166.531 127.133C168.299 125.77 169.11 123.263 168.444 121.133C167.777 119.002 165.705 117.379 163.473 117.263C166.212 116.669 168.255 113.829 167.965 111.061C167.676 108.278 165.096 105.93 162.299 105.901C165.487 105.495 167.589 101.901 167.11 98.7275C166.618 95.5536 164.125 92.9884 161.255 91.5537C158.386 90.1189 155.14 89.6552 151.966 89.1914C143.705 88.003 135.43 86.8147 127.169 85.6408C122.662 84.9886 117.619 84.4669 113.967 87.1915C111.285 89.1914 109.938 92.829 110.662 96.0898C111.387 99.3506 114.155 102.061 117.43 102.742C113.025 102.206 108.097 104.09 106.112 108.061C104.126 112.032 106.315 117.814 110.691 118.597C107.778 116.8 103.894 120.118 103.851 123.539C103.807 126.959 106.126 129.901 108.416 132.437C105.474 132.263 102.532 132.089 99.59 131.93C101.286 131.06 102.257 128.988 101.851 127.118C101.445 125.263 99.706 123.77 97.8075 123.669C102.633 116.959 106.3 109.408 108.575 101.467C109.88 96.8869 110.474 91.2638 106.996 88.003C103.402 84.6263 97.1698 85.9451 93.7351 89.4958C90.3004 93.0464 88.9816 98.0753 87.8801 102.887C86.6048 101.307 83.7353 101.539 82.7208 103.307C76.9818 94.3073 66.3733 89.3508 55.8083 87.9451C45.2288 86.5103 34.5189 88.1914 23.8814 87.3074Z" fill="#FF7B5C"/>
<path d="M104.49 86.5982C101.65 85.859 98.5192 86.2359 95.9395 87.6416C93.3599 89.0474 91.3454 91.4676 90.4324 94.2647C90.0411 95.4531 89.8672 96.8443 90.5483 97.9023C91.3599 99.1776 93.099 99.511 94.6207 99.4385C99.5336 99.1921 104.128 95.7574 105.751 91.1198C106.084 90.1778 106.302 89.1343 106.012 88.1778C105.736 87.2213 104.823 86.3808 104.49 86.5982Z" fill="#FF9F87"/>
<path d="M131.604 85.8587C133.155 86.0326 134.604 87.0326 135.3 88.4383C135.995 89.8441 135.937 91.5977 135.126 92.931C133.734 95.2643 130.676 95.9454 127.966 95.902C124.937 95.844 121.923 95.1483 119.184 93.8585C117.996 93.3078 116.836 92.6267 116.025 91.5977C115.213 90.5687 114.793 89.163 115.242 87.9311C115.851 86.2355 117.793 85.4529 119.546 85.0761C123.793 84.1631 128.039 85.4529 131.604 85.8587Z" fill="#FF9F87"/>
<path d="M130.216 102.38C131.68 102.177 133.028 103.626 133.057 105.105C133.086 106.583 132.086 107.945 130.839 108.742C129.593 109.539 128.1 109.873 126.651 110.177C121.419 111.278 115.941 112.09 110.753 110.815C109.086 110.409 107.217 109.51 106.912 107.815C106.724 106.771 107.202 105.699 107.941 104.945C108.68 104.192 109.666 103.728 110.651 103.351C116.869 100.974 123.796 103.25 130.216 102.38Z" fill="#FF9F87"/>
<path d="M110.113 117.467C108.36 117.742 106.519 118.104 105.128 119.206C103.737 120.307 102.954 122.394 103.853 123.93C104.679 125.351 106.505 125.771 108.128 125.945C114.925 126.669 121.939 125.22 127.896 121.858C128.519 121.51 129.185 121.046 129.316 120.351C129.504 119.264 128.301 118.496 127.272 118.104C121.635 116.017 115.562 116.641 110.113 117.467Z" fill="#FF9F87"/>
<path d="M172.529 139.539C171.268 137.351 168.268 137.017 165.746 137.264C161.051 137.698 156.457 139.235 152.457 141.727C151.326 142.423 150.211 143.234 149.515 144.35C148.805 145.481 148.573 146.988 149.24 148.133C150.124 149.64 152.095 149.988 153.834 150.133C157.819 150.452 161.978 150.437 165.631 148.785C169.254 147.118 172.239 143.452 172.529 139.539Z" fill="#FF9F87"/>
<mask id="mask0_2143_6438" style="mask-type:alpha" maskUnits="userSpaceOnUse" x="23" y="85" width="150" height="67">
<path d="M23.8814 87.3074L23.4756 137.379C23.4467 141.277 23.5771 145.611 26.2437 148.437C29.1277 151.495 33.8667 151.668 38.0695 151.625C76.8948 151.234 115.72 150.842 154.545 150.451C158.603 150.408 162.85 150.321 166.4 148.35C170.154 146.263 172.632 142.074 172.647 137.785C172.676 133.495 170.255 129.278 166.531 127.133C168.299 125.77 169.11 123.263 168.444 121.133C167.777 119.002 165.705 117.379 163.473 117.263C166.212 116.669 168.255 113.829 167.965 111.061C167.676 108.278 165.096 105.93 162.299 105.901C165.487 105.495 167.589 101.901 167.11 98.7275C166.618 95.5536 164.125 92.9884 161.255 91.5537C158.386 90.1189 155.14 89.6552 151.966 89.1914C143.705 88.003 135.43 86.8147 127.169 85.6408C122.662 84.9886 117.619 84.4669 113.967 87.1915C111.285 89.1914 109.938 92.829 110.662 96.0898C111.387 99.3506 114.155 102.061 117.43 102.742C113.025 102.206 108.097 104.09 106.112 108.061C104.126 112.032 106.315 117.814 110.691 118.597C107.778 116.8 103.894 120.118 103.851 123.539C103.807 126.959 106.126 129.901 108.416 132.437C105.474 132.263 102.532 132.089 99.59 131.93C101.286 131.06 102.257 128.988 101.851 127.118C101.445 125.263 99.706 123.77 97.8075 123.669C102.633 116.959 106.3 109.408 108.575 101.467C109.88 96.8869 110.474 91.2638 106.996 88.003C103.402 84.6263 97.1698 85.9451 93.7351 89.4958C90.3004 93.0464 88.9816 98.0753 87.8801 102.887C86.6048 101.307 83.7353 101.539 82.7208 103.307C76.9818 94.3073 66.3733 89.3508 55.8083 87.9451C45.2288 86.5103 34.5189 88.1914 23.8814 87.3074Z" fill="#FF7B5C"/>
</mask>
<g mask="url(#mask0_2143_6438)">
<path d="M104.125 139.8C100.531 143.35 97.1395 147.104 93.9512 151.031" stroke="#FF9F87" stroke-width="5" stroke-miterlimit="10"/>
<path d="M116.254 138.582C112.023 142.379 108.197 146.64 104.863 151.263" stroke="#FF9F87" stroke-width="5" stroke-miterlimit="10"/>
<path d="M125.532 139.785C121.779 143.596 118.025 147.422 114.271 151.234" stroke="#FF9F87" stroke-width="5" stroke-miterlimit="10"/>
<path d="M145.561 118.815C146.488 121.105 147.416 123.409 148.329 125.699" stroke="#FF9F87" stroke-width="5" stroke-miterlimit="10"/>
<path d="M150.6 118.698C151.44 120.524 152.266 122.35 153.107 124.162" stroke="#FF9F87" stroke-width="5" stroke-miterlimit="10"/>
<path d="M156.719 118.988C157.704 121.38 158.704 123.756 159.69 126.148C159.559 125.829 159.443 125.51 156.719 118.988Z" stroke="#FF9F87" stroke-width="5" stroke-miterlimit="10"/>
<path d="M149.213 103.322C150.242 105.626 151.285 107.931 152.314 110.249" stroke="#FF9F87" stroke-width="5" stroke-miterlimit="10"/>
<path d="M154.121 104.525C154.889 106.191 155.672 107.858 156.44 109.525" stroke="#FF9F87" stroke-width="5" stroke-miterlimit="10"/>
<path d="M160.197 105.423C161.284 107.64 162.386 109.858 163.473 112.075C163.744 111.979 163.168 111.916 160.197 105.423Z" stroke="#FF9F87" stroke-width="5" stroke-miterlimit="10"/>
<path d="M149.281 89.322C150.528 91.1336 151.586 93.0901 152.412 95.1335" stroke="#FF9F87" stroke-width="5" stroke-miterlimit="10"/>
<path d="M154.689 89.9597C155.342 91.4959 155.994 93.0176 156.646 94.5538" stroke="#FF9F87" stroke-width="5" stroke-miterlimit="10"/>
<path d="M160.006 91.0613C160.875 93.1917 161.73 95.3221 162.6 97.4525" stroke="#FF9F87" stroke-width="5" stroke-miterlimit="10"/>
</g>
<path d="M116.527 40.7871C117.889 35.8162 122.237 31.8162 127.28 30.7293C132.324 29.6424 137.86 31.4539 141.396 35.2075C144.932 38.961 146.41 44.5116 145.352 49.555C144.642 52.9752 142.729 56.2215 139.773 58.0766C134.99 61.0765 128.817 59.8881 123.338 58.5983C128.614 59.0476 133.686 61.4823 137.353 65.3083C139.439 67.4967 141.121 70.2647 141.208 73.2937C141.367 78.2791 136.874 82.6413 131.932 83.2935C126.99 83.9601 122.005 81.5109 118.599 77.8733C115.194 74.2357 113.15 69.5256 111.599 64.7866C111.513 69.2503 109.556 73.627 106.31 76.6849C104.556 78.3371 102.107 79.6559 99.8026 78.9602C96.8027 78.0327 95.7447 74.0328 96.8606 71.1053C97.9766 68.1778 100.571 66.1054 103.049 64.1779C99.5272 67.888 95.8027 71.627 91.0926 73.656C86.3971 75.6994 80.4552 75.6704 76.6002 72.3082C73.1655 69.3082 72.1075 64.091 73.5857 59.7867C75.064 55.4824 78.7885 52.1347 83.0783 50.5985C88.455 48.6565 94.4114 49.3376 100.02 48.2362C106.107 47.0478 111.556 43.758 116.527 40.7871Z" fill="#FDB400"/>
<path d="M46.5762 0.280273C49.5471 11.5989 52.5181 22.7291 55.4745 34.0477C56.0542 36.2651 56.7064 38.5983 58.373 40.1635C59.9962 41.6997 62.315 42.2215 64.5034 42.6707C70.9235 44.0185 77.3292 45.3663 83.7493 46.7141C86.0826 47.2069 88.5174 47.6996 90.8362 47.1199C94.4158 46.2214 97.0679 42.6128 97.0099 38.9172C96.9665 35.2216 94.3433 31.7579 90.8651 30.526C87.8072 29.4391 84.0392 29.8159 81.7639 27.5116C79.9233 25.6566 79.8364 22.4248 81.3871 20.3233" fill="#FF9F87"/>
<path d="M98.1333 49.4821C94.8 48.1923 91.4812 46.714 88.6987 44.4677C85.9161 42.2214 83.6843 39.12 83.1046 35.5838C82.2495 30.2941 85.4669 24.8304 90.1769 22.2797C94.887 19.7291 100.756 19.8595 105.742 21.845C110.713 23.8304 114.872 27.497 118.22 31.6853C115.046 32.3085 111.771 32.381 108.582 31.8882C109.234 33.4389 109.872 35.0041 110.524 36.5548C108.292 35.7577 106.061 34.9751 103.829 34.178C104.017 35.7432 104.206 37.2939 104.394 38.8591C102.974 37.4244 101.003 36.5403 98.9883 36.4534C100.278 39.091 100.959 42.0475 100.945 44.9894C100.945 46.1198 100.814 47.3082 100.22 48.2647C99.6115 49.2212 98.4086 49.8879 98.1333 49.4821Z" fill="#FDB400"/>
<path d="M96.1914 53.1054C96.1914 44.9751 102.771 38.3955 110.901 38.3955C119.032 38.3955 125.611 44.9751 125.611 53.1054C125.611 61.2356 119.032 67.8152 110.901 67.8152C102.771 67.8152 96.1914 61.2211 96.1914 53.1054Z" fill="white"/>
<path d="M81.3871 20.3235C81.3871 20.3235 85.8218 17.2946 88.3724 17.8598C90.9231 18.425 93.0825 20.3235 94.2274 22.6713C95.4737 25.222 95.6911 28.3379 97.6186 30.4393C100.068 33.1204 104.633 33.0044 107.575 30.8451C110.502 28.6857 111.981 25.0336 112.459 21.425C113.299 15.1352 110.865 7.93247 105.14 5.1934C106.937 7.64262 109.865 8.90346 112.488 10.4252C115.111 11.9469 117.749 14.1497 118.082 17.1642C118.27 18.8018 117.734 20.4829 118.01 22.1061C118.517 25.0915 121.865 27.0915 124.85 26.5843C127.835 26.077 130.212 23.5119 131.053 20.5989C131.893 17.6859 131.372 14.512 130.212 11.715C129.053 8.91796 127.27 6.42525 125.517 3.94704L131.328 12.4396C132.864 14.6715 134.85 17.1642 137.56 17.0772C140.154 16.9903 142.081 14.3671 142.328 11.7875C142.574 9.20781 141.589 6.68612 140.603 4.28037C141.096 6.30931 141.647 8.42521 143.067 9.94692C144.487 11.4686 147.067 12.1353 148.676 10.7875C150.009 9.67157 150.154 7.6861 149.98 5.947C149.777 3.97603 149.299 2.12099 148.574 0.251465H46.5762C55.1267 11.3237 81.3871 20.3235 81.3871 20.3235Z" fill="#FF9F87"/>
<path d="M112.428 20.2651C112.399 24.6419 110.08 28.9606 106.428 31.3809C105.631 31.9026 104.747 32.3664 103.79 32.4243C102.834 32.4823 101.805 32.091 101.341 31.2504C100.776 30.2505 101.167 28.9896 101.66 27.9462C103.138 24.8158 105.486 22.0912 108.355 20.1637C109.08 19.671 109.892 19.2217 110.761 19.2362C111.645 19.2507 112.428 19.9028 112.428 20.2651Z" fill="#FF7B5C"/>
<path d="M131.431 16.4244C131.895 17.7143 131.808 19.178 131.373 20.4823C130.938 21.7867 130.185 22.975 129.344 24.062C128.489 25.1779 127.475 26.2648 126.141 26.6996C124.808 27.1344 123.098 26.6706 122.547 25.3808C122.098 24.3518 122.504 23.1489 123.011 22.149C123.823 20.5403 124.895 19.0621 126.17 17.8012C126.91 17.0621 127.75 16.3955 128.75 16.1056C129.765 15.8158 131.214 15.8158 131.431 16.4244Z" fill="#FF7B5C"/>
<path d="M142.049 8.61328C143.02 10.99 142.411 13.932 140.571 15.7291C140.194 16.0914 139.759 16.4247 139.266 16.5696C138.759 16.7146 138.179 16.6421 137.788 16.2798C137.194 15.7291 137.295 14.7726 137.498 13.99C137.817 12.8016 138.31 11.6422 138.962 10.5843C139.31 10.0046 139.715 9.45384 140.281 9.09153C140.846 8.71473 141.614 8.61328 142.049 8.61328Z" fill="#FF7B5C"/>
<path d="M149.035 2.51196C149.861 4.72931 150.688 7.19303 149.833 9.41037C149.615 9.96109 149.296 10.4973 148.804 10.8306C148.311 11.164 147.644 11.2654 147.122 10.9756C146.224 10.4828 146.195 9.23647 146.267 8.22199C146.354 7.12057 146.441 5.99015 146.833 4.96119C147.209 3.90324 147.919 2.93224 149.035 2.51196Z" fill="#FF7B5C"/>
</svg>
