<svg width="165" height="161" viewBox="0 0 165 161" fill="none" xmlns="http://www.w3.org/2000/svg">
    <rect x="0.236328" y="0.799835" width="164" height="160" rx="10" fill="#2D573D" />
    <path
        d="M17.5687 147.256C16.6812 147.256 15.9303 147.102 15.3159 146.795C14.71 146.479 14.1895 146.036 13.7543 145.464L15.0855 143.966C15.5036 144.538 15.926 144.922 16.3527 145.118C16.7793 145.315 17.2188 145.413 17.6711 145.413C17.9015 145.413 18.1063 145.383 18.2855 145.323C18.4732 145.263 18.6183 145.178 18.7207 145.067C18.8316 144.948 18.8871 144.807 18.8871 144.645C18.8871 144.517 18.8529 144.402 18.7847 144.299C18.7249 144.197 18.6396 144.107 18.5287 144.03C18.4177 143.954 18.2897 143.885 18.1447 143.826C17.9996 143.757 17.8375 143.702 17.6583 143.659C17.4876 143.616 17.3127 143.578 17.1335 143.544C16.6385 143.442 16.2076 143.309 15.8407 143.147C15.4823 142.976 15.1793 142.776 14.9319 142.546C14.6929 142.307 14.5137 142.038 14.3943 141.739C14.2748 141.432 14.2151 141.086 14.2151 140.702C14.2151 140.156 14.3687 139.678 14.6759 139.269C14.9916 138.859 15.4055 138.539 15.9175 138.309C16.4295 138.078 16.9841 137.963 17.5815 137.963C18.4519 137.963 19.1516 138.104 19.6807 138.386C20.2183 138.659 20.6449 139.038 20.9607 139.525L19.6039 140.843C19.3393 140.502 19.0364 140.246 18.6951 140.075C18.3623 139.904 18.0124 139.819 17.6455 139.819C17.398 139.819 17.1804 139.849 16.9927 139.909C16.8049 139.968 16.6599 140.058 16.5575 140.178C16.4636 140.288 16.4167 140.425 16.4167 140.587C16.4167 140.724 16.4551 140.847 16.5319 140.958C16.6172 141.061 16.7324 141.15 16.8775 141.227C17.0225 141.304 17.1889 141.372 17.3767 141.432C17.5644 141.483 17.7607 141.526 17.9655 141.56C18.4348 141.654 18.8572 141.778 19.2327 141.931C19.6167 142.085 19.9452 142.277 20.2183 142.507C20.4913 142.729 20.7004 142.994 20.8455 143.301C20.9991 143.599 21.0759 143.945 21.0759 144.338C21.0759 144.952 20.9265 145.477 20.6279 145.912C20.3292 146.347 19.9153 146.68 19.3863 146.91C18.8572 147.141 18.2513 147.256 17.5687 147.256ZM17.1079 137.477L15.3927 136.082L16.0327 135.365L17.9143 136.274H17.5303L19.4119 135.365L20.0519 136.082L18.3367 137.477H17.1079ZM24.6057 147.128L21.7641 140.331H24.0297L25.7193 145.362L25.2201 145.426L26.9609 140.331H29.2137L26.2185 147.128H24.6057ZM30.1919 147.128V140.331H32.2527V147.128H30.1919ZM29.0911 138.949V137.643H33.3663V138.949H29.0911ZM35.9652 145.131L35.2356 143.57L38.3972 140.331H41.098L35.9652 145.131ZM33.994 147.128V137.656H36.0548V147.128H33.994ZM38.5892 147.128L36.2212 144.056L37.6804 142.93L41.034 147.128H38.5892ZM45.3539 147.128V142.955C45.3539 142.605 45.2557 142.349 45.0595 142.187C44.8717 142.016 44.6072 141.931 44.2659 141.931C43.9331 141.931 43.6344 141.995 43.3699 142.123C43.1139 142.243 42.8664 142.443 42.6275 142.725L41.3987 141.534C41.8083 141.116 42.2776 140.788 42.8067 140.549C43.3357 140.31 43.9117 140.19 44.5347 140.19C45.1064 140.19 45.6013 140.276 46.0195 140.446C46.4376 140.617 46.7619 140.877 46.9923 141.227C47.2227 141.577 47.3379 142.021 47.3379 142.558V147.128H45.3539ZM43.5875 147.256C43.1608 147.256 42.7725 147.171 42.4227 147C42.0813 146.829 41.8083 146.595 41.6035 146.296C41.4072 145.989 41.3091 145.63 41.3091 145.221C41.3091 144.871 41.3731 144.564 41.5011 144.299C41.6291 144.035 41.8168 143.817 42.0643 143.646C42.3203 143.467 42.636 143.335 43.0115 143.25C43.3955 143.156 43.8392 143.109 44.3427 143.109H46.4035L46.2883 144.402H44.3939C44.2147 144.402 44.0568 144.419 43.9203 144.453C43.7837 144.478 43.6685 144.525 43.5747 144.594C43.4808 144.653 43.4083 144.726 43.3571 144.811C43.3144 144.896 43.2931 144.999 43.2931 145.118C43.2931 145.246 43.3272 145.357 43.3955 145.451C43.4637 145.545 43.5533 145.618 43.6643 145.669C43.7837 145.72 43.9203 145.746 44.0739 145.746C44.2957 145.746 44.5048 145.711 44.7011 145.643C44.9059 145.566 45.0851 145.46 45.2387 145.323C45.4008 145.187 45.5288 145.029 45.6227 144.85L45.9811 145.771C45.8019 146.061 45.5843 146.317 45.3283 146.539C45.0808 146.761 44.8077 146.936 44.5091 147.064C44.2189 147.192 43.9117 147.256 43.5875 147.256ZM42.3075 138.949V137.643H46.5827V138.949H42.3075ZM51.2727 147.256C50.6241 147.256 50.0439 147.154 49.5319 146.949C49.0199 146.735 48.6103 146.445 48.3031 146.078L49.5575 145.003C49.822 145.268 50.1207 145.464 50.4535 145.592C50.7863 145.711 51.102 145.771 51.4007 145.771C51.5116 145.771 51.6097 145.758 51.6951 145.733C51.7804 145.707 51.8529 145.673 51.9127 145.63C51.9809 145.579 52.0321 145.524 52.0663 145.464C52.1004 145.396 52.1175 145.319 52.1175 145.234C52.1175 145.063 52.0449 144.935 51.8999 144.85C51.8316 144.807 51.7079 144.756 51.5287 144.696C51.3495 144.628 51.1191 144.559 50.8375 144.491C50.4364 144.389 50.0865 144.265 49.7879 144.12C49.4977 143.975 49.2588 143.808 49.0711 143.621C48.9004 143.45 48.7681 143.254 48.6743 143.032C48.5889 142.81 48.5463 142.563 48.5463 142.29C48.5463 141.871 48.67 141.504 48.9175 141.189C49.1735 140.873 49.5063 140.63 49.9159 140.459C50.3255 140.28 50.7692 140.19 51.2471 140.19C51.6225 140.19 51.9767 140.233 52.3095 140.318C52.6508 140.404 52.9665 140.523 53.2567 140.677C53.5553 140.83 53.8199 141.014 54.0503 141.227L52.9623 142.443C52.8172 142.298 52.6465 142.17 52.4503 142.059C52.254 141.94 52.0577 141.846 51.8615 141.778C51.6652 141.701 51.4817 141.662 51.3111 141.662C51.1831 141.662 51.0679 141.675 50.9655 141.701C50.8716 141.718 50.7905 141.752 50.7223 141.803C50.6625 141.846 50.6156 141.901 50.5815 141.97C50.5473 142.029 50.5303 142.098 50.5303 142.174C50.5303 142.268 50.5516 142.354 50.5943 142.43C50.6455 142.499 50.7137 142.563 50.7991 142.622C50.8759 142.665 51.0081 142.72 51.1959 142.789C51.3921 142.857 51.6481 142.934 51.9639 143.019C52.3649 143.13 52.7063 143.258 52.9879 143.403C53.278 143.54 53.5084 143.702 53.6791 143.89C53.8241 144.035 53.9265 144.205 53.9863 144.402C54.0545 144.589 54.0887 144.794 54.0887 145.016C54.0887 145.451 53.9649 145.839 53.7175 146.181C53.4785 146.514 53.1457 146.778 52.7191 146.974C52.3009 147.162 51.8188 147.256 51.2727 147.256ZM50.6327 139.358L48.8535 137.707L49.5959 137.067L51.4391 138.155H51.0551L52.8983 137.067L53.6407 137.707L51.8615 139.358H50.6327ZM58.9414 147.128V142.955C58.9414 142.605 58.8432 142.349 58.647 142.187C58.4592 142.016 58.1947 141.931 57.8534 141.931C57.5206 141.931 57.2219 141.995 56.9574 142.123C56.7014 142.243 56.4539 142.443 56.215 142.725L54.9862 141.534C55.3958 141.116 55.8651 140.788 56.3942 140.549C56.9232 140.31 57.4992 140.19 58.1222 140.19C58.6939 140.19 59.1888 140.276 59.607 140.446C60.0251 140.617 60.3494 140.877 60.5798 141.227C60.8102 141.577 60.9254 142.021 60.9254 142.558V147.128H58.9414ZM57.175 147.256C56.7483 147.256 56.36 147.171 56.0102 147C55.6688 146.829 55.3958 146.595 55.191 146.296C54.9947 145.989 54.8966 145.63 54.8966 145.221C54.8966 144.871 54.9606 144.564 55.0886 144.299C55.2166 144.035 55.4043 143.817 55.6518 143.646C55.9078 143.467 56.2235 143.335 56.599 143.25C56.983 143.156 57.4267 143.109 57.9302 143.109H59.991L59.8758 144.402H57.9814C57.8022 144.402 57.6443 144.419 57.5078 144.453C57.3712 144.478 57.256 144.525 57.1622 144.594C57.0683 144.653 56.9958 144.726 56.9446 144.811C56.9019 144.896 56.8806 144.999 56.8806 145.118C56.8806 145.246 56.9147 145.357 56.983 145.451C57.0512 145.545 57.1408 145.618 57.2518 145.669C57.3712 145.72 57.5078 145.746 57.6614 145.746C57.8832 145.746 58.0923 145.711 58.2886 145.643C58.4934 145.566 58.6726 145.46 58.8262 145.323C58.9883 145.187 59.1163 145.029 59.2102 144.85L59.5686 145.771C59.3894 146.061 59.1718 146.317 58.9158 146.539C58.6683 146.761 58.3952 146.936 58.0966 147.064C57.8064 147.192 57.4992 147.256 57.175 147.256ZM62.569 147.128V140.331H64.5274L64.6042 141.714L64.1818 141.867C64.2756 141.56 64.442 141.283 64.681 141.035C64.9284 140.779 65.2228 140.574 65.5642 140.421C65.9055 140.267 66.2639 140.19 66.6394 140.19C67.1514 140.19 67.5823 140.297 67.9322 140.51C68.282 140.715 68.5423 141.027 68.713 141.445C68.8922 141.854 68.9818 142.362 68.9818 142.968V147.128H66.921V143.122C66.921 142.848 66.8826 142.622 66.8058 142.443C66.729 142.264 66.6138 142.132 66.4602 142.046C66.3066 141.961 66.1146 141.923 65.8842 141.931C65.705 141.931 65.5386 141.961 65.385 142.021C65.2314 142.072 65.0948 142.153 64.9754 142.264C64.8644 142.366 64.7791 142.486 64.7194 142.622C64.6596 142.759 64.6298 142.912 64.6298 143.083V147.128H63.593C63.3711 147.128 63.1706 147.128 62.9914 147.128C62.8207 147.128 62.6799 147.128 62.569 147.128ZM74.3289 147.128V142.955C74.3289 142.605 74.2307 142.349 74.0345 142.187C73.8467 142.016 73.5822 141.931 73.2409 141.931C72.9081 141.931 72.6094 141.995 72.3449 142.123C72.0889 142.243 71.8414 142.443 71.6025 142.725L70.3737 141.534C70.7833 141.116 71.2526 140.788 71.7817 140.549C72.3107 140.31 72.8867 140.19 73.5097 140.19C74.0814 140.19 74.5763 140.276 74.9945 140.446C75.4126 140.617 75.7369 140.877 75.9673 141.227C76.1977 141.577 76.3129 142.021 76.3129 142.558V147.128H74.3289ZM72.5625 147.256C72.1358 147.256 71.7475 147.171 71.3977 147C71.0563 146.829 70.7833 146.595 70.5785 146.296C70.3822 145.989 70.2841 145.63 70.2841 145.221C70.2841 144.871 70.3481 144.564 70.4761 144.299C70.6041 144.035 70.7918 143.817 71.0393 143.646C71.2953 143.467 71.611 143.335 71.9865 143.25C72.3705 143.156 72.8142 143.109 73.3177 143.109H75.3785L75.2633 144.402H73.3689C73.1897 144.402 73.0318 144.419 72.8953 144.453C72.7587 144.478 72.6435 144.525 72.5497 144.594C72.4558 144.653 72.3833 144.726 72.3321 144.811C72.2894 144.896 72.2681 144.999 72.2681 145.118C72.2681 145.246 72.3022 145.357 72.3705 145.451C72.4387 145.545 72.5283 145.618 72.6393 145.669C72.7587 145.72 72.8953 145.746 73.0489 145.746C73.2707 145.746 73.4798 145.711 73.6761 145.643C73.8809 145.566 74.0601 145.46 74.2137 145.323C74.3758 145.187 74.5038 145.029 74.5977 144.85L74.9561 145.771C74.7769 146.061 74.5593 146.317 74.3033 146.539C74.0558 146.761 73.7827 146.936 73.4841 147.064C73.1939 147.192 72.8867 147.256 72.5625 147.256Z"
        fill="#F8F1D6" />
    <mask id="mask0_1315_6948" style="mask-type:alpha" maskUnits="userSpaceOnUse" x="20" y="7"
        width="124" height="124">
        <rect x="20.3887" y="7.33588" width="123.522" height="123.522" rx="10" fill="#FFA6FB" />
    </mask>
    <g mask="url(#mask0_1315_6948)">
        <path
            d="M94.0565 132.095L76.6242 143.705L58.2148 135.667L59.3114 109.325L76.0502 101.097L95.096 108.58L94.0565 132.095Z"
            fill="#FFA6FB" />
    </g>
    <path
        d="M69.7728 94.6815L63.7832 103.043L71.0107 116.843L81.5802 115.165L85.6446 107.968L78.6714 94.491L69.7728 94.6815Z"
        fill="#FF755E" />
    <path
        d="M77.5532 92.4577C75.7053 91.6923 73.8753 90.7279 72.5771 89.2047C71.2789 87.6816 70.6052 85.498 71.3124 83.6273C71.8308 82.2562 72.9972 81.2326 74.2295 80.4403C78.1844 77.898 84.0811 77.5348 87.1133 81.132C87.7501 81.8874 88.2383 82.8239 88.2227 83.814C88.1914 85.8154 86.0173 87.2782 84.0197 87.1564C82.0221 87.0346 80.2759 85.7707 78.8738 84.3437C76.0472 81.465 74.12 77.784 71.1928 75.007C66.4223 70.4823 59.4162 68.8765 52.8703 69.5313C49.2885 69.8901 45.5447 71.0075 43.232 73.7677C40.9194 76.5279 40.7585 81.2549 43.6577 83.3938C45.5503 84.7873 48.2093 84.7426 50.3912 83.8698C52.5732 82.9971 54.3864 81.4114 56.1405 79.8469C64.6984 72.2066 73.2966 64.0378 84.1035 60.1992C88.8595 58.5107 93.8982 57.7262 98.9358 57.4155C105.094 57.0345 111.593 57.4368 116.869 60.635C122.146 63.8333 125.712 70.5248 123.634 76.3357C123.151 77.6924 122.371 78.9641 121.272 79.8949C118.761 82.0182 114.904 82.0059 111.982 80.5006C109.059 78.9954 106.94 76.2542 105.39 73.3554C101.351 65.8012 100.608 56.9205 100.88 48.3583C101.167 39.2977 102.614 29.9599 107.504 22.3286C108.757 20.373 110.268 18.5146 112.262 17.3256C114.256 16.1366 116.81 15.7053 118.932 16.6551C121.095 17.6184 122.46 19.8031 123.306 22.0191C125.059 26.6008 124.777 32.5056 120.951 35.5809C117.31 38.5076 112.006 37.8237 107.522 36.514C96.9259 33.4186 87.2842 27.7484 77.0214 23.6964C66.7586 19.6444 55.1271 17.2452 44.7403 20.982C40.7082 22.4348 36.9465 24.8273 34.3199 28.2133C31.6933 31.5993 30.2912 36.029 30.985 40.2576C31.261 41.9461 31.9123 43.6548 33.2195 44.7566C34.8372 46.1199 37.1298 46.3088 39.2413 46.2093C46.1212 45.8819 52.6313 43.1977 59.1614 41.0041C67.0993 38.3378 75.3903 36.3453 83.7583 36.6336C92.1263 36.9219 100.628 39.6832 106.671 45.4852C107.814 46.5826 108.886 47.7984 110.271 48.5695C111.388 49.1897 112.656 49.4903 113.926 49.6244C117.82 50.0345 122.336 48.4432 123.685 44.7644C124.895 41.4656 123.126 37.7555 120.659 35.2524C115.767 30.2874 107.913 28.4994 101.353 30.8584C96.9862 32.4229 93.3955 35.5731 89.9276 38.6574C84.5079 43.4782 79.0749 48.3471 72.9234 52.1879C66.772 56.0287 59.796 58.8247 52.5486 59.075C49.1366 59.1923 45.7335 58.7476 42.3472 58.3028C40.7484 58.0927 39.0894 57.8614 37.7375 56.9808C34.5668 54.9168 34.4238 50.2759 35.5154 46.6508C37.2046 41.0421 41.7539 35.7362 47.6037 35.4658C51.2291 35.2982 54.7126 37.094 57.4085 39.5234C60.1044 41.9528 62.159 44.9991 64.3174 47.9124C72.7033 59.2471 83.1092 69.1525 95.164 76.4654C101.61 80.3766 109.465 83.6005 116.529 80.9789C123.344 78.4511 127.397 70.6242 126.535 63.4064C125.672 56.1885 120.53 49.8982 114.064 46.5781C107.599 43.2581 99.9938 42.6546 92.8056 43.714C82.6321 45.217 72.8519 50.0904 66.0648 57.8256C59.7848 64.9843 56.3147 74.122 51.3107 82.2249C50.0918 84.1995 48.6294 86.2367 46.4284 86.9809C42.784 88.2158 38.9843 85.3047 36.9756 82.026C34.8363 78.5147 33.7901 74.4461 33.9702 70.3382C34.1021 67.4539 34.9869 64.3875 37.2795 62.6342C40.6445 60.064 45.4352 61.2753 49.4628 62.6018L56.8141 65.0256C58.6017 65.6145 60.7591 66.1431 62.2014 64.934C63.1198 64.1652 63.4426 62.9057 63.6248 61.7223C65.1319 51.9644 60.6272 42.2948 60.2474 32.4285C60.1155 29.009 60.5669 25.3592 62.7053 22.6896C64.3532 20.6334 66.839 19.3863 69.4086 18.7716C72.2848 18.0844 75.2863 18.1201 78.1453 18.8756C83.1438 20.2032 87.3066 23.6182 91.0415 27.1942C99.9983 35.7664 108.012 46.1367 119.597 50.5497C122.538 51.6672 125.965 52.3276 128.737 50.829C132.86 48.5941 133.403 43.0066 133.435 38.3132"
        stroke="#FF0000" stroke-width="1.5" stroke-miterlimit="10" />
    <path
        d="M77.1141 92.5449C75.0149 92.2096 73.7938 89.3858 74.9825 87.6279C75.4495 86.9373 76.1645 86.459 76.8818 86.0377C83.0891 82.397 90.675 81.8516 97.813 82.7535C104.951 83.6553 111.835 85.8925 118.845 87.4983C122.593 88.3565 126.468 89.0382 130.271 88.4705C132.387 88.1543 134.598 87.3363 135.764 85.5427C136.596 84.2632 136.777 82.6585 136.675 81.1342C136.166 73.6079 129.479 67.8663 122.468 65.0848C113.157 61.3915 102.674 61.3725 92.9095 63.6131C83.1449 65.8537 74.0105 70.2488 65.2995 75.1936C60.0284 78.1863 54.7115 81.4516 48.7277 82.4216C42.7438 83.3915 35.8047 81.4058 32.9 76.0843C31.7358 73.951 31.3168 71.4858 31.1705 69.062C31.0588 67.2483 31.1113 65.3519 31.9224 63.7249C33.7435 60.0718 38.5017 59.1744 42.5829 59.0917C61.4797 58.7084 79.5363 66.1621 98.0308 70.061C102.835 71.0735 107.829 71.849 112.62 70.7818C118.876 69.3916 124.326 64.687 126.488 58.6537C128.65 52.6204 127.393 45.4528 123.204 40.6018C119.016 35.7508 112.032 33.4633 105.813 35.0266C99.557 36.6023 94.792 41.5002 89.6896 45.4561C81.7988 51.5592 72.5625 55.6851 62.7522 57.4893C57.1169 58.5229 51.237 58.752 45.7168 57.2121C40.1966 55.6722 35.0674 52.1991 32.3581 47.1547C29.6488 42.1104 29.736 35.4435 33.2765 30.9389C36.1321 27.3048 40.8043 25.4498 45.4118 25.1044C50.0192 24.7591 54.6177 25.7604 59.0821 26.9505C73.1201 30.6975 86.6251 36.3766 100.842 39.3781C108.804 41.0544 117.925 41.622 124.26 36.5118C127.679 33.7538 129.779 29.6951 131.448 25.6364C132.108 24.0305 132.718 22.2135 132.079 20.5987C131.342 18.7403 129.251 17.8654 127.332 17.3133C114.745 13.696 101.318 15.9187 88.3825 17.9726C75.4472 20.0266 61.8718 21.838 49.5209 17.4787C46.1123 16.2763 42.1562 14.6626 39.1307 16.6339C37.3432 17.795 36.4494 19.9461 36.1064 22.0481C35.15 27.9764 38.0057 34.1081 42.5282 38.0617C47.0507 42.0154 53.0067 44.0079 58.9637 44.7544C64.9208 45.5009 70.9538 45.0896 76.951 44.7845C92.733 43.971 108.531 43.841 124.344 44.3945C127.154 44.494 130.232 44.722 132.266 46.663C134.319 48.6231 134.678 51.7208 134.914 54.5503C135.123 57.0613 135.286 59.7745 133.942 61.9056C133.027 63.3583 131.522 64.3339 129.972 65.0703C123.866 67.9758 116.73 67.7132 110.071 66.5376C96.4489 64.1327 83.6198 58.2045 69.9628 56.0432C64.3074 55.1492 58.4554 54.9202 52.9061 56.3237C47.3569 57.7273 42.1048 60.8987 39.0045 65.7106C35.9042 70.5225 35.2607 77.0666 38.1342 82.0204C39.1888 83.8385 40.7608 85.4589 42.7706 86.0724C45.6877 86.9664 48.7623 85.5997 51.523 84.3034C57.5929 81.4538 63.7879 78.764 70.3181 77.242C76.8483 75.72 83.7762 75.4093 90.2103 77.299C95.697 78.9104 100.65 82.074 104.834 85.9741C108.87 89.7366 112.817 94.4893 118.313 94.9676C123.644 95.4302 128.712 91.1424 129.948 85.9349C131.183 80.7274 129.02 75.0808 125.211 71.3227C121.401 67.5645 116.161 65.5229 110.871 64.7094C96.8689 62.5548 82.993 68.3569 70.0645 74.1499C63.1187 77.2632 55.6523 80.4872 48.1557 79.1484C42.1506 78.079 36.7834 73.9063 34.2552 68.3568C32.7737 65.0982 32.2441 61.4787 32.1458 57.8994C32.0274 53.6239 32.9815 48.5974 36.8248 46.7245C39.6312 45.3567 42.9572 46.2004 45.976 46.9927C58.0547 50.1633 70.4189 52.1237 82.8857 52.845C94.0882 53.492 105.973 52.9567 115.473 46.9826C118.282 45.2159 120.854 42.9597 122.511 40.0799C124.169 37.2001 124.821 33.6532 123.795 30.4974C122.218 25.6487 117.204 22.7868 112.342 21.2715C107.887 19.8802 103.17 19.2175 98.5247 19.6723C88.6339 20.6401 79.991 26.4611 70.7482 30.1119C58.9302 34.7481 46.0238 35.8662 33.5848 33.3314C30.3091 32.6609 28.1909 28.9978 28.6143 25.6788C29.0377 22.3599 31.5369 19.5662 34.5356 18.0799C37.5342 16.5937 40.9585 16.2338 44.3102 16.264C49.0517 16.3053 54.268 17.3424 57.1583 21.1027C59.7983 24.5513 59.7581 29.2604 59.9513 33.6029C60.1775 38.674 60.8815 43.7123 62.054 48.6511C63.0997 53.0573 64.5565 57.4535 67.2066 61.1256C69.8567 64.7976 73.558 67.5534 77.5041 69.7403C83.86 73.2626 91.3051 75.4261 98.4397 74.0147C101.351 73.4392 104.345 72.1049 105.799 69.5157C106.603 68.0819 106.854 66.4024 106.927 64.7597C107.413 54.0239 101.091 43.9744 100.863 33.2342C100.8 30.3343 101.247 27.2824 102.994 24.9648C105.94 21.0535 111.858 20.4523 116.366 22.3565C119.148 23.531 121.553 25.4743 124.339 26.6376C127.126 27.8009 130.672 28.0155 132.877 25.9582C134.398 24.5435 134.951 22.3822 135.195 20.316C135.387 18.7024 135.435 17.0748 135.337 15.4527C135.245 13.9027 138.036 13.4334 138.455 14.9286C138.874 16.4238 136.246 17.4731 135.519 16.1008"
        stroke="#FDB300" stroke-width="1.5" stroke-miterlimit="10" />
</svg>
