<svg width="198" height="213" viewBox="0 0 198 213" fill="none" xmlns="http://www.w3.org/2000/svg">
<rect x="2.125" y="2.25195" width="193.706" height="209.097" rx="8.5" stroke="#165739" stroke-width="3"/>
<path d="M64.1146 190.987C63.0052 190.987 62.0666 190.795 61.2986 190.411C60.5412 190.016 59.8906 189.462 59.3466 188.747L61.0106 186.875C61.5332 187.59 62.0612 188.07 62.5946 188.315C63.1279 188.56 63.6772 188.683 64.2426 188.683C64.5306 188.683 64.7866 188.646 65.0106 188.571C65.2453 188.496 65.4266 188.39 65.5546 188.251C65.6933 188.102 65.7626 187.926 65.7626 187.723C65.7626 187.563 65.7199 187.419 65.6346 187.291C65.5599 187.163 65.4533 187.051 65.3146 186.955C65.1759 186.859 65.0159 186.774 64.8346 186.699C64.6533 186.614 64.4506 186.544 64.2266 186.491C64.0133 186.438 63.7946 186.39 63.5706 186.347C62.9519 186.219 62.4132 186.054 61.9546 185.851C61.5066 185.638 61.1279 185.387 60.8186 185.099C60.5199 184.8 60.2959 184.464 60.1466 184.091C59.9972 183.707 59.9226 183.275 59.9226 182.795C59.9226 182.112 60.1146 181.515 60.4986 181.003C60.8932 180.491 61.4106 180.091 62.0506 179.803C62.6906 179.515 63.3839 179.371 64.1306 179.371C65.2186 179.371 66.0932 179.547 66.7546 179.899C67.4266 180.24 67.9599 180.715 68.3546 181.323L66.6586 182.971C66.3279 182.544 65.9493 182.224 65.5226 182.011C65.1066 181.798 64.6693 181.691 64.2106 181.691C63.9013 181.691 63.6293 181.728 63.3946 181.803C63.1599 181.878 62.9786 181.99 62.8506 182.139C62.7332 182.278 62.6746 182.448 62.6746 182.651C62.6746 182.822 62.7226 182.976 62.8186 183.115C62.9252 183.243 63.0692 183.355 63.2506 183.451C63.4319 183.547 63.6399 183.632 63.8746 183.707C64.1093 183.771 64.3546 183.824 64.6106 183.867C65.1973 183.984 65.7253 184.139 66.1946 184.331C66.6746 184.523 67.0853 184.763 67.4266 185.051C67.7679 185.328 68.0293 185.659 68.2106 186.043C68.4026 186.416 68.4986 186.848 68.4986 187.339C68.4986 188.107 68.3119 188.763 67.9386 189.307C67.5653 189.851 67.0479 190.267 66.3866 190.555C65.7252 190.843 64.9679 190.987 64.1146 190.987ZM63.5386 178.763L61.3946 177.019L62.1946 176.123L64.5466 177.259H64.0666L66.4186 176.123L67.2186 177.019L65.0746 178.763H63.5386ZM72.9108 190.827L69.3588 182.331H72.1908L74.3028 188.619L73.6788 188.699L75.8548 182.331H78.6708L74.9268 190.827H72.9108ZM79.8936 190.827V182.331H82.4696V190.827H79.8936ZM78.5176 180.603V178.971H83.8616V180.603H78.5176ZM87.1102 188.331L86.1982 186.379L90.1502 182.331H93.5262L87.1102 188.331ZM84.6462 190.827V178.987H87.2222V190.827H84.6462ZM90.3902 190.827L87.4302 186.987L89.2542 185.579L93.4462 190.827H90.3902ZM98.8461 190.827V185.611C98.8461 185.174 98.7234 184.854 98.4781 184.651C98.2434 184.438 97.9128 184.331 97.4861 184.331C97.0701 184.331 96.6967 184.411 96.3661 184.571C96.0461 184.72 95.7367 184.971 95.4381 185.323L93.9021 183.835C94.4141 183.312 95.0007 182.902 95.6621 182.603C96.3234 182.304 97.0434 182.155 97.8221 182.155C98.5368 182.155 99.1554 182.262 99.6781 182.475C100.201 182.688 100.606 183.014 100.894 183.451C101.182 183.888 101.326 184.443 101.326 185.115V190.827H98.8461ZM96.6381 190.987C96.1047 190.987 95.6194 190.88 95.1821 190.667C94.7554 190.454 94.4141 190.16 94.1581 189.787C93.9127 189.403 93.7901 188.955 93.7901 188.443C93.7901 188.006 93.8701 187.622 94.0301 187.291C94.1901 186.96 94.4247 186.688 94.7341 186.475C95.0541 186.251 95.4487 186.086 95.9181 185.979C96.3981 185.862 96.9527 185.803 97.5821 185.803H100.158L100.014 187.419H97.6461C97.4221 187.419 97.2248 187.44 97.0541 187.483C96.8834 187.515 96.7394 187.574 96.6221 187.659C96.5047 187.734 96.4141 187.824 96.3501 187.931C96.2967 188.038 96.2701 188.166 96.2701 188.315C96.2701 188.475 96.3127 188.614 96.3981 188.731C96.4834 188.848 96.5954 188.939 96.7341 189.003C96.8834 189.067 97.0541 189.099 97.2461 189.099C97.5234 189.099 97.7847 189.056 98.0301 188.971C98.2861 188.875 98.5101 188.742 98.7021 188.571C98.9048 188.4 99.0648 188.203 99.1821 187.979L99.6301 189.131C99.4061 189.494 99.1341 189.814 98.8141 190.091C98.5048 190.368 98.1634 190.587 97.7901 190.747C97.4274 190.907 97.0434 190.987 96.6381 190.987ZM95.0381 180.603V178.971H100.382V180.603H95.0381ZM106.245 190.987C105.434 190.987 104.709 190.859 104.069 190.603C103.429 190.336 102.917 189.974 102.533 189.515L104.101 188.171C104.431 188.502 104.805 188.747 105.221 188.907C105.637 189.056 106.031 189.131 106.405 189.131C106.543 189.131 106.666 189.115 106.773 189.083C106.879 189.051 106.97 189.008 107.045 188.955C107.13 188.891 107.194 188.822 107.237 188.747C107.279 188.662 107.301 188.566 107.301 188.459C107.301 188.246 107.21 188.086 107.029 187.979C106.943 187.926 106.789 187.862 106.565 187.787C106.341 187.702 106.053 187.616 105.701 187.531C105.199 187.403 104.762 187.248 104.389 187.067C104.026 186.886 103.727 186.678 103.493 186.443C103.279 186.23 103.114 185.984 102.997 185.707C102.89 185.43 102.837 185.12 102.837 184.779C102.837 184.256 102.991 183.798 103.301 183.403C103.621 183.008 104.037 182.704 104.549 182.491C105.061 182.267 105.615 182.155 106.213 182.155C106.682 182.155 107.125 182.208 107.541 182.315C107.967 182.422 108.362 182.571 108.725 182.763C109.098 182.955 109.429 183.184 109.717 183.451L108.357 184.971C108.175 184.79 107.962 184.63 107.717 184.491C107.471 184.342 107.226 184.224 106.981 184.139C106.735 184.043 106.506 183.995 106.293 183.995C106.133 183.995 105.989 184.011 105.861 184.043C105.743 184.064 105.642 184.107 105.557 184.171C105.482 184.224 105.423 184.294 105.381 184.379C105.338 184.454 105.317 184.539 105.317 184.635C105.317 184.752 105.343 184.859 105.397 184.955C105.461 185.04 105.546 185.12 105.653 185.195C105.749 185.248 105.914 185.318 106.149 185.403C106.394 185.488 106.714 185.584 107.109 185.691C107.61 185.83 108.037 185.99 108.389 186.171C108.751 186.342 109.039 186.544 109.253 186.779C109.434 186.96 109.562 187.174 109.637 187.419C109.722 187.654 109.765 187.91 109.765 188.187C109.765 188.731 109.61 189.216 109.301 189.643C109.002 190.059 108.586 190.39 108.053 190.635C107.53 190.87 106.927 190.987 106.245 190.987ZM105.445 181.115L103.221 179.051L104.149 178.251L106.453 179.611H105.973L108.277 178.251L109.205 179.051L106.981 181.115H105.445ZM115.83 190.827V185.611C115.83 185.174 115.708 184.854 115.462 184.651C115.228 184.438 114.897 184.331 114.47 184.331C114.054 184.331 113.681 184.411 113.35 184.571C113.03 184.72 112.721 184.971 112.422 185.323L110.886 183.835C111.398 183.312 111.985 182.902 112.646 182.603C113.308 182.304 114.028 182.155 114.806 182.155C115.521 182.155 116.14 182.262 116.662 182.475C117.185 182.688 117.59 183.014 117.878 183.451C118.166 183.888 118.31 184.443 118.31 185.115V190.827H115.83ZM113.622 190.987C113.089 190.987 112.604 190.88 112.166 190.667C111.74 190.454 111.398 190.16 111.142 189.787C110.897 189.403 110.774 188.955 110.774 188.443C110.774 188.006 110.854 187.622 111.014 187.291C111.174 186.96 111.409 186.688 111.718 186.475C112.038 186.251 112.433 186.086 112.902 185.979C113.382 185.862 113.937 185.803 114.566 185.803H117.142L116.998 187.419H114.63C114.406 187.419 114.209 187.44 114.038 187.483C113.868 187.515 113.724 187.574 113.606 187.659C113.489 187.734 113.398 187.824 113.334 187.931C113.281 188.038 113.254 188.166 113.254 188.315C113.254 188.475 113.297 188.614 113.382 188.731C113.468 188.848 113.58 188.939 113.718 189.003C113.868 189.067 114.038 189.099 114.23 189.099C114.508 189.099 114.769 189.056 115.014 188.971C115.27 188.875 115.494 188.742 115.686 188.571C115.889 188.4 116.049 188.203 116.166 187.979L116.614 189.131C116.39 189.494 116.118 189.814 115.798 190.091C115.489 190.368 115.148 190.587 114.774 190.747C114.412 190.907 114.028 190.987 113.622 190.987ZM120.365 190.827V182.331H122.813L122.909 184.059L122.381 184.251C122.498 183.867 122.706 183.52 123.005 183.211C123.314 182.891 123.682 182.635 124.109 182.443C124.536 182.251 124.984 182.155 125.453 182.155C126.093 182.155 126.632 182.288 127.069 182.555C127.506 182.811 127.832 183.2 128.045 183.723C128.269 184.235 128.381 184.87 128.381 185.627V190.827H125.805V185.819C125.805 185.478 125.757 185.195 125.661 184.971C125.565 184.747 125.421 184.582 125.229 184.475C125.037 184.368 124.797 184.32 124.509 184.331C124.285 184.331 124.077 184.368 123.885 184.443C123.693 184.507 123.522 184.608 123.373 184.747C123.234 184.875 123.128 185.024 123.053 185.195C122.978 185.366 122.941 185.558 122.941 185.771V190.827H121.645C121.368 190.827 121.117 190.827 120.893 190.827C120.68 190.827 120.504 190.827 120.365 190.827ZM135.065 190.827V185.611C135.065 185.174 134.942 184.854 134.697 184.651C134.462 184.438 134.132 184.331 133.705 184.331C133.289 184.331 132.915 184.411 132.585 184.571C132.265 184.72 131.955 184.971 131.657 185.323L130.121 183.835C130.633 183.312 131.219 182.902 131.881 182.603C132.542 182.304 133.262 182.155 134.041 182.155C134.756 182.155 135.374 182.262 135.897 182.475C136.42 182.688 136.825 183.014 137.113 183.451C137.401 183.888 137.545 184.443 137.545 185.115V190.827H135.065ZM132.857 190.987C132.323 190.987 131.838 190.88 131.401 190.667C130.974 190.454 130.633 190.16 130.377 189.787C130.131 189.403 130.009 188.955 130.009 188.443C130.009 188.006 130.089 187.622 130.249 187.291C130.409 186.96 130.643 186.688 130.953 186.475C131.273 186.251 131.667 186.086 132.137 185.979C132.617 185.862 133.171 185.803 133.801 185.803H136.377L136.233 187.419H133.865C133.641 187.419 133.444 187.44 133.273 187.483C133.102 187.515 132.958 187.574 132.841 187.659C132.723 187.734 132.633 187.824 132.569 187.931C132.515 188.038 132.489 188.166 132.489 188.315C132.489 188.475 132.531 188.614 132.617 188.731C132.702 188.848 132.814 188.939 132.953 189.003C133.102 189.067 133.273 189.099 133.465 189.099C133.742 189.099 134.003 189.056 134.249 188.971C134.505 188.875 134.729 188.742 134.921 188.571C135.124 188.4 135.284 188.203 135.401 187.979L135.849 189.131C135.625 189.494 135.353 189.814 135.033 190.091C134.724 190.368 134.382 190.587 134.009 190.747C133.646 190.907 133.262 190.987 132.857 190.987Z" fill="#165739"/>
<path d="M0.625 10.752C0.625 5.22911 5.10215 0.751953 10.625 0.751953H186.657C192.18 0.751953 196.657 5.22911 196.657 10.752V159.637H0.625V10.752Z" fill="#165739"/>
<mask id="mask0_2192_6372" style="mask-type:alpha" maskUnits="userSpaceOnUse" x="24" y="12" width="149" height="148">
<rect x="24.6484" y="12.0271" width="147.987" height="147.609" rx="10" fill="#FFA6FB"/>
</mask>
<g mask="url(#mask0_2192_6372)">
<path d="M112.907 161.116L92.0224 174.99L69.9668 165.383L71.2805 133.906L91.3346 124.072L114.153 133.015L112.907 161.116Z" fill="#FFA6FB"/>
</g>
<path d="M93.1338 113.748C90.9199 112.834 88.7274 111.681 87.1721 109.861C85.6168 108.041 84.8096 105.432 85.6569 103.196C86.278 101.557 87.6754 100.334 89.1517 99.3875C93.8901 96.3494 100.955 95.9154 104.587 100.214C105.35 101.117 105.935 102.236 105.917 103.419C105.879 105.811 103.274 107.559 100.881 107.413C98.4878 107.268 96.3957 105.757 94.7159 104.052C91.3295 100.612 89.0206 96.2132 85.5137 92.8947C79.7983 87.4876 71.4045 85.5686 63.5622 86.3512C59.2709 86.7799 54.7856 88.1153 52.0149 91.4137C49.2442 94.7122 49.0515 100.361 52.5249 102.917C54.7923 104.582 57.978 104.529 60.5921 103.486C63.2062 102.443 65.3786 100.548 67.48 98.6784C77.733 89.5482 88.0341 79.7863 100.981 75.1992C106.679 73.1814 112.716 72.2439 118.751 71.8727C126.129 71.4173 133.915 71.8981 140.237 75.72C146.559 79.5419 150.831 87.5384 148.342 94.4825C147.762 96.1037 146.828 97.6234 145.512 98.7358C142.503 101.273 137.883 101.258 134.381 99.4596C130.88 97.6608 128.341 94.385 126.484 90.921C121.645 81.8936 120.755 71.2811 121.08 61.0492C121.424 50.2217 123.158 39.063 129.016 29.9435C130.518 27.6066 132.328 25.3858 134.717 23.9649C137.106 22.544 140.166 22.0286 142.708 23.1637C145.299 24.3148 146.935 26.9255 147.948 29.5736C150.048 35.0488 149.711 42.1051 145.127 45.7801C140.765 49.2776 134.411 48.4603 129.038 46.8952C116.343 43.1961 104.792 36.4203 92.4967 31.5781C80.2012 26.7359 66.266 23.8687 53.8219 28.3344C48.9912 30.0704 44.4845 32.9295 41.3377 36.9758C38.1908 41.0221 36.511 46.3156 37.3422 51.3688C37.6728 53.3866 38.4532 55.4285 40.0192 56.7452C41.9574 58.3744 44.704 58.6001 47.2338 58.4812C55.4763 58.0899 63.2758 54.8823 71.0993 52.2609C80.6094 49.0746 90.5425 46.6936 100.568 47.0381C110.593 47.3826 120.779 50.6824 128.019 57.6159C129.389 58.9272 130.672 60.3802 132.332 61.3016C133.67 62.0427 135.19 62.402 136.71 62.5622C141.376 63.0523 146.786 61.1507 148.402 56.7545C149.852 52.8124 147.733 48.3788 144.777 45.3875C138.916 39.4543 129.506 37.3176 121.648 40.1367C116.416 42.0063 112.114 45.7708 107.959 49.4565C101.466 55.2175 94.9568 61.0358 87.587 65.6256C80.2172 70.2154 71.8596 73.5566 63.1767 73.8558C59.0889 73.996 55.0118 73.4645 50.9548 72.933C49.0394 72.6819 47.0517 72.4055 45.4321 71.3532C41.6335 68.8867 41.4621 63.3408 42.7699 59.0087C44.7937 52.3063 50.2441 45.9658 57.2525 45.6426C61.5959 45.4423 65.7694 47.5883 68.9992 50.4915C72.229 53.3946 74.6905 57.035 77.2765 60.5164C87.3233 74.0614 99.7902 85.8985 114.233 94.6374C121.956 99.3113 131.366 103.164 139.829 100.031C147.994 97.0104 152.85 87.6572 151.817 79.0318C150.783 70.4064 144.622 62.8894 136.876 58.9219C129.13 54.9544 120.019 54.2333 111.407 55.4992C99.2186 57.2954 87.5014 63.1191 79.3699 72.3628C71.8462 80.9174 67.6888 91.8371 61.6936 101.52C60.2333 103.88 58.4812 106.314 55.8444 107.204C51.4782 108.679 46.9259 105.2 44.5193 101.282C41.9563 97.0864 40.7029 92.2244 40.9187 87.3154C41.0766 83.8687 42.1367 80.2043 44.8834 78.109C48.9149 75.0376 54.6544 76.4852 59.4798 78.0703L68.2871 80.9668C70.4287 81.6706 73.0134 82.3022 74.7414 80.8573C75.8416 79.9386 76.2285 78.4336 76.4467 77.0194C78.2523 65.3586 72.8554 53.8033 72.4004 42.0129C72.2424 37.9266 72.7832 33.5652 75.3451 30.3749C77.3194 27.9177 80.2975 26.4274 83.3761 25.6929C86.8219 24.8717 90.4179 24.9144 93.8432 25.8171C99.8317 27.4036 104.819 31.4846 109.294 35.7579C120.024 46.0018 129.625 58.3944 143.504 63.6679C147.029 65.0033 151.134 65.7926 154.455 64.0018C159.395 61.331 160.046 54.6539 160.083 49.0452" stroke="#FF0000" stroke-width="1.5" stroke-miterlimit="10"/>
<path d="M92.6058 113.853C90.0907 113.452 88.6277 110.077 90.0519 107.977C90.6114 107.151 91.468 106.58 92.3274 106.076C99.7641 101.726 108.853 101.074 117.404 102.152C125.956 103.229 134.204 105.903 142.602 107.822C147.092 108.847 151.734 109.662 156.291 108.984C158.826 108.606 161.475 107.628 162.872 105.485C163.869 103.956 164.086 102.038 163.963 100.217C163.354 91.2227 155.342 84.3614 146.942 81.0375C135.787 76.624 123.228 76.6013 111.53 79.2788C99.831 81.9563 88.8874 87.2085 78.4511 93.1177C72.136 96.6939 65.7661 100.596 58.597 101.755C51.428 102.914 43.1145 100.541 39.6344 94.182C38.2397 91.6327 37.7378 88.6868 37.5624 85.7903C37.4286 83.6229 37.4915 81.3567 38.4632 79.4124C40.645 75.0469 46.3457 73.9746 51.2353 73.8758C73.8747 73.4177 95.5077 82.3249 117.665 86.9841C123.421 88.194 129.404 89.1208 135.143 87.8455C142.639 86.1842 149.168 80.5621 151.758 73.3523C154.348 66.1424 152.843 57.5771 147.824 51.7801C142.806 45.9831 134.439 43.2495 126.989 45.1177C119.494 47.0007 113.785 52.8538 107.672 57.5811C98.2183 64.8743 87.1526 69.8048 75.3993 71.9608C68.6479 73.196 61.6033 73.4698 54.9898 71.6296C48.3762 69.7894 42.2311 65.639 38.9853 59.6109C35.7394 53.5829 35.8438 45.6158 40.0855 40.2328C43.5067 35.8901 49.1044 33.6733 54.6244 33.2606C60.1443 32.848 65.6536 34.0445 71.0023 35.4667C87.8206 39.9444 104 46.7309 121.033 50.3178C130.572 52.3209 141.5 52.9993 149.089 46.8925C153.185 43.5967 155.702 38.7465 157.701 33.8963C158.492 31.9773 159.223 29.8059 158.458 27.8763C157.574 25.6555 155.068 24.6099 152.77 23.9502C137.689 19.6275 121.603 22.2836 106.106 24.7381C90.6087 27.1925 74.3446 29.3572 59.5474 24.1478C55.4636 22.7109 50.7239 20.7826 47.0993 23.1382C44.9577 24.5257 43.8869 27.0964 43.4759 29.6083C42.3302 36.6926 45.7514 44.02 51.1697 48.7447C56.5879 53.4694 63.7235 55.8504 70.8604 56.7425C77.9973 57.6345 85.2253 57.1431 92.4104 56.7785C111.318 55.8063 130.245 55.651 149.19 56.3125C152.556 56.4313 156.244 56.7037 158.681 59.0233C161.141 61.3656 161.571 65.0674 161.853 68.4487C162.104 71.4493 162.299 74.6917 160.689 77.2383C159.593 78.9743 157.79 80.1402 155.933 81.0202C148.617 84.4923 140.068 84.1784 132.09 82.7736C115.77 79.8998 100.4 72.8154 84.038 70.2328C77.2625 69.1644 70.2514 68.8907 63.603 70.5679C56.9547 72.2452 50.6624 76.0351 46.948 81.7854C43.2337 87.5357 42.4627 95.3558 45.9053 101.276C47.1689 103.448 49.0522 105.385 51.4601 106.118C54.955 107.186 58.6385 105.553 61.946 104.004C69.2181 100.599 76.6401 97.3843 84.4637 95.5655C92.2872 93.7466 100.587 93.3754 108.296 95.6336C114.869 97.5592 120.803 101.34 125.815 106C130.651 110.497 135.38 116.176 141.964 116.748C148.352 117.301 154.423 112.177 155.904 105.954C157.384 99.7306 154.793 92.9828 150.228 88.4918C145.664 84.0008 139.387 81.561 133.049 80.5888C116.273 78.0142 99.649 84.9476 84.1598 91.8704C75.8383 95.5908 66.8931 99.4435 57.9117 97.8437C50.7173 96.5657 44.2871 91.5793 41.258 84.9476C39.4832 81.0536 38.8487 76.7282 38.7309 72.4509C38.5891 67.3416 39.7321 61.3349 44.3366 59.0968C47.6989 57.4622 51.6837 58.4705 55.3003 59.4173C69.7713 63.2061 84.5844 65.5489 99.5205 66.4108C112.942 67.184 127.181 66.5444 138.562 59.4053C141.927 57.294 145.008 54.5978 146.995 51.1564C148.981 47.7151 149.761 43.4765 148.533 39.7053C146.643 33.911 140.635 30.491 134.812 28.6802C129.474 27.0176 123.822 26.2257 118.257 26.7692C106.407 27.9257 96.0524 34.8818 84.979 39.2446C70.8203 44.7849 55.3576 46.121 40.4549 43.0919C36.5304 42.2907 33.9926 37.9132 34.4999 33.947C35.0072 29.9809 38.0015 26.6424 41.594 24.8663C45.1866 23.0902 49.2891 22.6602 53.3046 22.6962C58.9852 22.7456 65.2347 23.9849 68.6974 28.4785C71.8603 32.5996 71.8121 38.227 72.0437 43.4164C72.3147 49.4763 73.1581 55.4972 74.5627 61.399C75.8156 66.6645 77.561 71.918 80.7359 76.3062C83.9108 80.6944 88.3453 83.9875 93.0729 86.6009C100.688 90.8101 109.607 93.3954 118.155 91.7088C121.643 91.0211 125.231 89.4266 126.972 86.3324C127.936 84.6191 128.235 82.612 128.324 80.649C128.906 67.8197 121.331 55.8103 121.058 42.9757C120.983 39.5104 121.519 35.8633 123.611 33.0937C127.141 28.4198 134.231 27.7013 139.631 29.9769C142.964 31.3804 145.846 33.7027 149.184 35.0928C152.523 36.483 156.771 36.7394 159.413 34.2809C161.235 32.5903 161.898 30.0076 162.191 27.5384C162.421 25.6101 162.477 23.6651 162.361 21.7267C162.25 19.8745 165.594 19.3136 166.096 21.1004C166.598 22.8872 163.449 24.1411 162.579 22.5013" stroke="#FDB300" stroke-width="1.5" stroke-miterlimit="10"/>
<path d="M97.1149 117.416L84.8162 117.129L76.0867 133.583L84.8875 142.906L94.7353 142.074L103.318 126.089L97.1149 117.416Z" fill="#FF755E"/>
</svg>
