<svg width="198" height="213" viewBox="0 0 198 213" fill="none" xmlns="http://www.w3.org/2000/svg">
<path d="M47.0936 190.327V179.127H54.9016V181.463H49.7656V187.991H55.0776V190.327H47.0936ZM48.3896 185.751V183.511H54.1976V185.751H48.3896ZM60.0141 190.487C59.2034 190.487 58.4781 190.359 57.8381 190.103C57.1981 189.836 56.6861 189.474 56.3021 189.015L57.8701 187.671C58.2008 188.002 58.5741 188.247 58.9901 188.407C59.4061 188.556 59.8008 188.631 60.1741 188.631C60.3128 188.631 60.4354 188.615 60.5421 188.583C60.6488 188.551 60.7394 188.508 60.8141 188.455C60.8994 188.391 60.9634 188.322 61.0061 188.247C61.0488 188.162 61.0701 188.066 61.0701 187.959C61.0701 187.746 60.9794 187.586 60.7981 187.479C60.7128 187.426 60.5581 187.362 60.3341 187.287C60.1101 187.202 59.8221 187.116 59.4701 187.031C58.9688 186.903 58.5314 186.748 58.1581 186.567C57.7954 186.386 57.4968 186.178 57.2621 185.943C57.0488 185.73 56.8834 185.484 56.7661 185.207C56.6594 184.93 56.6061 184.62 56.6061 184.279C56.6061 183.756 56.7608 183.298 57.0701 182.903C57.3901 182.508 57.8061 182.204 58.3181 181.991C58.8301 181.767 59.3848 181.655 59.9821 181.655C60.4514 181.655 60.8941 181.708 61.3101 181.815C61.7368 181.922 62.1314 182.071 62.4941 182.263C62.8674 182.455 63.1981 182.684 63.4861 182.951L62.1261 184.471C61.9448 184.29 61.7314 184.13 61.4861 183.991C61.2408 183.842 60.9954 183.724 60.7501 183.639C60.5048 183.543 60.2754 183.495 60.0621 183.495C59.9021 183.495 59.7581 183.511 59.6301 183.543C59.5128 183.564 59.4114 183.607 59.3261 183.671C59.2514 183.724 59.1928 183.794 59.1501 183.879C59.1074 183.954 59.0861 184.039 59.0861 184.135C59.0861 184.252 59.1128 184.359 59.1661 184.455C59.2301 184.54 59.3154 184.62 59.4221 184.695C59.5181 184.748 59.6834 184.818 59.9181 184.903C60.1634 184.988 60.4834 185.084 60.8781 185.191C61.3794 185.33 61.8061 185.49 62.1581 185.671C62.5208 185.842 62.8088 186.044 63.0221 186.279C63.2034 186.46 63.3314 186.674 63.4061 186.919C63.4914 187.154 63.5341 187.41 63.5341 187.687C63.5341 188.231 63.3794 188.716 63.0701 189.143C62.7714 189.559 62.3554 189.89 61.8221 190.135C61.2994 190.37 60.6968 190.487 60.0141 190.487ZM73.0454 190.487C72.2347 190.487 71.5094 190.359 70.8694 190.103C70.2294 189.836 69.7174 189.474 69.3334 189.015L70.9014 187.671C71.232 188.002 71.6054 188.247 72.0214 188.407C72.4374 188.556 72.832 188.631 73.2054 188.631C73.344 188.631 73.4667 188.615 73.5734 188.583C73.68 188.551 73.7707 188.508 73.8454 188.455C73.9307 188.391 73.9947 188.322 74.0374 188.247C74.08 188.162 74.1014 188.066 74.1014 187.959C74.1014 187.746 74.0107 187.586 73.8294 187.479C73.744 187.426 73.5894 187.362 73.3654 187.287C73.1414 187.202 72.8534 187.116 72.5014 187.031C72 186.903 71.5627 186.748 71.1894 186.567C70.8267 186.386 70.528 186.178 70.2934 185.943C70.08 185.73 69.9147 185.484 69.7974 185.207C69.6907 184.93 69.6374 184.62 69.6374 184.279C69.6374 183.756 69.792 183.298 70.1014 182.903C70.4214 182.508 70.8374 182.204 71.3494 181.991C71.8614 181.767 72.416 181.655 73.0134 181.655C73.4827 181.655 73.9254 181.708 74.3414 181.815C74.768 181.922 75.1627 182.071 75.5254 182.263C75.8987 182.455 76.2294 182.684 76.5174 182.951L75.1574 184.471C74.976 184.29 74.7627 184.13 74.5174 183.991C74.272 183.842 74.0267 183.724 73.7814 183.639C73.536 183.543 73.3067 183.495 73.0934 183.495C72.9334 183.495 72.7894 183.511 72.6614 183.543C72.544 183.564 72.4427 183.607 72.3574 183.671C72.2827 183.724 72.224 183.794 72.1814 183.879C72.1387 183.954 72.1174 184.039 72.1174 184.135C72.1174 184.252 72.144 184.359 72.1974 184.455C72.2614 184.54 72.3467 184.62 72.4534 184.695C72.5494 184.748 72.7147 184.818 72.9494 184.903C73.1947 184.988 73.5147 185.084 73.9094 185.191C74.4107 185.33 74.8374 185.49 75.1894 185.671C75.552 185.842 75.84 186.044 76.0534 186.279C76.2347 186.46 76.3627 186.674 76.4374 186.919C76.5227 187.154 76.5654 187.41 76.5654 187.687C76.5654 188.231 76.4107 188.716 76.1014 189.143C75.8027 189.559 75.3867 189.89 74.8534 190.135C74.3307 190.37 73.728 190.487 73.0454 190.487ZM82.1512 190.487C81.2126 190.487 80.3912 190.3 79.6872 189.927C78.9939 189.554 78.4552 189.042 78.0712 188.391C77.6979 187.73 77.5112 186.978 77.5112 186.135C77.5112 185.474 77.6179 184.871 77.8312 184.327C78.0446 183.772 78.3432 183.298 78.7272 182.903C79.1219 182.508 79.5806 182.204 80.1032 181.991C80.6366 181.767 81.2179 181.655 81.8472 181.655C82.4446 181.655 82.9886 181.762 83.4792 181.975C83.9699 182.188 84.3966 182.487 84.7592 182.871C85.1219 183.255 85.3992 183.708 85.5912 184.231C85.7832 184.754 85.8739 185.324 85.8632 185.943L85.8472 186.647H79.0952L78.7112 185.191H83.7512L83.4792 185.479V185.159C83.4579 184.892 83.3726 184.663 83.2232 184.471C83.0846 184.268 82.8979 184.108 82.6632 183.991C82.4392 183.874 82.1832 183.815 81.8952 183.815C81.4686 183.815 81.1059 183.9 80.8072 184.071C80.5192 184.231 80.3006 184.466 80.1512 184.775C80.0019 185.084 79.9272 185.468 79.9272 185.927C79.9272 186.386 80.0232 186.791 80.2152 187.143C80.4179 187.495 80.7059 187.767 81.0792 187.959C81.4632 188.151 81.9166 188.247 82.4392 188.247C82.7912 188.247 83.1112 188.194 83.3992 188.087C83.6872 187.98 83.9966 187.799 84.3272 187.543L85.5272 189.239C85.1966 189.516 84.8446 189.751 84.4712 189.943C84.0979 190.124 83.7139 190.258 83.3192 190.343C82.9352 190.439 82.5459 190.487 82.1512 190.487ZM89.9616 190.327L86.4096 181.831H89.2416L91.3536 188.119L90.7296 188.199L92.9056 181.831H95.7216L91.9776 190.327H89.9616ZM102.166 193.847V181.831H104.614L104.726 183.703L104.23 183.559C104.294 183.218 104.47 182.908 104.758 182.631C105.056 182.343 105.424 182.114 105.862 181.943C106.299 181.762 106.763 181.671 107.254 181.671C107.979 181.671 108.624 181.858 109.19 182.231C109.755 182.604 110.198 183.127 110.518 183.799C110.848 184.46 111.014 185.223 111.014 186.087C111.014 186.93 110.848 187.682 110.518 188.343C110.198 189.004 109.75 189.527 109.174 189.911C108.608 190.284 107.963 190.471 107.238 190.471C106.747 190.471 106.283 190.38 105.846 190.199C105.408 190.007 105.04 189.762 104.742 189.463C104.443 189.164 104.251 188.839 104.166 188.487L104.758 188.247V193.847H102.166ZM106.614 188.295C106.998 188.295 107.328 188.204 107.606 188.023C107.894 187.842 108.112 187.586 108.262 187.255C108.422 186.914 108.502 186.524 108.502 186.087C108.502 185.639 108.422 185.25 108.262 184.919C108.112 184.578 107.894 184.316 107.606 184.135C107.328 183.943 106.998 183.847 106.614 183.847C106.219 183.847 105.878 183.943 105.59 184.135C105.302 184.316 105.078 184.572 104.918 184.903C104.758 185.234 104.678 185.628 104.678 186.087C104.678 186.524 104.758 186.914 104.918 187.255C105.078 187.586 105.302 187.842 105.59 188.023C105.878 188.204 106.219 188.295 106.614 188.295ZM117.225 190.327V185.111C117.225 184.674 117.102 184.354 116.857 184.151C116.622 183.938 116.292 183.831 115.865 183.831C115.449 183.831 115.076 183.911 114.745 184.071C114.425 184.22 114.116 184.471 113.817 184.823L112.281 183.335C112.793 182.812 113.38 182.402 114.041 182.103C114.702 181.804 115.422 181.655 116.201 181.655C116.916 181.655 117.534 181.762 118.057 181.975C118.58 182.188 118.985 182.514 119.273 182.951C119.561 183.388 119.705 183.943 119.705 184.615V190.327H117.225ZM115.017 190.487C114.484 190.487 113.998 190.38 113.561 190.167C113.134 189.954 112.793 189.66 112.537 189.287C112.292 188.903 112.169 188.455 112.169 187.943C112.169 187.506 112.249 187.122 112.409 186.791C112.569 186.46 112.804 186.188 113.113 185.975C113.433 185.751 113.828 185.586 114.297 185.479C114.777 185.362 115.332 185.303 115.961 185.303H118.537L118.393 186.919H116.025C115.801 186.919 115.604 186.94 115.433 186.983C115.262 187.015 115.118 187.074 115.001 187.159C114.884 187.234 114.793 187.324 114.729 187.431C114.676 187.538 114.649 187.666 114.649 187.815C114.649 187.975 114.692 188.114 114.777 188.231C114.862 188.348 114.974 188.439 115.113 188.503C115.262 188.567 115.433 188.599 115.625 188.599C115.902 188.599 116.164 188.556 116.409 188.471C116.665 188.375 116.889 188.242 117.081 188.071C117.284 187.9 117.444 187.703 117.561 187.479L118.009 188.631C117.785 188.994 117.513 189.314 117.193 189.591C116.884 189.868 116.542 190.087 116.169 190.247C115.806 190.407 115.422 190.487 115.017 190.487ZM122.463 190.327V179.687H125.039V190.327H122.463ZM120.959 184.087V181.831H126.671V184.087H120.959ZM128.038 190.327V181.831H130.614V190.327H128.038ZM126.662 180.103V178.471H132.006V180.103H126.662ZM135.255 187.831L134.343 185.879L138.295 181.831H141.671L135.255 187.831ZM132.791 190.327V178.487H135.367V190.327H132.791ZM138.535 190.327L135.575 186.487L137.399 185.079L141.591 190.327H138.535ZM145.64 190.487C145.021 190.487 144.488 190.354 144.04 190.087C143.592 189.81 143.245 189.42 143 188.919C142.765 188.407 142.648 187.794 142.648 187.079V181.831H145.224V186.695C145.224 187.218 145.347 187.628 145.592 187.927C145.848 188.215 146.2 188.359 146.648 188.359C146.872 188.359 147.075 188.327 147.256 188.263C147.437 188.188 147.592 188.087 147.72 187.959C147.859 187.82 147.965 187.66 148.04 187.479C148.115 187.298 148.152 187.1 148.152 186.887V181.831H150.728V190.327H148.312L148.216 188.583L148.68 188.391C148.563 188.786 148.349 189.143 148.04 189.463C147.741 189.783 147.384 190.034 146.968 190.215C146.552 190.396 146.109 190.487 145.64 190.487Z" fill="#2D573D"/>
<path d="M0.695312 10.252C0.695312 4.72911 5.17247 0.251953 10.6953 0.251953H186.728C192.251 0.251953 196.728 4.72911 196.728 10.252V159.137H0.695312V10.252Z" fill="#2D573D"/>
<rect x="2.19531" y="1.75195" width="193.706" height="209.097" rx="8.5" stroke="#2D573D" stroke-width="3"/>
</svg>
