<svg width="229" height="267" viewBox="0 0 229 267" fill="none" xmlns="http://www.w3.org/2000/svg">
    <defs>
        <linearGradient id="paint0_linear_780_4807" x1="175.085" y1="36.4098" x2="68.2631"
            y2="205.374" gradientUnits="userSpaceOnUse">
            <stop stop-color="#FF7B5B" />
            <stop offset="0.5008" stop-color="#FF987E" />
            <stop offset="0.6809" stop-color="#FF8264" />
            <stop offset="0.8091" stop-color="#FF8C6F" />
            <stop offset="0.8214" stop-color="#FF8D71" />
            <stop offset="1" stop-color="#FFA087" />
        </linearGradient>
    </defs>
    <mask id="mask0_780_4807" style="mask-type:alpha" maskUnits="userSpaceOnUse" x="0" y="0"
        width="229" height="265">
        <path
            d="M119.277 187.614C119.395 187.879 119.542 188.115 119.689 188.351C119.454 188.263 119.218 188.174 118.982 188.056C119.1 187.938 119.188 187.791 119.277 187.614ZM59.1214 142.114C44.7313 115.457 53.2828 78.6857 77.9641 61.111C102.645 43.5362 140.184 47.4876 160.678 69.8099C181.172 92.1322 181.879 129.877 162.27 152.966C158.702 157.182 153.984 161.134 148.44 161.104C140.066 161.016 134.64 152.169 126.884 149.014C119.188 145.889 110.076 149.014 103.913 154.587C98.1338 159.807 94.3889 166.825 90.8798 173.784C78.0231 165.645 66.2869 155.413 59.1214 142.114ZM93.0029 3.55066C64.7241 10.1264 38.5978 26.4922 21.4359 49.9056C4.27398 73.3189 -3.48133 103.721 1.67904 132.295C7.69457 165.616 29.9579 193.747 54.6687 216.895C71.5063 232.671 89.8772 246.914 109.899 258.385C114.883 261.245 120.132 263.987 125.852 264.577C131.573 265.167 137.913 263.191 141.009 258.355C143.634 254.286 142.837 248.152 139.299 245.174C142.454 246.855 145.875 248.123 149.443 248.182C153.866 248.241 158.554 246.059 160.383 242.019C161.503 239.542 161.12 236.446 159.646 234.205C163.597 235.709 168.58 234.794 171.293 231.462C175.038 226.833 173.357 218.9 168.05 216.217C172.502 217.043 177.279 217.868 181.467 216.158C185.683 214.448 188.721 209.111 186.391 205.218C185.241 203.301 183.265 202.299 181.054 201.739C189.959 197.492 197.98 191.182 204.408 183.692C215.319 170.924 221.953 154.912 225.433 138.487C230.151 116.165 229.207 92.545 221.658 71.0189C214.11 49.4927 199.837 30.2077 180.818 17.5869C163.184 5.90968 142.071 0.365967 120.869 0.365967C111.492 0.365967 102.115 1.45702 93.0029 3.55066Z"
            fill="#FF987E" />
    </mask>
    <g mask="url(#mask0_780_4807)">
        <path d="M350.687 75.8251L164.354 370.527L-122.15 189.412L64.1834 -105.319L350.687 75.8251Z"
            fill="url(#paint0_linear_780_4807)" />
    </g>
    <path
        d="M103.961 176.703C103.489 175.524 102.988 174.315 102.516 173.135C100.01 175.17 97.474 177.263 95.5572 179.858C93.6405 182.453 92.3726 185.697 92.7559 188.911C93.1392 192.125 95.4688 195.192 98.624 195.841C100.895 196.283 103.283 195.457 105.082 194.012C106.881 192.567 108.149 190.533 109.122 188.439C110.183 186.08 110.92 183.544 110.832 180.949C110.743 178.354 109.8 175.759 107.942 173.961C106.94 173.017 105.642 172.309 104.256 172.28C102.9 172.25 101.455 173.017 103.961 176.703Z"
        fill="#FFA087" />
    <path
        d="M59.7912 226.538C64.008 219.608 68.9619 213.121 74.5057 207.223C77.3365 204.215 81.6122 201.119 85.2687 203.065C87.7752 204.392 88.6893 207.665 88.129 210.437C87.5688 213.209 85.888 215.598 84.2367 217.898C86.3008 215.244 88.5419 212.472 91.7266 211.44C94.9112 210.408 99.187 212.148 99.4524 215.48C99.7767 219.52 94.4984 222.144 94.233 226.213C94.233 222.114 97.5357 218.222 101.605 217.691C105.674 217.161 109.921 220.198 110.599 224.238C111.277 228.277 108.151 232.612 104.082 233.084C107.532 231.492 109.537 227.894 112.368 225.358C115.228 222.852 120.448 221.879 122.276 225.211C123.22 226.921 122.836 229.015 122.364 230.902C119.593 241.753 114.403 251.956 107.237 260.567C104.583 263.781 101.163 266.995 97.0049 266.966C93.7907 266.966 90.6945 264.724 89.6329 261.687C88.6009 258.65 89.6624 254.993 92.1984 252.988C90.3112 257.706 83.2341 259.24 79.5481 255.76C75.8621 252.281 76.9826 245.144 81.5827 242.962C79.9904 246.412 75.0364 247.739 71.9402 245.557C68.8145 243.375 68.3722 238.303 71.0556 235.59C67.9888 238.657 62.2977 238.982 59.4079 235.767C56.4886 232.583 58.0809 226.331 59.7912 226.538Z"
        fill="#FF7B5B" />
    <path
        d="M86.1518 209.729C85.2672 212.973 83.0261 215.833 80.0773 217.426C78.8093 218.104 77.3054 218.576 75.9195 218.163C74.3272 217.662 73.2951 216.01 73.1476 214.359C73.0002 212.708 73.59 211.056 74.4156 209.611C75.4182 207.901 76.8041 206.338 78.6029 205.483C80.4017 204.628 82.6427 204.598 84.2941 205.69C85.9454 206.81 86.8005 209.14 86.1518 209.729Z"
        fill="#FF987E" />
    <path
        d="M95.3527 217.543C96.1194 216.806 95.972 215.42 95.2053 214.713C94.4091 214.005 93.2001 213.887 92.1975 214.211C91.195 214.536 90.3398 215.273 89.6321 216.04C88.6 217.131 87.7449 218.369 87.0961 219.726C86.7423 220.404 86.4769 221.141 86.4179 221.908C86.3589 222.674 86.5654 223.5 87.1256 224.031C87.6859 224.562 88.5116 224.768 89.2782 224.709C90.0449 224.62 90.7821 224.296 91.4308 223.913C92.9937 222.999 94.2912 221.672 95.2053 220.079C95.854 218.929 96.2669 217.308 95.3527 217.543Z"
        fill="#FF987E" />
    <path
        d="M107.709 225.653C108.358 224.414 107.827 222.792 106.706 221.967C105.586 221.141 104.052 221.053 102.725 221.495C101.398 221.937 100.278 222.822 99.3048 223.825C98.1547 225.004 97.1522 226.419 96.9163 228.071C96.6804 229.693 97.4175 231.55 98.9509 232.199C100.16 232.7 101.546 232.406 102.696 231.816C105.468 230.459 106.736 227.481 107.709 225.653Z"
        fill="#FF987E" />
    <path
        d="M118.471 230.164C119.297 229.545 119.267 228.218 118.589 227.451C117.911 226.685 116.761 226.508 115.758 226.773C114.785 227.039 113.93 227.658 113.193 228.366C111.925 229.575 110.893 231.049 110.185 232.641C109.743 233.614 109.418 234.705 109.536 235.767C109.654 236.829 110.303 237.89 111.335 238.244C112.691 238.716 114.107 237.831 115.139 236.858C116.997 235.118 118.294 232.789 118.471 230.164Z"
        fill="#FF987E" />
</svg>
