<svg width="198" height="213" viewBox="0 0 198 213" fill="none" xmlns="http://www.w3.org/2000/svg">
<path d="M48.9121 190.487C48.0694 190.487 47.2907 190.348 46.5761 190.071C45.8721 189.783 45.2587 189.383 44.7361 188.871C44.2241 188.348 43.8241 187.735 43.5361 187.031C43.2587 186.316 43.1201 185.538 43.1201 184.695C43.1201 183.863 43.2641 183.095 43.5521 182.391C43.8507 181.687 44.2667 181.074 44.8001 180.551C45.3334 180.028 45.9574 179.623 46.6721 179.335C47.3974 179.047 48.1814 178.903 49.0241 178.903C49.5574 178.903 50.0801 178.972 50.5921 179.111C51.1041 179.25 51.5788 179.458 52.0161 179.735C52.4641 180.002 52.8481 180.327 53.1681 180.711L51.4881 182.615C51.1574 182.252 50.7841 181.97 50.3681 181.767C49.9628 181.564 49.5094 181.463 49.0081 181.463C48.5814 181.463 48.1761 181.538 47.7921 181.687C47.4187 181.836 47.0934 182.055 46.8161 182.343C46.5388 182.631 46.3201 182.972 46.1601 183.367C46.0001 183.762 45.9201 184.21 45.9201 184.711C45.9201 185.202 45.9947 185.65 46.1441 186.055C46.3041 186.45 46.5281 186.791 46.8161 187.079C47.1148 187.356 47.4667 187.57 47.8721 187.719C48.2881 187.868 48.7468 187.943 49.2481 187.943C49.5788 187.943 49.8934 187.9 50.1921 187.815C50.5014 187.719 50.7894 187.586 51.0561 187.415C51.3228 187.244 51.5521 187.052 51.7441 186.839L53.0721 188.951C52.8161 189.239 52.4641 189.5 52.0161 189.735C51.5788 189.97 51.0881 190.156 50.5441 190.295C50.0108 190.423 49.4668 190.487 48.9121 190.487ZM58.7098 190.487C57.7712 190.487 56.9498 190.3 56.2458 189.927C55.5525 189.554 55.0138 189.042 54.6298 188.391C54.2565 187.73 54.0698 186.978 54.0698 186.135C54.0698 185.474 54.1765 184.871 54.3898 184.327C54.6032 183.772 54.9018 183.298 55.2858 182.903C55.6805 182.508 56.1392 182.204 56.6618 181.991C57.1952 181.767 57.7765 181.655 58.4058 181.655C59.0032 181.655 59.5472 181.762 60.0378 181.975C60.5285 182.188 60.9552 182.487 61.3178 182.871C61.6805 183.255 61.9578 183.708 62.1498 184.231C62.3418 184.754 62.4325 185.324 62.4218 185.943L62.4058 186.647H55.6538L55.2698 185.191H60.3098L60.0378 185.479V185.159C60.0165 184.892 59.9312 184.663 59.7818 184.471C59.6432 184.268 59.4565 184.108 59.2218 183.991C58.9978 183.874 58.7418 183.815 58.4538 183.815C58.0272 183.815 57.6645 183.9 57.3658 184.071C57.0778 184.231 56.8592 184.466 56.7098 184.775C56.5605 185.084 56.4858 185.468 56.4858 185.927C56.4858 186.386 56.5818 186.791 56.7738 187.143C56.9765 187.495 57.2645 187.767 57.6378 187.959C58.0218 188.151 58.4752 188.247 58.9978 188.247C59.3498 188.247 59.6698 188.194 59.9578 188.087C60.2458 187.98 60.5552 187.799 60.8858 187.543L62.0858 189.239C61.7552 189.516 61.4032 189.751 61.0298 189.943C60.6565 190.124 60.2725 190.258 59.8778 190.343C59.4938 190.439 59.1045 190.487 58.7098 190.487ZM64.0525 190.327V181.831H66.5005L66.6125 184.599L66.1325 184.055C66.2711 183.607 66.4845 183.202 66.7725 182.839C67.0605 182.476 67.4018 182.188 67.7965 181.975C68.2018 181.762 68.6231 181.655 69.0605 181.655C69.2525 181.655 69.4285 181.671 69.5885 181.703C69.7591 181.724 69.9085 181.762 70.0365 181.815L69.3485 184.647C69.2311 184.583 69.0711 184.53 68.8685 184.487C68.6765 184.434 68.4738 184.407 68.2605 184.407C68.0258 184.407 67.8071 184.45 67.6045 184.535C67.4125 184.61 67.2418 184.722 67.0925 184.871C66.9538 185.02 66.8418 185.196 66.7565 185.399C66.6818 185.602 66.6445 185.831 66.6445 186.087V190.327H64.0525ZM71.2373 190.327V181.831H73.8133V190.327H71.2373ZM69.8613 180.103V178.471H75.2053V180.103H69.8613ZM81.094 190.487C80.71 190.487 80.342 190.434 79.99 190.327C79.6486 190.22 79.334 190.082 79.046 189.911C78.758 189.73 78.518 189.522 78.326 189.287C78.1446 189.052 78.0273 188.807 77.974 188.551L78.534 188.359L78.39 190.295H75.99V178.487H78.582V183.815L78.054 183.639C78.118 183.372 78.2406 183.122 78.422 182.887C78.6033 182.652 78.8273 182.444 79.094 182.263C79.3713 182.071 79.6753 181.922 80.006 181.815C80.3366 181.708 80.678 181.655 81.03 181.655C81.766 181.655 82.4166 181.847 82.982 182.231C83.558 182.615 84.0113 183.143 84.342 183.815C84.6726 184.476 84.838 185.234 84.838 186.087C84.838 186.94 84.6726 187.698 84.342 188.359C84.022 189.02 83.5793 189.543 83.014 189.927C82.4486 190.3 81.8086 190.487 81.094 190.487ZM80.422 188.327C80.806 188.327 81.1366 188.236 81.414 188.055C81.702 187.863 81.926 187.602 82.086 187.271C82.246 186.93 82.326 186.535 82.326 186.087C82.326 185.628 82.246 185.234 82.086 184.903C81.9366 184.562 81.718 184.3 81.43 184.119C81.142 183.927 80.806 183.831 80.422 183.831C80.038 183.831 79.702 183.927 79.414 184.119C79.126 184.3 78.902 184.562 78.742 184.903C78.582 185.234 78.502 185.628 78.502 186.087C78.502 186.535 78.582 186.93 78.742 187.271C78.902 187.602 79.126 187.863 79.414 188.055C79.702 188.236 80.038 188.327 80.422 188.327ZM89.4172 190.487C88.7985 190.487 88.2652 190.354 87.8172 190.087C87.3692 189.81 87.0225 189.42 86.7772 188.919C86.5425 188.407 86.4252 187.794 86.4252 187.079V181.831H89.0012V186.695C89.0012 187.218 89.1239 187.628 89.3692 187.927C89.6252 188.215 89.9772 188.359 90.4252 188.359C90.6492 188.359 90.8519 188.327 91.0332 188.263C91.2145 188.188 91.3692 188.087 91.4972 187.959C91.6359 187.82 91.7425 187.66 91.8172 187.479C91.8919 187.298 91.9292 187.1 91.9292 186.887V181.831H94.5052V190.327H92.0892L91.9932 188.583L92.4572 188.391C92.3399 188.786 92.1265 189.143 91.8172 189.463C91.5185 189.783 91.1612 190.034 90.7452 190.215C90.3292 190.396 89.8865 190.487 89.4172 190.487ZM104.776 190.487C103.965 190.487 103.24 190.359 102.6 190.103C101.96 189.836 101.448 189.474 101.064 189.015L102.632 187.671C102.962 188.002 103.336 188.247 103.752 188.407C104.168 188.556 104.562 188.631 104.936 188.631C105.074 188.631 105.197 188.615 105.304 188.583C105.411 188.551 105.501 188.508 105.576 188.455C105.661 188.391 105.725 188.322 105.768 188.247C105.81 188.162 105.832 188.066 105.832 187.959C105.832 187.746 105.741 187.586 105.56 187.479C105.475 187.426 105.32 187.362 105.096 187.287C104.872 187.202 104.584 187.116 104.232 187.031C103.73 186.903 103.293 186.748 102.92 186.567C102.557 186.386 102.258 186.178 102.024 185.943C101.81 185.73 101.645 185.484 101.528 185.207C101.421 184.93 101.368 184.62 101.368 184.279C101.368 183.756 101.522 183.298 101.832 182.903C102.152 182.508 102.568 182.204 103.08 181.991C103.592 181.767 104.146 181.655 104.744 181.655C105.213 181.655 105.656 181.708 106.072 181.815C106.499 181.922 106.893 182.071 107.256 182.263C107.629 182.455 107.96 182.684 108.248 182.951L106.888 184.471C106.707 184.29 106.493 184.13 106.248 183.991C106.002 183.842 105.757 183.724 105.512 183.639C105.266 183.543 105.037 183.495 104.824 183.495C104.664 183.495 104.52 183.511 104.392 183.543C104.274 183.564 104.173 183.607 104.088 183.671C104.013 183.724 103.954 183.794 103.912 183.879C103.869 183.954 103.848 184.039 103.848 184.135C103.848 184.252 103.874 184.359 103.928 184.455C103.992 184.54 104.077 184.62 104.184 184.695C104.28 184.748 104.445 184.818 104.68 184.903C104.925 184.988 105.245 185.084 105.64 185.191C106.141 185.33 106.568 185.49 106.92 185.671C107.282 185.842 107.571 186.044 107.784 186.279C107.965 186.46 108.093 186.674 108.168 186.919C108.253 187.154 108.296 187.41 108.296 187.687C108.296 188.231 108.141 188.716 107.832 189.143C107.533 189.559 107.117 189.89 106.584 190.135C106.061 190.37 105.458 190.487 104.776 190.487ZM109.834 193.847V181.831H112.282L112.394 183.703L111.898 183.559C111.962 183.218 112.138 182.908 112.426 182.631C112.724 182.343 113.092 182.114 113.53 181.943C113.967 181.762 114.431 181.671 114.922 181.671C115.647 181.671 116.292 181.858 116.858 182.231C117.423 182.604 117.866 183.127 118.186 183.799C118.516 184.46 118.682 185.223 118.682 186.087C118.682 186.93 118.516 187.682 118.186 188.343C117.866 189.004 117.418 189.527 116.842 189.911C116.276 190.284 115.631 190.471 114.906 190.471C114.415 190.471 113.951 190.38 113.514 190.199C113.076 190.007 112.708 189.762 112.41 189.463C112.111 189.164 111.919 188.839 111.834 188.487L112.426 188.247V193.847H109.834ZM114.282 188.295C114.666 188.295 114.996 188.204 115.274 188.023C115.562 187.842 115.78 187.586 115.93 187.255C116.09 186.914 116.17 186.524 116.17 186.087C116.17 185.639 116.09 185.25 115.93 184.919C115.78 184.578 115.562 184.316 115.274 184.135C114.996 183.943 114.666 183.847 114.282 183.847C113.887 183.847 113.546 183.943 113.258 184.135C112.97 184.316 112.746 184.572 112.586 184.903C112.426 185.234 112.346 185.628 112.346 186.087C112.346 186.524 112.426 186.914 112.586 187.255C112.746 187.586 112.97 187.842 113.258 188.023C113.546 188.204 113.887 188.295 114.282 188.295ZM120.509 190.327V181.831H123.085V190.327H120.509ZM121.805 180.151C121.314 180.151 120.93 180.039 120.653 179.815C120.386 179.58 120.253 179.25 120.253 178.823C120.253 178.428 120.392 178.108 120.669 177.863C120.946 177.618 121.325 177.495 121.805 177.495C122.274 177.495 122.642 177.612 122.909 177.847C123.186 178.071 123.325 178.396 123.325 178.823C123.325 179.218 123.186 179.538 122.909 179.783C122.642 180.028 122.274 180.151 121.805 180.151ZM125.506 190.327V181.831H127.954L128.066 184.599L127.586 184.055C127.724 183.607 127.938 183.202 128.226 182.839C128.514 182.476 128.855 182.188 129.25 181.975C129.655 181.762 130.076 181.655 130.514 181.655C130.706 181.655 130.882 181.671 131.042 181.703C131.212 181.724 131.362 181.762 131.49 181.815L130.802 184.647C130.684 184.583 130.524 184.53 130.322 184.487C130.13 184.434 129.927 184.407 129.714 184.407C129.479 184.407 129.26 184.45 129.058 184.535C128.866 184.61 128.695 184.722 128.546 184.871C128.407 185.02 128.295 185.196 128.21 185.399C128.135 185.602 128.098 185.831 128.098 186.087V190.327H125.506ZM136.971 190.327V185.111C136.971 184.674 136.848 184.354 136.603 184.151C136.368 183.938 136.038 183.831 135.611 183.831C135.195 183.831 134.822 183.911 134.491 184.071C134.171 184.22 133.862 184.471 133.563 184.823L132.027 183.335C132.539 182.812 133.126 182.402 133.787 182.103C134.448 181.804 135.168 181.655 135.947 181.655C136.662 181.655 137.28 181.762 137.803 181.975C138.326 182.188 138.731 182.514 139.019 182.951C139.307 183.388 139.451 183.943 139.451 184.615V190.327H136.971ZM134.763 190.487C134.23 190.487 133.744 190.38 133.307 190.167C132.88 189.954 132.539 189.66 132.283 189.287C132.038 188.903 131.915 188.455 131.915 187.943C131.915 187.506 131.995 187.122 132.155 186.791C132.315 186.46 132.55 186.188 132.859 185.975C133.179 185.751 133.574 185.586 134.043 185.479C134.523 185.362 135.078 185.303 135.707 185.303H138.283L138.139 186.919H135.771C135.547 186.919 135.35 186.94 135.179 186.983C135.008 187.015 134.864 187.074 134.747 187.159C134.63 187.234 134.539 187.324 134.475 187.431C134.422 187.538 134.395 187.666 134.395 187.815C134.395 187.975 134.438 188.114 134.523 188.231C134.608 188.348 134.72 188.439 134.859 188.503C135.008 188.567 135.179 188.599 135.371 188.599C135.648 188.599 135.91 188.556 136.155 188.471C136.411 188.375 136.635 188.242 136.827 188.071C137.03 187.9 137.19 187.703 137.307 187.479L137.755 188.631C137.531 188.994 137.259 189.314 136.939 189.591C136.63 189.868 136.288 190.087 135.915 190.247C135.552 190.407 135.168 190.487 134.763 190.487ZM133.163 180.103V178.471H138.507V180.103H133.163ZM141.506 190.327V178.487H144.082V190.327H141.506ZM150.257 190.487C149.318 190.487 148.497 190.3 147.793 189.927C147.099 189.554 146.561 189.042 146.177 188.391C145.803 187.73 145.617 186.978 145.617 186.135C145.617 185.474 145.723 184.871 145.937 184.327C146.15 183.772 146.449 183.298 146.833 182.903C147.227 182.508 147.686 182.204 148.209 181.991C148.742 181.767 149.323 181.655 149.953 181.655C150.55 181.655 151.094 181.762 151.585 181.975C152.075 182.188 152.502 182.487 152.865 182.871C153.227 183.255 153.505 183.708 153.697 184.231C153.889 184.754 153.979 185.324 153.969 185.943L153.953 186.647H147.201L146.817 185.191H151.857L151.585 185.479V185.159C151.563 184.892 151.478 184.663 151.329 184.471C151.19 184.268 151.003 184.108 150.769 183.991C150.545 183.874 150.289 183.815 150.001 183.815C149.574 183.815 149.211 183.9 148.913 184.071C148.625 184.231 148.406 184.466 148.257 184.775C148.107 185.084 148.033 185.468 148.033 185.927C148.033 186.386 148.129 186.791 148.321 187.143C148.523 187.495 148.811 187.767 149.185 187.959C149.569 188.151 150.022 188.247 150.545 188.247C150.897 188.247 151.217 188.194 151.505 188.087C151.793 187.98 152.102 187.799 152.433 187.543L153.633 189.239C153.302 189.516 152.95 189.751 152.577 189.943C152.203 190.124 151.819 190.258 151.425 190.343C151.041 190.439 150.651 190.487 150.257 190.487Z" fill="#2D573D"/>
<path d="M0.347656 10.252C0.347656 4.72911 4.82481 0.251953 10.3477 0.251953H186.38C191.903 0.251953 196.38 4.72911 196.38 10.252V159.137H0.347656V10.252Z" fill="#2D573D"/>
<mask id="mask0_2143_6393" style="mask-type:alpha" maskUnits="userSpaceOnUse" x="0" y="0" width="148" height="148">
<rect x="0.347656" y="0.251953" width="146.958" height="146.958" rx="10" fill="orange"/>
</mask>
<g mask="url(#mask0_2143_6393)">
<path d="M-6.61523 -3.55249C-5.29696 5.06134 -0.54902 12.8882 5.57701 19.084C11.703 25.2798 19.1659 29.9872 26.8096 34.171C47.9688 45.7494 71.6606 53.8172 95.7693 53.0706C102.97 52.847 110.272 51.8031 116.789 48.7304C122.815 45.8903 128.53 40.0217 127.36 33.4641C126.442 28.341 121.676 24.8523 116.976 22.6178C108.854 18.7581 99.8826 17.0022 90.932 16.1094C78.5094 14.8708 65.7718 15.2611 53.8372 18.9295C41.9027 22.598 30.7986 29.7519 23.8234 40.1047C20.9605 44.3531 18.7869 49.2264 18.5921 54.3455C18.1423 66.075 27.9248 75.7211 38.2171 81.3516C54.7599 90.4104 74.6132 93.2515 93.0323 89.1964C97.3433 88.249 101.713 86.8605 105.049 83.9635C108.384 81.0665 110.439 76.341 109.103 72.1307C107.589 67.3823 102.512 64.8204 97.7822 63.2254C83.2705 58.3395 67.5006 57.7677 52.4021 60.3117C44.353 61.6708 36.2716 63.9839 29.6366 68.7396C23.0015 73.4953 17.9797 81.0341 17.852 89.1983C17.7443 96.1009 21.1308 102.745 25.9604 107.683C30.79 112.62 36.9657 116.034 43.2965 118.794C53.4425 123.216 64.4617 126.162 75.505 125.434C78.8196 125.214 82.2325 124.62 84.9814 122.754C87.7304 120.889 89.6516 117.485 88.9274 114.242C88.3005 111.43 85.9203 109.367 83.4943 107.811C74.7366 102.191 63.5038 100.597 53.5267 103.557C49.1414 104.859 44.6232 107.431 43.2502 111.794C41.7928 116.426 44.4156 121.395 47.7459 124.927C52.681 130.149 59.2043 133.598 65.8405 136.363C92.6965 147.554 123.564 148.815 151.243 139.848" stroke="#FF5E00" stroke-width="1.5" stroke-miterlimit="10"/>
</g>
<path d="M45.9138 57.0699L46.936 50.9903C46.9935 50.6453 47.051 50.2824 46.936 49.954C46.8082 49.6 46.5079 49.3445 46.2345 49.0876C45.3114 48.2155 44.6051 47.1394 44.1721 45.9456C43.8987 45.1879 43.9166 44.0775 44.6897 43.8705C45.073 43.7683 45.4742 43.9612 45.8 44.1899C46.5154 44.6985 47.0734 45.3982 47.41 46.2088C46.9238 44.9754 46.7245 43.6475 46.8274 42.3256C46.867 41.8145 46.9654 41.283 47.3091 40.9073C47.6528 40.5316 48.3096 40.4064 48.6635 40.7719C48.8157 40.9577 48.9166 41.1802 48.9561 41.4171C49.2142 42.4647 49.3307 43.5421 49.3024 44.6205C49.5107 43.6686 49.3344 42.6515 49.6244 41.72C49.9145 40.7885 51.0223 39.9745 51.8363 40.5125C52.3205 40.8332 52.4611 41.4772 52.5033 42.0573C52.5946 43.3234 52.4169 44.5946 51.9819 45.7871C52.1458 44.8586 52.6542 44.0262 53.4054 43.4565C53.6878 43.2444 54.066 43.0731 54.3841 43.2226C54.8199 43.4335 54.8007 44.057 54.6793 44.526C54.4101 45.5687 53.9743 46.561 53.3888 47.4649C53.9778 46.9755 54.8429 46.4771 55.4332 46.9614C55.6588 47.1726 55.7996 47.4588 55.8293 47.7664C56.0031 48.8819 55.446 49.9655 54.8965 50.9545C53.8522 52.8558 52.8074 54.7571 51.7622 56.6585C50.6122 58.754 49.2194 61.0438 46.9066 61.6546C46.5233 61.7581 46.0722 61.799 45.7362 61.5754C45.2647 61.261 45.225 60.5902 45.2698 60.0254C45.3707 58.8217 45.8103 57.6832 45.9138 57.0699Z" fill="#FF755E"/>
<path d="M52.7598 66.7402L50.1927 76.1446L41.2393 78.6375L33.5254 68.6607L36.8898 60.7014L45.8968 57.8162L52.7598 66.7402Z" fill="#FFA6FB"/>
<path d="M33.2464 54.692L31.1074 59.8338L36.6773 66.5293L42.0886 64.5155L43.3498 60.2043L37.955 53.657L33.2464 54.692Z" fill="#FF755E"/>
<path d="M39.1024 100.734C42.4813 100.734 45.2204 97.9952 45.2204 94.6163C45.2204 91.2374 42.4813 88.4983 39.1024 88.4983C35.7235 88.4983 32.9844 91.2374 32.9844 94.6163C32.9844 97.9952 35.7235 100.734 39.1024 100.734Z" fill="black"/>
<path d="M73.6397 62.6844C73.6397 65.7242 71.1697 68.2427 68.1235 68.1878C65.0773 68.1329 62.6035 65.7242 62.6035 62.6844C62.6256 61.2361 63.2164 59.8547 64.2483 58.8383C65.2803 57.8219 66.6706 57.2522 68.119 57.2522C69.5675 57.2522 70.9578 57.8219 71.9898 58.8383C73.0217 59.8547 73.6125 61.2361 73.6346 62.6844H73.6397Z" fill="black"/>
<path d="M37.1892 68.2403C38.0766 68.5528 38.8358 69.1498 39.3487 69.9385C39.7384 70.5416 39.9658 71.3338 39.64 71.974C39.1289 72.9783 37.7118 72.9693 36.6027 72.7802C33.7855 72.2978 31.0142 71.5771 28.3189 70.6259C27.9177 70.4841 27.5062 70.3346 27.0807 70.3435C26.7552 70.3687 26.4342 70.4343 26.1249 70.539C25.0075 70.8574 23.8597 71.0574 22.7005 71.1357C22.1255 71.1741 21.4534 71.1357 21.1122 70.6744C20.7174 70.1365 21.0534 69.3175 21.6233 68.9686C22.1932 68.6198 22.9011 68.6134 23.5681 68.616C22.4073 68.5049 21.2817 68.1567 20.261 67.593C19.2403 67.0292 18.3462 66.2618 17.6341 65.3385C17.3274 64.9372 17.0476 64.4121 17.2508 63.9482C17.5319 63.3093 18.4455 63.3323 19.1227 63.5112C20.2991 63.8197 21.4355 64.2644 22.5088 64.8363C21.5838 64.3416 20.7941 63.6278 20.2088 62.7573C20.0121 62.4635 19.8357 62.1402 19.8166 61.7875C19.7974 61.4348 19.975 61.0502 20.3072 60.9288C20.5462 60.8407 20.8183 60.9007 21.0573 60.9774C22.2802 61.3581 23.3655 62.0872 24.1802 63.0755C23.6818 62.4133 23.3216 61.6576 23.1209 60.8535C23.061 60.674 23.0534 60.4812 23.0992 60.2976C23.2269 59.9066 23.7496 59.8044 24.1546 59.8875C25.2612 60.1162 25.9959 61.1499 26.5441 62.1376C26.3026 61.5486 26.1262 60.7321 26.6642 60.3922C27.1114 60.1085 27.7043 60.4216 28.0608 60.8138C28.7661 61.5907 29.0715 62.6551 29.7219 63.4767C30.3723 64.2983 31.2821 64.7967 32.1791 65.2937C33.9718 66.2815 35.5562 67.6755 37.1892 68.2403Z" fill="#FF755E"/>
<path d="M49.3795 63.5535C48.7968 64.5233 48.3343 65.0702 48.3892 66.109C48.4441 67.1479 49.1686 68.1535 50.1704 68.4525C51.1058 68.7323 52.1139 68.409 52.993 67.9835C53.629 67.6755 54.2373 67.3134 54.8113 66.9012C55.0669 66.7172 55.3224 66.5179 55.6342 66.4527C55.8797 66.4161 56.1297 66.4231 56.3728 66.4732L67.8728 68.1765C66.9936 68.1407 66.2921 67.4584 65.7005 66.8092C64.8802 65.9148 64.0675 64.9641 63.6561 63.8205C63.4177 63.1606 63.3212 62.4579 63.3728 61.7581C63.4244 61.0584 63.6229 60.3774 63.9555 59.7596C64.288 59.1418 64.7471 58.601 65.3027 58.1726C65.8584 57.7441 66.4981 57.4377 67.1802 57.2732L54.6286 59.1899C53.922 59.2972 53.1988 59.4109 52.5688 59.747C51.912 60.0984 51.4009 60.6695 50.9371 61.2522C50.3672 61.9838 49.8469 62.7526 49.3795 63.5535Z" fill="#FF0000"/>
<path d="M44.6035 74.7403C44.3275 73.5289 42.8414 72.8926 41.6378 73.1993C40.4341 73.5059 39.5218 74.5051 38.9072 75.5849C38.2925 76.6646 37.9003 77.8593 37.2959 78.9441C36.8589 79.7287 36.3107 80.4558 35.9644 81.2838C35.5811 82.205 35.4533 83.2106 35.3089 84.1984C34.9135 86.9189 34.2794 89.5994 33.414 92.2088C33.3489 92.3762 33.3018 92.5501 33.2734 92.7275C33.9992 90.9386 35.6501 89.8538 37.5208 89.3593C39.8821 88.7345 42.7328 89.3184 44.0898 91.3488C45.066 92.808 44.9613 94.6199 44.9651 96.3769C45.1333 95.8418 45.2358 95.2883 45.2705 94.7285C45.4839 90.2563 45.3548 85.7739 44.5664 81.354C44.4387 80.6551 44.3032 79.9408 44.4272 79.2419C44.5307 78.6618 44.8105 78.1302 45.0328 77.5808C45.5145 76.4129 45.7382 75.0048 45.0686 73.934C44.4195 72.8951 43.0242 72.4594 41.8409 72.7648C40.6577 73.0702 39.6994 74.0132 39.1819 75.1223" fill="#FF0000"/>
<mask id="mask1_2143_6393" style="mask-type:alpha" maskUnits="userSpaceOnUse" x="48" y="57" width="20" height="12">
<path d="M49.3775 63.5535C48.7949 64.5233 48.3323 65.0702 48.3872 66.109C48.4422 67.1479 49.1667 68.1535 50.1685 68.4525C51.1038 68.7323 52.112 68.409 52.9911 67.9835C53.6271 67.6755 54.2354 67.3134 54.8094 66.9012C55.0649 66.7172 55.3205 66.5179 55.6322 66.4527C55.8777 66.4161 56.1277 66.4231 56.3708 66.4732L67.8708 68.1765C66.9917 68.1407 66.2902 67.4584 65.6986 66.8092C64.8782 65.9148 64.0656 64.9641 63.6541 63.8205C63.4158 63.1606 63.3193 62.4579 63.3709 61.7581C63.4224 61.0584 63.621 60.3774 63.9535 59.7596C64.2861 59.1418 64.7451 58.601 65.3008 58.1726C65.8564 57.7441 66.4962 57.4377 67.1782 57.2732L54.6266 59.1899C53.92 59.2972 53.1968 59.4109 52.5669 59.747C51.9101 60.0984 51.399 60.6695 50.9351 61.2522C50.3653 61.9838 49.8449 62.7526 49.3775 63.5535Z" fill="#FF0000"/>
</mask>
<g mask="url(#mask1_2143_6393)">
<path d="M51.6129 71.2941C53.3828 71.2941 54.8175 69.8593 54.8175 68.0894C54.8175 66.3195 53.3828 64.8848 51.6129 64.8848C49.843 64.8848 48.4082 66.3195 48.4082 68.0894C48.4082 69.8593 49.843 71.2941 51.6129 71.2941Z" fill="white"/>
<path d="M53.9937 62.7675C55.7636 62.7675 57.1984 61.3327 57.1984 59.5628C57.1984 57.7929 55.7636 56.3582 53.9937 56.3582C52.2238 56.3582 50.7891 57.7929 50.7891 59.5628C50.7891 61.3327 52.2238 62.7675 53.9937 62.7675Z" fill="white"/>
<path d="M63.8241 71.7322C66.2651 71.7322 68.244 69.7534 68.244 67.3124C68.244 64.8714 66.2651 62.8926 63.8241 62.8926C61.3831 62.8926 59.4043 64.8714 59.4043 67.3124C59.4043 69.7534 61.3831 71.7322 63.8241 71.7322Z" fill="white"/>
</g>
<mask id="mask2_2143_6393" style="mask-type:alpha" maskUnits="userSpaceOnUse" x="33" y="72" width="13" height="25">
<path d="M44.5996 74.7403C44.3236 73.5289 42.8375 72.8926 41.6339 73.1993C40.4302 73.5059 39.5179 74.5051 38.9033 75.5849C38.2886 76.6646 37.8964 77.8593 37.292 78.9441C36.855 79.7287 36.3068 80.4558 35.9605 81.2838C35.5772 82.205 35.4494 83.2106 35.305 84.1984C34.9096 86.9189 34.2755 89.5994 33.4101 92.2088C33.345 92.3762 33.2979 92.5501 33.2695 92.7275C33.9953 90.9386 35.6462 89.8538 37.5169 89.3593C39.8782 88.7345 42.7289 89.3184 44.0859 91.3488C45.0621 92.808 44.9574 94.6199 44.9612 96.3769C45.1294 95.8418 45.2319 95.2883 45.2666 94.7285C45.48 90.2563 45.3509 85.7739 44.5625 81.354C44.4348 80.6551 44.2993 79.9408 44.4233 79.2419C44.5268 78.6618 44.8066 78.1302 45.0289 77.5808C45.5106 76.4129 45.7343 75.0048 45.0647 73.934C44.4156 72.8951 43.0203 72.4594 41.837 72.7648C40.6538 73.0702 39.6955 74.0132 39.178 75.1223" fill="#FF0000"/>
</mask>
<g mask="url(#mask2_2143_6393)">
<path d="M45.7604 89.2928C47.3292 89.2928 48.6009 88.0211 48.6009 86.4523C48.6009 84.8836 47.3292 83.6118 45.7604 83.6118C44.1917 83.6118 42.9199 84.8836 42.9199 86.4523C42.9199 88.0211 44.1917 89.2928 45.7604 89.2928Z" fill="white"/>
<path d="M39.3268 77.131C40.8956 77.131 42.1673 75.8592 42.1673 74.2904C42.1673 72.7217 40.8956 71.45 39.3268 71.45C37.7581 71.45 36.4863 72.7217 36.4863 74.2904C36.4863 75.8592 37.7581 77.131 39.3268 77.131Z" fill="white"/>
<path d="M44.8678 82.1117C46.4366 82.1117 47.7083 80.8399 47.7083 79.2712C47.7083 77.7024 46.4366 76.4307 44.8678 76.4307C43.2991 76.4307 42.0273 77.7024 42.0273 79.2712C42.0273 80.8399 43.2991 82.1117 44.8678 82.1117Z" fill="white"/>
<path d="M35.9343 86.1637C37.503 86.1637 38.7748 84.8919 38.7748 83.3232C38.7748 81.7544 37.503 80.4827 35.9343 80.4827C34.3655 80.4827 33.0938 81.7544 33.0938 83.3232C33.0938 84.8919 34.3655 86.1637 35.9343 86.1637Z" fill="white"/>
</g>
<path d="M75.6144 63.6606C78.0847 59.7755 78.1847 55.4163 75.8378 53.924C73.4909 52.4318 69.5858 54.3716 67.1155 58.2567C64.6452 62.1418 64.5451 66.501 66.892 67.9932C69.2389 69.4855 73.1441 67.5457 75.6144 63.6606Z" fill="#FFA6FB"/>
<path d="M39.8195 99.7188C42.5225 99.0643 43.8356 94.9064 42.7522 90.4317C41.6688 85.957 38.5993 82.8601 35.8963 83.5145C33.1932 84.1689 31.8802 88.3269 32.9636 92.8016C34.0469 97.2763 37.1164 100.373 39.8195 99.7188Z" fill="#FFA6FB"/>
<path d="M34.6503 41.2804C35.445 42.3703 34.7576 44.3624 35.3645 45.4689C36.0226 46.6675 38.0645 47.1824 38.4925 48.3491C38.9743 49.6613 37.7182 51.3429 37.8984 52.5402C38.1143 53.9738 39.7332 55.3411 39.4956 56.4847C39.2043 57.8979 37.2659 58.2046 36.25 58.9457C35.2342 59.6868 34.3487 61.4399 32.915 61.2866C31.7535 61.1588 30.946 59.2051 29.6465 58.5623C28.5616 58.0257 26.5798 58.7093 25.4733 57.8493C24.4932 57.0827 24.6261 54.9833 23.6844 53.9917C22.8155 53.0768 20.7097 53.1228 19.9149 52.0329C19.1202 50.9429 19.8063 48.9522 19.2006 47.8456C18.5426 46.6471 16.5007 46.1321 16.0727 44.9655C15.5897 43.6519 16.8393 41.9704 16.6668 40.7731C16.4509 39.3394 14.8319 37.9735 15.0709 36.8286C15.3622 35.4231 17.3006 35.11 18.3164 34.3689C19.3323 33.6278 20.2178 31.8747 21.6514 32.028C22.8129 32.1558 23.6205 34.1095 24.92 34.7522C26.0048 35.2889 27.9866 34.6053 29.0932 35.4652C30.0733 36.2319 29.9404 38.3313 30.8821 39.3228C31.7497 40.2377 33.8542 40.1917 34.6503 41.2804Z" fill="#FDB300"/>
<rect x="1.84766" y="1.75195" width="193.706" height="209.097" rx="8.5" stroke="#2D573D" stroke-width="3"/>
</svg>
