<svg width="165" height="161" viewBox="0 0 165 161" fill="none" xmlns="http://www.w3.org/2000/svg">
    <rect y="0.995209" width="165" height="161" rx="10" fill="#2D573D" />
    <mask id="mask0_1315_6834" style="mask-type:alpha" maskUnits="userSpaceOnUse" x="0" y="0"
        width="165" height="161">
        <rect y="0.995209" width="165" height="161" rx="10" fill="#FF5E00" />
    </mask>
    <g mask="url(#mask0_1315_6834)">
        <path
            d="M-7.58203 -3.14674C-6.14677 6.2315 -0.977485 14.7529 5.69219 21.4986C12.3619 28.2442 20.487 33.3693 28.809 37.9244C51.8459 50.5303 77.6402 59.3141 103.888 58.5012C111.728 58.2578 119.678 57.1212 126.773 53.7758C133.334 50.6837 139.557 44.2943 138.283 37.1548C137.284 31.5771 132.094 27.7788 126.977 25.346C118.134 21.1438 108.367 19.232 98.6218 18.26C85.0967 16.9115 71.2288 17.3364 58.2352 21.3304C45.2415 25.3244 33.152 33.1132 25.5578 44.3847C22.4408 49.0101 20.0743 54.3159 19.8623 59.8893C19.3725 72.6597 30.0232 83.1618 41.2289 89.2919C59.2397 99.1547 80.8548 102.248 100.909 97.8329C105.602 96.8014 110.36 95.2897 113.991 92.1356C117.622 88.9815 119.86 83.8368 118.405 79.2528C116.757 74.083 111.229 71.2938 106.08 69.5572C90.2804 64.2377 73.111 63.6151 56.6726 66.385C47.9092 67.8646 39.1107 70.383 31.8868 75.5607C24.663 80.7384 19.1956 88.9463 19.0565 97.835C18.9393 105.35 22.6263 112.584 27.8845 117.96C33.1427 123.335 39.8664 127.053 46.759 130.057C57.8054 134.872 69.8024 138.079 81.8258 137.286C85.4345 137.047 89.1502 136.4 92.1432 134.369C95.1361 132.338 97.2278 128.632 96.4393 125.101C95.7568 122.04 93.1653 119.793 90.5241 118.099C80.9891 111.981 68.7595 110.245 57.8971 113.468C53.1226 114.886 48.2034 117.685 46.7085 122.436C45.1219 127.479 47.9774 132.889 51.6032 136.734C56.9763 142.42 64.0785 146.175 71.3036 149.185C100.543 161.37 134.15 162.742 164.285 152.979"
            stroke="#FF5E00" stroke-width="1.5" stroke-miterlimit="10" />
    </g>
    <path
        d="M49.6099 76.2784L50.7228 69.6592C50.7854 69.2836 50.848 68.8885 50.7228 68.531C50.5837 68.1456 50.2568 67.8674 49.9591 67.5877C48.9541 66.6382 48.1851 65.4667 47.7137 64.1669C47.416 63.3419 47.4355 62.133 48.2772 61.9076C48.6945 61.7963 49.1313 62.0064 49.4861 62.2554C50.265 62.8092 50.8724 63.5708 51.239 64.4534C50.7096 63.1105 50.4926 61.6648 50.6046 60.2257C50.6477 59.6692 50.7548 59.0905 51.1291 58.6815C51.5033 58.2725 52.2183 58.1361 52.6037 58.534C52.7694 58.7364 52.8792 58.9786 52.9223 59.2365C53.2032 60.377 53.33 61.55 53.2993 62.7242C53.526 61.6878 53.3341 60.5804 53.6499 59.5663C53.9657 58.5521 55.1718 57.6659 56.058 58.2516C56.5852 58.6008 56.7383 59.3019 56.7842 59.9335C56.8836 61.312 56.6902 62.696 56.2166 63.9944C56.395 62.9835 56.9485 62.0772 57.7663 61.4569C58.0738 61.2259 58.4856 61.0395 58.832 61.2023C59.3064 61.4318 59.2855 62.1107 59.1533 62.6213C58.8602 63.7565 58.3857 64.8369 57.7482 65.821C58.3896 65.2881 59.3314 64.7456 59.9741 65.2728C60.2197 65.5028 60.373 65.8144 60.4054 66.1493C60.5946 67.3638 59.988 68.5435 59.3898 69.6202C58.2528 71.6903 57.1153 73.7604 55.9773 75.8304C54.7252 78.112 53.2089 80.6049 50.6908 81.2699C50.2735 81.3826 49.7824 81.4271 49.4165 81.1837C48.9032 80.8414 48.8601 80.1111 48.9087 79.4962C49.0186 78.1857 49.4972 76.9462 49.6099 76.2784Z"
        fill="#FF755E" />
    <path
        d="M57.0624 86.8068L54.2675 97.0458L44.5196 99.76L36.1211 88.8977L39.784 80.2321L49.5904 77.0908L57.0624 86.8068Z"
        fill="#FFA6FB" />
    <path
        d="M35.8191 73.6894L33.4902 79.2875L39.5544 86.5772L45.446 84.3847L46.819 79.6909L40.9455 72.5625L35.8191 73.6894Z"
        fill="#FF755E" />
    <path
        d="M42.1941 123.818C45.8729 123.818 48.8551 120.835 48.8551 117.157C48.8551 113.478 45.8729 110.496 42.1941 110.496C38.5154 110.496 35.5332 113.478 35.5332 117.157C35.5332 120.835 38.5154 123.818 42.1941 123.818Z"
        fill="black" />
    <path
        d="M79.7968 82.3912C79.7968 85.7008 77.1077 88.4428 73.7911 88.383C70.4746 88.3232 67.7812 85.7008 67.7812 82.3912C67.8053 80.8144 68.4485 79.3104 69.572 78.2038C70.6956 77.0972 72.2093 76.477 73.7862 76.477C75.3632 76.477 76.8769 77.0972 78.0005 78.2038C79.124 79.3104 79.7672 80.8144 79.7912 82.3912H79.7968Z"
        fill="black" />
    <path
        d="M40.1112 88.44C41.0773 88.7802 41.9039 89.4302 42.4623 90.2889C42.8866 90.9455 43.1342 91.808 42.7795 92.505C42.223 93.5985 40.6802 93.5887 39.4727 93.3829C36.4054 92.8576 33.3883 92.073 30.4537 91.0373C30.0169 90.8829 29.5689 90.7202 29.1057 90.7299C28.7513 90.7573 28.4017 90.8288 28.0651 90.9427C26.8485 91.2894 25.5989 91.5071 24.3367 91.5924C23.7107 91.6342 22.979 91.5924 22.6075 91.0902C22.1776 90.5045 22.5435 89.6128 23.164 89.233C23.7844 88.8532 24.5552 88.8462 25.2813 88.849C24.0176 88.7281 22.7921 88.3491 21.6808 87.7353C20.5695 87.1215 19.596 86.286 18.8207 85.2807C18.4869 84.8438 18.1822 84.2721 18.4034 83.7671C18.7095 83.0715 19.7041 83.0965 20.4415 83.2913C21.7223 83.6272 22.9595 84.1113 24.1281 84.7339C23.121 84.1954 22.2612 83.4182 21.624 82.4705C21.4097 82.1505 21.2177 81.7986 21.1969 81.4146C21.176 81.0306 21.3694 80.6119 21.7311 80.4797C21.9912 80.3838 22.2875 80.4491 22.5477 80.5326C23.8791 80.9471 25.0607 81.7409 25.9477 82.8169C25.4051 82.0959 25.0129 81.2732 24.7944 80.3977C24.7292 80.2023 24.721 79.9924 24.7708 79.7925C24.9099 79.3668 25.4789 79.2555 25.9199 79.3459C27.1246 79.595 27.9246 80.7204 28.5214 81.7958C28.2585 81.1545 28.0665 80.2655 28.6522 79.8954C29.1391 79.5866 29.7846 79.9274 30.1727 80.3545C30.9406 81.2004 31.2731 82.3592 31.9812 83.2537C32.6893 84.1483 33.6798 84.6908 34.6564 85.232C36.6083 86.3074 38.3333 87.8251 40.1112 88.44Z"
        fill="#FF755E" />
    <path
        d="M53.3838 83.3373C52.7494 84.3932 52.2458 84.9886 52.3056 86.1196C52.3654 87.2506 53.1542 88.3455 54.2449 88.671C55.2632 88.9757 56.3609 88.6237 57.318 88.1605C58.0104 87.8251 58.6727 87.4309 59.2976 86.9821C59.5759 86.7818 59.8541 86.5648 60.1936 86.4938C60.4608 86.454 60.733 86.4615 60.9976 86.5161L73.5182 88.3705C72.5611 88.3316 71.7973 87.5887 71.1532 86.882C70.2601 85.9082 69.3753 84.8731 68.9273 83.628C68.6678 82.9096 68.5627 82.1444 68.6189 81.3826C68.6751 80.6208 68.8912 79.8794 69.2533 79.2067C69.6153 78.5341 70.1151 77.9453 70.7201 77.4789C71.3251 77.0124 72.0216 76.6788 72.7642 76.4997L59.0987 78.5864C58.3294 78.7033 57.542 78.8271 56.8561 79.193C56.1411 79.5756 55.5846 80.1974 55.0796 80.8318C54.4592 81.6283 53.8926 82.4653 53.3838 83.3373Z"
        fill="#FF0000" />
    <path
        d="M48.1832 95.5169C47.8827 94.1981 46.2647 93.5053 44.9543 93.8391C43.6438 94.173 42.6505 95.2609 41.9813 96.4365C41.3122 97.612 40.8851 98.9127 40.2271 100.094C39.7513 100.948 39.1545 101.74 38.7775 102.641C38.3601 103.644 38.221 104.739 38.0638 105.814C37.6332 108.776 36.9429 111.695 36.0007 114.536C35.9299 114.718 35.8786 114.907 35.8477 115.1C36.6378 113.153 38.4352 111.972 40.4719 111.433C43.0428 110.753 46.1465 111.389 47.6239 113.599C48.6868 115.188 48.5727 117.161 48.5769 119.074C48.76 118.491 48.8716 117.888 48.9094 117.279C49.1417 112.41 49.0012 107.53 48.1428 102.718C48.0037 101.957 47.8562 101.179 47.9912 100.418C48.1039 99.7864 48.4085 99.2077 48.6506 98.6095C49.1751 97.3379 49.4185 95.8049 48.6896 94.6391C47.9828 93.508 46.4637 93.0337 45.1755 93.3661C43.8872 93.6986 42.8439 94.7253 42.2804 95.9329"
        fill="#FF0000" />
    <mask id="mask1_1315_6834" style="mask-type:alpha" maskUnits="userSpaceOnUse" x="52" y="76"
        width="22" height="13">
        <path
            d="M53.3818 83.3372C52.7474 84.3931 52.2438 84.9885 52.3037 86.1195C52.3635 87.2505 53.1523 88.3454 54.243 88.6709C55.2613 88.9756 56.3589 88.6236 57.316 88.1603C58.0085 87.825 58.6708 87.4308 59.2957 86.982C59.5739 86.7817 59.8522 86.5647 60.1916 86.4937C60.4589 86.4539 60.731 86.4614 60.9957 86.516L73.5162 88.3704C72.5591 88.3315 71.7954 87.5886 71.1512 86.8819C70.2581 85.908 69.3733 84.873 68.9254 83.6279C68.6659 82.9094 68.5608 82.1443 68.6169 81.3825C68.6731 80.6207 68.8893 79.8792 69.2513 79.2066C69.6134 78.5339 70.1132 77.9452 70.7181 77.4787C71.3231 77.0123 72.0196 76.6786 72.7622 76.4995L59.0967 78.5863C58.3274 78.7032 57.54 78.827 56.8542 79.1929C56.1391 79.5754 55.5826 80.1973 55.0777 80.8317C54.4572 81.6281 53.8907 82.4652 53.3818 83.3372Z"
            fill="#FF0000" />
    </mask>
    <g mask="url(#mask1_1315_6834)">
        <path
            d="M55.8152 91.7648C57.7422 91.7648 59.3043 90.2027 59.3043 88.2757C59.3043 86.3488 57.7422 84.7867 55.8152 84.7867C53.8883 84.7867 52.3262 86.3488 52.3262 88.2757C52.3262 90.2027 53.8883 91.7648 55.8152 91.7648Z"
            fill="white" />
        <path
            d="M58.407 82.4815C60.334 82.4815 61.8961 80.9194 61.8961 78.9925C61.8961 77.0655 60.334 75.5034 58.407 75.5034C56.4801 75.5034 54.918 77.0655 54.918 78.9925C54.918 80.9194 56.4801 82.4815 58.407 82.4815Z"
            fill="white" />
        <path
            d="M69.1089 92.2419C71.7666 92.2419 73.921 90.0875 73.921 87.4299C73.921 84.7722 71.7666 82.6178 69.1089 82.6178C66.4513 82.6178 64.2969 84.7722 64.2969 87.4299C64.2969 90.0875 66.4513 92.2419 69.1089 92.2419Z"
            fill="white" />
    </g>
    <mask id="mask2_1315_6834" style="mask-type:alpha" maskUnits="userSpaceOnUse" x="35" y="93"
        width="15" height="27">
        <path
            d="M48.1793 95.5169C47.8788 94.1981 46.2608 93.5053 44.9504 93.8392C43.6399 94.1731 42.6466 95.261 41.9774 96.4365C41.3083 97.6121 40.8812 98.9128 40.2232 100.094C39.7474 100.948 39.1506 101.74 38.7736 102.641C38.3562 103.644 38.2171 104.739 38.0599 105.814C37.6293 108.776 36.939 111.695 35.9968 114.536C35.926 114.718 35.8747 114.907 35.8438 115.1C36.6339 113.153 38.4313 111.972 40.468 111.433C43.0389 110.753 46.1426 111.389 47.62 113.599C48.6829 115.188 48.5688 117.161 48.573 119.074C48.7561 118.491 48.8677 117.888 48.9055 117.279C49.1378 112.41 48.9973 107.53 48.1389 102.718C47.9998 101.957 47.8523 101.179 47.9873 100.418C48.1 99.7865 48.4046 99.2077 48.6467 98.6095C49.1712 97.338 49.4146 95.8049 48.6856 94.6391C47.9789 93.5081 46.4598 93.0337 45.1716 93.3662C43.8833 93.6987 42.8399 94.7254 42.2765 95.9329"
            fill="#FF0000" />
    </mask>
    <g mask="url(#mask2_1315_6834)">
        <path
            d="M49.4441 111.361C51.1521 111.361 52.5367 109.976 52.5367 108.268C52.5367 106.56 51.1521 105.176 49.4441 105.176C47.7362 105.176 46.3516 106.56 46.3516 108.268C46.3516 109.976 47.7362 111.361 49.4441 111.361Z"
            fill="white" />
        <path
            d="M42.4422 98.1198C44.1502 98.1198 45.5348 96.7352 45.5348 95.0273C45.5348 93.3193 44.1502 91.9347 42.4422 91.9347C40.7342 91.9347 39.3496 93.3193 39.3496 95.0273C39.3496 96.7352 40.7342 98.1198 42.4422 98.1198Z"
            fill="white" />
        <path
            d="M48.4734 103.543C50.1814 103.543 51.566 102.158 51.566 100.45C51.566 98.7421 50.1814 97.3575 48.4734 97.3575C46.7654 97.3575 45.3809 98.7421 45.3809 100.45C45.3809 102.158 46.7654 103.543 48.4734 103.543Z"
            fill="white" />
        <path
            d="M38.7469 107.954C40.4549 107.954 41.8394 106.569 41.8394 104.861C41.8394 103.153 40.4549 101.769 38.7469 101.769C37.0389 101.769 35.6543 103.153 35.6543 104.861C35.6543 106.569 37.0389 107.954 38.7469 107.954Z"
            fill="white" />
    </g>
    <path
        d="M81.9452 83.4539C84.6348 79.224 84.7437 74.478 82.1885 72.8533C79.6333 71.2286 75.3817 73.3405 72.6921 77.5704C70.0026 81.8003 69.8936 86.5463 72.4488 88.171C75.004 89.7957 79.2557 87.6838 81.9452 83.4539Z"
        fill="#FFA6FB" />
    <path
        d="M42.975 122.712C45.918 122 47.3475 117.473 46.168 112.601C44.9885 107.729 41.6466 104.357 38.7037 105.07C35.7607 105.782 34.3312 110.309 35.5107 115.181C36.6902 120.053 40.0321 123.425 42.975 122.712Z"
        fill="#FFA6FB" />
    <path
        d="M37.3469 59.0877C38.2122 60.2744 37.4638 62.4432 38.1246 63.648C38.8411 64.9529 41.0641 65.5135 41.5302 66.7837C42.0547 68.2124 40.6871 70.0432 40.8833 71.3467C41.1184 72.9076 42.881 74.3962 42.6223 75.6413C42.3051 77.1799 40.1947 77.5138 39.0887 78.3207C37.9827 79.1275 37.0186 81.0362 35.4577 80.8693C34.1932 80.7302 33.3139 78.6031 31.8991 77.9033C30.718 77.319 28.5603 78.0633 27.3556 77.127C26.2885 76.2923 26.4332 74.0066 25.4079 72.9271C24.4619 71.931 22.1693 71.9811 21.304 70.7944C20.4387 69.6078 21.1857 67.4403 20.5263 66.2356C19.8098 64.9306 17.5868 64.37 17.1207 63.0999C16.5948 61.6697 17.9554 59.839 17.7676 58.5354C17.5325 56.9745 15.7699 55.4874 16.03 54.2409C16.3472 52.7106 18.4576 52.3698 19.5636 51.5629C20.6696 50.756 21.6337 48.8473 23.1946 49.0143C24.4591 49.1534 25.3384 51.2805 26.7532 51.9802C27.9343 52.5645 30.092 51.8202 31.2967 52.7565C32.3638 53.5912 32.2191 55.8769 33.2444 56.9564C34.189 57.9525 36.4802 57.9024 37.3469 59.0877Z"
        fill="#FCB300" />
    <path
        d="M13.184 147.256C12.5099 147.256 11.8869 147.145 11.3152 146.923C10.752 146.693 10.2613 146.373 9.8432 145.963C9.4336 145.545 9.1136 145.054 8.8832 144.491C8.66133 143.919 8.5504 143.296 8.5504 142.622C8.5504 141.957 8.6656 141.342 8.896 140.779C9.13493 140.216 9.46773 139.725 9.8944 139.307C10.3211 138.889 10.8203 138.565 11.392 138.334C11.9723 138.104 12.5995 137.989 13.2736 137.989C13.7003 137.989 14.1184 138.044 14.528 138.155C14.9376 138.266 15.3173 138.432 15.6672 138.654C16.0256 138.868 16.3328 139.128 16.5888 139.435L15.2448 140.958C14.9803 140.668 14.6816 140.442 14.3488 140.28C14.0245 140.118 13.6619 140.037 13.2608 140.037C12.9195 140.037 12.5952 140.096 12.288 140.216C11.9893 140.335 11.7291 140.51 11.5072 140.741C11.2853 140.971 11.1104 141.244 10.9824 141.56C10.8544 141.876 10.7904 142.234 10.7904 142.635C10.7904 143.028 10.8501 143.386 10.9696 143.71C11.0976 144.026 11.2768 144.299 11.5072 144.53C11.7461 144.751 12.0277 144.922 12.352 145.042C12.6848 145.161 13.0517 145.221 13.4528 145.221C13.7173 145.221 13.9691 145.187 14.208 145.118C14.4555 145.042 14.6859 144.935 14.8992 144.798C15.1125 144.662 15.296 144.508 15.4496 144.338L16.512 146.027C16.3072 146.258 16.0256 146.467 15.6672 146.654C15.3173 146.842 14.9248 146.991 14.4896 147.102C14.0629 147.205 13.6277 147.256 13.184 147.256ZM21.0222 147.256C20.2713 147.256 19.6142 147.107 19.051 146.808C18.4963 146.509 18.0654 146.1 17.7582 145.579C17.4595 145.05 17.3102 144.448 17.3102 143.774C17.3102 143.245 17.3955 142.763 17.5662 142.328C17.7369 141.884 17.9758 141.504 18.283 141.189C18.5987 140.873 18.9657 140.63 19.3838 140.459C19.8105 140.28 20.2755 140.19 20.779 140.19C21.2569 140.19 21.6921 140.276 22.0846 140.446C22.4771 140.617 22.8185 140.856 23.1086 141.163C23.3987 141.47 23.6206 141.833 23.7742 142.251C23.9278 142.669 24.0003 143.126 23.9918 143.621L23.979 144.184H18.5774L18.2702 143.019H22.3022L22.0846 143.25V142.994C22.0675 142.78 21.9993 142.597 21.8798 142.443C21.7689 142.281 21.6195 142.153 21.4318 142.059C21.2526 141.965 21.0478 141.918 20.8174 141.918C20.4761 141.918 20.1859 141.987 19.947 142.123C19.7166 142.251 19.5417 142.439 19.4222 142.686C19.3027 142.934 19.243 143.241 19.243 143.608C19.243 143.975 19.3198 144.299 19.4734 144.581C19.6355 144.862 19.8659 145.08 20.1646 145.234C20.4718 145.387 20.8345 145.464 21.2526 145.464C21.5342 145.464 21.7902 145.421 22.0206 145.336C22.251 145.251 22.4985 145.106 22.763 144.901L23.723 146.258C23.4585 146.479 23.1769 146.667 22.8782 146.821C22.5795 146.966 22.2723 147.072 21.9566 147.141C21.6494 147.218 21.3379 147.256 21.0222 147.256ZM25.2963 147.128V140.331H27.2547L27.3443 142.546L26.9603 142.11C27.0712 141.752 27.2419 141.428 27.4723 141.138C27.7027 140.847 27.9758 140.617 28.2915 140.446C28.6158 140.276 28.9528 140.19 29.3027 140.19C29.4563 140.19 29.5971 140.203 29.7251 140.229C29.8616 140.246 29.9811 140.276 30.0835 140.318L29.5331 142.584C29.4392 142.533 29.3112 142.49 29.1491 142.456C28.9955 142.413 28.8334 142.392 28.6627 142.392C28.475 142.392 28.3 142.426 28.1379 142.494C27.9843 142.554 27.8478 142.644 27.7283 142.763C27.6174 142.883 27.5278 143.023 27.4595 143.186C27.3998 143.348 27.3699 143.531 27.3699 143.736V147.128H25.2963ZM31.0442 147.128V140.331H33.105V147.128H31.0442ZM29.9434 138.949V137.643H34.2186V138.949H29.9434ZM38.9295 147.256C38.6223 147.256 38.3279 147.213 38.0463 147.128C37.7732 147.043 37.5215 146.932 37.2911 146.795C37.0607 146.65 36.8687 146.484 36.7151 146.296C36.57 146.108 36.4762 145.912 36.4335 145.707L36.8815 145.554L36.7663 147.102H34.8463V137.656H36.9199V141.918L36.4975 141.778C36.5487 141.564 36.6468 141.364 36.7919 141.176C36.937 140.988 37.1162 140.822 37.3295 140.677C37.5514 140.523 37.7946 140.404 38.0591 140.318C38.3236 140.233 38.5967 140.19 38.8783 140.19C39.4671 140.19 39.9876 140.344 40.4399 140.651C40.9007 140.958 41.2634 141.381 41.5279 141.918C41.7924 142.447 41.9247 143.053 41.9247 143.736C41.9247 144.419 41.7924 145.024 41.5279 145.554C41.2719 146.083 40.9178 146.501 40.4655 146.808C40.0132 147.107 39.5012 147.256 38.9295 147.256ZM38.3919 145.528C38.6991 145.528 38.9636 145.455 39.1855 145.31C39.4159 145.157 39.5951 144.948 39.7231 144.683C39.8511 144.41 39.9151 144.094 39.9151 143.736C39.9151 143.369 39.8511 143.053 39.7231 142.789C39.6036 142.516 39.4287 142.307 39.1983 142.162C38.9679 142.008 38.6991 141.931 38.3919 141.931C38.0847 141.931 37.8159 142.008 37.5855 142.162C37.3551 142.307 37.1759 142.516 37.0479 142.789C36.9199 143.053 36.8559 143.369 36.8559 143.736C36.8559 144.094 36.9199 144.41 37.0479 144.683C37.1759 144.948 37.3551 145.157 37.5855 145.31C37.8159 145.455 38.0847 145.528 38.3919 145.528ZM45.5881 147.256C45.0932 147.256 44.6665 147.149 44.3081 146.936C43.9497 146.714 43.6724 146.403 43.4761 146.002C43.2884 145.592 43.1945 145.101 43.1945 144.53V140.331H45.2553V144.222C45.2553 144.64 45.3534 144.969 45.5497 145.208C45.7545 145.438 46.0361 145.554 46.3945 145.554C46.5737 145.554 46.7358 145.528 46.8809 145.477C47.026 145.417 47.1497 145.336 47.2521 145.234C47.363 145.123 47.4484 144.995 47.5081 144.85C47.5678 144.704 47.5977 144.547 47.5977 144.376V140.331H49.6585V147.128H47.7257L47.6489 145.733L48.0201 145.579C47.9262 145.895 47.7556 146.181 47.5081 146.437C47.2692 146.693 46.9833 146.893 46.6505 147.038C46.3177 147.183 45.9636 147.256 45.5881 147.256ZM57.875 147.256C57.2265 147.256 56.6462 147.154 56.1342 146.949C55.6222 146.735 55.2126 146.445 54.9054 146.078L56.1598 145.003C56.4243 145.268 56.723 145.464 57.0558 145.592C57.3886 145.711 57.7043 145.771 58.003 145.771C58.1139 145.771 58.2121 145.758 58.2974 145.733C58.3827 145.707 58.4553 145.673 58.515 145.63C58.5833 145.579 58.6345 145.524 58.6686 145.464C58.7027 145.396 58.7198 145.319 58.7198 145.234C58.7198 145.063 58.6473 144.935 58.5022 144.85C58.4339 144.807 58.3102 144.756 58.131 144.696C57.9518 144.628 57.7214 144.559 57.4398 144.491C57.0387 144.389 56.6889 144.265 56.3902 144.12C56.1001 143.975 55.8611 143.808 55.6734 143.621C55.5027 143.45 55.3705 143.254 55.2766 143.032C55.1913 142.81 55.1486 142.563 55.1486 142.29C55.1486 141.871 55.2723 141.504 55.5198 141.189C55.7758 140.873 56.1086 140.63 56.5182 140.459C56.9278 140.28 57.3715 140.19 57.8494 140.19C58.2249 140.19 58.579 140.233 58.9118 140.318C59.2531 140.404 59.5689 140.523 59.859 140.677C60.1577 140.83 60.4222 141.014 60.6526 141.227L59.5646 142.443C59.4195 142.298 59.2489 142.17 59.0526 142.059C58.8563 141.94 58.6601 141.846 58.4638 141.778C58.2675 141.701 58.0841 141.662 57.9134 141.662C57.7854 141.662 57.6702 141.675 57.5678 141.701C57.4739 141.718 57.3929 141.752 57.3246 141.803C57.2649 141.846 57.2179 141.901 57.1838 141.97C57.1497 142.029 57.1326 142.098 57.1326 142.174C57.1326 142.268 57.1539 142.354 57.1966 142.43C57.2478 142.499 57.3161 142.563 57.4014 142.622C57.4782 142.665 57.6105 142.72 57.7982 142.789C57.9945 142.857 58.2505 142.934 58.5662 143.019C58.9673 143.13 59.3086 143.258 59.5902 143.403C59.8803 143.54 60.1107 143.702 60.2814 143.89C60.4265 144.035 60.5289 144.205 60.5886 144.402C60.6569 144.589 60.691 144.794 60.691 145.016C60.691 145.451 60.5673 145.839 60.3198 146.181C60.0809 146.514 59.7481 146.778 59.3214 146.974C58.9033 147.162 58.4211 147.256 57.875 147.256ZM61.9213 149.944V140.331H63.8797L63.9693 141.829L63.5725 141.714C63.6237 141.44 63.7645 141.193 63.9949 140.971C64.2338 140.741 64.5282 140.557 64.8781 140.421C65.228 140.276 65.5992 140.203 65.9917 140.203C66.572 140.203 67.0882 140.352 67.5405 140.651C67.9928 140.95 68.3469 141.368 68.6029 141.906C68.8674 142.435 68.9997 143.045 68.9997 143.736C68.9997 144.41 68.8674 145.012 68.6029 145.541C68.3469 146.07 67.9885 146.488 67.5277 146.795C67.0754 147.094 66.5592 147.243 65.9789 147.243C65.5864 147.243 65.2152 147.171 64.8653 147.026C64.5154 146.872 64.221 146.676 63.9821 146.437C63.7432 146.198 63.5896 145.938 63.5213 145.656L63.9949 145.464V149.944H61.9213ZM65.4797 145.502C65.7869 145.502 66.0514 145.43 66.2733 145.285C66.5037 145.14 66.6786 144.935 66.7981 144.67C66.9261 144.397 66.9901 144.086 66.9901 143.736C66.9901 143.378 66.9261 143.066 66.7981 142.802C66.6786 142.528 66.5037 142.319 66.2733 142.174C66.0514 142.021 65.7869 141.944 65.4797 141.944C65.164 141.944 64.8909 142.021 64.6605 142.174C64.4301 142.319 64.2509 142.524 64.1229 142.789C63.9949 143.053 63.9309 143.369 63.9309 143.736C63.9309 144.086 63.9949 144.397 64.1229 144.67C64.2509 144.935 64.4301 145.14 64.6605 145.285C64.8909 145.43 65.164 145.502 65.4797 145.502ZM70.4615 147.128V140.331H72.5223V147.128H70.4615ZM71.4983 138.987C71.1058 138.987 70.7986 138.898 70.5767 138.718C70.3634 138.531 70.2567 138.266 70.2567 137.925C70.2567 137.609 70.3676 137.353 70.5895 137.157C70.8114 136.96 71.1143 136.862 71.4983 136.862C71.8738 136.862 72.1682 136.956 72.3815 137.144C72.6034 137.323 72.7143 137.583 72.7143 137.925C72.7143 138.24 72.6034 138.496 72.3815 138.693C72.1682 138.889 71.8738 138.987 71.4983 138.987ZM74.4588 147.128V140.331H76.4172L76.5068 142.546L76.1228 142.11C76.2337 141.752 76.4044 141.428 76.6348 141.138C76.8652 140.847 77.1383 140.617 77.454 140.446C77.7783 140.276 78.1153 140.19 78.4652 140.19C78.6188 140.19 78.7596 140.203 78.8876 140.229C79.0241 140.246 79.1436 140.276 79.246 140.318L78.6956 142.584C78.6017 142.533 78.4737 142.49 78.3116 142.456C78.158 142.413 77.9959 142.392 77.8252 142.392C77.6375 142.392 77.4625 142.426 77.3004 142.494C77.1468 142.554 77.0103 142.644 76.8908 142.763C76.7799 142.883 76.6903 143.023 76.622 143.186C76.5623 143.348 76.5324 143.531 76.5324 143.736V147.128H74.4588ZM83.6312 147.128V142.955C83.6312 142.605 83.5331 142.349 83.3368 142.187C83.1491 142.016 82.8845 141.931 82.5432 141.931C82.2104 141.931 81.9117 141.995 81.6472 142.123C81.3912 142.243 81.1437 142.443 80.9048 142.725L79.676 141.534C80.0856 141.116 80.5549 140.788 81.084 140.549C81.6131 140.31 82.1891 140.19 82.812 140.19C83.3837 140.19 83.8787 140.276 84.2968 140.446C84.7149 140.617 85.0392 140.877 85.2696 141.227C85.5 141.577 85.6152 142.021 85.6152 142.558V147.128H83.6312ZM81.8648 147.256C81.4381 147.256 81.0499 147.171 80.7 147C80.3587 146.829 80.0856 146.595 79.8808 146.296C79.6845 145.989 79.5864 145.63 79.5864 145.221C79.5864 144.871 79.6504 144.564 79.7784 144.299C79.9064 144.035 80.0941 143.817 80.3416 143.646C80.5976 143.467 80.9133 143.335 81.2888 143.25C81.6728 143.156 82.1165 143.109 82.62 143.109H84.6808L84.5656 144.402H82.6712C82.492 144.402 82.3341 144.419 82.1976 144.453C82.0611 144.478 81.9459 144.525 81.852 144.594C81.7581 144.653 81.6856 144.726 81.6344 144.811C81.5917 144.896 81.5704 144.999 81.5704 145.118C81.5704 145.246 81.6045 145.357 81.6728 145.451C81.7411 145.545 81.8307 145.618 81.9416 145.669C82.0611 145.72 82.1976 145.746 82.3512 145.746C82.5731 145.746 82.7821 145.711 82.9784 145.643C83.1832 145.566 83.3624 145.46 83.516 145.323C83.6781 145.187 83.8061 145.029 83.9 144.85L84.2584 145.771C84.0792 146.061 83.8616 146.317 83.6056 146.539C83.3581 146.761 83.0851 146.936 82.7864 147.064C82.4963 147.192 82.1891 147.256 81.8648 147.256ZM80.5848 138.949V137.643H84.86V138.949H80.5848ZM87.2588 147.128V137.656H89.3196V147.128H87.2588ZM94.2597 147.256C93.5088 147.256 92.8517 147.107 92.2885 146.808C91.7338 146.509 91.3029 146.1 90.9957 145.579C90.697 145.05 90.5477 144.448 90.5477 143.774C90.5477 143.245 90.633 142.763 90.8037 142.328C90.9744 141.884 91.2133 141.504 91.5205 141.189C91.8362 140.873 92.2032 140.63 92.6213 140.459C93.048 140.28 93.513 140.19 94.0165 140.19C94.4944 140.19 94.9296 140.276 95.3221 140.446C95.7146 140.617 96.056 140.856 96.3461 141.163C96.6362 141.47 96.8581 141.833 97.0117 142.251C97.1653 142.669 97.2378 143.126 97.2293 143.621L97.2165 144.184H91.8149L91.5077 143.019H95.5397L95.3221 143.25V142.994C95.305 142.78 95.2368 142.597 95.1173 142.443C95.0064 142.281 94.857 142.153 94.6693 142.059C94.4901 141.965 94.2853 141.918 94.0549 141.918C93.7136 141.918 93.4234 141.987 93.1845 142.123C92.9541 142.251 92.7792 142.439 92.6597 142.686C92.5402 142.934 92.4805 143.241 92.4805 143.608C92.4805 143.975 92.5573 144.299 92.7109 144.581C92.873 144.862 93.1034 145.08 93.4021 145.234C93.7093 145.387 94.072 145.464 94.4901 145.464C94.7717 145.464 95.0277 145.421 95.2581 145.336C95.4885 145.251 95.736 145.106 96.0005 144.901L96.9605 146.258C96.696 146.479 96.4144 146.667 96.1157 146.821C95.817 146.966 95.5098 147.072 95.1941 147.141C94.8869 147.218 94.5754 147.256 94.2597 147.256Z"
        fill="#F8F1D6" />
</svg>
