<svg width="105" height="52" viewBox="0 0 105 52" fill="none" xmlns="http://www.w3.org/2000/svg">
<path d="M26.0918 10.0977C26.0918 4.57481 30.5689 0.0976562 36.0918 0.0976562H42.0918C47.6146 0.0976562 52.0918 4.57481 52.0918 10.0977V41.6719C52.0918 47.1947 47.6146 51.6719 42.0918 51.6719H36.0918C30.5689 51.6719 26.0918 47.1947 26.0918 41.6719V10.0977Z" fill="#F8F1D6"/>
<path d="M0.0917969 10.0977C0.0917969 4.57481 4.56895 0.0976562 10.0918 0.0976562H16.0918C21.6146 0.0976562 26.0918 4.57481 26.0918 10.0977V41.6719C26.0918 47.1947 21.6146 51.6719 16.0918 51.6719H10.0918C4.56895 51.6719 0.0917969 47.1947 0.0917969 41.6719V10.0977Z" fill="#F8F1D6"/>
<path d="M52.0918 10.0977C52.0918 4.57481 56.5689 0.0976562 62.0918 0.0976562H68.0918C73.6146 0.0976562 78.0918 4.57481 78.0918 10.0977V41.6719C78.0918 47.1947 73.6146 51.6719 68.0918 51.6719H62.0918C56.5689 51.6719 52.0918 47.1947 52.0918 41.6719V10.0977Z" fill="#F8F1D6"/>
<path d="M78.0918 10.0977C78.0918 4.57481 82.5689 0.0976562 88.0918 0.0976562H94.0918C99.6146 0.0976562 104.092 4.57481 104.092 10.0977V41.6719C104.092 47.1947 99.6146 51.6719 94.0918 51.6719H88.0918C82.5689 51.6719 78.0918 47.1947 78.0918 41.6719V10.0977Z" fill="#F8F1D6" fill-opacity="0.5"/>
<path d="M75.9148 25.8907C74.0207 25.8907 72.0759 25.7914 70.2856 25.0962C68.4952 24.4009 66.8895 23.3012 65.5933 21.8826C64.2972 20.464 63.3458 18.7649 62.8132 16.9177C62.2807 15.0705 62.0239 13.319 62.0239 11.2373" stroke="#2D573D" stroke-width="3" stroke-miterlimit="10"/>
<path d="M75.9148 25.8818C74.0207 25.8818 72.0759 25.9811 70.2856 26.6763C68.4952 27.3715 66.8895 28.4713 65.5933 29.8899C64.2972 31.3085 63.3458 33.0076 62.8132 34.8548C62.2807 36.702 62.0239 38.4535 62.0239 40.5352" stroke="#2D573D" stroke-width="3" stroke-miterlimit="10"/>
<path d="M74.9931 25.8832L28.269 25.8832" stroke="#2D573D" stroke-width="3" stroke-miterlimit="10"/>
</svg>
