<svg width="275" height="377" viewBox="0 0 275 377" fill="none" xmlns="http://www.w3.org/2000/svg">
<path d="M16.6538 167.058L47.8981 234.058L35.8682 269.062L89.0003 284.433C89.0003 284.433 105.207 238.068 104.789 238.235C106.627 232.554 107.63 229.212 105.876 224.868C104.121 220.524 100.947 216.932 97.772 213.423C91.9242 206.907 86.0763 200.474 80.2285 193.958C73.9629 186.941 67.6138 179.923 60.2622 174.159C52.9106 168.311 44.3058 163.716 35.0328 162.296C28.266 161.294 20.4131 162.38 16.6538 167.058Z" fill="#0054DC"/>
<path d="M53.5796 161.051L118.909 160.467L138.875 196.64L186.076 160.299L149.568 101.654L78.8925 105.747L53.5796 161.051Z" fill="#0054DC"/>
<path d="M190.001 291.29C178.305 277.84 158.756 274.916 141.463 277.339C136.702 278.007 131.856 279.009 127.429 281.014C119.075 284.857 112.475 292.376 108.715 301.064C104.956 309.752 103.954 319.527 104.789 328.967C106.126 343.419 112.224 357.872 123.502 366.56C131.188 372.492 140.712 375.332 150.235 376C163.936 376.919 177.887 373.327 189.583 365.808C192.173 369.15 196.6 371.155 199.107 372.074C216.567 378.339 232.607 376.669 249.9 369.735C254.912 367.73 259.841 365.14 263.6 361.046C267.276 357.037 269.532 351.857 271.286 346.594C275.129 334.564 276.298 321.448 273.291 309.168C270.284 296.887 263.015 290.037 252.573 283.437C242.632 277.171 230.351 275.501 218.989 278.09C207.628 280.764 197.352 282.936 190.001 291.29Z" fill="#FBB029"/>
<path d="M273.543 142.998L273.376 277.081C273.376 277.081 116.82 276.664 117.154 276.33C113.395 272.487 113.228 266.555 113.312 261.125C113.395 253.523 113.479 245.837 113.479 238.235C113.479 235.06 112.977 229.714 114.648 227.04C117.572 222.362 145.558 223.699 151.072 223.699C170.704 223.699 190.336 221.527 209.968 222.613C214.145 222.863 218.907 222.863 221.831 219.856C224.505 217.016 224.421 212.755 224.254 208.912C223.335 188.779 223.168 168.645 223.836 148.512C223.92 144.836 224.17 140.993 226.426 138.069C229.35 134.31 234.613 133.391 239.375 132.973C244.22 132.556 249.066 132.305 253.827 132.222C258.255 132.138 262.766 132.222 266.693 134.143C270.703 135.981 273.877 140.158 273.543 142.998Z" fill="#FFABF6"/>
<mask id="mask0_27_2595" style="mask-type:alpha" maskUnits="userSpaceOnUse" x="113" y="132" width="161" height="146">
<path d="M273.543 142.996L273.375 277.079C273.375 277.079 116.82 276.661 117.154 276.327C113.395 272.484 113.228 266.553 113.311 261.123C113.395 253.521 113.478 245.835 113.478 238.233C113.478 235.058 112.977 229.711 114.648 227.038C117.572 222.36 145.558 223.696 151.072 223.696C170.704 223.696 190.336 221.524 209.968 222.61C214.145 222.861 218.907 222.861 221.831 219.854C224.504 217.013 224.42 212.753 224.253 208.91C223.334 188.776 223.167 168.643 223.836 148.51C223.919 144.834 224.17 140.991 226.425 138.067C229.349 134.308 234.612 133.389 239.374 132.971C244.22 132.553 249.065 132.303 253.827 132.219C258.255 132.136 262.766 132.219 266.692 134.141C270.702 135.979 273.877 140.156 273.543 142.996Z" fill="#FFABF6"/>
</mask>
<g mask="url(#mask0_27_2595)">
<path d="M123.252 218.685L123.419 247.006" stroke="#0054DC" stroke-width="4" stroke-miterlimit="10" stroke-linecap="round"/>
<path d="M142.467 218.685L142.634 247.006" stroke="#0054DC" stroke-width="4" stroke-miterlimit="10" stroke-linecap="round"/>
<path d="M164.771 218.515L164.939 246.752" stroke="#0054DC" stroke-width="4" stroke-miterlimit="10" stroke-linecap="round"/>
<path d="M188.581 218.099L188.748 246.336" stroke="#0054DC" stroke-width="4" stroke-miterlimit="10" stroke-linecap="round"/>
<path d="M213.476 217.683L213.643 245.92" stroke="#0054DC" stroke-width="4" stroke-miterlimit="10" stroke-linecap="round"/>
<path d="M129.935 221.272V221.523V231.214" stroke="#0054DC" stroke-width="4" stroke-miterlimit="10" stroke-linecap="round"/>
<path d="M150.402 221.272V221.523V231.214" stroke="#0054DC" stroke-width="4" stroke-miterlimit="10" stroke-linecap="round"/>
<path d="M179.809 220.856V221.107V230.798" stroke="#0054DC" stroke-width="4" stroke-miterlimit="10" stroke-linecap="round"/>
<path d="M135.701 221.189V231.047" stroke="#0054DC" stroke-width="4" stroke-miterlimit="10" stroke-linecap="round"/>
<path d="M156.836 221.439V231.297" stroke="#0054DC" stroke-width="4" stroke-miterlimit="10" stroke-linecap="round"/>
<path d="M172.876 221.189V231.047" stroke="#0054DC" stroke-width="4" stroke-miterlimit="10" stroke-linecap="round"/>
<path d="M203.87 220.686V220.937V230.628" stroke="#0054DC" stroke-width="4" stroke-miterlimit="10" stroke-linecap="round"/>
<path d="M196.935 221.019V230.877" stroke="#0054DC" stroke-width="4" stroke-miterlimit="10" stroke-linecap="round"/>
<path d="M203.87 220.686V220.937V230.628" stroke="#0054DC" stroke-width="4" stroke-miterlimit="10" stroke-linecap="round"/>
<path d="M196.935 221.019V230.877" stroke="#0054DC" stroke-width="4" stroke-miterlimit="10" stroke-linecap="round"/>
<path d="M221.329 197.55H221.496H231.187" stroke="#0054DC" stroke-width="4" stroke-miterlimit="10" stroke-linecap="round"/>
<path d="M221.58 204.479H231.437" stroke="#0054DC" stroke-width="4" stroke-miterlimit="10" stroke-linecap="round"/>
<path d="M220.158 190.61L248.479 190.443" stroke="#0054DC" stroke-width="4" stroke-miterlimit="10" stroke-linecap="round"/>
<path d="M221.329 218.685H221.496H231.187" stroke="#0054DC" stroke-width="4" stroke-miterlimit="10" stroke-linecap="round"/>
<path d="M220.158 211.749L248.479 211.582" stroke="#0054DC" stroke-width="4" stroke-miterlimit="10" stroke-linecap="round"/>
<path d="M219.741 166.8L248.062 166.633" stroke="#0054DC" stroke-width="4" stroke-miterlimit="10" stroke-linecap="round"/>
<path d="M219.324 141.992L247.645 141.825" stroke="#0054DC" stroke-width="4" stroke-miterlimit="10" stroke-linecap="round"/>
<path d="M222.583 175.575H222.834H232.524" stroke="#0054DC" stroke-width="4" stroke-miterlimit="10" stroke-linecap="round"/>
<path d="M222.833 182.508H232.774" stroke="#0054DC" stroke-width="4" stroke-miterlimit="10" stroke-linecap="round"/>
<path d="M222.331 151.599H222.581H232.272" stroke="#0054DC" stroke-width="4" stroke-miterlimit="10" stroke-linecap="round"/>
<path d="M222.665 158.535H232.523" stroke="#0054DC" stroke-width="4" stroke-miterlimit="10" stroke-linecap="round"/>
</g>
<path d="M93.6796 325.794C93.6796 325.794 11.726 325.21 11.6425 325.377C8.30083 324.625 5.20986 327.382 3.53904 330.306C1.78468 333.23 0.782147 336.738 1.19985 340.08C1.7011 343.422 3.87319 346.68 7.13129 347.766C5.62755 347.766 4.29087 348.685 3.45547 349.938C2.62006 351.191 2.20236 352.611 1.95174 354.115C1.19987 357.958 1.11632 362.135 2.62006 365.811C4.20733 369.403 7.71604 372.41 11.6425 372.41C11.6425 372.41 94.4315 372.16 94.0138 371.993C96.6871 371.993 99.444 371.324 101.449 369.486C103.036 367.983 103.955 365.811 104.456 363.722C105.375 360.213 105.459 356.287 103.705 353.112C102.034 349.854 98.2744 347.599 94.7657 348.35C98.7756 347.849 102.535 345.427 104.456 341.834C106.378 338.242 106.294 333.647 104.039 330.222C101.616 326.964 97.2719 325.043 93.6796 325.794Z" fill="#007C00"/>
<path d="M46.9795 104.489C46.9795 104.489 103.202 98.2232 103.453 98.2232C105.542 97.4713 105.876 94.798 105.959 92.5424C106.21 83.6035 106.461 74.5811 106.711 65.6422C106.795 63.4702 106.878 61.2146 106.461 59.0425C104.957 49.853 96.6028 43.5874 91.9245 35.5675C90.4208 33.0613 89.2511 30.2209 89.3347 27.3805C89.4182 24.4565 90.922 21.4491 93.5953 20.2795C96.1851 19.1935 99.3596 20.0289 101.615 21.7832C103.871 23.5376 105.458 26.0438 106.878 28.4665C106.962 21.1149 107.714 13.6798 109.05 6.41172C109.385 4.82444 109.719 3.15362 110.721 1.9005C113.227 -1.19051 118.49 -0.0209289 120.997 3.07008C123.503 6.1611 123.921 10.3381 124.255 14.2646C124.505 17.1885 124.756 20.0289 125.007 22.9528C125.257 20.3631 125.926 17.1885 128.348 16.4366C130.27 15.8518 132.442 17.1885 133.361 19.0264C134.28 20.8643 134.363 22.9528 134.363 25.0413C134.781 21.6997 136.034 17.7733 139.376 17.105C141.548 16.6873 143.887 18.0239 144.973 19.9453C146.143 21.8668 146.31 24.2059 146.059 26.4615C145.975 23.6211 147.646 20.7808 150.236 19.5276C151.239 19.0264 152.408 18.7758 153.494 18.9429C156.084 19.1935 158.089 21.5326 158.841 23.9553C159.593 26.4615 159.426 29.1348 159.258 31.7246C159.258 31.7246 155.583 127.379 155.416 127.295C155.75 132.391 155.833 138.239 151.99 141.664C149.818 143.502 146.894 144.171 144.054 144.505C140.211 144.923 136.368 144.923 132.525 145.006C104.623 145.09 76.6365 145.09 48.7338 145.173L46.9795 104.489Z" fill="#FFA28B"/>
<path d="M44.3068 189.535L0.447829 163.387L0.364258 103.739L44.8916 81.5168L92.3428 109.169L91.4238 166.394L44.3068 189.535Z" fill="#FFABF6"/>
<path d="M0.699219 103.658L45.7278 130.391L92.3436 109.172L46.7302 78.8465L0.699219 103.658Z" fill="#FF0000"/>
<path d="M42.5526 119.607L19.1611 103.818L22.5863 63.05L47.565 51.0201L70.7059 66.3916L67.2807 107.911L42.5526 119.607Z" fill="#FFA28B"/>
<path d="M70.5385 66.8944L67.3639 107.746L42.4688 119.609L45.9775 78.4231L70.5385 66.8944Z" fill="#FF8567"/>
<path d="M63.3532 93.048C59.0091 91.7949 53.9966 93.4657 51.1562 96.9744C51.3233 98.3111 51.4904 99.6477 51.9081 100.901C52.3258 102.154 53.0777 103.407 54.2472 104.159C55.0826 104.744 56.0851 104.994 57.1712 104.994C58.5078 104.994 59.7609 104.493 60.847 103.658C62.2672 102.488 63.1026 100.65 63.4367 98.8123C63.5203 97.058 63.4367 95.1365 63.3532 93.048Z" fill="white"/>
<path d="M90.5041 280.924L37.7063 265.552C37.7063 265.552 17.8236 299.219 18.1577 299.386C16.3198 303.814 19.4108 308.91 23.4208 311.416C30.4382 315.844 40.6302 314.507 46.311 308.325C44.6402 314.507 49.9033 321.107 56.1688 322.36C62.4344 323.53 68.9506 320.188 73.0441 315.259C72.4593 319.687 75.5503 324.031 79.6438 325.785C83.7373 327.623 88.4991 327.206 92.6762 325.702C96.1014 324.532 99.3595 322.527 101.615 319.687C103.871 316.846 104.957 312.92 104.121 309.411C103.62 307.49 102.618 305.819 101.364 304.315C97.271 299.554 90.3371 297.298 84.2386 298.802L90.5041 280.924Z" fill="#FF0000"/>
<path d="M176.636 144.753L131.44 182.347C131.44 182.347 149.735 220.775 149.986 220.859C150.821 222.279 152.492 223.114 154.163 223.282C155.834 223.449 157.505 222.947 159.008 222.279C163.937 220.274 168.114 216.515 170.537 211.836C172.96 207.158 173.545 201.644 172.208 196.548C175.8 200.391 181.899 202.396 186.744 200.057C190.002 198.47 192.174 195.295 193.594 191.954C195.098 188.361 195.934 184.352 194.513 180.926C198.273 184.184 204.121 184.686 208.632 182.681C213.227 180.676 216.568 176.415 217.988 171.653C219.409 167.059 219.074 161.879 216.568 157.785C214.145 153.608 209.384 150.685 204.538 150.768C201.03 150.852 197.688 152.355 195.015 154.611C192.425 156.867 190.503 159.79 189.083 162.965L176.636 144.753Z" fill="#FF0000"/>
<path d="M54.8319 153.86L93.6784 157.536C93.6784 157.536 122.166 142.498 122.082 142.415C125.34 141.329 129.35 140.41 132.024 142.582C134.53 144.671 134.53 148.764 132.943 151.604C131.272 154.445 128.431 156.366 125.675 158.121C128.766 157.619 131.857 158.204 134.948 158.789C140.628 159.875 146.56 161.128 150.904 164.971C152.074 166.057 153.16 167.394 153.243 169.064C153.327 171.988 150.069 173.743 147.312 174.662C140.211 176.917 132.776 177.836 125.34 177.251C128.348 177.251 131.94 177.586 133.444 180.175C134.697 182.431 133.527 185.438 131.355 186.859C129.183 188.279 126.426 188.279 123.92 187.611C126.928 187.527 130.604 187.694 132.191 190.284C133.611 192.539 132.609 195.714 130.52 197.301C128.431 198.889 125.508 199.056 122.918 198.471C125.09 198.638 127.345 199.39 128.849 200.977C130.436 202.481 131.272 204.904 130.687 206.992C130.102 209.081 128.181 210.668 126.092 211.336C124.004 212.005 121.748 212.004 119.576 211.921C117.07 211.754 114.48 211.42 111.974 211.002C111.974 211.002 18.8258 201.645 18.9093 201.645C16.236 201.395 13.4792 200.894 11.3906 199.306C7.29714 196.215 6.62882 190.451 6.37819 185.271C5.62633 171.32 4.87445 157.369 4.12258 143.417C3.9555 140.577 3.78844 137.737 4.45676 134.98C5.70988 129.633 9.97045 125.456 14.7323 122.783C22.7522 118.355 32.6936 117.603 41.2148 120.861C44.6399 122.198 48.7334 124.788 49.5689 127.545C49.5689 127.545 50.7384 131.304 51.3232 133.225C53.0775 140.076 54.4142 147.01 54.8319 153.86Z" fill="#FF8567"/>
</svg>
