<svg width="48" height="48" viewBox="0 0 48 48" fill="none" xmlns="http://www.w3.org/2000/svg">
<path d="M23.7339 47.5996C36.6983 47.5996 47.208 37.0899 47.208 24.1255C47.208 11.1611 36.6983 0.651367 23.7339 0.651367C10.7695 0.651367 0.259766 11.1611 0.259766 24.1255C0.259766 37.0899 10.7695 47.5996 23.7339 47.5996Z" fill="#2D573D"/>
<path d="M27.0102 15.6621C27.004 14.7048 26.6643 13.8457 26.0809 13.3057C25.3033 12.5891 24.0157 12.4734 23.1989 13.0465C22.6888 13.4058 22.3274 14.0347 22.2303 14.7286L21.1172 14.5737C21.2566 13.5783 21.7915 12.6644 22.5504 12.1285C23.7896 11.2518 25.6772 11.4057 26.8419 12.4796C27.6566 13.2293 28.1275 14.3868 28.1358 15.6559L27.0102 15.6621Z" fill="#F8F0D2"/>
<path d="M23.9928 22.8899L16.5395 17.9809C15.5699 17.3428 15.5234 16.714 15.6556 16.2999C15.8105 15.8094 16.2586 15.5771 16.4734 15.4624C17.2046 15.0892 17.9609 14.7673 18.7369 14.499C18.7881 13.8512 18.956 13.2181 19.2325 12.63C19.8802 11.302 20.9944 10.2591 22.3623 9.70053C24.6113 8.77119 27.4303 9.27407 28.9183 10.8767C30.0903 12.1385 30.4362 13.9373 29.8745 15.7505C30.2576 16.0861 30.62 16.4238 30.9546 16.7573C31.9056 17.7052 31.7363 18.4239 31.5504 18.7678C31.3501 19.1416 30.9959 19.3275 30.7625 19.4514C29.4986 20.1174 28.2007 20.7679 26.9419 21.3968C26.0704 21.8336 25.1679 22.2859 24.2819 22.7392L23.9928 22.8899ZM16.7295 16.6365C16.745 16.685 16.8451 16.8368 17.157 17.0423L24.0641 21.5858C24.8602 21.1789 25.6625 20.7772 26.439 20.3869C27.6895 19.7601 28.9823 19.1127 30.2349 18.4518C30.3381 18.3992 30.5199 18.3021 30.5581 18.2298C30.5963 18.1575 30.5219 17.9107 30.1585 17.5483C29.7609 17.1528 29.321 16.7491 28.8522 16.3494L28.5517 16.0934L28.6911 15.7227C29.2715 14.1923 29.0474 12.6651 28.0922 11.6367C26.9068 10.3604 24.6268 9.97107 22.7898 10.7331C21.6787 11.1849 20.7732 12.0305 20.2465 13.1081C19.9819 13.6711 19.8431 14.2849 19.8397 14.9069V15.2993L19.468 15.4304C18.6201 15.713 17.7937 16.056 16.9949 16.4568C16.8952 16.4982 16.805 16.5594 16.7295 16.6365Z" fill="#F8F0D2"/>
<path d="M23.9684 39.0142H23.9313C23.4511 39.0049 23.0205 38.818 22.6746 38.6683L18.1312 36.7063C17.4476 36.41 16.4129 35.9618 15.9627 35.0015C15.7242 34.4955 15.6983 33.9441 15.6777 33.5011C15.5445 30.6852 15.3834 26.9679 15.3204 23.1751C15.3204 22.9025 15.3101 22.5298 15.4939 22.1776C15.7593 21.6706 16.3499 21.366 17.0005 21.4042C17.4961 21.4331 17.9381 21.6407 18.2922 21.8069L24.1533 24.5598C25.8498 23.7338 27.5474 22.9965 29.1924 22.2819C29.6054 22.1002 30.385 21.7656 31.1017 22.1146C32.0558 22.5834 32.0702 23.8226 32.0764 24.2883L32.1373 29.4626C32.1549 30.8794 32.1725 32.3446 31.9928 33.7996C31.9184 34.3954 31.7956 35.0149 31.3949 35.5188C31.0542 35.9463 30.575 36.1993 30.226 36.3831C28.5955 37.2432 26.9227 38.0204 25.2138 38.7116C24.8906 38.8366 24.4507 39.0142 23.9684 39.0142ZM16.8982 22.5184C16.7175 22.5184 16.543 22.5917 16.4852 22.6919C16.4274 22.792 16.4367 22.9903 16.4387 23.1503C16.5017 26.9286 16.6618 30.6357 16.795 33.4423C16.8125 33.8223 16.8311 34.2147 16.9736 34.5172C17.2256 35.05 17.8751 35.367 18.5762 35.6706L23.1196 37.6377C23.4015 37.7596 23.6927 37.8856 23.9519 37.8907C24.2111 37.8959 24.4682 37.7957 24.7914 37.6646C26.465 36.9876 28.1034 36.2266 29.7004 35.3846C30.0401 35.206 30.3344 35.0387 30.5141 34.8136C30.7289 34.5441 30.8146 34.1558 30.8765 33.656C31.0469 32.2816 31.0294 30.8556 31.0128 29.4761L30.9509 24.3017C30.9437 23.6191 30.8301 23.234 30.605 23.1235C30.3799 23.013 30.0112 23.1503 29.6395 23.3114C27.9285 24.057 26.1576 24.8263 24.4042 25.6864L24.1615 25.8052L17.8121 22.8168C17.5178 22.6785 17.2142 22.5349 16.9354 22.5184H16.8982Z" fill="#F8F0D2"/>
<path d="M19.6819 34.7586L18.8496 26.4358L18.9684 26.4275V26.4193L19.528 26.3831L20.0154 26.348L20.8477 34.6708L19.6819 34.7586ZM24.5351 34.9651H23.3641V26.6124H24.533L24.5351 34.9651ZM28.1368 35.09L26.9813 34.9393L28.4641 26.6785L29.6196 26.8292L28.1368 35.09Z" fill="#F8F0D2"/>
</svg>
