<svg width="29" height="29" viewBox="0 0 29 29" fill="none" xmlns="http://www.w3.org/2000/svg">
<path d="M28.305 15.6937C28.2718 14.0284 28.1361 12.3667 27.8987 10.7179C27.7476 9.67081 27.5509 8.61414 27.0881 7.66249C26.0319 5.48866 23.6279 4.44895 21.6558 3.09309C20.475 2.28149 19.2752 1.46033 17.9189 0.994587C16.4297 0.483222 14.8257 0.426998 13.2503 0.376074C12.0494 0.33682 10.8304 0.299687 9.66241 0.588258C8.2615 0.927753 7.00313 1.71602 5.89368 2.63053C3.2344 4.81603 1.24207 7.83754 0.451731 11.1826C-0.338607 14.5277 0.114535 18.1847 1.84838 21.1553C2.69935 22.6066 3.8237 23.8766 5.02357 25.0552C6.42128 26.4281 7.98175 27.7245 9.85601 28.3006C12.861 29.2257 16.083 28.1606 19.2284 28.1404C20.0517 28.1404 20.8899 28.2019 21.6834 27.9844C22.4567 27.7723 23.1343 27.3065 23.764 26.809C24.8575 25.9464 25.867 24.9555 26.6052 23.7758C28.0859 21.3972 28.3593 18.4786 28.305 15.6937ZM9.11992 2.91274C9.11992 2.74936 9.14119 2.56158 9.27415 2.46504C9.38269 2.40532 9.50793 2.38294 9.6305 2.40137C10.54 2.43108 11.4463 2.30801 12.3557 2.29528C13.7609 2.28255 15.1703 2.54354 16.5638 2.3653C16.7791 3.199 16.8185 4.06819 16.6797 4.91789C16.6774 4.97709 16.6626 5.03513 16.6364 5.08831C16.6102 5.14148 16.5732 5.18859 16.5276 5.22661C16.4585 5.26108 16.3813 5.27647 16.3042 5.27117L13.5311 5.33376C13.0865 5.34437 12.6422 5.35392 12.1983 5.36241C11.3842 5.37585 10.5687 5.38151 9.75177 5.37939C9.58796 5.37939 9.40393 5.36878 9.29437 5.24677C9.22301 5.14606 9.18575 5.02527 9.18799 4.90197C9.12877 4.24064 9.10605 3.57656 9.11992 2.91274ZM22.4238 10.0761C22.3307 10.1617 22.2166 10.221 22.0929 10.248C19.973 10.8697 17.6456 10.1079 15.4979 10.6522C15.7256 13.0626 15.8447 15.4815 15.9628 17.9004L16.1223 21.1511C17.3279 21.1001 18.5373 21.0778 19.7507 21.0842C20.0698 21.0842 20.4219 21.1012 20.6516 21.3219C20.8814 21.5425 20.9144 21.9213 20.9165 22.2534C20.9236 23.071 20.908 23.8882 20.8697 24.7051C20.8766 24.8163 20.8459 24.9265 20.7825 25.0181C20.6761 25.1348 20.5006 25.1306 20.3453 25.1242C16.284 24.8197 12.2079 25.8668 8.14875 25.5327C7.96048 25.5178 7.74879 25.4881 7.63178 25.3385C7.55669 25.2182 7.51963 25.0781 7.52541 24.9364C7.46585 23.9568 7.40663 22.9773 7.34777 21.9977C7.34033 21.8714 7.33926 21.725 7.43394 21.6401C7.52479 21.5783 7.63584 21.5533 7.74454 21.5701L10.2155 21.6486C10.9027 21.6709 11.609 21.69 12.2547 21.4566C11.7816 17.9539 11.5279 14.4251 11.4952 10.8909C9.59561 10.8241 7.69368 10.8897 5.80326 11.0871C5.64503 9.87794 5.55306 8.66102 5.52777 7.44181C5.52777 7.29434 5.53734 7.12354 5.66392 7.04503C5.73026 7.01388 5.80354 7.00036 5.87666 7.00578L22.3642 6.92727C22.4312 7.66991 22.5471 8.62475 22.5503 9.57321C22.5557 9.75251 22.545 9.94347 22.4238 10.0761Z" fill="#2D573D"/>
</svg>
