<svg width="331" height="331" viewBox="0 0 331 331" fill="none" xmlns="http://www.w3.org/2000/svg">
<path d="M163.096 264.936C161.882 263.282 160.377 261.876 158.463 261.131C157.532 260.765 156.368 260.491 155.586 261.131C155.037 261.581 154.869 262.348 154.826 263.058C154.706 265.066 155.297 267.051 156.494 268.667C157.691 270.283 159.418 271.426 161.373 271.895C162.407 272.143 163.657 272.125 164.337 271.309C164.812 270.737 164.868 269.924 164.784 269.185C164.568 267.654 163.99 266.197 163.096 264.936V264.936Z" fill="white"/>
<mask id="mask0_464_4954" style="mask-type:alpha" maskUnits="userSpaceOnUse" x="0" y="0" width="331" height="331">
<rect x="0.248047" y="0.819702" width="330.086" height="330.086" rx="10" fill="#FFA6FB"/>
</mask>
<g mask="url(#mask0_464_4954)">
<path d="M197.109 334.213L150.525 365.239L101.33 343.757L104.26 273.366L148.991 251.376L199.887 271.374L197.109 334.213Z" fill="#FFA6FB"/>
</g>
<path d="M132.217 234.233L116.211 256.578L135.525 293.455L163.77 288.97L174.631 269.738L155.996 233.724L132.217 234.233Z" fill="#FF755E"/>
<path d="M153.009 228.29C148.071 226.245 143.181 223.668 139.711 219.597C136.242 215.527 134.442 209.692 136.332 204.693C137.717 201.029 140.834 198.293 144.127 196.176C154.696 189.382 170.454 188.412 178.556 198.025C180.258 200.043 181.563 202.546 181.521 205.192C181.438 210.54 175.628 214.449 170.289 214.124C164.951 213.798 160.285 210.421 156.538 206.607C148.985 198.915 143.834 189.078 136.012 181.657C123.264 169.566 104.542 165.274 87.0492 167.024C77.4775 167.983 67.4729 170.969 61.2928 178.345C55.1127 185.721 54.6828 198.353 62.4303 204.069C67.4879 207.793 74.5935 207.673 80.4243 205.341C86.2551 203.009 91.1006 198.771 95.7879 194.59C118.657 174.173 141.634 152.344 170.513 142.086C183.223 137.574 196.688 135.477 210.15 134.647C226.606 133.629 243.973 134.704 258.074 143.251C272.174 151.797 281.704 169.679 276.151 185.208C274.858 188.833 272.775 192.231 269.84 194.719C263.128 200.393 252.822 200.36 245.012 196.337C237.202 192.315 231.538 184.99 227.397 177.243C216.604 157.056 214.619 133.324 215.344 110.444C216.112 86.2311 219.978 61.2779 233.046 40.8847C236.396 35.6588 240.432 30.6926 245.761 27.5153C251.091 24.3379 257.915 23.1852 263.585 25.7235C269.365 28.2977 273.013 34.1358 275.273 40.0575C279.958 52.3012 279.205 68.0806 268.98 76.2988C259.25 84.1198 245.078 82.2922 233.094 78.7923C204.779 70.5204 179.013 55.3681 151.588 44.5399C124.163 33.7117 93.08 27.3002 65.3233 37.2863C54.5485 41.1684 44.4961 47.562 37.4771 56.6104C30.458 65.6587 26.7112 77.4962 28.5652 88.7962C29.3026 93.3085 31.0432 97.8745 34.5363 100.819C38.8594 104.462 44.9857 104.967 50.6284 104.701C69.0135 103.826 86.4103 96.6531 103.861 90.7911C125.073 83.6659 147.229 78.3414 169.591 79.1118C191.953 79.8823 214.673 87.2613 230.822 102.766C233.876 105.698 236.739 108.948 240.441 111.008C243.427 112.665 246.815 113.469 250.207 113.827C260.614 114.923 272.682 110.671 276.286 100.84C279.519 92.0244 274.793 82.11 268.201 75.4208C255.127 62.1529 234.139 57.3748 216.61 63.6788C204.94 67.8596 195.344 76.2779 186.077 84.5199C171.594 97.4027 157.075 110.414 140.637 120.678C124.198 130.941 105.557 138.413 86.1894 139.082C77.0715 139.395 67.9775 138.207 58.9283 137.018C54.6559 136.457 50.2224 135.839 46.6099 133.486C38.1369 127.97 37.7547 115.568 40.6716 105.881C45.1858 90.8926 57.3429 76.7139 72.9753 75.9912C82.6634 75.5432 91.9724 80.3422 99.1765 86.8343C106.381 93.3264 111.871 101.467 117.639 109.252C140.049 139.542 167.856 166.012 200.07 185.554C217.297 196.006 238.285 204.621 257.163 197.616C275.375 190.861 286.207 169.945 283.902 150.657C281.597 131.368 267.854 114.559 250.577 105.687C233.3 96.8144 212.977 95.2018 193.768 98.0328C166.581 102.049 140.446 115.072 122.309 135.743C105.527 154.873 96.2537 179.292 82.8814 200.945C79.6241 206.222 75.716 211.666 69.8345 213.655C60.0956 216.955 49.9418 209.175 44.5737 200.414C38.857 191.03 36.0613 180.158 36.5426 169.18C36.8949 161.473 39.2594 153.279 45.3858 148.593C54.3783 141.725 67.1804 144.962 77.9433 148.506L97.5882 154.984C102.365 156.557 108.13 157.97 111.985 154.739C114.439 152.684 115.302 149.319 115.788 146.156C119.816 120.08 107.778 94.2402 106.763 67.8745C106.411 58.7366 107.617 48.9835 113.331 41.8493C117.735 36.3546 124.378 33.0219 131.244 31.3795C138.93 29.543 146.951 29.6385 154.591 31.6572C167.949 35.2049 179.073 44.3309 189.054 53.8869C212.989 76.7945 234.404 104.507 265.361 116.3C273.222 119.286 282.379 121.051 289.786 117.046C300.806 111.074 302.257 96.1424 302.341 83.6002" stroke="#FF0000" stroke-width="3" stroke-miterlimit="10"/>
<path d="M151.839 228.523C146.229 227.627 142.966 220.081 146.143 215.384C147.391 213.538 149.302 212.26 151.218 211.134C167.806 201.405 188.078 199.948 207.153 202.358C226.227 204.768 244.624 210.746 263.356 215.037C273.372 217.331 283.726 219.152 293.889 217.635C299.544 216.79 305.452 214.604 308.569 209.811C310.793 206.392 311.277 202.104 311.002 198.031C309.644 177.918 291.772 162.575 273.038 155.142C248.156 145.272 220.143 145.222 194.049 151.209C167.955 157.196 143.545 168.941 120.267 182.156C106.181 190.153 91.973 198.879 75.9824 201.471C59.9917 204.063 41.4485 198.756 33.686 184.536C30.5751 178.835 29.4555 172.247 29.0644 165.77C28.7658 160.923 28.9062 155.856 31.0737 151.508C35.9401 141.746 48.6556 139.348 59.5618 139.127C110.059 138.102 158.312 158.021 207.735 168.44C220.573 171.145 233.918 173.218 246.72 170.366C263.439 166.651 278.003 154.079 283.78 137.956C289.557 121.833 286.198 102.679 275.005 89.716C263.813 76.7527 245.15 70.6398 228.532 74.8176C211.813 79.0282 199.08 92.117 185.445 102.688C164.358 118.998 139.676 130.023 113.46 134.844C98.4009 137.607 82.6879 138.219 67.9363 134.104C53.1847 129.989 39.478 120.707 32.238 107.227C24.9981 93.7475 25.2309 75.9315 34.6922 63.8939C42.3232 54.1825 54.8088 49.2253 67.1212 48.3026C79.4337 47.3798 91.7222 50.0555 103.652 53.2359C141.166 63.2488 177.255 78.425 215.247 86.4461C236.525 90.9255 260.899 92.4425 277.827 78.7863C286.963 71.4162 292.575 60.5701 297.036 49.7241C298.8 45.4328 300.43 40.5771 298.723 36.262C296.752 31.2959 291.163 28.9576 286.037 27.4824C252.399 17.8159 216.518 23.7556 181.952 29.2443C147.385 34.733 111.107 39.5738 78.1021 27.9244C68.9932 24.7112 58.4213 20.399 50.3365 25.6668C45.5596 28.7695 43.1711 34.518 42.2546 40.1352C39.6989 55.9773 47.33 72.3629 59.4155 82.9283C71.5011 93.4936 87.417 98.8181 103.336 100.813C119.255 102.808 135.377 101.709 151.403 100.894C193.577 98.7196 235.793 98.3722 278.051 99.8514C285.559 100.117 293.785 100.726 299.221 105.913C304.709 111.151 305.667 119.429 306.297 126.99C306.855 133.701 307.291 140.951 303.7 146.646C301.254 150.528 297.233 153.135 293.092 155.103C276.773 162.867 257.704 162.166 239.91 159.024C203.507 152.598 169.224 136.756 132.729 130.98C117.616 128.591 101.978 127.979 87.1483 131.73C72.3191 135.48 58.284 143.955 49.9991 156.814C41.7142 169.673 39.9945 187.161 47.6733 200.399C50.4917 205.257 54.6924 209.587 60.0634 211.227C67.8587 213.616 76.0749 209.964 83.4522 206.5C99.6727 198.885 116.228 191.697 133.678 187.629C151.129 183.562 169.642 182.732 186.836 187.782C201.498 192.088 214.733 200.542 225.914 210.964C236.701 221.019 247.249 233.719 261.935 234.997C276.182 236.234 289.724 224.776 293.026 210.86C296.328 196.944 290.548 181.854 280.367 171.811C270.187 161.768 256.184 156.313 242.048 154.139C204.63 148.381 167.549 163.886 133 179.366C114.439 187.686 94.4868 196.302 74.4538 192.724C58.4064 189.866 44.0638 178.715 37.3075 163.886C33.3487 155.178 31.9335 145.505 31.6708 135.94C31.3543 124.515 33.904 111.083 44.1743 106.078C51.674 102.423 60.562 104.677 68.629 106.794C100.907 115.267 133.948 120.506 167.263 122.433C197.199 124.163 228.959 122.732 254.345 106.768C261.851 102.046 268.724 96.017 273.154 88.3214C277.585 80.6258 279.325 71.1475 276.585 62.7143C272.369 49.7569 258.97 42.1091 245.98 38.0597C234.073 34.3418 221.468 32.571 209.055 33.7864C182.623 36.3725 159.527 51.9279 134.828 61.684C103.246 74.0732 68.7567 77.0611 35.5162 70.2874C26.7625 68.4957 21.1019 58.7067 22.2334 49.8375C23.365 40.9683 30.0436 33.5027 38.0569 29.531C46.0701 25.5593 55.2208 24.5977 64.1775 24.6783C76.8482 24.7888 90.7877 27.56 98.5114 37.6088C105.566 46.8244 105.459 59.4085 105.975 71.0131C106.58 84.5643 108.461 98.0283 111.594 111.226C114.389 123.001 118.282 134.749 125.363 144.562C132.445 154.374 142.336 161.739 152.881 167.583C169.866 176.995 189.762 182.777 208.828 179.005C216.608 177.467 224.609 173.902 228.493 166.982C230.643 163.151 231.312 158.663 231.509 154.273C232.808 125.584 215.912 98.7285 215.303 70.0276C215.136 62.2783 216.33 54.1228 220.997 47.9293C228.87 37.4774 244.684 35.8708 256.731 40.9594C264.165 44.0979 270.593 49.291 278.039 52.3997C285.485 55.5084 294.961 56.0818 300.854 50.5841C304.918 46.8035 306.396 41.0281 307.049 35.5065C307.562 31.1943 307.689 26.845 307.429 22.5103C307.181 18.3683 314.642 17.1141 315.761 21.1097C316.881 25.1053 309.856 27.9094 307.915 24.2423" stroke="#FDB300" stroke-width="3" stroke-miterlimit="10"/>
</svg>
