<svg width="48" height="48" viewBox="0 0 48 48" fill="none" xmlns="http://www.w3.org/2000/svg">
<path d="M23.5629 47.3914C36.5763 47.3914 47.1258 36.842 47.1258 23.8285C47.1258 10.8151 36.5763 0.265625 23.5629 0.265625C10.5495 0.265625 0 10.8151 0 23.8285C0 36.842 10.5495 47.3914 23.5629 47.3914Z" fill="#2D573D"/>
<path d="M26.907 18.4128C27.474 18.4045 28.0389 18.3962 28.6038 18.3838L29.1842 18.3714C30.4819 18.3455 31.6718 18.3195 33.0939 18.2584C33.1637 18.2557 33.2298 18.226 33.2782 18.1755C33.3265 18.125 33.3533 18.0578 33.353 17.9879V17.3442C33.3528 17.2727 33.3243 17.2042 33.2739 17.1536C33.2234 17.1029 33.155 17.0742 33.0835 17.0737L14.4668 17.0053C14.3777 17.005 14.2893 17.0224 14.2069 17.0565C14.1245 17.0907 14.0498 17.1408 13.9869 17.204C13.924 17.2673 13.8744 17.3424 13.8407 17.425C13.8071 17.5076 13.7902 17.596 13.791 17.6852V17.9195C13.7918 17.9887 13.8189 18.055 13.8668 18.1049C13.9148 18.1548 13.98 18.1845 14.0491 18.1879C16.5025 18.3061 18.9093 18.3807 21.3855 18.4128H26.907Z" fill="#F8F0D2"/>
<path d="M28.4818 34.0747L22.2887 34.1659C21.1921 34.1867 20.0965 34.2406 19.0351 34.2945C18.1644 34.338 17.273 34.3836 16.3816 34.4085L16.0707 34.4168L16.0645 35.6523C16.0642 35.6894 16.0714 35.7262 16.0856 35.7605C16.0998 35.7948 16.1208 35.8259 16.1473 35.8519C16.1738 35.878 16.2053 35.8984 16.2398 35.912C16.2744 35.9256 16.3113 35.9321 16.3485 35.9311L30.5828 35.5621C30.6441 35.5606 30.7046 35.5471 30.7607 35.5222C30.8168 35.4973 30.8674 35.4616 30.9097 35.4171C30.952 35.3726 30.985 35.3202 31.007 35.263C31.029 35.2057 31.0395 35.1446 31.0378 35.0833L31.0098 34.0385L28.4818 34.0747Z" fill="#F8F0D2"/>
<path d="M16.0723 31.3492V35.3502C16.0722 35.4257 16.0874 35.5004 16.1168 35.5699C16.1463 35.6395 16.1894 35.7024 16.2437 35.7549C16.2979 35.8074 16.3622 35.8485 16.4326 35.8756C16.5031 35.9028 16.5783 35.9155 16.6537 35.913L17.4747 35.8881V31.3492H16.0723Z" fill="#F8F0D2"/>
<path d="M16.0721 32.4862H22.8633V31.288H16.0721V32.4862Z" fill="#F8F0D2"/>
<path d="M22.8633 21.6674H13.8799C13.8543 21.6674 13.8298 21.6572 13.8117 21.6391C13.7936 21.6211 13.7835 21.5965 13.7835 21.571V20.2981H22.8633V21.6674Z" fill="#F8F0D2"/>
<path d="M24.5232 21.6891H32.8775C33.0778 21.6891 33.2402 21.5267 33.2402 21.3263V20.6826C33.2402 20.4823 33.0778 20.3199 32.8775 20.3199H24.5232C24.3229 20.3199 24.1604 20.4823 24.1604 20.6826V21.3263C24.1604 21.5267 24.3229 21.6891 24.5232 21.6891Z" fill="#F8F0D2"/>
<path d="M21.6387 20.3322V32.4811H22.8866V20.3322H21.6387Z" fill="#F8F0D2"/>
<path d="M24.1523 20.3186V31.8301H25.3754V20.3186H24.1523Z" fill="#F8F0D2"/>
<path d="M31.0274 31.3783V35.033C31.0273 35.0929 31.0152 35.1522 30.9918 35.2074C30.9684 35.2625 30.9342 35.3125 30.8912 35.3542C30.8482 35.3959 30.7973 35.4286 30.7415 35.4504C30.6857 35.4721 30.626 35.4825 30.5661 35.4808L29.625 35.4518V30.9098H30.5579C30.6196 30.9093 30.6808 30.921 30.738 30.9443C30.7951 30.9677 30.847 31.0021 30.8907 31.0457C30.9344 31.0893 30.969 31.1412 30.9925 31.1983C31.0159 31.2554 31.0278 31.3166 31.0274 31.3783Z" fill="#F8F0D2"/>
<path d="M13.791 17.3589V21.5816L15.1934 21.5391V17.0002H14.1476C14.1005 17.0001 14.0539 17.0093 14.0105 17.0273C13.967 17.0453 13.9276 17.0717 13.8944 17.1051C13.8612 17.1385 13.835 17.1781 13.8173 17.2216C13.7995 17.2652 13.7906 17.3118 13.791 17.3589Z" fill="#F8F0D2"/>
<path d="M33.3548 17.4825V21.3611C33.3521 21.4496 33.3151 21.5335 33.2517 21.5952C33.1882 21.6569 33.1033 21.6915 33.0148 21.6918H31.9316L31.9534 17.1115H32.9785C33.0775 17.1112 33.1726 17.15 33.243 17.2195C33.3135 17.289 33.3537 17.3835 33.3548 17.4825Z" fill="#F8F0D2"/>
<path d="M24.1484 30.9149H30.6297C30.7345 30.9149 30.8349 30.9565 30.909 31.0306C30.983 31.1046 31.0246 31.2051 31.0246 31.3098V32.1142H24.1495V30.9149H24.1484Z" fill="#F8F0D2"/>
<path d="M25.4248 13.8733L25.4134 12.1331L19.8184 12.2243L19.8287 13.9646L25.4248 13.8733Z" fill="#F8F1D6"/>
</svg>
