<svg width="48" height="48" viewBox="0 0 48 48" fill="none" xmlns="http://www.w3.org/2000/svg">
<path d="M24.2236 47.3915C37.2492 47.3915 47.8085 36.842 47.8085 23.8286C47.8085 10.8151 37.2492 0.265625 24.2236 0.265625C11.198 0.265625 0.638672 10.8151 0.638672 23.8286C0.638672 36.842 11.198 47.3915 24.2236 47.3915Z" fill="#2D573D"/>
<path d="M19.9239 36.3829C19.2882 36.3829 18.7054 35.9807 18.1863 35.1868C16.9996 33.3767 16.0566 31.3973 15.3998 29.3226C14.7746 29.9259 14.1177 30.4869 13.4185 30.995L12.5391 29.7989C13.3973 29.1744 14.2025 28.4546 14.9442 27.6818C14.7429 26.835 14.5839 25.9776 14.478 25.1096C14.3508 24.0617 14.2873 22.855 14.8594 21.807C15.2302 21.1296 15.8871 20.6109 16.6288 20.4204C17.2433 20.2616 17.8578 20.3357 18.3558 20.6426C19.8709 21.5741 19.5742 23.67 18.6525 25.2261C18.0591 26.2317 17.3704 27.1949 16.597 28.0841C17.2115 30.307 18.1757 32.4452 19.4471 34.3717C19.7755 34.8798 19.9557 34.901 19.9557 34.901C19.9874 34.901 20.0934 34.8375 20.3477 34.4353L35.6894 10.2797L36.9397 11.0736L21.5767 35.2291C21.3648 35.5573 20.9198 36.2559 20.1358 36.3618C20.0616 36.3724 19.9874 36.3829 19.9239 36.3829ZM17.2433 21.8176C17.1585 21.8176 17.0738 21.8282 16.9996 21.8494C16.6606 21.9446 16.3215 22.1987 16.152 22.5162C15.7812 23.1937 15.8342 24.0723 15.9401 24.9191C15.9931 25.3637 16.0672 25.8083 16.152 26.2528C16.5864 25.6812 16.9996 25.0885 17.3599 24.4639C17.8472 23.6383 18.2287 22.2939 17.5718 21.8917C17.4658 21.8388 17.3493 21.8176 17.2433 21.8176Z" fill="#F8F0D2"/>
</svg>
