<svg width="105" height="52" viewBox="0 0 105 52" fill="none" xmlns="http://www.w3.org/2000/svg">
<path d="M26.7607 10.0977C26.7607 4.57481 31.2379 0.0976562 36.7607 0.0976562H42.7607C48.2836 0.0976562 52.7607 4.57481 52.7607 10.0977V41.6719C52.7607 47.1947 48.2836 51.6719 42.7607 51.6719H36.7607C31.2379 51.6719 26.7607 47.1947 26.7607 41.6719V10.0977Z" fill="#F8F1D6"/>
<path d="M0.760742 10.0977C0.760742 4.57481 5.2379 0.0976562 10.7607 0.0976562H16.7607C22.2836 0.0976562 26.7607 4.57481 26.7607 10.0977V41.6719C26.7607 47.1947 22.2836 51.6719 16.7607 51.6719H10.7607C5.2379 51.6719 0.760742 47.1947 0.760742 41.6719V10.0977Z" fill="#F8F1D6"/>
<path d="M52.7607 10.0977C52.7607 4.57481 57.2379 0.0976562 62.7607 0.0976562H68.7607C74.2836 0.0976562 78.7607 4.57481 78.7607 10.0977V41.6719C78.7607 47.1947 74.2836 51.6719 68.7607 51.6719H62.7607C57.2379 51.6719 52.7607 47.1947 52.7607 41.6719V10.0977Z" fill="#F8F1D6"/>
<path d="M78.7607 10.0977C78.7607 4.57481 83.2379 0.0976562 88.7607 0.0976562H94.7607C100.284 0.0976562 104.761 4.57481 104.761 10.0977V41.6719C104.761 47.1947 100.284 51.6719 94.7607 51.6719H88.7607C83.2379 51.6719 78.7607 47.1947 78.7607 41.6719V10.0977Z" fill="#F8F1D6"/>
<path d="M76.584 25.8907C74.6899 25.8907 72.7451 25.7914 70.9547 25.0962C69.1644 24.4009 67.5586 23.3012 66.2625 21.8826C64.9664 20.464 64.015 18.7649 63.4824 16.9177C62.9499 15.0705 62.693 13.319 62.6931 11.2373" stroke="#2D573D" stroke-width="3" stroke-miterlimit="10"/>
<path d="M76.584 25.8818C74.6899 25.8818 72.7451 25.9811 70.9547 26.6763C69.1644 27.3715 67.5586 28.4713 66.2625 29.8899C64.9664 31.3085 64.015 33.0076 63.4824 34.8548C62.9499 36.702 62.693 38.4535 62.6931 40.5352" stroke="#2D573D" stroke-width="3" stroke-miterlimit="10"/>
<path d="M75.662 25.8832L28.938 25.8832" stroke="#2D573D" stroke-width="3" stroke-miterlimit="10"/>
</svg>
