<svg width="285" height="407" viewBox="0 0 285 407" fill="none" xmlns="http://www.w3.org/2000/svg">
<mask id="mask0_1_874" style="mask-type:alpha" maskUnits="userSpaceOnUse" x="0" y="0" width="285" height="407">
<rect x="0.838135" y="0.671875" width="283.923" height="406" fill="#F8F1D6"/>
</mask>
<g mask="url(#mask0_1_874)">
<path d="M325.839 -182.697L155.818 397.299" stroke="#FF0000" stroke-width="5" stroke-miterlimit="10"/>
<path d="M218.339 -224.086L28.5496 349.732" stroke="#FF0000" stroke-width="5" stroke-miterlimit="10"/>
<path d="M142.103 9.3183L249.848 67.392" stroke="#FF0000" stroke-width="5" stroke-miterlimit="10"/>
<path d="M114.179 90.3763L226.497 149.809" stroke="#FF0000" stroke-width="5" stroke-miterlimit="10"/>
<path d="M84.1514 177.243L204.623 230.003" stroke="#FF0000" stroke-width="5" stroke-miterlimit="10"/>
<path d="M59.5635 254.344L178.306 318.225" stroke="#FF0000" stroke-width="5" stroke-miterlimit="10"/>
<path d="M42.3902 188.982C36.8299 188.364 31.7639 192.936 30.1576 198.249C28.5513 203.562 29.9105 209.369 32.3817 214.312C34.8529 219.254 38.3127 223.703 41.1546 228.398C44.12 233.093 46.5912 238.406 46.5912 243.967C46.5912 248.291 45.2321 252.492 43.6258 256.446C38.9305 267.443 32.011 277.204 26.5743 287.707C23.856 292.897 21.5083 298.704 22.9911 304.388C24.7209 311.06 31.2697 315.385 37.5713 318.227C43.2551 320.698 49.3096 322.675 55.4877 322.799C61.6657 322.922 68.0909 320.822 72.4155 316.373C74.8868 313.902 76.6166 310.813 78.2229 307.724C86.8722 291.29 94.533 274.486 101.329 257.311C102.688 253.851 104.047 250.268 104.171 246.561C104.418 241.495 102.441 236.429 99.9697 231.981C88.4785 209.864 66.8553 191.577 42.3902 188.982Z" fill="#0054DC"/>
<path d="M89.4661 158.832C87.8598 165.381 89.219 172.671 93.2965 177.984C97.6212 183.545 104.541 186.51 111.336 188.611C121.098 191.576 131.353 193.182 141.609 193.306C146.675 193.429 152.853 193.677 155.077 198.248C156.683 201.584 155.077 205.538 153.471 208.998C150.135 215.918 146.799 222.837 143.215 229.633C141.362 233.093 139.508 236.676 139.261 240.63C138.891 246.314 142.35 251.874 147.169 255.086C151.865 258.299 157.795 259.535 163.479 259.658C171.881 259.905 180.284 258.176 187.944 254.592C191.157 253.11 194.246 251.256 196.47 248.538C198.324 246.314 199.559 243.595 200.671 240.877C203.76 233.463 206.479 226.05 208.826 218.389C213.522 203.438 216.858 187.128 211.668 172.424C207.096 159.203 196.099 148.947 183.62 142.893C171.017 136.838 156.931 134.614 143.092 133.873C134.442 133.502 125.793 133.626 117.515 136.097C110.472 138.198 98.3626 146.6 98.3626 146.6C98.1154 146.847 90.7018 153.396 89.4661 158.832Z" fill="#0054DC"/>
<path d="M40.4121 143.753C48.6907 118.176 57.9578 92.9698 68.0898 68.2576C69.6961 64.4272 71.3024 60.5968 73.7736 57.3842C77.8511 52.0711 83.7821 48.7349 89.5894 45.6459C112.695 33.2898 136.543 22.2929 160.39 11.2959C162.491 10.3074 165.085 9.44251 166.939 10.9252C169.534 13.0258 167.186 17.2269 164.838 19.5745C168.174 16.8562 172.252 15.2499 176.576 15.0028C178.059 14.8792 179.542 15.0028 180.778 15.8677C182.755 17.2269 183.249 20.0688 182.384 22.4164C181.643 24.6405 179.789 26.494 178.183 28.2238C180.654 26.1233 183.249 23.8991 186.461 23.4049C189.674 22.9106 193.504 24.6405 193.875 27.8531C194.246 30.9421 191.527 33.5369 188.933 35.3903C191.898 33.1662 195.111 30.8186 198.817 30.8186C202.524 30.8186 206.478 34.2783 205.366 37.8616C204.996 39.2207 204.007 40.2092 202.895 41.0742C200.3 43.4218 197.335 45.5224 194.246 47.2522C197.705 46.5109 201.907 45.893 204.501 48.3643C207.096 50.959 206.231 55.7779 203.513 58.3727C200.794 60.9675 196.964 61.8324 193.257 62.4502C188.562 63.1916 183.867 63.5623 179.171 63.6858C176.206 63.6858 173.24 63.6858 170.275 64.3036C167.433 65.045 164.838 66.4042 162.243 67.7634C149.517 74.6828 136.79 81.8493 124.187 89.1394C122.457 90.1279 120.727 91.1164 119.615 92.7227C118.626 93.9583 118.132 95.3175 117.638 96.8002C111.213 113.852 104.787 130.78 98.3623 147.831C97.3738 150.549 96.2618 153.391 93.9141 155.121C90.7015 157.592 86.1297 157.222 82.1758 156.48C67.5956 153.762 41.1535 140.912 40.4121 143.753Z" fill="#FF8567"/>
<path d="M93.7901 164.141C111.089 152.65 128.264 140.911 145.068 128.802C146.798 127.567 148.651 126.207 149.887 124.354C151.246 122.253 151.493 119.782 151.987 117.435C152.976 112.492 154.582 107.673 156.806 103.101C157.918 100.877 159.278 98.5297 161.502 97.6648C165.085 96.1821 169.286 99.024 170.522 102.607C171.757 106.191 170.645 110.268 169.162 113.728C172.004 111.874 174.105 108.909 176.7 106.685C179.294 104.461 183.125 102.978 186.09 104.584C188.562 105.943 189.674 109.28 189.056 111.998C188.438 114.84 186.585 117.187 184.484 119.164C186.585 116.323 189.303 113.851 192.639 112.863C195.975 111.874 200.053 112.739 202.03 115.581C204.007 118.423 203.018 123.118 199.682 124.23C202.771 120.771 207.466 117.435 211.544 119.412C215.498 121.265 215.498 127.937 211.667 129.791C214.757 127.567 219.081 125.343 222.047 127.69C223.9 129.049 224.394 131.768 223.9 133.992C223.406 136.216 221.923 138.193 220.564 140.046C212.903 149.808 203.636 158.21 194.369 166.488C181.642 177.98 168.915 189.471 156.065 200.838C147.292 208.623 138.519 216.284 128.758 222.709C119.491 228.763 108.988 233.829 97.9912 233.088C86.9943 232.346 76.7387 225.798 70.4371 216.654C66.6067 211.218 64.1355 204.545 65.0004 197.873C65.8653 191.942 69.4486 186.752 73.279 182.304C79.7042 174.643 87.4885 168.342 93.7901 164.141Z" fill="#FFA28B"/>
<path d="M64.0122 224.937L23.3606 200.719L23.2371 145.364L64.63 124.729L108.741 150.43L107.876 203.561L64.0122 224.937Z" fill="#FFABF6"/>
<path d="M65.7416 163.9L42.6356 151.544L42.0178 113.487L64.0117 100.019L86.8705 112.128L87.4883 150.803L65.7416 163.9Z" fill="#FFA28B"/>
<path d="M72.7847 137.331C72.0433 136.59 70.8077 136.59 69.8192 136.961C69.0779 137.208 68.5836 137.949 68.2129 138.567C67.2244 140.544 67.2244 142.891 67.7187 144.992C67.9658 146.228 68.4601 147.587 69.325 148.575C70.1899 149.564 71.6726 150.058 72.9083 149.44C74.2674 148.822 74.7617 147.093 75.0088 145.61C75.3795 142.891 75.1324 139.802 73.2789 137.825" fill="white"/>
<path d="M65.6223 335.439C71.059 330.002 74.148 322.465 74.148 314.804C74.148 307.143 71.0589 299.606 65.7458 294.046C62.1625 290.339 57.7143 287.744 53.019 285.644C49.1886 283.914 45.1111 282.555 40.91 282.678C33.6199 282.925 27.0712 287.621 22.0052 292.934C15.0857 300.1 9.64905 308.75 4.58304 317.399C2.35894 321.353 0.0112858 325.677 1.12334 330.126C1.98826 334.203 5.44797 337.045 8.78412 339.64C26.4534 353.849 44.2462 367.935 61.9154 382.145C65.0045 384.616 68.0935 387.087 71.5532 388.941C74.6422 390.547 78.1019 391.536 81.5616 391.659C90.7052 391.906 98.8602 385.234 103.803 377.573C106.397 373.496 108.374 368.8 108.745 363.981C109.116 359.163 107.509 353.973 104.05 350.637C100.467 347.301 94.9063 346.065 90.5816 348.289C89.0989 349.031 87.6161 350.266 85.8863 350.266C84.6507 350.266 83.5386 349.525 82.5501 348.907C77.8548 346.065 73.2831 343.223 68.7113 340.381C67.5992 339.764 66.4872 339.022 65.8694 337.91C65.128 336.674 65.2516 335.068 65.6223 335.439Z" fill="#FF5C01"/>
<path d="M188.067 266.941C190.538 260.021 195.481 253.349 194.245 246.182C193.751 243.588 192.639 241.24 191.156 239.016C184.484 228.513 172.375 221.223 159.895 221.964C156.683 222.212 153.47 222.953 150.505 224.436C146.798 226.413 143.832 229.502 141.361 232.961C138.89 236.421 136.913 240.251 134.936 244.082C132.341 249.395 129.746 254.708 127.275 260.021C126.41 261.875 125.545 263.852 125.545 265.952C125.545 270.524 129.623 273.86 133.453 276.578C146.551 285.969 159.648 295.236 172.746 304.627C176.576 307.345 180.53 310.187 184.855 312.041C189.179 313.894 194.122 314.882 198.817 313.894C206.107 312.288 211.667 305.862 213.026 298.572C214.386 291.282 211.667 283.621 206.725 278.061C201.782 272.625 194.616 269.288 187.449 267.435C187.573 267.188 187.573 266.941 188.067 266.941Z" fill="#FF5C01"/>
<path d="M86.8705 116.08L65.1238 125.471L42.0178 116.698L42.1414 126.583L65.2473 135.355L87.1176 125.965L86.8705 116.08Z" fill="#FF0000"/>
<path d="M42.1421 120.404V123.617L65.248 132.266L87.1184 122.875L86.9948 119.91L65.248 129.053L42.1421 120.404Z" fill="white"/>
</g>
</svg>
