<svg width="325" height="451" viewBox="0 0 325 451" fill="none" xmlns="http://www.w3.org/2000/svg">
<path d="M132.571 245.491C118.653 239.043 104.53 232.494 92.5562 222.669C86.7229 217.961 81.0942 211.002 82.9363 203.736C83.9597 199.54 87.2346 196.368 89.3837 192.684C91.6352 188.999 92.5562 183.678 89.3837 180.812C86.6205 178.254 81.9129 179.072 79.0474 181.529C76.1819 183.985 74.7492 187.669 73.3164 191.251C74.9538 186.032 75.2609 180.505 74.2375 175.081C73.8281 172.727 73.0094 170.374 71.372 168.736C69.6322 167.099 66.6644 166.587 64.9246 168.122C64.2082 168.839 63.6965 169.76 63.3895 170.681C61.5474 175.286 61.2404 180.403 62.4684 185.213C61.445 180.608 61.7521 175.798 60.6263 171.192C59.5006 166.587 56.4304 161.879 51.8251 161.163C50.6994 160.958 49.5737 161.061 48.5503 161.572C46.5035 162.698 45.9918 165.359 45.8894 167.61C45.5824 173.137 46.5035 178.663 48.4479 183.78C48.2433 179.379 47.2199 174.979 45.4801 170.885C44.3544 168.224 42.6146 165.461 39.7491 164.95C35.5532 164.131 32.2783 168.838 31.8689 173.137C31.4596 177.742 32.8923 182.347 34.4274 186.646C32.6877 181.324 29.8222 176.412 26.0356 172.42C24.7052 170.988 23.1701 169.657 21.328 169.146C19.4859 168.634 17.1321 169.146 16.1087 170.783C15.4946 171.806 15.3923 173.034 15.3923 174.16C15.29 184.701 19.8952 194.73 24.9099 204.146C35.2461 223.488 48.2433 242.114 66.255 254.599C79.1498 263.502 94.0913 268.824 108.931 273.941C116.606 276.602 124.998 279.16 132.673 276.5C139.53 274.043 144.749 267.084 144.34 259.716C143.828 252.347 137.074 247.538 132.571 245.491Z" fill="#FF8567"/>
<path d="M205.232 244.977C218.946 238.631 232.864 232.184 244.531 222.564C250.262 217.857 255.788 211.102 254.048 203.938C253.025 199.845 249.852 196.672 247.703 193.09C245.554 189.509 244.531 184.289 247.703 181.424C250.466 178.865 255.072 179.684 257.835 182.14C260.7 184.596 262.133 188.178 263.464 191.658C261.928 186.541 261.621 181.014 262.543 175.795C262.952 173.544 263.668 171.19 265.408 169.552C267.148 167.915 270.013 167.403 271.753 169.041C272.469 169.655 272.981 170.678 273.288 171.599C275.028 176.102 275.437 181.219 274.209 185.824C275.233 181.321 274.926 176.511 275.949 172.008C276.972 167.506 280.043 162.9 284.648 162.184C285.774 161.979 286.899 162.082 287.82 162.593C289.765 163.719 290.379 166.277 290.481 168.529C290.788 173.953 289.867 179.377 287.923 184.392C288.127 179.991 289.151 175.693 290.891 171.701C292.016 169.143 293.756 166.38 296.519 165.868C300.613 165.049 303.888 169.757 304.297 173.851C304.706 178.354 303.274 182.856 301.841 187.155C303.478 181.935 306.344 177.125 310.13 173.237C311.461 171.804 312.996 170.576 314.838 169.962C316.68 169.45 318.932 169.962 319.955 171.599C320.569 172.623 320.671 173.748 320.671 174.976C320.774 185.415 316.271 195.24 311.358 204.45C301.124 223.485 288.434 241.804 270.73 253.982C258.04 262.681 243.405 268.003 228.77 273.017C221.197 275.576 212.908 278.134 205.437 275.474C198.683 273.12 193.566 266.161 193.975 258.997C194.18 251.731 200.832 247.023 205.232 244.977Z" fill="#FF8567"/>
<path d="M68.7417 440.387C52.0206 399.778 35.1085 358.883 26.7002 315.886" stroke="#007C00" stroke-width="5" stroke-miterlimit="10" stroke-linecap="round"/>
<path d="M46.3828 448.031C51.5424 429.112 56.7976 410.194 61.9573 391.179C68.5501 367.197 75.143 343.118 81.7359 319.136" stroke="#007C00" stroke-width="5" stroke-miterlimit="10" stroke-linecap="round"/>
<path d="M108.203 417.932C94.9218 389.076 79.634 361.08 62.5308 334.422" stroke="#007C00" stroke-width="5" stroke-miterlimit="10" stroke-linecap="round"/>
<path d="M298.727 437.235C300.256 396.914 299.874 356.592 297.676 316.366" stroke="#007C00" stroke-width="5" stroke-miterlimit="10" stroke-linecap="round"/>
<path d="M322.042 433.125C301.117 399.874 281.147 366.05 262.133 331.653" stroke="#007C00" stroke-width="5" stroke-miterlimit="10" stroke-linecap="round"/>
<path d="M120.814 398.347C119.667 402.265 121.865 407.52 118.521 409.909C117.47 410.673 116.036 410.864 114.699 410.96C111.163 411.151 107.724 410.864 104.188 410.482C100.94 410.195 97.3088 409.622 95.4934 406.947C94.4424 405.418 94.1557 403.411 93.0091 401.882C90.3338 398.443 84.3142 400.163 82.2121 403.985C80.0145 407.711 80.4922 412.393 81.0655 416.693C81.8299 422.712 82.7854 429.114 86.9896 433.414C89.7605 436.28 93.5824 437.713 97.4044 438.764C108.584 441.726 120.336 441.249 131.802 440.675C135.815 440.484 139.828 440.293 143.841 440.102C148.332 439.911 153.014 439.624 157.218 438.095C161.518 436.567 165.435 433.414 166.677 429.018C165.244 431.885 167.059 435.42 169.735 437.14C172.41 438.86 175.659 439.146 178.812 439.433C195.724 440.866 212.732 442.3 229.548 439.72C236.237 438.669 243.594 436.471 246.938 430.547C248.18 428.349 248.754 425.77 249.136 423.285C249.805 418.795 249.996 414.113 249.709 409.622C249.614 407.711 249.327 405.8 248.563 404.08C247.129 401.214 243.881 399.303 240.632 399.589C237.383 399.78 234.421 402.169 233.466 405.227C232.893 406.947 232.701 409.24 231.077 410.004C230.217 410.482 229.262 410.386 228.306 410.291C224.962 410.004 221.618 409.717 218.274 409.431C215.216 409.144 212.158 408.953 209.483 407.52C203.081 404.271 201.17 396.15 196.106 391.085C191.138 386.117 183.78 384.588 176.805 384.588C169.83 384.588 162.855 386.021 155.88 385.926C148.81 385.83 141.739 384.301 134.86 385.544C128.076 386.881 122.629 392.328 120.814 398.347Z" fill="#FDB300"/>
<path d="M208.624 287.984C209.771 302.412 208.146 322.669 208.529 337.097C209.197 360.315 209.006 383.533 208.72 406.752C207.86 408.089 206.235 409.427 204.42 410.382C202.796 411.242 201.076 411.72 199.26 412.293C193.719 413.918 188.177 415.542 182.444 415.447C176.711 415.351 170.787 413.249 167.347 408.663C165.245 412.771 161.519 414.778 157.697 415.638C153.875 416.402 149.862 416.211 145.944 415.829C140.785 415.351 135.529 414.682 130.656 412.771C125.783 410.86 121.388 407.516 118.999 402.834C120.242 367.959 119.764 326.3 118.044 291.52C133.714 297.348 149.384 310.63 164.098 319.133C176.329 308.145 192.954 293.908 208.624 287.984Z" fill="#0054DC"/>
<mask id="mask0_1_566" style="mask-type:alpha" maskUnits="userSpaceOnUse" x="118" y="287" width="92" height="130">
<path d="M208.624 287.983C209.77 302.411 208.146 322.668 208.528 337.095C209.197 360.314 209.006 383.532 208.719 406.751C207.859 408.088 206.235 409.426 204.42 410.381C202.795 411.241 201.075 411.719 199.26 412.292C193.718 413.917 188.176 415.541 182.443 415.445C176.71 415.35 170.786 413.248 167.347 408.661C165.245 412.77 161.518 414.777 157.696 415.637C153.874 416.401 149.861 416.21 145.944 415.828C140.784 415.35 135.529 414.681 130.656 412.77C125.783 410.859 121.388 407.515 118.999 402.833C120.241 367.958 119.763 326.298 118.043 291.519C133.713 297.347 149.383 310.628 164.098 319.132C176.328 308.144 192.954 293.907 208.624 287.983Z" fill="#0054DC"/>
</mask>
<g mask="url(#mask0_1_566)">
<path d="M228.307 300.219C217.032 294.582 203.655 299.359 191.616 303.181C174.608 308.627 157.027 311.972 140.211 317.991C123.49 324.011 107.151 333.279 96.7359 347.802C93.7739 352.007 91.3852 358.122 94.9205 361.944C96.2582 363.281 98.0736 364.046 99.8891 364.523C106.96 366.339 114.508 365.383 121.674 363.95C134.669 361.275 147.377 357.071 159.798 352.484C182.348 344.172 205.184 334.043 220.758 315.698C221.809 314.456 222.765 312.736 221.809 311.494C221.427 310.921 220.663 310.73 219.994 310.538C215.885 309.678 211.777 311.685 208.05 313.692C200.98 317.609 194.005 321.622 187.03 325.731C164.958 338.63 142.886 351.529 122.247 366.626C116.61 370.734 111.068 375.129 106.577 380.48C104.858 382.582 103.233 385.353 104.284 387.933C105.335 390.513 108.68 391.277 111.45 391.659C130.369 393.953 149.766 393.284 168.015 387.933C186.265 382.582 203.368 372.358 215.312 357.548C216.65 355.829 218.083 353.918 218.083 351.72C212.732 351.529 207.477 352.484 202.413 354.204C193.909 357.071 186.361 362.135 179.099 367.294C167.633 375.416 156.549 384.111 145.561 392.806C134.669 401.31 123.681 410.005 115.368 421.088" stroke="white" stroke-width="4" stroke-miterlimit="10"/>
</g>
<path d="M111.737 294.963L163.981 318.735L163.142 246.711L111.642 223.397L111.737 294.963Z" fill="#FF0000"/>
<path d="M162.953 247.189C163.526 271.076 163.873 294.843 163.969 318.73L212.256 288.179L213.116 215.371L162.953 247.189Z" fill="#FFABF6"/>
<path d="M166.583 188.615L111.547 223.777L163.048 247.474L213.402 215.274L166.583 188.615Z" fill="#FF0000"/>
<path d="M157.6 245.561C162.951 249.86 164.575 257.122 164.957 263.906C165.244 270.308 164.671 276.901 162.377 282.92C160.084 288.94 156.071 294.482 150.434 297.73C148.809 298.686 147.09 299.45 145.274 299.737C143.268 300.119 141.261 300.023 139.255 299.737C133.044 298.972 126.547 296.584 123.011 291.424C120.814 288.271 120.145 283.589 122.916 280.914C124.54 279.385 126.929 278.907 128.649 277.378C130.655 275.563 131.324 272.696 131.611 270.021C131.897 267.346 131.897 264.575 133.139 262.091C134.286 259.893 136.293 258.269 138.204 256.835C144.414 252.44 150.911 248.523 157.6 245.561Z" fill="#007C00"/>
<path d="M170.69 247.374C168.397 253.584 167.728 260.273 167.346 266.961C166.773 276.516 167.155 286.931 172.888 294.575C176.423 299.257 181.774 302.505 187.507 303.461C191.138 304.034 195.055 303.748 198.304 302.028C201.553 300.308 204.132 297.155 204.61 293.428C204.992 289.989 203.559 286.549 201.266 284.064C198.973 281.58 195.82 279.86 192.571 278.714C190.851 278.14 188.845 277.567 187.698 276.038C186.265 274.127 186.742 271.356 187.698 269.063C188.653 266.866 190.182 264.764 190.564 262.375C191.329 257.98 188.271 253.871 184.927 250.909C182.921 249.094 180.627 247.469 177.952 246.705C175.372 246.132 172.315 246.418 170.69 247.374Z" fill="#007C00"/>
<path d="M126.451 198.266C123.489 200.463 120.623 202.661 117.661 204.859C114.985 206.865 112.214 208.967 109.921 211.451C106.672 215.082 104.475 219.477 102.277 223.777C101.131 226.07 99.984 228.364 99.6018 230.848C99.1241 233.619 99.6018 236.39 100.175 239.161C101.513 245.562 103.519 251.869 107.055 257.315C109.921 261.806 113.647 265.532 117.469 269.258C118.903 270.596 120.336 272.029 121.96 273.08C125.496 275.374 129.891 276.138 134.095 275.851C138.299 275.469 142.408 274.131 146.23 272.411C150.529 270.501 154.638 268.207 158.078 264.959C161.422 261.71 164.097 257.506 164.766 252.92C165.053 251.2 165.053 249.384 164.384 247.76C163.333 245.18 160.849 243.46 158.555 241.836C155.211 239.447 151.867 236.485 150.72 232.568C149.669 228.841 150.625 224.924 151.294 221.197C152.154 217.089 152.631 212.789 151.389 208.776C150.434 205.623 148.332 202.852 145.847 200.559C143.363 198.266 140.401 196.355 137.152 195.495C133.808 194.73 130.177 195.113 127.407 197.024C125.496 198.266 124.062 200.081 126.451 198.266Z" fill="#0054DC"/>
<path d="M193.335 194.727C198.017 196.352 202.221 198.932 206.139 201.894C214.929 208.391 222.955 217.086 224.771 227.883C225.822 233.998 224.675 240.304 223.624 246.515C222.955 250.146 222.286 253.872 221.14 257.312C218.847 263.809 214.642 269.542 209.387 274.033C206.999 276.039 204.419 277.759 201.552 278.715C194.768 280.912 187.22 278.428 181.2 274.606C179.289 273.46 177.474 272.122 176.041 270.402C174.703 268.778 173.652 266.867 172.792 264.956C171.263 261.612 170.117 258.172 169.352 254.637C168.779 252.152 168.397 249.572 168.97 247.184C169.83 243.171 172.983 240.113 175.563 236.96C177.856 234.189 179.958 231.323 181.774 228.17C182.251 227.31 182.729 226.45 182.634 225.494C182.538 223.965 181.296 222.914 180.149 221.863C176.71 218.901 173.748 215.079 173.079 210.589C172.314 205.429 174.894 200.078 179.194 197.212C183.494 194.345 189.322 193.294 193.335 194.727Z" fill="#0054DC"/>
<mask id="mask1_1_566" style="mask-type:alpha" maskUnits="userSpaceOnUse" x="99" y="194" width="127" height="86">
<path d="M126.452 198.265C123.49 200.462 120.624 202.66 117.662 204.858C114.986 206.864 112.215 208.966 109.922 211.45C106.673 215.081 104.476 219.477 102.278 223.776C101.132 226.069 99.985 228.363 99.6028 230.847C99.125 233.618 99.6028 236.389 100.176 239.16C101.514 245.561 103.52 251.868 107.056 257.314C109.922 261.805 113.648 265.531 117.47 269.257C118.904 270.595 120.337 272.028 121.961 273.079C125.497 275.373 129.892 276.137 134.096 275.85C138.3 275.468 142.409 274.13 146.231 272.411C150.53 270.5 154.639 268.206 158.079 264.958C161.423 261.709 164.098 257.505 164.767 252.919C165.054 251.199 165.054 249.383 164.385 247.759C163.334 245.179 160.85 243.459 158.556 241.835C155.212 239.446 151.868 236.484 150.721 232.567C149.67 228.84 150.626 224.923 151.295 221.196C152.155 217.088 152.632 212.788 151.39 208.775C150.435 205.622 148.333 202.851 145.848 200.558C143.364 198.265 140.402 196.354 137.153 195.494C133.809 194.729 130.178 195.112 127.407 197.023C125.497 198.265 124.063 200.08 126.452 198.265Z" fill="#0054DC"/>
<path d="M193.336 194.727C198.018 196.351 202.222 198.931 206.14 201.893C214.93 208.39 222.956 217.085 224.772 227.882C225.823 233.997 224.676 240.303 223.625 246.514C222.956 250.145 222.287 253.871 221.141 257.311C218.848 263.808 214.643 269.541 209.388 274.032C207 276.039 204.42 277.758 201.553 278.714C194.769 280.912 187.221 278.427 181.201 274.605C179.29 273.459 177.475 272.121 176.042 270.401C174.704 268.777 173.653 266.866 172.793 264.955C171.264 261.611 170.118 258.171 169.353 254.636C168.78 252.151 168.398 249.572 168.971 247.183C169.831 243.17 172.984 240.112 175.564 236.959C177.857 234.188 179.959 231.322 181.775 228.169C182.252 227.309 182.73 226.449 182.635 225.493C182.539 223.965 181.297 222.913 180.15 221.862C176.711 218.9 173.749 215.078 173.08 210.588C172.315 205.428 174.895 200.077 179.195 197.211C183.495 194.344 189.323 193.293 193.336 194.727Z" fill="#0054DC"/>
</mask>
<g mask="url(#mask1_1_566)">
<path d="M126.739 264.671C127.694 261.996 126.739 259.034 125.114 256.836C123.394 254.638 121.006 253.11 118.521 251.772C117.184 251.008 115.655 250.339 114.222 250.721C112.884 251.008 111.929 252.154 111.26 253.301C110.113 255.498 109.922 258.174 110.782 260.562C111.355 262.282 112.502 263.715 113.648 265.149C115.368 267.251 117.088 269.353 118.904 271.359C120.432 273.079 122.057 274.799 124.159 275.755C126.834 276.997 130.178 276.71 132.663 274.99C133.809 274.226 134.765 273.079 135.051 271.742C135.242 270.691 134.86 269.64 134.574 268.588C132.472 262.664 128.459 257.409 123.394 253.683C120.91 251.867 117.757 250.339 114.795 251.008" fill="#FFABF6"/>
<path d="M112.502 214.889C110.304 212.213 106.1 212.5 102.947 213.838C98.3607 215.749 94.5387 219.475 93.1055 224.252C91.6723 228.934 93.0099 234.572 96.8319 237.725C98.934 239.445 101.514 240.305 104.094 241.069C107.056 241.833 110.113 242.502 113.171 242.025C116.228 241.642 119.19 240.018 120.719 237.343C122.726 233.712 121.483 229.221 120.241 225.208C119.19 222.055 118.044 218.711 115.464 216.609C113.935 215.366 112.12 214.698 112.502 214.889Z" fill="#FFABF6"/>
<path d="M145.275 219.955C143.651 219.095 142.218 217.853 140.498 217.567C137.058 216.898 134.001 220.146 132.663 223.395C130.943 227.79 130.943 232.854 132.663 237.25C134.478 241.645 138.014 245.276 142.313 247.187C145.275 248.429 148.62 249.002 151.677 248.047C154.735 247.187 157.506 244.798 158.366 241.74C159.226 238.683 157.983 234.956 155.212 233.428C154.353 232.95 153.397 232.663 152.537 232.185C150.722 231.23 149.384 229.606 148.333 227.79C146.709 224.828 145.562 221.675 145.275 219.955Z" fill="#FFABF6"/>
<path d="M164.003 256.166C163.239 255.019 162.188 253.777 160.755 253.873C160.277 253.873 159.895 254.064 159.513 254.351C155.882 256.357 153.397 260.37 153.397 264.574C153.397 265.912 153.684 267.25 154.449 268.396C155.786 270.212 158.462 270.785 160.564 269.925C162.666 269.161 164.194 267.154 164.959 265.052C166.297 261.517 165.054 257.599 164.003 256.166Z" fill="#FFABF6"/>
<path d="M213.88 202.087C211.873 202.087 209.771 202.278 208.242 203.616C207.478 204.284 207.096 205.144 206.713 206.1C205.949 207.915 205.662 209.922 205.471 211.833C205.28 214.221 205.376 216.801 206.427 218.999C208.433 223.012 213.688 224.732 217.893 223.203C221.428 221.961 224.199 218.617 224.677 214.89C225.25 211.164 223.626 207.151 220.568 204.953C218.466 203.233 215.599 202.564 213.88 202.087Z" fill="#FFABF6"/>
<path d="M229.359 241.647C227.639 238.112 223.149 236.487 219.231 237.347C215.409 238.207 212.16 240.978 209.772 244.036C207.001 247.571 204.803 251.775 204.039 256.17C203.274 260.566 203.943 265.439 206.332 269.261C207.67 271.458 209.676 273.369 212.16 273.847C214.645 274.325 217.129 273.274 219.422 272.127C222.48 270.598 225.537 268.687 227.639 265.916C230.41 262.094 230.888 257.03 231.175 252.253C231.366 248.431 230.697 244.513 229.359 241.647Z" fill="#FFABF6"/>
<path d="M183.114 277.856C184.642 272.505 184.26 266.676 181.872 261.612C181.203 260.179 180.343 258.746 179.101 257.695C177.858 256.644 176.234 256.07 174.61 256.357C172.126 256.835 170.501 259.224 169.737 261.612C168.304 265.816 168.686 270.976 171.648 274.32C173.559 276.518 176.33 277.856 179.101 279.002C179.961 279.384 181.012 279.767 181.872 279.48C182.827 279.098 183.4 278.047 183.591 277.091C183.687 276.04 183.782 274.989 183.114 277.856Z" fill="#FFABF6"/>
<path d="M186.745 203.709C190.949 206.289 193.624 210.971 194.293 215.844C195.058 220.717 194.102 225.685 192.287 230.272C192 230.941 191.713 231.609 191.14 232.087C189.707 233.138 187.7 232.087 185.98 232.565C183.974 233.043 182.923 235.24 181.967 237.056C180.916 238.871 178.814 240.687 176.999 239.636C176.043 239.158 175.566 237.916 175.279 236.865C174.706 233.807 175.47 230.749 176.426 227.787C177.477 224.252 178.719 220.812 179.865 217.277C181.012 213.933 182.159 210.493 183.401 207.053C183.687 206.098 184.07 205.142 184.834 204.474C185.598 203.805 186.84 203.614 186.745 203.709Z" fill="#FFABF6"/>
</g>
<path d="M182.529 181.81C201.873 177.414 221.218 173.017 240.232 167.302C258.917 161.586 277.272 154.552 295.518 147.518C297.826 146.638 300.134 145.649 301.893 143.891C303.871 141.802 304.641 138.945 304.86 136.087C305.41 130.372 303.871 123.997 299.035 120.919C295.078 118.391 289.912 118.831 285.296 119.6C277.382 120.919 269.579 123.227 262.105 126.195C263.424 123.117 264.193 119.82 264.413 116.413C264.523 114.434 264.523 112.346 263.643 110.587C262.764 108.829 260.786 107.51 258.807 107.84C257.049 108.169 255.84 109.708 254.741 111.137C251.443 115.533 248.146 119.82 244.739 124.216C242.98 126.525 241.221 128.833 238.694 130.152C236.825 131.141 234.627 131.471 232.429 131.8C219.239 134.109 206.27 137.955 193.63 142.352C186.376 144.88 179.121 147.628 173.516 152.793C167.91 157.959 164.503 166.203 166.921 173.347C167.691 175.435 168.9 177.524 170.658 178.952C174.395 182.25 180.111 182.25 182.529 181.81Z" fill="#FF8567"/>
<path d="M146.556 181.812C127.212 177.415 107.867 173.019 88.8526 167.303C70.1676 161.588 51.8123 154.554 33.567 147.519C31.2589 146.64 28.9507 145.651 27.1921 143.892C25.2137 141.804 24.4443 138.946 24.2245 136.088C23.675 130.373 25.2137 123.998 30.0498 120.921C34.0066 118.393 39.1725 118.832 43.7888 119.602C51.7024 120.921 59.5062 123.229 66.9802 126.196C65.6612 123.119 64.8918 119.822 64.672 116.414C64.5621 114.436 64.5621 112.348 65.4414 110.589C66.3207 108.83 68.2991 107.511 70.2775 107.841C72.0361 108.171 73.2451 109.71 74.3442 111.138C77.6416 115.535 80.9389 119.822 84.3462 124.218C86.1048 126.526 87.8634 128.834 90.3913 130.153C92.2598 131.142 94.4581 131.472 96.6563 131.802C109.846 134.11 122.815 137.957 135.455 142.353C142.709 144.881 149.963 147.629 155.569 152.795C161.174 157.961 164.582 166.204 162.164 173.348C161.394 175.437 160.185 177.525 158.427 178.954C154.69 182.251 148.974 182.251 146.556 181.812Z" fill="#FF8567"/>
<path d="M116.42 211.258L161.328 231.801L160.659 169.599L116.229 149.629L116.42 211.258Z" fill="#007C00"/>
<path d="M160.562 170.076C161.039 190.619 161.421 211.258 161.517 231.801L203.081 205.429L203.845 142.654L160.562 170.076Z" fill="#FDB300"/>
<path d="M163.715 119.531L116.227 149.915L160.657 170.267L204.132 142.558L163.715 119.531Z" fill="#FDB300"/>
<path d="M187.411 167.402C185.309 165.3 182.252 164.344 179.29 164.153C176.328 163.962 173.366 164.44 170.499 164.918C169.066 165.204 167.633 165.395 166.486 166.351C165.053 167.497 164.575 169.504 164.48 171.319C164.384 172.466 164.384 173.612 164.862 174.664C165.34 175.81 166.391 176.67 167.442 177.434C174.512 182.594 183.398 185.365 192.189 185.174C193.813 185.174 195.533 184.983 196.775 184.027C198.399 182.785 198.877 180.396 198.304 178.39C197.731 176.383 196.393 174.759 194.96 173.23C192.093 170.459 188.462 168.453 187.411 167.402Z" fill="#FFABF6"/>
<path d="M144.701 166.639C142.025 166.544 139.446 167.977 137.535 169.888C135.624 171.799 134.382 174.188 133.235 176.672C131.897 179.634 130.751 183.456 132.948 185.845C134.382 187.373 136.675 187.66 138.777 187.755C144.51 188.042 150.434 187.469 155.498 184.698C160.562 182.023 164.575 176.863 164.671 171.13C164.671 169.888 164.575 168.646 164.002 167.499C162.76 164.919 159.702 163.677 156.931 163.104C154.351 162.531 151.676 162.244 149.192 163.104C145.465 164.155 142.694 167.69 144.701 166.639Z" fill="#FFABF6"/>
<path d="M163.239 237.248L189.897 223.106L189.802 180.396L163.144 165.682L135.912 180.014L162.475 193.677L163.239 237.248Z" fill="#FFA28B"/>
<path d="M163.526 237.346V193.776L135.912 180.017L136.485 223.109L163.526 237.346Z" fill="#FF8567"/>
<path d="M183.303 205.915C183.303 208.017 182.348 210.119 180.819 211.457C179.195 212.795 176.901 213.272 174.895 212.699C172.888 212.126 171.264 210.31 170.882 208.304C170.977 210.119 171.168 211.935 171.646 213.75C172.124 215.47 173.175 217.19 174.608 218.241C176.137 219.292 178.239 219.578 179.768 218.719C180.914 218.05 181.679 216.903 182.157 215.757C183.59 212.603 183.685 209.164 183.303 205.915Z" fill="white"/>
<path d="M184.26 122.308C190.566 127.659 196.203 133.678 200.981 140.367C202.319 142.278 203.656 144.475 203.465 146.769C203.274 148.871 201.841 150.591 200.408 152.119C194.961 158.234 189.228 164.063 183.4 169.891C179.673 171.42 175.66 172.089 171.743 171.802C168.303 171.611 164.577 170.656 162.475 167.789C160.182 164.827 160.468 160.528 161.901 157.088C163.335 153.648 165.723 150.591 167.539 147.342C169.354 144.093 170.692 140.271 169.736 136.64C168.781 132.914 165.532 130.048 164.672 126.321C163.43 121.161 167.825 115.429 173.081 115.333C178.24 115.333 181.68 120.206 184.26 122.308Z" fill="#FF0000"/>
<path d="M140.211 123.263C133.905 128.614 128.268 134.634 123.49 141.322C122.153 143.233 120.815 145.431 121.006 147.724C121.197 149.826 122.63 151.546 124.064 153.075C129.51 159.19 135.243 165.018 141.071 170.847C144.798 172.376 148.811 173.044 152.728 172.758C156.168 172.567 159.894 171.611 161.997 168.745C164.29 165.783 164.003 161.483 162.57 158.043C161.137 154.603 158.748 151.546 156.932 148.297C155.117 145.049 153.779 141.227 154.735 137.596C155.69 133.869 158.939 131.003 159.799 127.277C161.041 122.117 156.646 116.384 151.391 116.288C146.231 116.288 142.791 121.161 140.211 123.263Z" fill="#FF0000"/>
<path d="M148.761 117.92C138.918 122.784 128.612 126.836 117.959 129.731C115.99 130.31 113.79 130.773 111.822 130.31C108.001 129.384 105.916 125.215 104.411 121.51C96.0735 101.13 87.9678 80.5179 82.4095 59.0955C81.3674 55.1585 80.441 50.7582 82.0622 47.0527C82.9885 44.8526 85.1887 42.8841 87.5046 43.2314C89.5889 43.5788 90.9785 45.5474 91.9048 47.5159C93.9892 51.6846 95.4945 56.2006 96.3051 60.8325C94.9155 56.8954 93.9892 52.8425 93.7576 48.6739C93.6418 47.2843 93.6418 45.8948 94.4524 44.7368C95.8419 42.8841 98.9684 43.3472 100.59 44.9684C102.211 46.7053 102.674 49.1371 103.137 51.3372C103.716 54.4637 104.295 57.5902 104.874 60.6009C104.411 57.127 104.063 53.5373 103.6 50.0634C103.369 47.7475 103.484 44.621 105.8 43.9262C107.074 43.5788 108.58 44.3894 109.274 45.4316C110.085 46.5895 110.316 47.9791 110.548 49.2528C111.243 54.1163 111.474 59.0955 111.011 64.0748C110.664 60.0219 110.432 55.2743 113.327 52.3794C114.948 50.6424 118.306 50.0634 119.464 52.1478C119.812 52.8425 119.928 53.6531 119.928 54.4637C120.043 59.5587 118.885 64.7696 116.454 69.2856C117.264 67.0855 118.191 64.8854 119.812 63.38C121.549 61.8747 124.212 61.1799 126.065 62.5694C128.265 64.1906 128.033 67.6645 127.107 70.3278C126.065 73.3385 124.559 76.1176 122.591 78.6651C122.243 79.1283 121.896 79.5915 121.78 80.1705C121.78 80.7495 122.012 81.2126 122.243 81.6758L128.844 95.224C133.013 93.8344 137.181 92.3291 141.35 90.9395C142.392 90.5921 143.55 90.1289 144.708 90.2447C147.255 90.4763 148.877 92.9081 150.15 95.1082C152.466 99.3926 154.435 104.14 153.972 109.004C153.624 113.867 150.266 118.731 148.761 117.92Z" fill="#FF8567"/>
<path d="M182.052 88.8614C191.779 93.0301 203.359 93.1459 213.086 89.093C217.023 87.4718 221.076 84.4611 221.192 80.2925C221.192 78.9029 220.844 77.5134 220.497 76.1238C219.918 73.6921 219.686 71.0288 219.802 68.4812C219.802 66.9759 220.149 65.1232 221.423 64.4284C222.697 63.7336 224.434 64.3126 225.476 65.239C226.634 66.1653 227.445 67.4391 228.487 68.4812C228.834 68.7128 229.182 69.0602 229.529 69.0602C230.34 69.0602 230.803 68.1339 230.919 67.3233C231.613 64.7758 232.308 62.2282 233.003 59.6807C233.466 57.828 234.045 55.9752 235.203 54.5857C236.361 53.1961 238.445 52.2698 240.182 52.9645C241.803 53.6593 242.614 55.3963 242.961 57.0174C243.772 60.4913 243.309 64.1968 241.688 67.4391C244.003 65.0074 246.435 62.4598 249.33 60.7229C250.835 59.7965 252.572 59.1017 254.309 59.6807C256.509 60.3755 257.667 62.923 257.32 65.239C256.973 67.5549 255.467 69.4076 253.846 71.0288C252.225 72.6499 250.372 74.0395 248.983 75.8922C251.299 74.3869 253.73 72.7657 256.509 72.8815C259.289 72.8815 262.068 75.429 261.373 78.0923C261.141 78.9029 260.678 79.7135 260.099 80.2925C258.246 82.6084 256.046 84.6927 253.73 86.4297C255.931 84.9243 259.173 87.1244 259.289 89.7878C259.52 92.4511 257.436 94.767 255.004 95.8092C252.572 96.8513 249.909 97.0829 247.362 97.3145C246.783 97.3145 246.204 97.4303 245.856 97.7777C245.393 98.1251 245.161 98.7041 244.93 99.1673C241.803 106.462 234.624 111.094 227.676 114.8C216.328 120.821 204.17 125.569 191.432 126.958C190.158 127.074 188.884 127.19 187.611 126.958C185.874 126.611 184.368 125.453 183.095 124.179C179.737 120.821 177.652 116.189 176.726 111.442C175.684 106.694 175.568 101.946 175.568 97.0829C175.568 94.6512 175.568 92.1037 177.073 90.1352C178.463 88.0508 181.937 87.5876 182.052 88.8614Z" fill="#FF8567"/>
<path d="M135.052 134.634L165.341 148.393L164.959 106.542L134.957 92.9745L135.052 134.634Z" fill="#FF5C01"/>
<path d="M164.862 106.827C165.244 120.682 165.436 134.537 165.531 148.391L193.622 130.619L194.1 88.2909L164.862 106.827Z" fill="#FFABF6"/>
<path d="M166.965 72.8109L134.957 93.2584L164.863 107.017L194.197 88.2898L166.965 72.8109Z" fill="#FF5C01"/>
<path d="M164.003 100.905L149.097 92.9741V68.8002L164.194 60.4875L179.577 68.6091L164.003 76.3486V100.905Z" fill="#FFA28B"/>
<path d="M164.194 100.996L164.098 100.901H164.194V100.996Z" fill="#FFA28B"/>
<path d="M179.576 68.6105L179.29 92.9754L164.193 100.906L164.575 76.35L179.576 68.6105Z" fill="#FF8567"/>
<path d="M164.002 100.901H164.098L164.002 100.996V100.901Z" fill="#FF8567"/>
<path d="M164.002 76.35L179.577 68.6105L164.576 76.35L164.194 100.906H164.098H164.002V76.35Z" fill="#FF8567"/>
<path d="M175.373 82.8457C175.086 84.5656 173.748 86.0943 172.029 86.4765C170.309 86.8587 168.302 85.9032 167.633 84.2789C167.251 86.8587 168.875 89.6296 171.36 90.5851C171.933 90.7762 172.506 90.9673 173.08 90.7762C174.035 90.4896 174.608 89.5341 174.895 88.6741C175.564 86.8587 175.755 84.7566 175.373 82.8457Z" fill="white"/>
<path d="M163.238 163.964L185.596 152.116L185.501 116.285L163.142 103.959L140.306 115.999L162.473 127.464L163.238 163.964Z" fill="#FFA28B"/>
<path d="M163.429 164.061V127.561L140.306 115.904L140.784 152.117L163.429 164.061Z" fill="#FF8567"/>
<path d="M158.079 142.752C157.601 144.185 156.359 145.236 154.926 145.619C153.493 146.001 151.964 145.81 150.531 145.236C147.76 143.899 145.944 140.746 146.326 137.688C146.04 140.65 145.849 143.612 146.709 146.479C147.282 148.198 148.428 149.918 150.148 150.492C152.155 151.16 154.448 150.205 155.786 148.581C157.219 146.956 157.792 144.854 158.079 142.752Z" fill="white"/>
<path d="M33.4826 294.103C33.0048 282.924 28.9918 271.936 22.2078 263.05C19.628 259.706 15.5194 256.361 11.6019 257.89C9.49981 258.75 8.06658 260.757 7.20664 262.859C5.00902 268.114 5.39121 274.038 6.06006 279.675C7.58884 292.097 11.0286 304.805 19.2458 314.264C21.7301 317.13 25.8387 319.71 28.8962 317.608C30.6161 316.462 31.2849 314.168 31.6671 312.066C33.0048 304.9 33.5781 297.734 33.4826 294.103Z" fill="#FFABF6"/>
<path d="M66.7327 333.948C65.0129 318.469 61.5731 302.991 53.7381 289.614C52.496 287.512 50.9672 285.41 48.674 284.932C48.1007 284.836 47.4319 284.836 46.8586 285.123C46.3808 285.314 45.9987 285.696 45.712 286.078C43.7055 288.563 43.7055 292.098 43.9921 295.347C44.9476 307.577 47.5274 319.903 54.0247 330.318C55.1713 332.133 56.4135 333.948 58.0378 335.382C59.5666 336.719 61.6687 337.77 63.6752 337.388C65.6817 337.006 67.4016 334.808 66.7327 333.948Z" fill="#FFABF6"/>
<path d="M95.4935 279.294C95.9712 276.714 95.8756 273.752 94.0602 271.937C91.8626 269.739 88.0406 270.121 85.6519 272.032C83.1677 273.943 81.9255 276.905 80.8745 279.772C76.957 290.951 76.097 303.277 78.3902 314.934C78.7724 316.653 79.2502 318.469 80.5878 319.52C82.4033 320.858 85.0786 320.284 86.7985 318.851C88.5184 317.418 89.3783 315.22 90.1427 313.118C94.2513 301.461 93.7736 288.849 95.4935 279.294Z" fill="#FFABF6"/>
<path d="M265.188 336.24C268.818 322.29 266.048 307.193 259.837 294.199C258.117 290.664 256.11 287.128 253.34 284.262C252.289 283.211 250.951 282.16 249.422 282.064C246.747 281.873 244.836 284.644 244.071 287.224C243.02 291.046 243.211 295.059 243.785 298.976C244.74 305.378 246.365 311.684 247.989 317.991C248.562 320.188 249.135 322.481 250.186 324.583C251.62 327.45 253.817 329.743 256.015 332.036C257.257 333.374 258.595 334.712 260.219 335.667C261.939 336.431 263.945 336.814 265.188 336.24Z" fill="#FFABF6"/>
<path d="M300.637 329.361C303.599 323.628 304.555 317.035 305.128 310.633C306.084 299.167 306.084 287.511 302.835 276.522C302.166 274.229 301.02 271.649 298.726 270.981C297.293 270.503 295.573 271.076 294.427 272.032C293.185 272.987 292.42 274.325 291.751 275.758C290.414 278.624 289.649 281.873 289.172 285.026C288.12 291.906 288.216 298.881 288.407 305.856C288.598 312.258 288.98 318.659 290.891 324.679C291.465 326.59 292.229 328.501 293.662 329.839C295.096 331.272 297.198 332.036 299.109 331.463C301.02 330.89 302.166 328.405 300.637 329.361Z" fill="#FFABF6"/>
</svg>
