<svg width="291" height="407" viewBox="0 0 291 407" fill="none" xmlns="http://www.w3.org/2000/svg">
<path d="M78.8223 213.127C56.3959 233.323 34.4942 253.914 12.9859 275.029C9.18255 278.701 5.37925 282.504 2.23169 286.832C0.920209 288.668 -0.260125 291.422 1.4448 292.865C2.62514 293.914 4.46121 293.521 6.03499 292.996C11.9367 291.029 17.7072 288.537 23.0843 285.52C16.7892 288.537 11.0186 292.602 6.03499 297.586C4.59236 299.029 3.14973 300.865 3.54318 302.832C3.93662 304.799 6.16614 305.848 8.13337 305.717C10.1006 305.586 11.8055 304.537 13.5104 303.619C19.5433 300.078 25.4449 296.668 31.4778 293.127C23.8712 297.193 16.7892 302.439 10.6252 308.471C9.18255 309.783 7.87107 311.357 7.21533 313.193C6.55959 315.029 6.95303 317.39 8.52681 318.439C10.6252 319.881 13.5104 318.701 15.74 317.521C24.2646 312.668 32.527 307.291 40.2647 301.389C31.8712 307.685 24.1335 314.767 18.7564 323.685C16.7892 326.963 15.4777 331.947 18.6252 334.308C21.3793 336.275 25.0515 334.439 27.8056 332.603C39.8713 324.603 51.15 315.422 61.5107 305.324C55.8713 310.045 50.3631 316.078 49.8385 323.422C49.7074 325.39 50.1008 327.619 51.5435 328.931C53.2484 330.504 56.0025 330.373 58.1009 329.324C60.1992 328.144 61.6419 326.308 62.9534 324.34C79.2158 301.783 88.5273 274.897 102.56 250.766C107.544 242.373 113.314 233.192 111.872 223.487C110.691 215.881 104.79 209.192 97.3142 207.356C89.9699 205.651 82.6256 209.586 78.8223 213.127Z" fill="#FF8567"/>
<path d="M126.264 370.766C124.2 365.731 119 362.43 113.635 361.687C108.27 360.944 102.74 362.347 97.7872 364.493C96.2189 365.154 94.7332 365.896 93.5776 367.135C90.9363 369.693 90.4411 373.738 88.9553 377.122C88.6252 377.782 88.295 378.443 87.7172 378.855C87.1394 379.268 86.4791 379.351 85.8188 379.433C84.0029 379.681 82.187 380.011 80.3711 379.763C78.5552 379.516 76.7393 378.773 75.5838 377.37C73.933 375.306 74.0155 372.252 72.4472 370.106C70.2186 367.135 65.4313 367.3 62.6249 369.693C59.8185 372.087 58.663 375.884 58.2503 379.516C58.0026 381.909 58.0852 384.385 58.663 386.779C59.9836 391.649 63.6154 395.528 67.7424 398.417C71.7044 401.141 76.1616 403.04 80.8664 403.948C83.6727 404.525 86.5617 404.69 89.368 404.938C98.9427 405.681 108.517 406.424 118.092 405.681C121.476 405.433 125.108 404.855 127.419 402.379C129.4 400.151 129.895 397.014 129.978 394.043C130.143 390.411 130.06 386.862 129.978 383.23C129.895 380.754 129.813 378.277 129.153 375.966C128.162 372.665 125.933 369.693 126.264 370.766Z" fill="#FFABF6"/>
<path d="M133.693 371.178C135.756 366.143 140.956 362.841 146.322 362.098C151.687 361.355 157.217 362.759 162.169 364.905C163.738 365.565 165.223 366.308 166.379 367.546C169.02 370.105 169.515 374.149 171.001 377.533C171.331 378.194 171.662 378.854 172.239 379.267C172.817 379.679 173.477 379.762 174.138 379.845C175.954 380.092 177.77 380.422 179.585 380.175C181.401 379.927 183.217 379.184 184.373 377.781C186.024 375.718 185.941 372.664 187.509 370.517C189.738 367.546 194.525 367.711 197.332 370.105C200.138 372.498 201.294 376.295 201.706 379.927C201.954 382.321 201.871 384.797 201.294 387.191C199.973 392.06 196.341 395.94 192.214 398.829C188.252 401.553 183.795 403.451 179.09 404.359C176.284 404.937 173.395 405.102 170.589 405.35C161.014 406.092 151.439 406.835 141.864 406.092C138.48 405.845 134.848 405.267 132.537 402.791C130.556 400.562 130.061 397.426 129.979 394.454C129.814 390.822 129.896 387.273 129.979 383.641C130.061 381.165 130.144 378.689 130.804 376.378C131.712 373.076 133.941 370.105 133.693 371.178Z" fill="#FFABF6"/>
<path d="M87.8822 262.968C87.0568 299.864 87.3045 336.759 88.7076 373.572C88.8727 377.204 89.0378 381.166 91.1839 384.138C94.0728 388.265 99.6855 389.42 104.72 389.503C109.343 389.585 113.965 389.007 118.505 388.43C121.394 388.099 124.53 387.604 126.511 385.458C128.575 383.312 128.74 380.01 128.905 377.039C129.978 348.728 130.968 320.334 131.794 292.022C131.794 290.619 131.876 289.133 131.381 287.813C130.556 285.832 128.74 284.594 126.924 283.438C114.378 275.514 101.419 268.333 87.9648 262.06C87.7997 262.06 87.8822 261.978 87.8822 262.968Z" fill="#FF5C01"/>
<path d="M131.382 280.139C130.309 311.999 129.236 343.86 128.163 375.803C127.998 379.93 127.998 384.387 130.474 387.606C133.858 391.898 140.131 392.229 145.661 392.146C153.915 391.981 163.573 391.073 168.112 384.14C170.589 380.26 170.836 375.39 170.919 370.768C171.662 341.136 172.074 311.421 171.497 281.789C171.414 275.681 170.919 268.831 166.462 264.704C161.096 259.751 152.265 260.989 146.322 265.116C140.214 269.078 136.087 275.351 131.382 280.139Z" fill="#FDB300"/>
<path d="M130.309 296.233L84.4988 270.398L83.5083 196.937L125.769 175.806L171.579 194.213L174.22 270.398L130.309 296.233Z" fill="#0054DC"/>
<mask id="mask0_1_774" style="mask-type:alpha" maskUnits="userSpaceOnUse" x="83" y="175" width="92" height="122">
<path d="M130.308 296.235L84.4983 270.399L83.5078 196.938L125.769 175.808L171.578 194.215L174.22 270.399L130.308 296.235Z" fill="#0054DC"/>
</mask>
<g mask="url(#mask0_1_774)">
<path d="M186.436 282.529C181.648 274.11 175.128 266.764 167.286 261.151C156.556 253.475 143.35 249.018 130.143 249.925C117.019 250.916 104.143 257.602 96.7968 268.58C92.9999 274.357 90.7713 281.043 88.7903 287.646C86.7268 294.662 84.8284 301.761 83.7554 308.942" stroke="#FF0000" stroke-width="3" stroke-miterlimit="10"/>
<path d="M81.6089 276.09C81.6914 267.919 83.0946 259.5 87.1391 252.401C91.1836 245.303 98.1995 239.525 106.371 238.452C109.425 238.039 112.727 238.369 115.12 240.268C116.441 241.341 117.349 242.909 118.174 244.395C130.39 266.103 136.911 290.948 136.994 315.792" stroke="#FF0000" stroke-width="3" stroke-miterlimit="10"/>
<path d="M95.3926 286.66C96.1354 281.047 98.5291 275.764 101.17 270.812C105.132 263.548 110.167 256.532 117.101 251.993C124.034 247.453 133.361 245.885 140.79 249.599C145.907 252.075 149.622 256.78 152.511 261.65C160.765 275.682 163.406 292.272 164.561 308.533" stroke="#FF0000" stroke-width="3" stroke-miterlimit="10"/>
<path d="M104.472 289.628C108.352 275.018 112.231 260.491 116.11 245.881C117.101 242.167 118.091 238.37 118.834 234.573C119.742 229.869 120.072 225.081 120.485 220.294C121.476 208.986 122.301 197.1 117.183 186.948" stroke="#FF0000" stroke-width="3" stroke-miterlimit="10"/>
<path d="M76.4087 196.689C80.3706 202.879 84.6627 208.905 89.285 214.683C97.8692 225.495 108.269 235.895 121.641 239.28C126.346 240.435 131.216 240.683 136.085 240.6C140.295 240.518 144.505 240.105 148.549 239.032C155.978 237.051 162.498 232.759 168.854 228.384C176.118 223.349 183.381 218.067 189.159 211.381C195.019 204.695 199.394 196.524 200.219 187.692" stroke="#FF0000" stroke-width="3" stroke-miterlimit="10"/>
<path d="M141.781 172.671C155.648 201.973 170.258 230.862 185.61 259.421" stroke="#FF0000" stroke-width="3" stroke-miterlimit="10"/>
<path d="M122.301 178.779C135.838 205.192 144.752 233.668 153.502 261.979C155.648 268.83 157.711 275.681 159.114 282.697C160.518 289.878 161.178 297.307 161.343 304.653" stroke="#FF0000" stroke-width="3" stroke-miterlimit="10"/>
<path d="M70.6309 230.119C76.3262 232.512 82.7643 230.696 88.7072 228.881C95.8057 226.652 102.987 224.423 109.012 220.049C113.222 216.912 116.688 212.868 119 208.163C121.311 203.623 122.466 198.588 123.622 193.553C124.942 187.858 126.263 181.832 124.282 176.385" stroke="#FF0000" stroke-width="3" stroke-miterlimit="10"/>
</g>
<path d="M147.003 220.456C148.233 219.5 150.694 217.449 151.924 216.492C164.773 205.147 179.672 203.37 190.744 192.025C196.622 186.01 200.312 177.809 201.133 169.334C201.269 167.147 201.269 164.96 200.586 162.91C198.672 158.125 193.341 155.938 188.83 153.068C182.543 149.104 177.485 143.089 174.888 136.255C174.205 134.478 173.658 132.564 174.615 130.787C175.435 129.284 177.075 128.463 178.715 127.917C190.334 124.089 203.593 127.643 213.025 135.435C215.895 137.895 218.902 140.766 222.593 140.902C225.327 141.039 227.924 139.672 230.248 138.305C243.78 130.924 257.996 124.773 272.622 119.989C274.536 119.305 276.586 118.758 278.636 118.895C282.464 119.305 285.608 122.722 286.428 126.55C287.248 130.377 286.291 134.341 284.651 137.895C279.73 148.01 269.615 154.708 259.09 158.672C257.449 159.356 255.672 159.902 254.305 161.133C251.435 163.73 251.025 168.104 250.888 171.931C250.341 184.643 248.974 197.219 246.924 209.658C246.104 214.852 245.01 220.183 242.003 224.421C239.953 227.428 236.946 229.751 234.075 232.075C218.082 244.241 200.586 254.629 182.269 262.694C176.528 265.154 170.787 267.478 164.499 268.162C158.348 268.845 151.787 267.615 146.866 263.651C142.356 259.96 139.758 254.082 138.938 248.341C136.751 235.219 142.355 224.284 147.003 220.456Z" fill="#FF8567"/>
<g opacity="0.302">
<g opacity="0.302">
<path opacity="0.302" d="M131.13 213.448L101.829 204.616L92.2539 161.199L114.292 140.812L143.181 149.314L152.921 193.39L131.13 213.448Z" fill="#FFA28B"/>
</g>
</g>
<path d="M131.134 213.444L101.833 204.612L92.2578 161.196L114.296 140.808L143.185 149.31L152.925 193.387L131.134 213.444Z" fill="#FFA28B"/>
<path d="M131.135 213.448L152.925 193.39L143.186 149.314L118.011 165.987L131.135 213.448Z" fill="#FF8567"/>
<path d="M127.171 170.687C125.52 176.795 120.403 181.747 114.295 183.315C113.139 183.646 111.818 183.811 110.663 183.233C109.177 182.49 108.599 180.674 108.682 179.106C108.847 177.455 109.59 176.052 110.415 174.566C109.342 179.849 102.739 183.233 97.869 180.839C97.1261 180.509 96.4658 180.014 96.0531 179.353C95.723 178.858 95.6404 178.198 95.5579 177.62C95.2277 174.979 95.3928 172.255 96.0531 169.614C94.6499 173.411 90.3578 175.969 86.3133 175.474C85.8181 175.392 85.2403 175.309 84.8276 174.979C84.0848 174.401 83.9197 173.245 84.0022 172.338C84.0848 165.652 87.5514 159.131 92.9991 155.252C90.3578 155.004 87.3864 157.15 85.4054 155.499C84.6625 154.921 84.4149 153.931 84.0848 153.023C83.4244 150.794 82.7641 148.401 83.0117 146.09C83.2593 143.779 84.7451 141.385 87.0562 140.807C88.7896 140.394 90.6054 141.055 92.1737 141.798C94.5674 142.953 96.9611 144.604 97.4563 147.163C95.5579 144.769 94.1547 141.963 93.5769 138.909C93.3293 137.505 93.2467 135.937 93.8245 134.699C95.2277 131.81 99.6024 131.728 102.161 133.626C104.72 135.607 105.875 138.744 106.866 141.798C106.536 139.074 106.371 136.185 107.609 133.791C108.847 131.315 111.818 129.582 114.377 130.572C116.11 131.232 117.266 133.048 117.596 134.864C118.009 136.68 117.761 138.578 117.514 140.477C118.917 135.607 124.117 132.14 129.152 132.718C130.06 132.801 130.968 133.048 131.463 133.709C131.876 134.286 132.041 134.947 131.958 135.69C131.958 138.166 130.472 140.477 129.152 142.54C130.472 139.156 133.774 137.093 136.828 135.194C137.901 134.534 139.139 133.874 140.377 134.039C142.441 134.369 143.514 136.928 143.184 138.991C142.936 141.055 141.781 142.953 141.203 145.017C142.028 143.448 142.936 141.88 144.174 140.642C145.495 139.404 147.228 138.578 149.044 138.826C150.035 143.531 148.466 148.731 145 152.115C146.981 154.344 148.219 157.233 148.384 160.287C148.466 162.102 147.889 164.331 146.155 164.909C144.587 165.404 143.019 164.331 141.863 163.176C140.047 161.277 138.727 158.883 137.984 156.49C139.882 160.039 141.698 164.001 140.873 167.88C140.542 169.284 139.469 170.934 138.066 170.604C137.241 170.439 136.663 169.696 136.25 168.953C134.847 166.56 133.939 163.918 133.609 161.195C134.599 164.496 134.517 168.128 133.361 171.43C132.949 172.503 132.288 173.741 131.133 173.988C129.812 174.236 128.326 173.163 128.079 171.842C127.831 170.191 127.831 169.861 127.171 168.706C127.088 169.614 127.336 169.531 127.171 170.687Z" fill="#FFABF6"/>
<path d="M137.407 181.005C136.251 180.262 134.683 180.675 133.61 181.501C132.867 182.078 132.455 182.986 132.207 183.894C131.547 186.536 132.372 189.342 133.528 191.818C134.27 193.304 135.178 194.707 136.582 195.615C137.985 196.523 139.883 196.605 141.204 195.615C142.69 194.459 142.772 192.231 142.525 190.415C142.112 187.031 140.874 183.399 137.985 181.583" fill="white"/>
<path d="M264.671 14.8883C258.893 10.2661 252.207 6.46922 245.026 4.57079C237.845 2.58982 230.086 2.58982 222.988 4.98349" stroke="#0054DC" stroke-width="5" stroke-miterlimit="10" stroke-linecap="round"/>
<path d="M215.476 45.8434C211.432 45.1831 207.057 47.0815 204.746 50.4657C202.435 53.8499 202.27 58.6372 204.251 62.1864C206.314 65.7357 210.359 68.0468 214.486 67.9643" stroke="#0054DC" stroke-width="5" stroke-miterlimit="10" stroke-linecap="round"/>
<path d="M285.471 65.4879C283.737 62.1038 281.839 58.8847 279.693 55.7482C279.61 55.5831 279.445 55.418 279.28 55.3355C278.95 55.1704 278.455 55.2529 278.125 55.418C274.245 56.9863 270.366 58.7196 266.651 60.7006C266.569 60.7831 266.486 60.7831 266.404 60.8657C266.321 61.0308 266.404 61.1958 266.486 61.3609L272.677 71.3483C272.759 71.5134 272.924 71.6785 273.09 71.761C273.337 71.9261 273.585 71.8436 273.915 71.761C278.042 70.688 282.004 68.6245 285.471 65.4879Z" fill="#0054DC"/>
<path d="M212.341 2.92188C211.846 12.2489 211.35 21.6586 210.855 30.9856C210.855 31.3158 210.773 31.5634 210.608 31.811C210.277 32.2237 209.617 32.0586 209.122 31.811C200.455 28.1792 191.871 24.63 183.204 20.9982C184.277 19.595 186.01 18.8522 187.579 18.0268C192.861 15.468 197.731 12.0839 202.106 8.20446C202.766 7.62668 203.344 7.0489 204.087 6.6362C204.912 6.14095 205.738 5.89333 206.646 5.56317C208.544 4.98538 210.525 4.15998 212.341 2.92188Z" fill="#FF0000"/>
<path d="M248.327 57.564C248.079 56.9862 247.501 56.6561 246.923 56.5735C246.346 56.491 245.768 56.491 245.19 56.6561C244.53 56.8212 243.869 56.9862 243.292 57.3164C242.219 57.9767 241.641 59.1323 241.558 60.3704C241.476 61.6085 241.888 62.7641 242.549 63.8371C243.209 64.8276 244.2 65.653 245.273 66.0657C246.428 66.4784 247.749 66.3959 248.739 65.7355C249.895 64.9927 250.555 63.5895 250.555 62.1863C250.555 60.7831 249.977 59.4625 249.07 58.3069C248.822 57.8942 248.574 57.6466 248.327 57.564Z" fill="#FF0000"/>
<path d="M182.047 94.2117V75.3925L191.622 70.0274C191.87 69.8623 192.117 70.0274 192.117 70.3576L192.282 98.0911C192.282 98.0911 192.117 76.9608 192.117 69.8623" stroke="#FF0000" stroke-width="5" stroke-miterlimit="10" stroke-linecap="round"/>
<path d="M253.446 16.8702C252.621 16.1273 251.383 16.0448 250.475 16.6226C249.567 17.2004 249.071 18.3559 249.237 19.3464C249.402 20.4194 250.31 21.2448 251.3 21.4925C252.373 21.7401 253.529 21.3274 254.189 20.5845C254.354 20.4194 254.519 20.1718 254.602 19.9242C254.684 19.594 254.684 19.3464 254.602 19.0163C254.519 18.3559 254.437 17.6131 253.941 17.2004C253.694 16.9527 253.033 16.6226 253.446 16.8702Z" fill="#FF0000"/>
<path d="M238.34 44.1918C238.01 35.1949 237.762 26.1155 237.432 17.1186C237.762 17.036 238.092 17.3662 238.258 17.6964C240.404 20.998 242.467 24.3821 244.613 27.6012C249.896 35.5251 256.004 43.0363 260.626 51.2903C260.874 51.703 261.369 51.5379 261.451 51.1252C262.359 44.6871 263.515 38.1664 264.918 31.8108" stroke="#FFABF6" stroke-width="5" stroke-miterlimit="10" stroke-linecap="round"/>
<path d="M256.582 79.5999C253.446 78.2793 250.227 76.9586 247.09 75.638C246.842 75.5554 246.595 75.4729 246.347 75.4729C246.1 75.5554 245.935 75.7205 245.769 75.8031C244.944 76.711 244.366 77.784 243.788 78.8571C240.734 85.2952 239.414 92.4762 236.525 98.9969C235.865 100.4 235.204 101.721 234.626 103.206C234.296 103.949 234.049 104.775 234.131 105.518C234.131 106.343 234.544 107.168 235.204 107.581C235.534 107.746 235.947 107.829 236.36 107.911C238.588 108.324 240.734 109.149 242.798 110.222C243.458 110.635 244.201 111.048 244.944 111.048C245.935 111.13 246.842 110.553 247.42 109.81C248.081 109.067 248.411 108.159 248.741 107.251C252.125 98.8318 255.097 90.3302 257.738 81.6634C257.903 81.2507 257.985 80.7555 257.82 80.2602C257.655 79.5999 256.665 79.5174 256.582 79.5999Z" fill="#FFABF6"/>
<path d="M168.841 61.5235C173.711 60.8632 178.664 60.8632 183.534 60.8632C184.854 60.8632 186.257 60.8632 187.413 61.441C187.908 61.6886 188.321 62.0188 188.651 62.4315C189.146 63.2569 189.146 64.2474 188.816 65.1553C188.238 66.5585 187 67.6315 185.68 68.2093C184.276 68.7871 182.791 69.0347 181.305 69.2823C177.591 69.7776 173.876 70.0252 170.162 70.0252" fill="#FFABF6"/>
<path d="M219.191 40.3944C219.604 34.534 220.099 28.5911 220.925 22.7307C221.007 21.8228 222.245 21.6577 222.658 22.4005L231.655 39.734" stroke="#FF5C01" stroke-width="5" stroke-miterlimit="10"/>
<path d="M277.794 23.058C276.804 22.8929 275.813 23.6357 275.235 24.4611C274.657 25.2866 274.245 26.277 273.75 27.1024C273.254 27.8453 272.677 28.4231 272.264 29.2485C271.769 30.239 271.686 31.3945 271.686 32.4676C271.851 36.2644 273.419 39.9787 276.061 42.7851C277.381 44.1883 279.115 45.4264 281.013 45.9217C282.912 46.4994 285.058 46.3344 286.708 45.2613C288.442 44.1883 289.515 42.2899 289.927 40.2264C290.34 38.2454 290.175 36.1819 289.845 34.1184C289.515 31.8898 288.937 29.6612 287.946 27.5977C287.121 26.0294 285.966 24.4612 284.315 23.8834C281.673 22.9754 278.619 24.6262 277.794 23.058Z" fill="#2D573D"/>
<path d="M200.454 80.0941C201.692 76.3797 205.241 73.5734 209.121 73.1607C209.946 73.0781 210.772 73.0781 211.514 73.3257C213.33 73.9035 214.568 75.802 214.403 77.7004C214.238 78.9385 213.578 80.0941 212.587 81.002C211.679 81.91 210.524 82.4877 209.368 83.0655C208.873 83.3131 208.295 83.6433 207.965 84.056C207.552 84.5512 207.47 85.2116 207.8 85.7068C208.13 86.2021 208.873 86.2846 209.533 86.3671C210.689 86.3671 211.845 86.3671 212.835 85.9544C215.559 84.8814 216.714 81.2496 219.521 80.5893C220.429 80.3417 221.419 80.5068 222.41 80.7544C225.216 81.4147 228.105 82.9004 229.426 85.5417C230.664 87.9354 230.251 90.8243 229.426 93.3831C229.013 94.5386 228.6 95.6117 227.94 96.6021C227.28 97.5101 226.454 98.3355 225.546 99.0784C223.565 100.647 221.254 101.72 218.778 102.38C215.229 103.37 211.349 103.536 207.8 102.545C204.251 101.472 200.949 99.2434 199.051 96.0244" stroke="#FDB300" stroke-width="5" stroke-miterlimit="10" stroke-linecap="round"/>
<path d="M190.302 36.767C189.807 36.4368 189.146 36.6019 188.569 36.767C185.845 37.6749 183.616 39.7385 182.461 42.3797C181.388 45.021 181.388 48.075 182.626 50.7163C183.121 51.8719 183.946 52.8624 184.854 53.6053C186.01 54.5132 187.33 55.091 188.734 55.4211C190.962 56.0815 193.521 56.3291 195.584 55.3386C197.4 54.4307 198.721 52.6148 199.299 50.7163C199.877 48.7354 199.877 46.6718 199.629 44.6083C199.464 43.3702 199.216 42.2147 198.721 41.1416C197.978 39.4908 196.575 38.1702 194.842 37.3448C193.108 36.5194 191.457 36.3543 190.302 36.767Z" fill="#FDB300"/>
<path d="M273.172 105.354C269.788 99.9062 266.486 94.376 263.432 88.7632C263.267 88.4331 263.102 88.1029 263.185 87.7727C263.267 87.4426 263.597 87.2775 263.845 87.1124C266.569 85.5441 269.293 84.0584 272.016 82.4902C272.181 82.4076 272.264 82.3251 272.429 82.3251C272.677 82.3251 272.759 82.5727 272.924 82.7378C275.483 87.1124 278.124 91.4871 280.766 95.8617" fill="#FDB300"/>
<path d="M284.562 78.1178C279.775 67.2225 275.483 56.2446 271.604 45.0191" stroke="#FDB300" stroke-width="5" stroke-miterlimit="10" stroke-linecap="round"/>
<path d="M224.639 49.6421C220.429 51.2103 216.385 53.0262 212.588 55.2548C215.064 58.2263 217.21 61.6104 218.861 65.0771C219.026 65.4898 219.274 65.9025 219.686 65.9025C219.851 65.9025 219.934 65.82 220.099 65.7374L231.737 59.3818C229.591 55.7501 227.032 52.2834 224.639 49.6421Z" fill="#FF5C01"/>
<path d="M231.901 122.521C228.022 120.292 224.638 117.321 221.914 113.772C221.336 113.029 220.758 112.203 220.511 111.213C220.263 110.305 220.511 109.149 221.254 108.572C221.831 108.159 222.574 107.994 223.317 108.076C224.803 108.159 226.289 108.654 227.609 109.397C229.755 110.47 231.736 111.956 233.635 113.441C236.854 115.835 240.155 118.311 243.375 120.705" fill="#FF5C01"/>
<path d="M215.229 90.9914C211.514 99.1629 208.213 107.5 205.241 115.919C205.324 115.754 205.324 115.671 205.406 115.506" stroke="#FF5C01" stroke-width="5" stroke-miterlimit="10" stroke-linecap="round"/>
</svg>
