<svg width="277" height="282" viewBox="0 0 277 282" fill="none" xmlns="http://www.w3.org/2000/svg">
<path d="M162.448 123.385C162.221 164.99 161.993 206.622 161.311 248.227H160.941" stroke="#FFA6FA" stroke-width="15" stroke-miterlimit="10"/>
<path d="M0.926521 161.922L0.17351 254.839C0.119724 262.073 0.361763 270.114 5.31012 275.358C10.6619 281.033 19.4559 281.355 27.255 281.275C99.3019 280.548 171.349 279.822 243.396 279.096C250.926 279.016 258.806 278.854 265.394 275.197C272.36 271.324 276.959 263.552 276.985 255.592C277.039 247.631 272.548 239.805 265.637 235.825C268.917 233.297 270.423 228.645 269.186 224.691C267.949 220.738 264.104 217.726 259.962 217.511C265.045 216.408 268.837 211.137 268.299 206C267.761 200.837 262.974 196.48 257.784 196.426C263.7 195.673 267.6 189.004 266.712 183.114C265.798 177.225 261.172 172.465 255.847 169.802C250.523 167.14 244.498 166.279 238.609 165.419C223.28 163.213 207.924 161.008 192.595 158.83C184.231 157.62 174.872 156.651 168.095 161.707C163.12 165.419 160.618 172.169 161.963 178.22C163.308 184.271 168.444 189.3 174.522 190.564C166.347 189.569 157.203 193.065 153.519 200.434C149.834 207.802 153.895 218.533 162.017 219.985C156.611 216.65 149.404 222.809 149.323 229.156C149.243 235.502 153.546 240.962 157.795 245.668C152.335 245.345 146.876 245.023 141.417 244.727C144.563 243.113 146.365 239.267 145.612 235.798C144.859 232.356 141.632 229.586 138.109 229.398C147.064 216.946 153.868 202.935 158.091 188.197C160.511 179.699 161.614 169.264 155.159 163.213C148.49 156.947 136.926 159.395 130.552 165.983C124.178 172.572 121.731 181.904 119.687 190.833C117.32 187.901 111.996 188.332 110.113 191.613C99.4633 174.912 79.7774 165.714 60.1723 163.106C40.5402 160.443 20.6661 163.563 0.926521 161.922Z" fill="#FF7B5C"/>
<path d="M150.509 160.605C145.238 159.233 139.429 159.932 134.642 162.541C129.855 165.15 126.117 169.641 124.422 174.831C123.696 177.037 123.374 179.618 124.638 181.581C126.144 183.948 129.371 184.567 132.195 184.432C141.311 183.975 149.837 177.601 152.849 168.995C153.467 167.247 153.871 165.311 153.333 163.536C152.822 161.761 151.127 160.201 150.509 160.605Z" fill="#FF9F87"/>
<path d="M200.826 159.234C203.703 159.556 206.393 161.412 207.684 164.021C208.974 166.629 208.867 169.883 207.361 172.357C204.779 176.687 199.105 177.951 194.076 177.871C188.455 177.763 182.861 176.472 177.778 174.079C175.573 173.057 173.422 171.793 171.916 169.883C170.41 167.974 169.63 165.365 170.463 163.079C171.593 159.933 175.197 158.48 178.451 157.781C186.33 156.087 194.21 158.481 200.826 159.234Z" fill="#FF9F87"/>
<path d="M198.245 189.893C200.961 189.516 203.462 192.205 203.516 194.948C203.569 197.692 201.714 200.22 199.401 201.699C197.088 203.178 194.318 203.796 191.629 204.361C181.92 206.405 171.755 207.911 162.127 205.544C159.034 204.791 155.565 203.124 155 199.977C154.651 198.041 155.538 196.051 156.91 194.653C158.281 193.254 160.11 192.394 161.939 191.694C173.476 187.284 186.331 191.506 198.245 189.893Z" fill="#FF9F87"/>
<path d="M160.945 217.888C157.691 218.399 154.276 219.071 151.694 221.115C149.112 223.159 147.66 227.031 149.328 229.882C150.86 232.518 154.249 233.297 157.261 233.62C169.874 234.965 182.89 232.275 193.943 226.036C195.1 225.391 196.337 224.53 196.579 223.239C196.929 221.222 194.696 219.797 192.787 219.071C182.325 215.198 171.057 216.355 160.945 217.888Z" fill="#FF9F87"/>
<path d="M276.77 258.846C274.431 254.786 268.864 254.167 264.184 254.624C255.471 255.431 246.946 258.282 239.523 262.907C237.425 264.198 235.355 265.704 234.064 267.775C232.746 269.873 232.316 272.669 233.553 274.794C235.193 277.591 238.851 278.236 242.078 278.505C249.474 279.097 257.192 279.07 263.969 276.004C270.692 272.912 276.232 266.108 276.77 258.846Z" fill="#FF9F87"/>
<mask id="mask0_780_4693" style="mask-type:alpha" maskUnits="userSpaceOnUse" x="0" y="157" width="277" height="125">
<path d="M0.926521 161.923L0.17351 254.839C0.119724 262.073 0.361763 270.114 5.31012 275.359C10.6619 281.033 19.4559 281.356 27.255 281.275C99.3019 280.549 171.349 279.823 243.396 279.097C250.926 279.016 258.806 278.855 265.394 275.197C272.36 271.325 276.959 263.552 276.985 255.592C277.039 247.632 272.548 239.806 265.637 235.826C268.917 233.298 270.423 228.645 269.186 224.692C267.949 220.738 264.104 217.726 259.962 217.511C265.045 216.409 268.837 211.138 268.299 206.001C267.761 200.837 262.974 196.481 257.784 196.427C263.7 195.674 267.6 189.004 266.712 183.115C265.798 177.225 261.172 172.465 255.847 169.803C250.523 167.14 244.498 166.28 238.609 165.419C223.28 163.214 207.924 161.009 192.595 158.83C184.231 157.62 174.872 156.652 168.095 161.708C163.12 165.419 160.618 172.169 161.963 178.22C163.308 184.271 168.444 189.3 174.522 190.564C166.347 189.569 157.203 193.065 153.519 200.434C149.834 207.803 153.895 218.533 162.017 219.985C156.611 216.651 149.404 222.809 149.323 229.156C149.243 235.503 153.546 240.962 157.795 245.668C152.335 245.346 146.876 245.023 141.417 244.727C144.563 243.114 146.365 239.268 145.612 235.799C144.859 232.356 141.632 229.586 138.109 229.398C147.064 216.946 153.868 202.935 158.091 188.198C160.511 179.699 161.614 169.265 155.159 163.214C148.49 156.948 136.926 159.395 130.552 165.984C124.178 172.573 121.731 181.905 119.687 190.833C117.32 187.902 111.996 188.332 110.113 191.613C99.4633 174.912 79.7774 165.715 60.1723 163.106C40.5402 160.444 20.6661 163.563 0.926521 161.923Z" fill="#FF7B5C"/>
</mask>
<g mask="url(#mask0_780_4693)">
<path d="M149.832 259.332C143.162 265.92 136.869 272.885 130.953 280.173" stroke="#FF9F87" stroke-width="5" stroke-miterlimit="10"/>
<path d="M172.341 257.072C164.488 264.118 157.388 272.024 151.203 280.603" stroke="#FF9F87" stroke-width="5" stroke-miterlimit="10"/>
<path d="M189.55 259.304C182.585 266.376 175.619 273.476 168.654 280.549" stroke="#FF9F87" stroke-width="5" stroke-miterlimit="10"/>
<path d="M226.721 220.391C228.442 224.64 230.163 228.915 231.857 233.164" stroke="#FF9F87" stroke-width="5" stroke-miterlimit="10"/>
<path d="M236.076 220.175C237.636 223.563 239.169 226.952 240.729 230.313" stroke="#FF9F87" stroke-width="5" stroke-miterlimit="10"/>
<path d="M247.43 220.714C249.258 225.151 251.114 229.561 252.943 233.999C252.701 233.407 252.485 232.815 247.43 220.714Z" stroke="#FF9F87" stroke-width="5" stroke-miterlimit="10"/>
<path d="M233.496 191.642C235.405 195.917 237.342 200.193 239.251 204.496" stroke="#FF9F87" stroke-width="5" stroke-miterlimit="10"/>
<path d="M242.613 193.874C244.039 196.966 245.491 200.059 246.916 203.151" stroke="#FF9F87" stroke-width="5" stroke-miterlimit="10"/>
<path d="M253.881 195.541C255.898 199.656 257.942 203.77 259.959 207.885C260.463 207.706 259.394 207.589 253.881 195.541Z" stroke="#FF9F87" stroke-width="5" stroke-miterlimit="10"/>
<path d="M233.633 165.663C235.946 169.024 237.909 172.655 239.442 176.446" stroke="#FF9F87" stroke-width="5" stroke-miterlimit="10"/>
<path d="M243.658 166.846C244.868 169.696 246.079 172.52 247.289 175.371" stroke="#FF9F87" stroke-width="5" stroke-miterlimit="10"/>
<path d="M253.533 168.89C255.147 172.843 256.733 176.796 258.347 180.749" stroke="#FF9F87" stroke-width="5" stroke-miterlimit="10"/>
</g>
<path d="M172.833 75.5955C175.361 66.3711 183.429 58.9486 192.787 56.9316C202.146 54.9146 212.419 58.2763 218.981 65.2416C225.543 72.207 228.286 82.5071 226.323 91.8659C225.005 98.2127 221.456 104.237 215.969 107.679C207.095 113.246 195.638 111.041 185.472 108.647C195.262 109.481 204.674 113.999 211.478 121.099C215.351 125.16 218.47 130.296 218.632 135.917C218.928 145.168 210.591 153.263 201.42 154.473C192.249 155.71 182.998 151.165 176.678 144.415C170.358 137.665 166.566 128.925 163.689 120.131C163.528 128.414 159.897 136.536 153.873 142.21C150.619 145.276 146.074 147.723 141.798 146.432C136.231 144.711 134.268 137.289 136.338 131.856C138.409 126.424 143.223 122.578 147.822 119.001C141.287 125.886 134.375 132.824 125.635 136.589C116.922 140.381 105.895 140.327 98.7417 134.088C92.3681 128.521 90.4049 118.84 93.148 110.853C95.8911 102.865 102.803 96.6529 110.763 93.8022C120.74 90.1985 131.794 91.4625 142.201 89.4186C153.496 87.2134 163.608 81.1086 172.833 75.5955Z" fill="#FDB400"/>
<path d="M43.0469 0.428711C48.56 21.4323 54.0731 42.0863 59.5593 63.0899C60.635 67.2046 61.8452 71.5344 64.938 74.4389C67.95 77.2895 72.2529 78.2577 76.3138 79.0914C88.2275 81.5925 100.114 84.0935 112.028 86.5946C116.358 87.509 120.876 88.4233 125.179 87.3476C131.821 85.6802 136.743 78.9838 136.635 72.126C136.555 65.2683 131.687 58.8408 125.233 56.5549C119.558 54.5379 112.566 55.2371 108.344 50.9611C104.928 47.5187 104.767 41.5216 107.644 37.622" fill="#FF9F87"/>
<path d="M138.705 91.7311C132.519 89.3376 126.361 86.5945 121.197 82.426C116.034 78.2576 111.892 72.5024 110.816 65.9405C109.23 56.1245 115.2 45.9857 123.94 41.2525C132.68 36.5193 143.572 36.7613 152.823 40.4457C162.048 44.1301 169.766 50.9341 175.979 58.7062C170.089 59.8626 164.011 59.9971 158.095 59.0827C159.305 61.9603 160.488 64.8648 161.698 67.7423C157.557 66.2632 153.415 64.811 149.274 63.3319C149.623 66.2363 149.973 69.1139 150.322 72.0184C147.687 69.3559 144.029 67.7154 140.291 67.5541C142.685 72.4487 143.949 77.9349 143.922 83.3942C143.922 85.4919 143.68 87.6971 142.577 89.4721C141.448 91.247 139.215 92.4841 138.705 91.7311Z" fill="#FDB400"/>
<path d="M135.1 98.4548C135.1 83.3677 147.309 71.1582 162.396 71.1582C177.483 71.1582 189.693 83.3677 189.693 98.4548C189.693 113.542 177.483 125.751 162.396 125.751C147.309 125.751 135.1 113.515 135.1 98.4548Z" fill="white"/>
<path d="M107.644 37.6221C107.644 37.6221 115.874 32.0014 120.607 33.0503C125.34 34.0991 129.347 37.6221 131.472 41.9788C133.785 46.712 134.188 52.4941 137.765 56.3936C142.31 61.3688 150.781 61.1537 156.24 57.1466C161.673 53.1395 164.416 46.3624 165.303 39.666C166.863 27.9943 162.345 14.6284 151.722 9.54559C155.057 14.0905 160.49 16.4303 165.357 19.254C170.225 22.0778 175.12 26.1656 175.738 31.7594C176.088 34.7983 175.093 37.9179 175.604 40.93C176.545 46.47 182.757 50.1812 188.297 49.24C193.837 48.2987 198.248 43.5386 199.807 38.1331C201.367 32.7275 200.399 26.8379 198.248 21.6475C196.096 16.4571 192.788 11.8315 189.534 7.23277L200.318 22.9922C203.169 27.1338 206.854 31.7594 211.883 31.598C216.696 31.4367 220.273 26.569 220.73 21.782C221.188 16.995 219.359 12.3156 217.53 7.85132C218.445 11.6164 219.466 15.5428 222.102 18.3666C224.738 21.1904 229.525 22.4274 232.51 19.9264C234.984 17.8556 235.253 14.1712 234.93 10.944C234.554 7.28656 233.666 3.84423 232.321 0.375H43.0469C58.9139 20.9214 107.644 37.6221 107.644 37.6221Z" fill="#FF9F87"/>
<path d="M165.246 37.5145C165.192 45.636 160.889 53.6499 154.112 58.1409C152.633 59.109 150.993 59.9696 149.218 60.0772C147.443 60.1847 145.534 59.4586 144.673 57.8989C143.624 56.0433 144.351 53.7037 145.265 51.7674C148.008 45.9587 152.364 40.9029 157.689 37.3262C159.034 36.4119 160.54 35.5782 162.153 35.6051C163.794 35.632 165.246 36.8422 165.246 37.5145Z" fill="#FF7B5C"/>
<path d="M200.505 30.3875C201.365 32.7809 201.204 35.497 200.397 37.9173C199.591 40.3376 198.192 42.5428 196.632 44.5597C195.046 46.6304 193.163 48.6474 190.689 49.4541C188.215 50.2609 185.042 49.4003 184.02 47.0069C183.186 45.0976 183.939 42.8655 184.88 41.0099C186.386 38.0249 188.376 35.2819 190.743 32.9422C192.114 31.5707 193.674 30.3337 195.53 29.7958C197.412 29.258 200.101 29.258 200.505 30.3875Z" fill="#FF7B5C"/>
<path d="M220.216 15.8926C222.018 20.3029 220.889 25.7621 217.473 29.0967C216.774 29.769 215.967 30.3875 215.053 30.6565C214.112 30.9254 213.036 30.7909 212.31 30.1186C211.207 29.0967 211.396 27.3218 211.772 25.8696C212.364 23.6645 213.278 21.5131 214.488 19.5499C215.134 18.4742 215.887 17.4523 216.936 16.78C217.984 16.0808 219.41 15.8926 220.216 15.8926Z" fill="#FF7B5C"/>
<path d="M233.175 4.57031C234.708 8.68484 236.241 13.2565 234.654 17.3711C234.251 18.393 233.659 19.388 232.745 20.0065C231.831 20.625 230.594 20.8133 229.626 20.2754C227.958 19.3611 227.904 17.0484 228.039 15.1659C228.2 13.1221 228.362 11.0245 229.088 9.11512C229.787 7.15198 231.105 5.35019 233.175 4.57031Z" fill="#FF7B5C"/>
</svg>
